G04 #@! TF.GenerationSoftware,KiCad,Pcbnew,(5.1.4)-1*
G04 #@! TF.CreationDate,2020-12-20T11:18:11+01:00*
G04 #@! TF.ProjectId,JrBoard,4a72426f-6172-4642-9e6b-696361645f70,rev?*
G04 #@! TF.SameCoordinates,Original*
G04 #@! TF.FileFunction,Profile,NP*
%FSLAX46Y46*%
G04 Gerber Fmt 4.6, Leading zero omitted, Abs format (unit mm)*
G04 Created by KiCad (PCBNEW (5.1.4)-1) date 2020-12-20 11:18:11*
%MOMM*%
%LPD*%
G04 APERTURE LIST*
%ADD10C,0.050000*%
G04 APERTURE END LIST*
D10*
X243170000Y-116265000D02*
X239995000Y-116265000D01*
X243170000Y-113725000D02*
G75*
G02X243170000Y-116265000I0J-1270000D01*
G01*
X243170000Y-113725000D02*
X239995000Y-113725000D01*
X239995000Y-116265000D02*
G75*
G02X239995000Y-113725000I0J1270000D01*
G01*
X215865000Y-113725000D02*
X212690000Y-113725000D01*
X212690000Y-116265000D02*
G75*
G02X212690000Y-113725000I0J1270000D01*
G01*
X215865000Y-116265000D02*
X212690000Y-116265000D01*
X215865000Y-113725000D02*
G75*
G02X215865000Y-116265000I0J-1270000D01*
G01*
X231740000Y-78800000D02*
X228565000Y-78800000D01*
X228565000Y-81340000D02*
G75*
G02X228565000Y-78800000I0J1270000D01*
G01*
X231740000Y-81340000D02*
X228565000Y-81340000D01*
X231740000Y-78800000D02*
G75*
G02X231740000Y-81340000I0J-1270000D01*
G01*
X206975000Y-78800000D02*
G75*
G02X206975000Y-81340000I0J-1270000D01*
G01*
X203800000Y-81340000D02*
G75*
G02X203800000Y-78800000I0J1270000D01*
G01*
X206975000Y-81340000D02*
X203800000Y-81340000D01*
X206975000Y-78800000D02*
X203800000Y-78800000D01*
X196180000Y-55940000D02*
G75*
G02X196180000Y-58480000I0J-1270000D01*
G01*
X193005000Y-58480000D02*
G75*
G02X193005000Y-55940000I0J1270000D01*
G01*
X196180000Y-58480000D02*
X193005000Y-58480000D01*
X196180000Y-55940000D02*
X193005000Y-55940000D01*
X151095000Y-55940000D02*
X147920000Y-55940000D01*
X151095000Y-58480000D02*
X147920000Y-58480000D01*
X151095000Y-55940000D02*
G75*
G02X151095000Y-58480000I0J-1270000D01*
G01*
X147920000Y-58480000D02*
G75*
G02X147920000Y-55940000I0J1270000D01*
G01*
X111090000Y-58480000D02*
X107915000Y-58480000D01*
X111090000Y-55940000D02*
G75*
G02X111090000Y-58480000I0J-1270000D01*
G01*
X107915000Y-58480000D02*
G75*
G02X107915000Y-55940000I0J1270000D01*
G01*
X111090000Y-55940000D02*
X107915000Y-55940000D01*
X229200000Y-153730000D02*
G75*
G02X229200000Y-151190000I0J1270000D01*
G01*
X232375000Y-153730000D02*
X229200000Y-153730000D01*
X232375000Y-151190000D02*
G75*
G02X232375000Y-153730000I0J-1270000D01*
G01*
X232375000Y-151190000D02*
X229200000Y-151190000D01*
X150460000Y-153730000D02*
X147285000Y-153730000D01*
X150460000Y-151190000D02*
G75*
G02X150460000Y-153730000I0J-1270000D01*
G01*
X147285000Y-153730000D02*
G75*
G02X147285000Y-151190000I0J1270000D01*
G01*
X150460000Y-151190000D02*
X147285000Y-151190000D01*
X99025000Y-151190000D02*
G75*
G02X99025000Y-153730000I0J-1270000D01*
G01*
X95850000Y-153730000D02*
G75*
G02X95850000Y-151190000I0J1270000D01*
G01*
X99025000Y-151190000D02*
X95850000Y-151190000D01*
X99025000Y-153730000D02*
X95850000Y-153730000D01*
X198720000Y-97215000D02*
G75*
G02X196180000Y-97215000I-1270000J0D01*
G01*
X196180000Y-94040000D02*
G75*
G02X198720000Y-94040000I1270000J0D01*
G01*
X198720000Y-97215000D02*
X198720000Y-94040000D01*
X196180000Y-97215000D02*
X196180000Y-94040000D01*
X260950000Y-96580000D02*
X260950000Y-93405000D01*
X263490000Y-96580000D02*
G75*
G02X260950000Y-96580000I-1270000J0D01*
G01*
X260950000Y-93405000D02*
G75*
G02X263490000Y-93405000I1270000J0D01*
G01*
X263490000Y-96580000D02*
X263490000Y-93405000D01*
X263490000Y-135315000D02*
G75*
G02X260950000Y-135315000I-1270000J0D01*
G01*
X260950000Y-132140000D02*
G75*
G02X263490000Y-132140000I1270000J0D01*
G01*
X263490000Y-135315000D02*
X263490000Y-132140000D01*
X260950000Y-135315000D02*
X260950000Y-132140000D01*
X72990000Y-135315000D02*
X72990000Y-132140000D01*
X75530000Y-135315000D02*
G75*
G02X72990000Y-135315000I-1270000J0D01*
G01*
X72990000Y-132140000D02*
G75*
G02X75530000Y-132140000I1270000J0D01*
G01*
X75530000Y-135315000D02*
X75530000Y-132140000D01*
X75530000Y-97215000D02*
G75*
G02X72990000Y-97215000I-1270000J0D01*
G01*
X72990000Y-94040000D02*
G75*
G02X75530000Y-94040000I1270000J0D01*
G01*
X75530000Y-97215000D02*
X75530000Y-94040000D01*
X72990000Y-97215000D02*
X72990000Y-94040000D01*
X173955000Y-78165000D02*
X173955000Y-69910000D01*
X177765000Y-78165000D02*
X173955000Y-78165000D01*
X177765000Y-69910000D02*
X177765000Y-78165000D01*
X173955000Y-69910000D02*
X177765000Y-69910000D01*
X121885000Y-79435000D02*
X121885000Y-68005000D01*
X125695000Y-79435000D02*
X121885000Y-79435000D01*
X125695000Y-68005000D02*
X125695000Y-79435000D01*
X121885000Y-68005000D02*
X125695000Y-68005000D01*
X273000000Y-132000000D02*
X273000000Y-142500000D01*
X270000000Y-124000000D02*
X273000000Y-124000000D01*
X270000000Y-132000000D02*
X270000000Y-124000000D01*
X273000000Y-132000000D02*
X270000000Y-132000000D01*
X200000000Y-23000000D02*
X256000000Y-23000000D01*
X193000000Y-26000000D02*
X193000000Y-23000000D01*
X200000000Y-26000000D02*
X193000000Y-26000000D01*
X200000000Y-23000000D02*
X200000000Y-26000000D01*
X99000000Y-23000000D02*
X43000000Y-23000000D01*
X106000000Y-26000000D02*
X106000000Y-23000000D01*
X99000000Y-26000000D02*
X106000000Y-26000000D01*
X99000000Y-23000000D02*
X99000000Y-26000000D01*
X26000000Y-132000000D02*
X26000000Y-142500000D01*
X29000000Y-124000000D02*
X26000000Y-124000000D01*
X29000000Y-132000000D02*
X29000000Y-124000000D01*
X26000000Y-132000000D02*
X29000000Y-132000000D01*
X27666666Y-155000000D02*
G75*
G03X27666666Y-155000000I-1666666J0D01*
G01*
X23500000Y-155000000D02*
X28500000Y-155000000D01*
X26000000Y-152500000D02*
X26000000Y-157500000D01*
X273000000Y-40000000D02*
X256000000Y-23000000D01*
X273000000Y-142500000D02*
X260500000Y-155000000D01*
X26000000Y-142500000D02*
X38500000Y-155000000D01*
X26000000Y-40000000D02*
X43000000Y-23000000D01*
X260500000Y-155000000D02*
X38500000Y-155000000D01*
X273000000Y-40000000D02*
X273000000Y-124000000D01*
X106000000Y-23000000D02*
X193000000Y-23000000D01*
X26000000Y-40000000D02*
X26000000Y-124000000D01*
M02*
