G04 #@! TF.GenerationSoftware,KiCad,Pcbnew,(5.1.4)-1*
G04 #@! TF.CreationDate,2020-12-20T11:18:10+01:00*
G04 #@! TF.ProjectId,JrBoard,4a72426f-6172-4642-9e6b-696361645f70,rev?*
G04 #@! TF.SameCoordinates,Original*
G04 #@! TF.FileFunction,Copper,L2,Bot*
G04 #@! TF.FilePolarity,Positive*
%FSLAX46Y46*%
G04 Gerber Fmt 4.6, Leading zero omitted, Abs format (unit mm)*
G04 Created by KiCad (PCBNEW (5.1.4)-1) date 2020-12-20 11:18:10*
%MOMM*%
%LPD*%
G04 APERTURE LIST*
%ADD10C,2.000000*%
%ADD11C,3.800000*%
%ADD12C,1.500000*%
%ADD13O,1.905000X2.000000*%
%ADD14R,1.905000X2.000000*%
%ADD15C,2.540000*%
%ADD16C,4.000000*%
%ADD17C,5.000000*%
%ADD18C,2.500000*%
%ADD19C,4.200000*%
%ADD20C,3.000000*%
%ADD21C,1.800000*%
%ADD22R,1.800000X1.800000*%
%ADD23O,1.600000X1.600000*%
%ADD24R,1.600000X1.600000*%
%ADD25C,1.600000*%
%ADD26C,0.635000*%
%ADD27C,1.270000*%
%ADD28C,0.250000*%
%ADD29C,3.048000*%
%ADD30C,0.254000*%
G04 APERTURE END LIST*
D10*
X135855000Y-71815000D03*
X138395000Y-71815000D03*
X140935000Y-71815000D03*
X143475000Y-71815000D03*
X146015000Y-71815000D03*
X148555000Y-71815000D03*
X151095000Y-71815000D03*
X153635000Y-71815000D03*
X156175000Y-71815000D03*
X158715000Y-71815000D03*
X161255000Y-71815000D03*
X163795000Y-71815000D03*
X163795000Y-76895000D03*
X161255000Y-76895000D03*
X158715000Y-76895000D03*
X156175000Y-76895000D03*
X153635000Y-76895000D03*
X151095000Y-76895000D03*
X148555000Y-76895000D03*
X146015000Y-76895000D03*
X143475000Y-76895000D03*
X140935000Y-76895000D03*
X138395000Y-76895000D03*
X135855000Y-76895000D03*
X257140000Y-147126000D03*
X81245000Y-132140000D03*
X229835000Y-122615000D03*
X218405000Y-123250000D03*
X105375000Y-89595000D03*
X120615000Y-88325000D03*
X250155000Y-43240000D03*
X211420000Y-37525000D03*
X213960000Y-37525000D03*
X216500000Y-37525000D03*
X219040000Y-37525000D03*
X210150000Y-40065000D03*
X212690000Y-40065000D03*
X215230000Y-40065000D03*
X217770000Y-40065000D03*
X220310000Y-40065000D03*
D11*
X50130000Y-77485000D03*
X50130000Y-68685000D03*
X50130000Y-73085000D03*
X81245000Y-77485000D03*
X81245000Y-68685000D03*
X81245000Y-73085000D03*
D10*
X215865000Y-135950000D03*
X215865000Y-148650000D03*
X216500000Y-108010000D03*
X216500000Y-97850000D03*
X213325000Y-97850000D03*
X213325000Y-108010000D03*
X231105000Y-95310000D03*
X241265000Y-95310000D03*
X241265000Y-90230000D03*
X231105000Y-90230000D03*
X241265000Y-87055000D03*
X231105000Y-87055000D03*
X238090000Y-84515000D03*
X227930000Y-84515000D03*
X210150000Y-97850000D03*
X210150000Y-108010000D03*
X80610000Y-126425000D03*
X83150000Y-128965000D03*
X83150000Y-123885000D03*
X245075000Y-130870000D03*
X242535000Y-128330000D03*
X242535000Y-133410000D03*
X224755000Y-86420000D03*
X222215000Y-88960000D03*
X227295000Y-88960000D03*
X88230000Y-101025000D03*
X90770000Y-98485000D03*
X85690000Y-98485000D03*
X88230000Y-94675000D03*
X90770000Y-92135000D03*
X85690000Y-92135000D03*
D12*
X102655000Y-120710000D03*
X97755000Y-120710000D03*
X98390000Y-98305000D03*
X98390000Y-93405000D03*
D10*
X193640000Y-109915000D03*
X180940000Y-109915000D03*
X121250000Y-148650000D03*
X121250000Y-135950000D03*
X177765000Y-109915000D03*
X165065000Y-109915000D03*
D13*
X49495000Y-123885000D03*
X52035000Y-123885000D03*
D14*
X54575000Y-123885000D03*
D15*
X241265000Y-101660000D03*
X236185000Y-101660000D03*
X233645000Y-104835000D03*
X236185000Y-108010000D03*
X241265000Y-108010000D03*
D11*
X187445000Y-28000000D03*
X187445000Y-30540000D03*
X178245000Y-28000000D03*
X178245000Y-30540000D03*
X182845000Y-30540000D03*
X121405000Y-28000000D03*
X121405000Y-30540000D03*
X112205000Y-28000000D03*
X112205000Y-30540000D03*
X116805000Y-30540000D03*
X55365000Y-28000000D03*
X55365000Y-30540000D03*
X46165000Y-28000000D03*
X46165000Y-30540000D03*
X50765000Y-30540000D03*
D10*
X48225000Y-114360000D03*
X48225000Y-101660000D03*
X234280000Y-148650000D03*
X234280000Y-135950000D03*
X227295000Y-135950000D03*
X227295000Y-148650000D03*
X220945000Y-132775000D03*
X220945000Y-120075000D03*
X222215000Y-135950000D03*
X222215000Y-148650000D03*
X212690000Y-135950000D03*
X212690000Y-148650000D03*
X219040000Y-135950000D03*
X219040000Y-148650000D03*
X209515000Y-135950000D03*
X209515000Y-148650000D03*
X239360000Y-120075000D03*
X239360000Y-132775000D03*
X84420000Y-135950000D03*
X84420000Y-148650000D03*
X86325000Y-132775000D03*
X86325000Y-120075000D03*
X81245000Y-148650000D03*
X81245000Y-135950000D03*
X87595000Y-148650000D03*
X87595000Y-135950000D03*
X243170000Y-135950000D03*
X243170000Y-148650000D03*
X233010000Y-132775000D03*
X233010000Y-120075000D03*
X227295000Y-132775000D03*
X227295000Y-120075000D03*
X118075000Y-132140000D03*
X118075000Y-119440000D03*
X114900000Y-119440000D03*
X114900000Y-132140000D03*
X111725000Y-119440000D03*
X111725000Y-132140000D03*
X89500000Y-120075000D03*
X89500000Y-132775000D03*
X111725000Y-148650000D03*
X111725000Y-135950000D03*
X187925000Y-128965000D03*
X187925000Y-116265000D03*
X184750000Y-128965000D03*
X184750000Y-116265000D03*
X181575000Y-126425000D03*
X181575000Y-113725000D03*
X189195000Y-148650000D03*
X189195000Y-135950000D03*
X175225000Y-126425000D03*
X175225000Y-113725000D03*
X172050000Y-126425000D03*
X172050000Y-113725000D03*
X168875000Y-126425000D03*
X168875000Y-113725000D03*
X165700000Y-113725000D03*
X165700000Y-126425000D03*
X125695000Y-135950000D03*
X125695000Y-148650000D03*
X102835000Y-116900000D03*
X102835000Y-104200000D03*
X93310000Y-116900000D03*
X93310000Y-104200000D03*
X86325000Y-104200000D03*
X86325000Y-116900000D03*
X83150000Y-104200000D03*
X83150000Y-116900000D03*
X55845000Y-101660000D03*
X55845000Y-114360000D03*
X257775000Y-101660000D03*
X245075000Y-101660000D03*
X193005000Y-106105000D03*
X193005000Y-93405000D03*
X102835000Y-101025000D03*
X102835000Y-88325000D03*
X93945000Y-101025000D03*
X93945000Y-88325000D03*
X83150000Y-101025000D03*
X83150000Y-88325000D03*
D16*
X49114000Y-97342000D03*
X49114000Y-88198000D03*
D17*
X60290000Y-99882000D03*
X60290000Y-85658000D03*
D18*
X54194000Y-95310000D03*
X54194000Y-90230000D03*
X64354000Y-92770000D03*
D10*
X244440000Y-52765000D03*
X244440000Y-40065000D03*
X241265000Y-40065000D03*
X241265000Y-52765000D03*
X202530000Y-52765000D03*
X202530000Y-40065000D03*
X194275000Y-52765000D03*
X194275000Y-40065000D03*
X113630000Y-40065000D03*
X113630000Y-52765000D03*
X110455000Y-52765000D03*
X110455000Y-40065000D03*
X71720000Y-52765000D03*
X71720000Y-40065000D03*
X62830000Y-52765000D03*
X62830000Y-40065000D03*
X187925000Y-88325000D03*
X187925000Y-101025000D03*
X99025000Y-139760000D03*
X99025000Y-124520000D03*
X247234000Y-127441000D03*
X250790000Y-127441000D03*
X254346000Y-127441000D03*
X254346000Y-120329000D03*
X247234000Y-120329000D03*
D16*
X255870000Y-123885000D03*
X245710000Y-123885000D03*
D10*
X66005000Y-104200000D03*
X66005000Y-116900000D03*
X203165000Y-103565000D03*
X203165000Y-93405000D03*
X101565000Y-67370000D03*
X101565000Y-80070000D03*
X97120000Y-67370000D03*
X97120000Y-80070000D03*
X250155000Y-62290000D03*
X250155000Y-47050000D03*
X186020000Y-52765000D03*
X186020000Y-40065000D03*
X53940000Y-52765000D03*
X53940000Y-40065000D03*
X255870000Y-61020000D03*
X255870000Y-63560000D03*
X255870000Y-66100000D03*
X255870000Y-68640000D03*
X255870000Y-71180000D03*
X255870000Y-73720000D03*
D17*
X248885000Y-26095000D03*
D19*
X253965000Y-31175000D03*
X243805000Y-31175000D03*
D20*
X248885000Y-31175000D03*
D11*
X149825000Y-24840000D03*
X149825000Y-36240000D03*
X149825000Y-30540000D03*
D10*
X79975000Y-37525000D03*
X82515000Y-37525000D03*
X85055000Y-37525000D03*
X87595000Y-37525000D03*
X78705000Y-40065000D03*
X81245000Y-40065000D03*
X83785000Y-40065000D03*
X86325000Y-40065000D03*
X88865000Y-40065000D03*
D21*
X52035000Y-116265000D03*
D22*
X52035000Y-118805000D03*
D10*
X108550000Y-119440000D03*
X108550000Y-132140000D03*
X62195000Y-116900000D03*
X62195000Y-104200000D03*
X59020000Y-104200000D03*
X59020000Y-116900000D03*
X105375000Y-137220000D03*
X105375000Y-124520000D03*
X253965000Y-130870000D03*
X253965000Y-148650000D03*
X247615000Y-148650000D03*
X247615000Y-130870000D03*
X238090000Y-135950000D03*
X238090000Y-148650000D03*
X230470000Y-148650000D03*
X230470000Y-135950000D03*
X224120000Y-132775000D03*
X224120000Y-120075000D03*
X236185000Y-132775000D03*
X236185000Y-120075000D03*
X93945000Y-142300000D03*
X93945000Y-124520000D03*
X102200000Y-148650000D03*
X102200000Y-135950000D03*
X108550000Y-148650000D03*
X108550000Y-135950000D03*
X111725000Y-103565000D03*
X111725000Y-116265000D03*
X108550000Y-103565000D03*
X108550000Y-116265000D03*
X98390000Y-116900000D03*
X98390000Y-104200000D03*
X89500000Y-116900000D03*
X89500000Y-104200000D03*
X69815000Y-116900000D03*
X69815000Y-104200000D03*
X43780000Y-105700000D03*
X43780000Y-102700000D03*
X39335000Y-118170000D03*
X39335000Y-105470000D03*
X257775000Y-104835000D03*
X245075000Y-104835000D03*
X257775000Y-97215000D03*
X245075000Y-97215000D03*
X257775000Y-94040000D03*
X245075000Y-94040000D03*
X207610000Y-84515000D03*
X220310000Y-84515000D03*
X210150000Y-84515000D03*
X217770000Y-84515000D03*
X216500000Y-95310000D03*
X216500000Y-88960000D03*
X210150000Y-95310000D03*
X210150000Y-88960000D03*
X189830000Y-107605000D03*
X189830000Y-104605000D03*
X118075000Y-104200000D03*
X118075000Y-91500000D03*
X109590000Y-100390000D03*
X112590000Y-100390000D03*
D20*
X35525000Y-54670000D03*
X35525000Y-102930000D03*
D10*
X226660000Y-61655000D03*
X226660000Y-74355000D03*
X234280000Y-61655000D03*
X234280000Y-74355000D03*
X93310000Y-67370000D03*
X93310000Y-80070000D03*
X62830000Y-67370000D03*
X62830000Y-80070000D03*
X46955000Y-48320000D03*
X46955000Y-61020000D03*
X257775000Y-48725000D03*
X257775000Y-51725000D03*
X238090000Y-52765000D03*
X238090000Y-40065000D03*
X234915000Y-52765000D03*
X234915000Y-40065000D03*
X231740000Y-52765000D03*
X231740000Y-40065000D03*
X228565000Y-52765000D03*
X228565000Y-40065000D03*
X225390000Y-52765000D03*
X225390000Y-40065000D03*
X198720000Y-50225000D03*
X198720000Y-42605000D03*
X190465000Y-50225000D03*
X190465000Y-42605000D03*
X182210000Y-40065000D03*
X182210000Y-52765000D03*
X107280000Y-52765000D03*
X107280000Y-40065000D03*
X104105000Y-52765000D03*
X104105000Y-40065000D03*
X100930000Y-52765000D03*
X100930000Y-40065000D03*
X97755000Y-52765000D03*
X97755000Y-40065000D03*
X94580000Y-52765000D03*
X94580000Y-40065000D03*
X67275000Y-42605000D03*
X67275000Y-50225000D03*
X59020000Y-42605000D03*
X59020000Y-50225000D03*
X50130000Y-52765000D03*
X50130000Y-40065000D03*
X167605000Y-26730000D03*
X167605000Y-39430000D03*
X140935000Y-26730000D03*
X140935000Y-39430000D03*
X132045000Y-26730000D03*
X132045000Y-39430000D03*
D23*
X219675000Y-108010000D03*
X227295000Y-92770000D03*
X219675000Y-105470000D03*
X227295000Y-95310000D03*
X219675000Y-102930000D03*
X227295000Y-97850000D03*
X219675000Y-100390000D03*
X227295000Y-100390000D03*
X219675000Y-97850000D03*
X227295000Y-102930000D03*
X219675000Y-95310000D03*
X227295000Y-105470000D03*
X219675000Y-92770000D03*
D24*
X227295000Y-108010000D03*
D23*
X214595000Y-130870000D03*
X196815000Y-123250000D03*
X212055000Y-130870000D03*
X199355000Y-123250000D03*
X209515000Y-130870000D03*
X201895000Y-123250000D03*
X206975000Y-130870000D03*
X204435000Y-123250000D03*
X204435000Y-130870000D03*
X206975000Y-123250000D03*
X201895000Y-130870000D03*
X209515000Y-123250000D03*
X199355000Y-130870000D03*
X212055000Y-123250000D03*
X196815000Y-130870000D03*
D24*
X214595000Y-123250000D03*
D23*
X182845000Y-148015000D03*
X134585000Y-132775000D03*
X180305000Y-148015000D03*
X137125000Y-132775000D03*
X177765000Y-148015000D03*
X139665000Y-132775000D03*
X175225000Y-148015000D03*
X142205000Y-132775000D03*
X172685000Y-148015000D03*
X144745000Y-132775000D03*
X170145000Y-148015000D03*
X147285000Y-132775000D03*
X167605000Y-148015000D03*
X149825000Y-132775000D03*
X165065000Y-148015000D03*
X152365000Y-132775000D03*
X162525000Y-148015000D03*
X154905000Y-132775000D03*
X159985000Y-148015000D03*
X157445000Y-132775000D03*
X157445000Y-148015000D03*
X159985000Y-132775000D03*
X154905000Y-148015000D03*
X162525000Y-132775000D03*
X152365000Y-148015000D03*
X165065000Y-132775000D03*
X149825000Y-148015000D03*
X167605000Y-132775000D03*
X147285000Y-148015000D03*
X170145000Y-132775000D03*
X144745000Y-148015000D03*
X172685000Y-132775000D03*
X142205000Y-148015000D03*
X175225000Y-132775000D03*
X139665000Y-148015000D03*
X177765000Y-132775000D03*
X137125000Y-148015000D03*
X180305000Y-132775000D03*
X134585000Y-148015000D03*
D24*
X182845000Y-132775000D03*
D23*
X157445000Y-126425000D03*
X124425000Y-111185000D03*
X154905000Y-126425000D03*
X126965000Y-111185000D03*
X152365000Y-126425000D03*
X129505000Y-111185000D03*
X149825000Y-126425000D03*
X132045000Y-111185000D03*
X147285000Y-126425000D03*
X134585000Y-111185000D03*
X144745000Y-126425000D03*
X137125000Y-111185000D03*
X142205000Y-126425000D03*
X139665000Y-111185000D03*
X139665000Y-126425000D03*
X142205000Y-111185000D03*
X137125000Y-126425000D03*
X144745000Y-111185000D03*
X134585000Y-126425000D03*
X147285000Y-111185000D03*
X132045000Y-126425000D03*
X149825000Y-111185000D03*
X129505000Y-126425000D03*
X152365000Y-111185000D03*
X126965000Y-126425000D03*
X154905000Y-111185000D03*
X124425000Y-126425000D03*
D24*
X157445000Y-111185000D03*
D23*
X132045000Y-89595000D03*
X180305000Y-104835000D03*
X134585000Y-89595000D03*
X177765000Y-104835000D03*
X137125000Y-89595000D03*
X175225000Y-104835000D03*
X139665000Y-89595000D03*
X172685000Y-104835000D03*
X142205000Y-89595000D03*
X170145000Y-104835000D03*
X144745000Y-89595000D03*
X167605000Y-104835000D03*
X147285000Y-89595000D03*
X165065000Y-104835000D03*
X149825000Y-89595000D03*
X162525000Y-104835000D03*
X152365000Y-89595000D03*
X159985000Y-104835000D03*
X154905000Y-89595000D03*
X157445000Y-104835000D03*
X157445000Y-89595000D03*
X154905000Y-104835000D03*
X159985000Y-89595000D03*
X152365000Y-104835000D03*
X162525000Y-89595000D03*
X149825000Y-104835000D03*
X165065000Y-89595000D03*
X147285000Y-104835000D03*
X167605000Y-89595000D03*
X144745000Y-104835000D03*
X170145000Y-89595000D03*
X142205000Y-104835000D03*
X172685000Y-89595000D03*
X139665000Y-104835000D03*
X175225000Y-89595000D03*
X137125000Y-104835000D03*
X177765000Y-89595000D03*
X134585000Y-104835000D03*
X180305000Y-89595000D03*
D24*
X132045000Y-104835000D03*
D10*
X240630000Y-57210000D03*
X219040000Y-57210000D03*
X199355000Y-57210000D03*
X158715000Y-57210000D03*
X114265000Y-57210000D03*
X74260000Y-90865000D03*
X140935000Y-143570000D03*
X97120000Y-83880000D03*
D25*
X133315000Y-128965000D03*
D10*
X125695000Y-128965000D03*
D25*
X129505000Y-89595000D03*
D10*
X120615000Y-123885000D03*
D25*
X122520000Y-90865000D03*
D10*
X171415000Y-41335000D03*
D25*
X126965000Y-89595000D03*
X140935000Y-117535000D03*
X140935000Y-94040000D03*
D10*
X163795000Y-144205000D03*
X115535000Y-87690000D03*
X113630000Y-90230000D03*
X109185000Y-87690000D03*
D25*
X147285000Y-92770000D03*
D10*
X107280000Y-92770000D03*
D25*
X144745000Y-94675000D03*
X163795000Y-87055000D03*
D10*
X151095000Y-123250000D03*
D25*
X161255000Y-87055000D03*
D10*
X153635000Y-121980000D03*
D25*
X158715000Y-87055000D03*
D10*
X156175000Y-120075000D03*
D25*
X156175000Y-87055000D03*
D10*
X158715000Y-120075000D03*
D25*
X130775000Y-95945000D03*
D10*
X143475000Y-143570000D03*
X184750000Y-77530000D03*
D25*
X167605000Y-107375000D03*
X159985000Y-109915000D03*
D10*
X132045000Y-141665000D03*
X182845000Y-140395000D03*
X187290000Y-67370000D03*
X184750000Y-101025000D03*
X234915000Y-122615000D03*
X104105000Y-142935000D03*
X111725000Y-86420000D03*
X185385000Y-144840000D03*
X231740000Y-145475000D03*
X237455000Y-152460000D03*
X223485000Y-152460000D03*
X74260000Y-82610000D03*
X74260000Y-69910000D03*
X70450000Y-78165000D03*
X70450000Y-88325000D03*
X70450000Y-95945000D03*
X68545000Y-73085000D03*
X68545000Y-68005000D03*
X58385000Y-73085000D03*
X74260000Y-127060000D03*
X74260000Y-113725000D03*
X74260000Y-139125000D03*
X74260000Y-152460000D03*
X41875000Y-146745000D03*
X52670000Y-146745000D03*
X62195000Y-146745000D03*
X67910000Y-146745000D03*
X67910000Y-137220000D03*
X67910000Y-127060000D03*
X62195000Y-131505000D03*
X52670000Y-131505000D03*
X41875000Y-131505000D03*
X43780000Y-120075000D03*
X37430000Y-128965000D03*
X37430000Y-121345000D03*
X67910000Y-111185000D03*
X37430000Y-111185000D03*
X29810000Y-111185000D03*
X32350000Y-116265000D03*
X58385000Y-108645000D03*
X50130000Y-108645000D03*
X31715000Y-90230000D03*
X31715000Y-82610000D03*
X31715000Y-74990000D03*
X31715000Y-67370000D03*
X31715000Y-59750000D03*
X74260000Y-57210000D03*
X92040000Y-152460000D03*
X103470000Y-152460000D03*
X124425000Y-152460000D03*
X142205000Y-152460000D03*
X158715000Y-152460000D03*
X175225000Y-152460000D03*
X200625000Y-152460000D03*
X262220000Y-139760000D03*
X262220000Y-127060000D03*
X262220000Y-100390000D03*
X262220000Y-90230000D03*
X262220000Y-114995000D03*
X104105000Y-57210000D03*
X128235000Y-57210000D03*
X143475000Y-57210000D03*
X168875000Y-57210000D03*
X189195000Y-57210000D03*
X255235000Y-114995000D03*
X246345000Y-114995000D03*
X236820000Y-114995000D03*
X228565000Y-114995000D03*
X219040000Y-114995000D03*
X209515000Y-114995000D03*
X202530000Y-114995000D03*
X200625000Y-80070000D03*
X210150000Y-80070000D03*
X217770000Y-80070000D03*
X225390000Y-80070000D03*
X234915000Y-80070000D03*
X241265000Y-80070000D03*
X197450000Y-90865000D03*
X197450000Y-100390000D03*
X197450000Y-104835000D03*
X197450000Y-86420000D03*
X164430000Y-123250000D03*
X176495000Y-145475000D03*
X128235000Y-148015000D03*
X185385000Y-62925000D03*
X182210000Y-62925000D03*
X177765000Y-52765000D03*
D25*
X166335000Y-87055000D03*
D10*
X185385000Y-132775000D03*
X118075000Y-138490000D03*
X79340000Y-106740000D03*
X79340000Y-113725000D03*
X165700000Y-129600000D03*
X171415000Y-109915000D03*
X168875000Y-139760000D03*
X184750000Y-88325000D03*
X194275000Y-113725000D03*
X118710000Y-38160000D03*
X250155000Y-88960000D03*
D26*
X230717501Y-134432499D02*
X230857499Y-134432499D01*
X230717501Y-134432499D02*
X229741599Y-134432499D01*
X235008401Y-134432499D02*
X230717501Y-134432499D01*
X229741599Y-134432499D02*
X228952499Y-135221599D01*
X235797501Y-135221599D02*
X235008401Y-134432499D01*
X228952499Y-135221599D02*
X228952499Y-136832501D01*
D27*
X62195000Y-104200000D02*
X66005000Y-104200000D01*
X66005000Y-104200000D02*
X69815000Y-104200000D01*
X69815000Y-104200000D02*
X71720000Y-104200000D01*
X71720000Y-104200000D02*
X78070000Y-110550000D01*
X78070000Y-110550000D02*
X83150000Y-110550000D01*
X83150000Y-110550000D02*
X83150000Y-116900000D01*
X139665000Y-144840000D02*
X140935000Y-143570000D01*
X139665000Y-148015000D02*
X139665000Y-144840000D01*
X108550000Y-132140000D02*
X111725000Y-132140000D01*
X111725000Y-132140000D02*
X114900000Y-132140000D01*
X107550001Y-117264999D02*
X108550000Y-116265000D01*
X106714999Y-118100001D02*
X107550001Y-117264999D01*
X106714999Y-120320801D02*
X106714999Y-118100001D01*
X108550000Y-122155802D02*
X106714999Y-120320801D01*
X108550000Y-132140000D02*
X108550000Y-122155802D01*
X120615000Y-132775000D02*
X134585000Y-132775000D01*
X111725000Y-135950000D02*
X117440000Y-135950000D01*
X117440000Y-135950000D02*
X120615000Y-132775000D01*
X108550000Y-116265000D02*
X111725000Y-116265000D01*
X147920000Y-113090000D02*
X149825000Y-111185000D01*
X140935000Y-113090000D02*
X147920000Y-113090000D01*
X111725000Y-116265000D02*
X137760000Y-116265000D01*
X137760000Y-116265000D02*
X140935000Y-113090000D01*
X86325000Y-120075000D02*
X86325000Y-116900000D01*
X86325000Y-116900000D02*
X83150000Y-116900000D01*
X81245000Y-83880000D02*
X97120000Y-83880000D01*
X79340000Y-85785000D02*
X81245000Y-83880000D01*
X79340000Y-104024198D02*
X79340000Y-85785000D01*
X83150000Y-110550000D02*
X83150000Y-107834198D01*
X83150000Y-107834198D02*
X79340000Y-104024198D01*
X119980000Y-93405000D02*
X118075000Y-91500000D01*
X123155000Y-93405000D02*
X119980000Y-93405000D01*
X127600000Y-97850000D02*
X123155000Y-93405000D01*
X175225000Y-97850000D02*
X127600000Y-97850000D01*
X180305000Y-104835000D02*
X180305000Y-102930000D01*
X180305000Y-102930000D02*
X175225000Y-97850000D01*
X97120000Y-83880000D02*
X115535000Y-83880000D01*
X118075000Y-86420000D02*
X118075000Y-91500000D01*
X115535000Y-83880000D02*
X118075000Y-86420000D01*
D26*
X154905000Y-128965000D02*
X133315000Y-128965000D01*
X157445000Y-126425000D02*
X154905000Y-128965000D01*
X133315000Y-128965000D02*
X125695000Y-128965000D01*
X135220000Y-87690000D02*
X137125000Y-89595000D01*
X129505000Y-89595000D02*
X131410000Y-87690000D01*
X131410000Y-87690000D02*
X135220000Y-87690000D01*
D27*
X126965000Y-123885000D02*
X120615000Y-123885000D01*
X129505000Y-126425000D02*
X126965000Y-123885000D01*
D26*
X123319999Y-91664999D02*
X122520000Y-90865000D01*
X137595001Y-91664999D02*
X123319999Y-91664999D01*
X139665000Y-89595000D02*
X137595001Y-91664999D01*
X171415000Y-41335000D02*
X137125000Y-41335000D01*
X135220000Y-39430000D02*
X132045000Y-39430000D01*
X137125000Y-41335000D02*
X135220000Y-39430000D01*
X126965000Y-89595000D02*
X130775000Y-85785000D01*
X138395000Y-85785000D02*
X142205000Y-89595000D01*
X130775000Y-85785000D02*
X138395000Y-85785000D01*
D27*
X184270000Y-33715000D02*
X187445000Y-30540000D01*
X167605000Y-39430000D02*
X173320000Y-33715000D01*
X173320000Y-33715000D02*
X184270000Y-33715000D01*
D28*
X160040001Y-119438999D02*
X158136002Y-117535000D01*
X160040001Y-121289999D02*
X160040001Y-119438999D01*
D26*
X152365000Y-126425000D02*
X155540000Y-123250000D01*
X158080000Y-123250000D02*
X158397500Y-122932500D01*
X155540000Y-123250000D02*
X158080000Y-123250000D01*
D28*
X158397500Y-122932500D02*
X160040001Y-121289999D01*
D26*
X158420902Y-117535000D02*
X156810000Y-117535000D01*
X160232501Y-119346599D02*
X158420902Y-117535000D01*
X160232501Y-121097499D02*
X160232501Y-119346599D01*
X158080000Y-123250000D02*
X160232501Y-121097499D01*
D28*
X158136002Y-117535000D02*
X156810000Y-117535000D01*
D26*
X145380000Y-117535000D02*
X140935000Y-117535000D01*
X156810000Y-117535000D02*
X145380000Y-117535000D01*
X148555000Y-144205000D02*
X144745000Y-148015000D01*
X163795000Y-144205000D02*
X148555000Y-144205000D01*
X144745000Y-90230000D02*
X140935000Y-94040000D01*
X144745000Y-89595000D02*
X144745000Y-90230000D01*
X81245000Y-43240000D02*
X81245000Y-40065000D01*
X84420000Y-46415000D02*
X81245000Y-43240000D01*
X99025000Y-46415000D02*
X84420000Y-46415000D01*
X104105000Y-40065000D02*
X104105000Y-41335000D01*
X104105000Y-41335000D02*
X99025000Y-46415000D01*
X167605000Y-104835000D02*
X167605000Y-103703630D01*
X115535000Y-91500000D02*
X115535000Y-87690000D01*
X163021370Y-99120000D02*
X126965000Y-99120000D01*
X126965000Y-99120000D02*
X122520000Y-94675000D01*
X122520000Y-94675000D02*
X118710000Y-94675000D01*
X167605000Y-103703630D02*
X163021370Y-99120000D01*
X118710000Y-94675000D02*
X115535000Y-91500000D01*
X118075000Y-119440000D02*
X118075000Y-121345000D01*
X118075000Y-121345000D02*
X116805000Y-122615000D01*
X112995000Y-122615000D02*
X111725000Y-121345000D01*
X116805000Y-122615000D02*
X112995000Y-122615000D01*
X111725000Y-121345000D02*
X111725000Y-119440000D01*
X147285000Y-89595000D02*
X141570000Y-83880000D01*
X125060000Y-83880000D02*
X120615000Y-88325000D01*
X141570000Y-83880000D02*
X125060000Y-83880000D01*
X100930000Y-41479213D02*
X97899213Y-44510000D01*
X100930000Y-40065000D02*
X100930000Y-41479213D01*
X83785000Y-41479213D02*
X83785000Y-40065000D01*
X86815787Y-44510000D02*
X83785000Y-41479213D01*
X97899213Y-44510000D02*
X86815787Y-44510000D01*
X165065000Y-103703630D02*
X161751370Y-100390000D01*
X165065000Y-104835000D02*
X165065000Y-103703630D01*
X161751370Y-100390000D02*
X126330000Y-100390000D01*
X126330000Y-100390000D02*
X121885000Y-95945000D01*
X113630000Y-91644213D02*
X113630000Y-90230000D01*
X117930787Y-95945000D02*
X113630000Y-91644213D01*
X121885000Y-95945000D02*
X117930787Y-95945000D01*
X86325000Y-41970000D02*
X86325000Y-40065000D01*
X86960000Y-42605000D02*
X86325000Y-41970000D01*
X97755000Y-40065000D02*
X95215000Y-42605000D01*
X95215000Y-42605000D02*
X86960000Y-42605000D01*
X109185000Y-89595000D02*
X109185000Y-87690000D01*
X116805000Y-97215000D02*
X109185000Y-89595000D01*
X121250000Y-97215000D02*
X116805000Y-97215000D01*
X125695000Y-101660000D02*
X121250000Y-97215000D01*
X162525000Y-104835000D02*
X159350000Y-101660000D01*
X159350000Y-101660000D02*
X125695000Y-101660000D01*
X149190000Y-92770000D02*
X152365000Y-89595000D01*
X147285000Y-92770000D02*
X149190000Y-92770000D01*
D27*
X94580000Y-40065000D02*
X88865000Y-40065000D01*
D26*
X112995000Y-98485000D02*
X107280000Y-92770000D01*
X120615000Y-98485000D02*
X112995000Y-98485000D01*
X125060000Y-102930000D02*
X120615000Y-98485000D01*
X159985000Y-104835000D02*
X158080000Y-102930000D01*
X158080000Y-102930000D02*
X125060000Y-102930000D01*
X149825000Y-94675000D02*
X154905000Y-89595000D01*
X144745000Y-94675000D02*
X149825000Y-94675000D01*
X234915000Y-42605000D02*
X234915000Y-40065000D01*
X227930000Y-49590000D02*
X234915000Y-42605000D01*
X211102500Y-54987500D02*
X216500000Y-49590000D01*
X211102500Y-60702500D02*
X211102500Y-54987500D01*
X205070000Y-66735000D02*
X211102500Y-60702500D01*
X198720000Y-66735000D02*
X205070000Y-66735000D01*
X163795000Y-87055000D02*
X163795000Y-85785000D01*
X163795000Y-85785000D02*
X164430000Y-85150000D01*
X216500000Y-49590000D02*
X227930000Y-49590000D01*
X164430000Y-85150000D02*
X180305000Y-85150000D01*
X180305000Y-85150000D02*
X182845000Y-82610000D01*
X190465000Y-74990000D02*
X198720000Y-66735000D01*
X182845000Y-82610000D02*
X187925000Y-82610000D01*
X190465000Y-80070000D02*
X190465000Y-74990000D01*
X187925000Y-82610000D02*
X190465000Y-80070000D01*
D28*
X142205000Y-124520000D02*
X142205000Y-126425000D01*
X151095000Y-123250000D02*
X143475000Y-123250000D01*
X143475000Y-123250000D02*
X142205000Y-124520000D01*
X231740000Y-40065000D02*
X231740000Y-43875000D01*
X227930000Y-47685000D02*
X216500000Y-47685000D01*
X231740000Y-43875000D02*
X227930000Y-47685000D01*
D26*
X231740000Y-40065000D02*
X231740000Y-43240000D01*
X231740000Y-43240000D02*
X227295000Y-47685000D01*
X227295000Y-47685000D02*
X216500000Y-47685000D01*
X209515000Y-54670000D02*
X216500000Y-47685000D01*
X189195000Y-74355000D02*
X198085000Y-65465000D01*
X198085000Y-65465000D02*
X204435000Y-65465000D01*
X189195000Y-79435000D02*
X189195000Y-74355000D01*
X161255000Y-87055000D02*
X161255000Y-85150000D01*
X161255000Y-85150000D02*
X162525000Y-83880000D01*
X179670000Y-83880000D02*
X182210000Y-81340000D01*
X209515000Y-60385000D02*
X209515000Y-54670000D01*
X182210000Y-81340000D02*
X187290000Y-81340000D01*
X204435000Y-65465000D02*
X209515000Y-60385000D01*
X162525000Y-83880000D02*
X179670000Y-83880000D01*
X187290000Y-81340000D02*
X189195000Y-79435000D01*
D28*
X151731001Y-121924999D02*
X141625001Y-121924999D01*
X153635000Y-121980000D02*
X151786002Y-121980000D01*
X151786002Y-121980000D02*
X151731001Y-121924999D01*
X139665000Y-123885000D02*
X139665000Y-126425000D01*
X141625001Y-121924999D02*
X139665000Y-123885000D01*
D26*
X214595000Y-46415000D02*
X226660000Y-46415000D01*
X208245000Y-52765000D02*
X214595000Y-46415000D01*
X208245000Y-59750000D02*
X208245000Y-52765000D01*
X204435000Y-63560000D02*
X208245000Y-59750000D01*
X187925000Y-73085000D02*
X197450000Y-63560000D01*
X197450000Y-63560000D02*
X204435000Y-63560000D01*
X158715000Y-87055000D02*
X158715000Y-84515000D01*
X226660000Y-46415000D02*
X228565000Y-44510000D01*
X158715000Y-84515000D02*
X160620000Y-82610000D01*
X160620000Y-82610000D02*
X179035000Y-82610000D01*
X187925000Y-78800000D02*
X187925000Y-73085000D01*
X179035000Y-82610000D02*
X181575000Y-80070000D01*
X228565000Y-44510000D02*
X228565000Y-40065000D01*
X181575000Y-80070000D02*
X186655000Y-80070000D01*
X186655000Y-80070000D02*
X187925000Y-78800000D01*
D28*
X156175000Y-120075000D02*
X140300000Y-120075000D01*
X137125000Y-123250000D02*
X137125000Y-126425000D01*
X140300000Y-120075000D02*
X137125000Y-123250000D01*
D27*
X225390000Y-40065000D02*
X220310000Y-40065000D01*
D28*
X185386001Y-78855001D02*
X182900001Y-78855001D01*
X186075001Y-78166001D02*
X185386001Y-78855001D01*
D26*
X185478401Y-79047501D02*
X180692499Y-79047501D01*
X186655000Y-77870902D02*
X185478401Y-79047501D01*
X186655000Y-72450000D02*
X186655000Y-77870902D01*
X196815000Y-62290000D02*
X186655000Y-72450000D01*
X203800000Y-62290000D02*
X196815000Y-62290000D01*
X220310000Y-42605000D02*
X217770000Y-45145000D01*
X180692499Y-79047501D02*
X178400000Y-81340000D01*
X220310000Y-40065000D02*
X220310000Y-42605000D01*
X217770000Y-45145000D02*
X213325000Y-45145000D01*
X213325000Y-45145000D02*
X206340000Y-52130000D01*
X206340000Y-52130000D02*
X206340000Y-59750000D01*
X178400000Y-81340000D02*
X159350000Y-81340000D01*
X206340000Y-59750000D02*
X203800000Y-62290000D01*
X156175000Y-84515000D02*
X156175000Y-87055000D01*
X159350000Y-81340000D02*
X156175000Y-84515000D01*
D28*
X157389999Y-118749999D02*
X139720001Y-118749999D01*
X158715000Y-120075000D02*
X157389999Y-118749999D01*
X134585000Y-123885000D02*
X134585000Y-126425000D01*
X139720001Y-118749999D02*
X134585000Y-123885000D01*
X167605000Y-146883630D02*
X167605000Y-148015000D01*
X167605000Y-146053998D02*
X167605000Y-146883630D01*
X164121003Y-142570001D02*
X167605000Y-146053998D01*
X144474999Y-142570001D02*
X164121003Y-142570001D01*
D26*
X164700001Y-142570001D02*
X144474999Y-142570001D01*
X167605000Y-148015000D02*
X167605000Y-145475000D01*
X167605000Y-145475000D02*
X164700001Y-142570001D01*
X144474999Y-142570001D02*
X143475000Y-143570000D01*
D28*
X161255000Y-95945000D02*
X167605000Y-89595000D01*
X130775000Y-95945000D02*
X161255000Y-95945000D01*
D26*
X197450000Y-74355000D02*
X226660000Y-74355000D01*
X194275000Y-77530000D02*
X197450000Y-74355000D01*
X189830000Y-86420000D02*
X194275000Y-81975000D01*
X194275000Y-81975000D02*
X194275000Y-77530000D01*
X172685000Y-89595000D02*
X172685000Y-91500000D01*
X172685000Y-91500000D02*
X174590000Y-93405000D01*
X187444100Y-86420000D02*
X189830000Y-86420000D01*
X174590000Y-93405000D02*
X183480000Y-93405000D01*
X183480000Y-93405000D02*
X186267501Y-90617499D01*
X186267501Y-90617499D02*
X186267501Y-87596599D01*
X186267501Y-87596599D02*
X187444100Y-86420000D01*
X197062501Y-72837499D02*
X232762499Y-72837499D01*
X232762499Y-72837499D02*
X234280000Y-74355000D01*
X193005000Y-76895000D02*
X197062501Y-72837499D01*
X189195000Y-85150000D02*
X193005000Y-81340000D01*
X184750000Y-85150000D02*
X189195000Y-85150000D01*
X175225000Y-89595000D02*
X175225000Y-91500000D01*
X175225000Y-91500000D02*
X175860000Y-92135000D01*
X175860000Y-92135000D02*
X181575000Y-92135000D01*
X181575000Y-92135000D02*
X182845000Y-90865000D01*
X193005000Y-81340000D02*
X193005000Y-76895000D01*
X182845000Y-90865000D02*
X182845000Y-87055000D01*
X182845000Y-87055000D02*
X184750000Y-85150000D01*
D27*
X90725000Y-77485000D02*
X93310000Y-80070000D01*
X81245000Y-77485000D02*
X90725000Y-77485000D01*
D26*
X180305000Y-77530000D02*
X184750000Y-77530000D01*
X177765000Y-80070000D02*
X180305000Y-77530000D01*
X129505000Y-80070000D02*
X177765000Y-80070000D01*
X127600000Y-81975000D02*
X129505000Y-80070000D01*
X93310000Y-80070000D02*
X95215000Y-81975000D01*
X95215000Y-81975000D02*
X127600000Y-81975000D01*
D27*
X52035000Y-123885000D02*
X52035000Y-118805000D01*
X52035000Y-118805000D02*
X45685000Y-118805000D01*
X43780000Y-105700000D02*
X43780000Y-108010000D01*
X50130000Y-108645000D02*
X45685000Y-108645000D01*
D26*
X228952499Y-136832501D02*
X228952499Y-138242499D01*
X235797501Y-135221599D02*
X235797501Y-137607499D01*
X235797501Y-137607499D02*
X234915000Y-138490000D01*
D27*
X130775000Y-142935000D02*
X132045000Y-141665000D01*
X104105000Y-142935000D02*
X130775000Y-142935000D01*
X132045000Y-141665000D02*
X136490000Y-137220000D01*
X136490000Y-137220000D02*
X170145000Y-137220000D01*
D28*
X234859999Y-120711001D02*
X234859999Y-119384999D01*
X234915000Y-122615000D02*
X234915000Y-120766002D01*
X234915000Y-120766002D02*
X234859999Y-120711001D01*
X234859999Y-119384999D02*
X234280000Y-118805000D01*
X234280000Y-118805000D02*
X234280000Y-116900000D01*
X234915000Y-122615000D02*
X232375000Y-125155000D01*
X232375000Y-125155000D02*
X228565000Y-125155000D01*
X228565000Y-125155000D02*
X227930000Y-124520000D01*
X227930000Y-124520000D02*
X227930000Y-121980000D01*
X229564999Y-115994999D02*
X228565000Y-114995000D01*
X230470000Y-116900000D02*
X229564999Y-115994999D01*
X230470000Y-119440000D02*
X230470000Y-116900000D01*
X227930000Y-121980000D02*
X230470000Y-119440000D01*
D27*
X154905000Y-112316370D02*
X154905000Y-111185000D01*
X156313630Y-113725000D02*
X154905000Y-112316370D01*
X157445000Y-113725000D02*
X156313630Y-113725000D01*
X196815000Y-123250000D02*
X194275000Y-123250000D01*
X194275000Y-123250000D02*
X190465000Y-119440000D01*
X190465000Y-119440000D02*
X171415000Y-119440000D01*
X171415000Y-119440000D02*
X168875000Y-116900000D01*
X168875000Y-116900000D02*
X160620000Y-116900000D01*
X160620000Y-116900000D02*
X157445000Y-113725000D01*
X183750001Y-102024999D02*
X183750001Y-103929999D01*
X184750000Y-101025000D02*
X183750001Y-102024999D01*
X183750001Y-103929999D02*
X180305000Y-107375000D01*
X180305000Y-107375000D02*
X167605000Y-107375000D01*
X135855000Y-73229213D02*
X135855000Y-71815000D01*
X136980787Y-74355000D02*
X135855000Y-73229213D01*
X165700000Y-74355000D02*
X136980787Y-74355000D01*
X172685000Y-67370000D02*
X165700000Y-74355000D01*
X187290000Y-67370000D02*
X172685000Y-67370000D01*
X117440000Y-67370000D02*
X101565000Y-67370000D01*
X118439999Y-66370001D02*
X117440000Y-67370000D01*
X132950001Y-66370001D02*
X118439999Y-66370001D01*
X135855000Y-71815000D02*
X135855000Y-69275000D01*
X135855000Y-69275000D02*
X132950001Y-66370001D01*
D28*
X230470000Y-112455000D02*
X230470000Y-113090000D01*
X246345000Y-92770000D02*
X242479999Y-88904999D01*
X250790000Y-94675000D02*
X248885000Y-92770000D01*
X250790000Y-108010000D02*
X250790000Y-94675000D01*
X246345000Y-114995000D02*
X246345000Y-112455000D01*
X239360000Y-89595000D02*
X239360000Y-90865000D01*
X230470000Y-113090000D02*
X228565000Y-114995000D01*
X239360000Y-90865000D02*
X244384999Y-95889999D01*
X246345000Y-112455000D02*
X250790000Y-108010000D01*
X242479999Y-88904999D02*
X240050001Y-88904999D01*
X245075000Y-109915000D02*
X233010000Y-109915000D01*
X240050001Y-88904999D02*
X239360000Y-89595000D01*
X248885000Y-92770000D02*
X246345000Y-92770000D01*
X233010000Y-109915000D02*
X230470000Y-112455000D01*
X244384999Y-95889999D02*
X247559999Y-95889999D01*
X248250000Y-96580000D02*
X248250000Y-106740000D01*
X247559999Y-95889999D02*
X248250000Y-96580000D01*
X248250000Y-106740000D02*
X245075000Y-109915000D01*
D27*
X91995000Y-68685000D02*
X93310000Y-67370000D01*
X81245000Y-68685000D02*
X91995000Y-68685000D01*
X118710000Y-104835000D02*
X118075000Y-104200000D01*
X132045000Y-104835000D02*
X118710000Y-104835000D01*
X112360000Y-104200000D02*
X111725000Y-103565000D01*
X118075000Y-104200000D02*
X112360000Y-104200000D01*
X108550000Y-101430000D02*
X109590000Y-100390000D01*
X108550000Y-103565000D02*
X108550000Y-101430000D01*
D28*
X110455000Y-105470000D02*
X110455000Y-103565000D01*
D27*
X110455000Y-103565000D02*
X108550000Y-103565000D01*
X111725000Y-103565000D02*
X110455000Y-103565000D01*
D28*
X167605000Y-107375000D02*
X166335000Y-107375000D01*
X166335000Y-107375000D02*
X165700000Y-106740000D01*
X165700000Y-106740000D02*
X111725000Y-106740000D01*
X111725000Y-106740000D02*
X110455000Y-105470000D01*
X159350000Y-109915000D02*
X159985000Y-109915000D01*
X158715000Y-109280000D02*
X159350000Y-109915000D01*
X109185000Y-109280000D02*
X158715000Y-109280000D01*
X104740000Y-103565000D02*
X104740000Y-104835000D01*
X107685000Y-98485000D02*
X102200000Y-98485000D01*
X102200000Y-98485000D02*
X100930000Y-99755000D01*
X104049999Y-102874999D02*
X104740000Y-103565000D01*
X100930000Y-99755000D02*
X100930000Y-101660000D01*
X100930000Y-101660000D02*
X102144999Y-102874999D01*
X102144999Y-102874999D02*
X104049999Y-102874999D01*
X160784999Y-110714999D02*
X162054999Y-110714999D01*
X159985000Y-109915000D02*
X160784999Y-110714999D01*
X162054999Y-110714999D02*
X163160000Y-111820000D01*
X163160000Y-111820000D02*
X166335000Y-111820000D01*
X167605000Y-110550000D02*
X167605000Y-107375000D01*
X166335000Y-111820000D02*
X167605000Y-110550000D01*
D26*
X102835000Y-112455000D02*
X107597500Y-107692500D01*
X102835000Y-116900000D02*
X102835000Y-112455000D01*
X108550000Y-108645000D02*
X106645000Y-106740000D01*
D28*
X106645000Y-106740000D02*
X107597500Y-107692500D01*
X104740000Y-104835000D02*
X106645000Y-106740000D01*
X108550000Y-108645000D02*
X109185000Y-109280000D01*
X107597500Y-107692500D02*
X108550000Y-108645000D01*
D26*
X108550000Y-99350000D02*
X108435000Y-99235000D01*
X108550000Y-101430000D02*
X108550000Y-99350000D01*
D28*
X109590000Y-100390000D02*
X108435000Y-99235000D01*
X108435000Y-99235000D02*
X107685000Y-98485000D01*
X154905000Y-126425000D02*
X156810000Y-124520000D01*
X163160000Y-124520000D02*
X164430000Y-123250000D01*
X156810000Y-124520000D02*
X163160000Y-124520000D01*
D26*
X165700000Y-141030000D02*
X170145000Y-145475000D01*
X138395000Y-141030000D02*
X165700000Y-141030000D01*
X131410000Y-148015000D02*
X138395000Y-141030000D01*
X128235000Y-148015000D02*
X131410000Y-148015000D01*
X170145000Y-145475000D02*
X176495000Y-145475000D01*
X138642501Y-117922499D02*
X142205000Y-114360000D01*
X116417501Y-117922499D02*
X138642501Y-117922499D01*
X114900000Y-119440000D02*
X116417501Y-117922499D01*
X142205000Y-114360000D02*
X151095000Y-114360000D01*
X151095000Y-114360000D02*
X152365000Y-113090000D01*
X152365000Y-113090000D02*
X152365000Y-111185000D01*
D28*
X170145000Y-115630000D02*
X165700000Y-115630000D01*
X165700000Y-115630000D02*
X161890000Y-115630000D01*
D26*
X194910000Y-121345000D02*
X191735000Y-118170000D01*
X218405000Y-123250000D02*
X216500000Y-121345000D01*
X206975000Y-123250000D02*
X206975000Y-121345000D01*
X216500000Y-121345000D02*
X206975000Y-121345000D01*
X206975000Y-121345000D02*
X194910000Y-121345000D01*
X172685000Y-118170000D02*
X170145000Y-115630000D01*
X191735000Y-118170000D02*
X172685000Y-118170000D01*
X163325000Y-115630000D02*
X161890000Y-115630000D01*
X170145000Y-115630000D02*
X163325000Y-115630000D01*
X161890000Y-115630000D02*
X157445000Y-111185000D01*
X165700000Y-113725000D02*
X165700000Y-115630000D01*
D27*
X69815000Y-52765000D02*
X67275000Y-50225000D01*
X71720000Y-52765000D02*
X69815000Y-52765000D01*
D26*
X69815000Y-54670000D02*
X71720000Y-52765000D01*
X69815000Y-57210000D02*
X69815000Y-54670000D01*
X72990000Y-60385000D02*
X69815000Y-57210000D01*
X184259213Y-60385000D02*
X72990000Y-60385000D01*
X185385000Y-62925000D02*
X185385000Y-61510787D01*
X185385000Y-61510787D02*
X184259213Y-60385000D01*
D27*
X61560000Y-52765000D02*
X59020000Y-50225000D01*
X62830000Y-52765000D02*
X61560000Y-52765000D01*
D26*
X62830000Y-57845000D02*
X62830000Y-52765000D01*
X66640000Y-61655000D02*
X62830000Y-57845000D01*
X182210000Y-62925000D02*
X180940000Y-61655000D01*
X180940000Y-61655000D02*
X66640000Y-61655000D01*
D27*
X202530000Y-46415000D02*
X198720000Y-42605000D01*
X202530000Y-52765000D02*
X202530000Y-46415000D01*
X194275000Y-46415000D02*
X190465000Y-42605000D01*
X194275000Y-52765000D02*
X194275000Y-46415000D01*
X177765000Y-52765000D02*
X113630000Y-52765000D01*
X113630000Y-52765000D02*
X110455000Y-52765000D01*
X244440000Y-52765000D02*
X241265000Y-52765000D01*
D28*
X187290000Y-83880000D02*
X183480000Y-83880000D01*
X188560000Y-83880000D02*
X186020000Y-83880000D01*
D26*
X188560000Y-83880000D02*
X183480000Y-83880000D01*
X183480000Y-83880000D02*
X180305000Y-87055000D01*
X180305000Y-87055000D02*
X166335000Y-87055000D01*
X241265000Y-51350787D02*
X241265000Y-52765000D01*
X217135000Y-50860000D02*
X240774213Y-50860000D01*
X212697510Y-55297490D02*
X217135000Y-50860000D01*
X240774213Y-50860000D02*
X241265000Y-51350787D01*
X188560000Y-83880000D02*
X191735000Y-80705000D01*
X191735000Y-80705000D02*
X191735000Y-76260000D01*
X191735000Y-76260000D02*
X199990000Y-68005000D01*
X199990000Y-68005000D02*
X205705000Y-68005000D01*
X205705000Y-68005000D02*
X212697510Y-61012490D01*
X212697510Y-61012490D02*
X212697510Y-55297490D01*
D28*
X152365000Y-134045000D02*
X152365000Y-132775000D01*
X151730000Y-134680000D02*
X152365000Y-134045000D01*
X130775000Y-134680000D02*
X151730000Y-134680000D01*
D26*
X236185000Y-131360787D02*
X235694213Y-130870000D01*
X236185000Y-132775000D02*
X236185000Y-131360787D01*
X235694213Y-130870000D02*
X224120000Y-130870000D01*
X224120000Y-130870000D02*
X223292500Y-130042500D01*
X213960000Y-132775000D02*
X185385000Y-132775000D01*
X223292500Y-130042500D02*
X217962500Y-130042500D01*
X217962500Y-130042500D02*
X215230000Y-132775000D01*
X215230000Y-132775000D02*
X213960000Y-132775000D01*
X153164999Y-131975001D02*
X152365000Y-132775000D01*
X153682501Y-131457499D02*
X153164999Y-131975001D01*
X166088403Y-131457499D02*
X153682501Y-131457499D01*
X168580902Y-128965000D02*
X166088403Y-131457499D01*
X184750000Y-128965000D02*
X168580902Y-128965000D01*
X122837500Y-137537500D02*
X127917500Y-137537500D01*
X122837500Y-137537500D02*
X121250000Y-135950000D01*
X127917500Y-137537500D02*
X130775000Y-134680000D01*
X151730000Y-134672490D02*
X151095000Y-134672490D01*
X131778864Y-134672490D02*
X151730000Y-134672490D01*
X130775000Y-134680000D02*
X131771354Y-134680000D01*
X131771354Y-134680000D02*
X131778864Y-134672490D01*
X152365000Y-134037490D02*
X152365000Y-132775000D01*
X151730000Y-134672490D02*
X152365000Y-134037490D01*
D27*
X105375000Y-137220000D02*
X106645000Y-135950000D01*
X106645000Y-135950000D02*
X108550000Y-135950000D01*
D28*
X154905000Y-134680000D02*
X154905000Y-132775000D01*
X154270000Y-135315000D02*
X154905000Y-134680000D01*
X132045000Y-135315000D02*
X154270000Y-135315000D01*
X128870000Y-138490000D02*
X132045000Y-135315000D01*
D26*
X111090000Y-138490000D02*
X108550000Y-135950000D01*
X118075000Y-138490000D02*
X111090000Y-138490000D01*
X122520000Y-138490000D02*
X118075000Y-138490000D01*
D28*
X122520000Y-138490000D02*
X128870000Y-138490000D01*
D26*
X163160000Y-108010000D02*
X165065000Y-109915000D01*
X109820000Y-108010000D02*
X163160000Y-108010000D01*
X106010000Y-104200000D02*
X109820000Y-108010000D01*
X106010000Y-101660000D02*
X106010000Y-104200000D01*
X102835000Y-101025000D02*
X105375000Y-101025000D01*
X105375000Y-101025000D02*
X106010000Y-101660000D01*
D27*
X63825533Y-99882000D02*
X66238533Y-102295000D01*
X60290000Y-99882000D02*
X63825533Y-99882000D01*
X74895000Y-102295000D02*
X79340000Y-106740000D01*
X66238533Y-102295000D02*
X74895000Y-102295000D01*
D28*
X79340000Y-116265000D02*
X79340000Y-113725000D01*
X101509999Y-138434999D02*
X79340000Y-116265000D01*
X156810000Y-135950000D02*
X133315000Y-135950000D01*
X159985000Y-132775000D02*
X156810000Y-135950000D01*
X133315000Y-135950000D02*
X128179999Y-141085001D01*
X128179999Y-141085001D02*
X106700001Y-141085001D01*
X106700001Y-141085001D02*
X104049999Y-138434999D01*
X104049999Y-138434999D02*
X101509999Y-138434999D01*
D27*
X168875000Y-126425000D02*
X165700000Y-129600000D01*
D26*
X219032490Y-130877510D02*
X215865000Y-134045000D01*
X222222510Y-130877510D02*
X219032490Y-130877510D01*
X224120000Y-132775000D02*
X222222510Y-130877510D01*
X192370000Y-134045000D02*
X191100000Y-135315000D01*
X215865000Y-134045000D02*
X192370000Y-134045000D01*
X191100000Y-136290902D02*
X189535902Y-137855000D01*
X191100000Y-135315000D02*
X191100000Y-136290902D01*
X186655000Y-137855000D02*
X184750000Y-135950000D01*
X189535902Y-137855000D02*
X186655000Y-137855000D01*
X177130000Y-135950000D02*
X184750000Y-135950000D01*
X177130000Y-135950000D02*
X176495000Y-135315000D01*
X163160000Y-135315000D02*
X162525000Y-134680000D01*
X176495000Y-135315000D02*
X163160000Y-135315000D01*
X162525000Y-134680000D02*
X162525000Y-132775000D01*
D27*
X177765000Y-109915000D02*
X171415000Y-109915000D01*
X180940000Y-109915000D02*
X177765000Y-109915000D01*
D26*
X131410000Y-146110000D02*
X137760000Y-139760000D01*
X85545787Y-146110000D02*
X131410000Y-146110000D01*
X84420000Y-147235787D02*
X85545787Y-146110000D01*
X84420000Y-148650000D02*
X84420000Y-147235787D01*
X137760000Y-139760000D02*
X168875000Y-139760000D01*
X206340000Y-126425000D02*
X193005000Y-126425000D01*
X209515000Y-123250000D02*
X206340000Y-126425000D01*
X176177500Y-122297500D02*
X175860000Y-122615000D01*
X188877500Y-122297500D02*
X176177500Y-122297500D01*
X175860000Y-122615000D02*
X172050000Y-126425000D01*
X193005000Y-126425000D02*
X188877500Y-122297500D01*
X206340000Y-127695000D02*
X192370000Y-127695000D01*
X209515000Y-130870000D02*
X206340000Y-127695000D01*
X192370000Y-127695000D02*
X188560000Y-123885000D01*
X177765000Y-123885000D02*
X175225000Y-126425000D01*
X188560000Y-123885000D02*
X177765000Y-123885000D01*
X174590000Y-130870000D02*
X172685000Y-132775000D01*
X196815000Y-130870000D02*
X174590000Y-130870000D01*
X187925000Y-128965000D02*
X187925000Y-130870000D01*
X186020000Y-134680000D02*
X177130000Y-134680000D01*
X187290000Y-135950000D02*
X186020000Y-134680000D01*
X177130000Y-134680000D02*
X175225000Y-132775000D01*
X187290000Y-135950000D02*
X189195000Y-135950000D01*
X201895000Y-130870000D02*
X199990000Y-128965000D01*
X191735000Y-128965000D02*
X189195000Y-126425000D01*
X199990000Y-128965000D02*
X191735000Y-128965000D01*
X189195000Y-126425000D02*
X181575000Y-126425000D01*
X217770000Y-134045000D02*
X215865000Y-135950000D01*
X220945000Y-132775000D02*
X219675000Y-134045000D01*
X219675000Y-134045000D02*
X217770000Y-134045000D01*
D27*
X193640000Y-106740000D02*
X193005000Y-106105000D01*
X193640000Y-109915000D02*
X193640000Y-106740000D01*
D26*
X165700000Y-126425000D02*
X161890000Y-130235000D01*
X119074999Y-131140001D02*
X118075000Y-132140000D01*
X133089901Y-131140001D02*
X119074999Y-131140001D01*
X133994902Y-130235000D02*
X133089901Y-131140001D01*
X161890000Y-130235000D02*
X133994902Y-130235000D01*
X204435000Y-123250000D02*
X202530000Y-125155000D01*
X202530000Y-125155000D02*
X193640000Y-125155000D01*
X171097500Y-121027500D02*
X170780000Y-121345000D01*
X189512500Y-121027500D02*
X171097500Y-121027500D01*
X170780000Y-121345000D02*
X165700000Y-126425000D01*
X193640000Y-125155000D02*
X189512500Y-121027500D01*
D27*
X186655000Y-107780000D02*
X189830000Y-104605000D01*
X186655000Y-113090000D02*
X186655000Y-107780000D01*
X187290000Y-113725000D02*
X186655000Y-113090000D01*
X187925000Y-93405000D02*
X187925000Y-88325000D01*
X189830000Y-104605000D02*
X189830000Y-95310000D01*
X189830000Y-95310000D02*
X187925000Y-93405000D01*
X187290000Y-113725000D02*
X194275000Y-113725000D01*
D26*
X210150000Y-108010000D02*
X212055000Y-109915000D01*
X217770000Y-109915000D02*
X219675000Y-108010000D01*
X212055000Y-109915000D02*
X217770000Y-109915000D01*
D27*
X220474999Y-103729999D02*
X219675000Y-102930000D01*
X221310001Y-104565001D02*
X220474999Y-103729999D01*
X221310001Y-106374999D02*
X221310001Y-104565001D01*
X219675000Y-108010000D02*
X221310001Y-106374999D01*
X227295000Y-92770000D02*
X222215000Y-97850000D01*
X222215000Y-97850000D02*
X219675000Y-97850000D01*
X219675000Y-97850000D02*
X216500000Y-97850000D01*
X219040000Y-105470000D02*
X216500000Y-108010000D01*
X219675000Y-105470000D02*
X219040000Y-105470000D01*
X216500000Y-108010000D02*
X213325000Y-108010000D01*
X228930001Y-95040001D02*
X229200000Y-95310000D01*
X228930001Y-90595001D02*
X228930001Y-95040001D01*
X227295000Y-88960000D02*
X228930001Y-90595001D01*
X231105000Y-95310000D02*
X229200000Y-95310000D01*
X229200000Y-95310000D02*
X227295000Y-95310000D01*
X225659999Y-99485001D02*
X224755000Y-100390000D01*
X225659999Y-96945001D02*
X225659999Y-99485001D01*
X227295000Y-95310000D02*
X225659999Y-96945001D01*
X227295000Y-100390000D02*
X224755000Y-100390000D01*
X224755000Y-100390000D02*
X219675000Y-100390000D01*
X219675000Y-100390000D02*
X211420000Y-100390000D01*
X211420000Y-100390000D02*
X210150000Y-99120000D01*
X210150000Y-99120000D02*
X210150000Y-97850000D01*
D26*
X203165000Y-109280000D02*
X203165000Y-103565000D01*
X203800000Y-109915000D02*
X203165000Y-109280000D01*
X205705000Y-109915000D02*
X203800000Y-109915000D01*
X227295000Y-105470000D02*
X225390000Y-105470000D01*
X224755000Y-106105000D02*
X224755000Y-107375000D01*
X224755000Y-107375000D02*
X220310000Y-111820000D01*
X220310000Y-111820000D02*
X205705000Y-111820000D01*
X225390000Y-105470000D02*
X224755000Y-106105000D01*
X205705000Y-111820000D02*
X205705000Y-109915000D01*
X209515000Y-96580000D02*
X210150000Y-97215000D01*
X208245000Y-96580000D02*
X209515000Y-96580000D01*
X206975000Y-102930000D02*
X206975000Y-97850000D01*
X207610000Y-103565000D02*
X206975000Y-102930000D01*
X212055000Y-103565000D02*
X207610000Y-103565000D01*
X212690000Y-104835000D02*
X212690000Y-104200000D01*
X212055000Y-105470000D02*
X212690000Y-104835000D01*
D27*
X210150000Y-97215000D02*
X210150000Y-95310000D01*
X210150000Y-97850000D02*
X210150000Y-97215000D01*
D26*
X205705000Y-109915000D02*
X206340000Y-109915000D01*
X206975000Y-97850000D02*
X208245000Y-96580000D01*
X212690000Y-104200000D02*
X212055000Y-103565000D01*
X206340000Y-109915000D02*
X206975000Y-109280000D01*
X207610000Y-105470000D02*
X212055000Y-105470000D01*
X206975000Y-109280000D02*
X206975000Y-106105000D01*
X206975000Y-106105000D02*
X207610000Y-105470000D01*
D27*
X232375000Y-97850000D02*
X236185000Y-101660000D01*
X227295000Y-97850000D02*
X232375000Y-97850000D01*
D26*
X237972501Y-102518001D02*
X237972501Y-97097501D01*
X237043001Y-103447501D02*
X237972501Y-102518001D01*
X235326999Y-103447501D02*
X237043001Y-103447501D01*
X227295000Y-102930000D02*
X234809498Y-102930000D01*
X234809498Y-102930000D02*
X235326999Y-103447501D01*
X237972501Y-97097501D02*
X231105000Y-90230000D01*
D27*
X219675000Y-92770000D02*
X219675000Y-95310000D01*
X219675000Y-95310000D02*
X216500000Y-95310000D01*
X216500000Y-95310000D02*
X214595000Y-93405000D01*
X210150000Y-88960000D02*
X210150000Y-93405000D01*
X214595000Y-93405000D02*
X210150000Y-93405000D01*
X210150000Y-93405000D02*
X203165000Y-93405000D01*
X210150000Y-84515000D02*
X210150000Y-88960000D01*
X210150000Y-84515000D02*
X207610000Y-84515000D01*
X236185000Y-108010000D02*
X227295000Y-108010000D01*
D29*
X35525000Y-102930000D02*
X35525000Y-93405000D01*
X35525000Y-93405000D02*
X39335000Y-89595000D01*
X39335000Y-89595000D02*
X39335000Y-68640000D01*
X39380000Y-68685000D02*
X50130000Y-68685000D01*
X39335000Y-68640000D02*
X39380000Y-68685000D01*
X135400990Y-35165990D02*
X136475000Y-36240000D01*
X95395990Y-35165990D02*
X135400990Y-35165990D01*
X39335000Y-68640000D02*
X39335000Y-41970000D01*
X39335000Y-41970000D02*
X46320000Y-34985000D01*
X46320000Y-34985000D02*
X56283522Y-34985000D01*
X56283522Y-34985000D02*
X65808522Y-25460000D01*
X65808522Y-25460000D02*
X85690000Y-25460000D01*
X85690000Y-25460000D02*
X95395990Y-35165990D01*
D27*
X140935000Y-37525000D02*
X139650000Y-36240000D01*
X140935000Y-39430000D02*
X140935000Y-37525000D01*
D29*
X136475000Y-36240000D02*
X139650000Y-36240000D01*
X139650000Y-36240000D02*
X149825000Y-36240000D01*
D27*
X121250000Y-38160000D02*
X118710000Y-38160000D01*
X126965000Y-43875000D02*
X121250000Y-38160000D01*
X172050000Y-43875000D02*
X126965000Y-43875000D01*
X179670000Y-36255000D02*
X172050000Y-43875000D01*
X186655000Y-36255000D02*
X179670000Y-36255000D01*
X189830000Y-33080000D02*
X186655000Y-36255000D01*
X204435000Y-33080000D02*
X189830000Y-33080000D01*
X212055000Y-25460000D02*
X204435000Y-33080000D01*
X231740000Y-25460000D02*
X212055000Y-25460000D01*
X241265000Y-34985000D02*
X231740000Y-25460000D01*
X246345000Y-81975000D02*
X246345000Y-60385000D01*
X241265000Y-87055000D02*
X246345000Y-81975000D01*
X246345000Y-60385000D02*
X247615000Y-59115000D01*
X247615000Y-59115000D02*
X247615000Y-38795000D01*
X247615000Y-38795000D02*
X243805000Y-34985000D01*
X243805000Y-34985000D02*
X241265000Y-34985000D01*
X104740000Y-37525000D02*
X87595000Y-37525000D01*
X107280000Y-40065000D02*
X104740000Y-37525000D01*
X110455000Y-40065000D02*
X107280000Y-40065000D01*
X184750000Y-116265000D02*
X187925000Y-116265000D01*
X187925000Y-116265000D02*
X193005000Y-116265000D01*
X193005000Y-116265000D02*
X195545000Y-118805000D01*
X195545000Y-118805000D02*
X213960000Y-118805000D01*
X213960000Y-118805000D02*
X217429098Y-118805000D01*
X227295000Y-120075000D02*
X222997049Y-124372951D01*
D26*
X222997049Y-124372951D02*
X217429098Y-118805000D01*
D27*
X239360000Y-128965000D02*
X227589098Y-128965000D01*
X245075000Y-128154198D02*
X243345802Y-126425000D01*
X227589098Y-128965000D02*
X222997049Y-124372951D01*
X245075000Y-130870000D02*
X245075000Y-128154198D01*
X243345802Y-126425000D02*
X241724198Y-126425000D01*
X241724198Y-126425000D02*
X239995000Y-128154198D01*
X239995000Y-128154198D02*
X239995000Y-128330000D01*
X239995000Y-128330000D02*
X239360000Y-128965000D01*
X175225000Y-115630000D02*
X175225000Y-113725000D01*
X175860000Y-116265000D02*
X175225000Y-115630000D01*
X175225000Y-113725000D02*
X172050000Y-113725000D01*
X172050000Y-113725000D02*
X168875000Y-113725000D01*
X181575000Y-115630000D02*
X180940000Y-116265000D01*
X181575000Y-113725000D02*
X181575000Y-115630000D01*
X184750000Y-116265000D02*
X180940000Y-116265000D01*
X180940000Y-116265000D02*
X175860000Y-116265000D01*
X184750000Y-116265000D02*
X184750000Y-105470000D01*
X184750000Y-105470000D02*
X187925000Y-102295000D01*
X187925000Y-102295000D02*
X187925000Y-101025000D01*
X186020000Y-52765000D02*
X182210000Y-52765000D01*
D26*
X235550000Y-37525000D02*
X219040000Y-37525000D01*
X238090000Y-40065000D02*
X235550000Y-37525000D01*
X241265000Y-95310000D02*
X241265000Y-97215000D01*
X241265000Y-97215000D02*
X245075000Y-97215000D01*
X239995000Y-97215000D02*
X241265000Y-97215000D01*
X239360000Y-97850000D02*
X239995000Y-97215000D01*
X239360000Y-103565000D02*
X239360000Y-97850000D01*
X238090000Y-104835000D02*
X239360000Y-103565000D01*
X233645000Y-104835000D02*
X238090000Y-104835000D01*
D27*
X250155000Y-88960000D02*
X250155000Y-62290000D01*
X257775000Y-51725000D02*
X250155000Y-59345000D01*
X250155000Y-59345000D02*
X250155000Y-62290000D01*
X53940000Y-54035000D02*
X53940000Y-52765000D01*
X46955000Y-61020000D02*
X53940000Y-54035000D01*
X220310000Y-84515000D02*
X217770000Y-84515000D01*
X220310000Y-88325000D02*
X220945000Y-88960000D01*
X220310000Y-84515000D02*
X220310000Y-88325000D01*
X222215000Y-88960000D02*
X220945000Y-88960000D01*
X220945000Y-88960000D02*
X216500000Y-88960000D01*
X227930000Y-84515000D02*
X220310000Y-84515000D01*
D26*
X245075000Y-94040000D02*
X241265000Y-90230000D01*
X248250000Y-94040000D02*
X245075000Y-94040000D01*
X249520000Y-107375000D02*
X249520000Y-95310000D01*
X233010000Y-118660787D02*
X232375000Y-118025787D01*
X249520000Y-95310000D02*
X248250000Y-94040000D01*
X233010000Y-120075000D02*
X233010000Y-118660787D01*
X232375000Y-118025787D02*
X232375000Y-112455000D01*
X232375000Y-112455000D02*
X233645000Y-111185000D01*
X233645000Y-111185000D02*
X245710000Y-111185000D01*
X245710000Y-111185000D02*
X249520000Y-107375000D01*
X245075000Y-104835000D02*
X245075000Y-101660000D01*
X245075000Y-101660000D02*
X241265000Y-101660000D01*
D27*
X54575000Y-121615000D02*
X55845000Y-120345000D01*
X54575000Y-123885000D02*
X54575000Y-121615000D01*
X55845000Y-120345000D02*
X55845000Y-114360000D01*
X55845000Y-109280000D02*
X48225000Y-101660000D01*
X55845000Y-114360000D02*
X55845000Y-109280000D01*
X93310000Y-104200000D02*
X89500000Y-104200000D01*
X89500000Y-104200000D02*
X86325000Y-104200000D01*
X86325000Y-101660000D02*
X86960000Y-101025000D01*
X86325000Y-104200000D02*
X86325000Y-101660000D01*
X88230000Y-101025000D02*
X86960000Y-101025000D01*
X86960000Y-101025000D02*
X83150000Y-101025000D01*
X102835000Y-104200000D02*
X98390000Y-104200000D01*
X98390000Y-104200000D02*
X98390000Y-98305000D01*
X90950000Y-98305000D02*
X90770000Y-98485000D01*
X98390000Y-98305000D02*
X90950000Y-98305000D01*
X96485000Y-139760000D02*
X99025000Y-139760000D01*
X93945000Y-142300000D02*
X96485000Y-139760000D01*
X97755000Y-123885000D02*
X97120000Y-124520000D01*
X97755000Y-120710000D02*
X97755000Y-123885000D01*
X99025000Y-124520000D02*
X97120000Y-124520000D01*
X97120000Y-124520000D02*
X93945000Y-124520000D01*
X93945000Y-124520000D02*
X89500000Y-120075000D01*
D26*
X238090000Y-135950000D02*
X238090000Y-137855000D01*
X243170000Y-142935000D02*
X243170000Y-148650000D01*
X238090000Y-137855000D02*
X243170000Y-142935000D01*
D27*
X105375000Y-123430000D02*
X102655000Y-120710000D01*
X105375000Y-124520000D02*
X105375000Y-123430000D01*
X62195000Y-116900000D02*
X59020000Y-116900000D01*
X65370000Y-37525000D02*
X62830000Y-40065000D01*
X79975000Y-37525000D02*
X65370000Y-37525000D01*
X187019999Y-39065001D02*
X186020000Y-40065000D01*
X190465000Y-35620000D02*
X187019999Y-39065001D01*
X241265000Y-40065000D02*
X236820000Y-35620000D01*
X216009213Y-35620000D02*
X215865000Y-35620000D01*
X216500000Y-36110787D02*
X216009213Y-35620000D01*
X216500000Y-37525000D02*
X216500000Y-36110787D01*
X236820000Y-35620000D02*
X215865000Y-35620000D01*
X215865000Y-35620000D02*
X190465000Y-35620000D01*
X117899198Y-40065000D02*
X113630000Y-40065000D01*
X123614198Y-45780000D02*
X117899198Y-40065000D01*
X173320000Y-45780000D02*
X123614198Y-45780000D01*
X176495000Y-42605000D02*
X173320000Y-45780000D01*
X186020000Y-40065000D02*
X183480000Y-42605000D01*
X183480000Y-42605000D02*
X176495000Y-42605000D01*
X250155000Y-43240000D02*
X250155000Y-47050000D01*
X78705000Y-40065000D02*
X71720000Y-40065000D01*
X210150000Y-40065000D02*
X202530000Y-40065000D01*
X248885000Y-33715000D02*
X248885000Y-31175000D01*
X266030000Y-50860000D02*
X248885000Y-33715000D01*
X266030000Y-73085000D02*
X266030000Y-50860000D01*
X255870000Y-101660000D02*
X255235000Y-101025000D01*
X255235000Y-101025000D02*
X255235000Y-81340000D01*
X255235000Y-81340000D02*
X261585000Y-74990000D01*
X261585000Y-74990000D02*
X264125000Y-74990000D01*
X257775000Y-101660000D02*
X255870000Y-101660000D01*
X264125000Y-74990000D02*
X266030000Y-73085000D01*
X97120000Y-64830000D02*
X97120000Y-67370000D01*
X97755000Y-64195000D02*
X97120000Y-64830000D01*
X133315000Y-64195000D02*
X97755000Y-64195000D01*
X138395000Y-71815000D02*
X138395000Y-69275000D01*
X138395000Y-69275000D02*
X133315000Y-64195000D01*
X163795000Y-76895000D02*
X163795000Y-77530000D01*
X107915000Y-80070000D02*
X101565000Y-80070000D01*
X126104990Y-80295010D02*
X108140010Y-80295010D01*
X108140010Y-80295010D02*
X107915000Y-80070000D01*
X127600000Y-78800000D02*
X126104990Y-80295010D01*
X162525000Y-78800000D02*
X127600000Y-78800000D01*
X163795000Y-77530000D02*
X162525000Y-78800000D01*
X85690000Y-98485000D02*
X85690000Y-92135000D01*
D26*
X84275787Y-98485000D02*
X85690000Y-98485000D01*
X83444098Y-98485000D02*
X84275787Y-98485000D01*
X81632499Y-100296599D02*
X83444098Y-98485000D01*
X81632499Y-102682499D02*
X81632499Y-100296599D01*
X83150000Y-104200000D02*
X81632499Y-102682499D01*
D27*
X90770000Y-91500000D02*
X93945000Y-88325000D01*
X90770000Y-92135000D02*
X90770000Y-91500000D01*
X93945000Y-88325000D02*
X102835000Y-88325000D01*
X104105000Y-88325000D02*
X105375000Y-89595000D01*
X102835000Y-88325000D02*
X104105000Y-88325000D01*
X88230000Y-94675000D02*
X88230000Y-90865000D01*
X85690000Y-88325000D02*
X83150000Y-88325000D01*
X88230000Y-90865000D02*
X85690000Y-88325000D01*
X97120000Y-94675000D02*
X98390000Y-93405000D01*
X88230000Y-94675000D02*
X97120000Y-94675000D01*
X225390000Y-87055000D02*
X224755000Y-86420000D01*
X231105000Y-87055000D02*
X225390000Y-87055000D01*
X81245000Y-135950000D02*
X84420000Y-135950000D01*
X81245000Y-130870000D02*
X83150000Y-128965000D01*
X81245000Y-135950000D02*
X81245000Y-130870000D01*
X86325000Y-134045000D02*
X86325000Y-132775000D01*
X84420000Y-135950000D02*
X86325000Y-134045000D01*
X89500000Y-134045000D02*
X89500000Y-132775000D01*
X87595000Y-135950000D02*
X89500000Y-134045000D01*
D26*
X81245000Y-145475000D02*
X87595000Y-139125000D01*
X81245000Y-148650000D02*
X81245000Y-145475000D01*
X87595000Y-139125000D02*
X87595000Y-135950000D01*
X82024213Y-126425000D02*
X80610000Y-126425000D01*
X84564213Y-126425000D02*
X82024213Y-126425000D01*
X89500000Y-131360787D02*
X84564213Y-126425000D01*
X89500000Y-132775000D02*
X89500000Y-131360787D01*
D30*
G36*
X76673000Y-100898000D02*
G01*
X67402000Y-100898000D01*
X67402000Y-97247418D01*
X72330000Y-97247418D01*
X72333274Y-97280660D01*
X72333274Y-97297137D01*
X72334237Y-97306302D01*
X72361866Y-97552618D01*
X72374297Y-97611098D01*
X72385921Y-97669808D01*
X72388647Y-97678611D01*
X72463592Y-97914869D01*
X72487146Y-97969824D01*
X72509953Y-98025158D01*
X72514336Y-98033264D01*
X72633744Y-98250466D01*
X72667518Y-98299791D01*
X72700643Y-98349648D01*
X72706517Y-98356749D01*
X72865840Y-98546621D01*
X72908569Y-98588465D01*
X72950727Y-98630918D01*
X72957868Y-98636742D01*
X73151035Y-98792053D01*
X73201099Y-98824814D01*
X73250685Y-98858260D01*
X73258821Y-98862586D01*
X73478476Y-98977418D01*
X73533880Y-98999802D01*
X73589081Y-99023007D01*
X73597903Y-99025670D01*
X73835679Y-99095652D01*
X73894441Y-99106861D01*
X73953038Y-99118890D01*
X73962209Y-99119789D01*
X74209049Y-99142253D01*
X74268866Y-99141835D01*
X74328682Y-99142253D01*
X74337853Y-99141354D01*
X74584357Y-99115446D01*
X74642986Y-99103411D01*
X74701716Y-99092208D01*
X74710532Y-99089546D01*
X74710536Y-99089545D01*
X74710539Y-99089544D01*
X74947314Y-99016249D01*
X75002457Y-98993069D01*
X75057920Y-98970661D01*
X75066054Y-98966335D01*
X75066059Y-98966333D01*
X75066064Y-98966330D01*
X75284086Y-98848447D01*
X75333654Y-98815012D01*
X75383735Y-98782241D01*
X75390876Y-98776416D01*
X75581856Y-98618423D01*
X75623995Y-98575988D01*
X75666745Y-98534125D01*
X75672618Y-98527024D01*
X75829273Y-98334947D01*
X75862374Y-98285125D01*
X75896173Y-98235763D01*
X75900556Y-98227657D01*
X76016919Y-98008809D01*
X76039707Y-97953521D01*
X76063279Y-97898525D01*
X76066003Y-97889722D01*
X76137643Y-97652441D01*
X76149264Y-97593754D01*
X76161700Y-97535248D01*
X76162663Y-97526083D01*
X76186850Y-97279405D01*
X76186850Y-97279402D01*
X76190000Y-97247419D01*
X76190000Y-94007581D01*
X76186726Y-93974339D01*
X76186726Y-93957863D01*
X76185763Y-93948698D01*
X76158134Y-93702382D01*
X76145695Y-93643865D01*
X76134078Y-93585192D01*
X76131353Y-93576389D01*
X76056408Y-93340131D01*
X76032868Y-93285209D01*
X76010048Y-93229842D01*
X76005664Y-93221736D01*
X75886256Y-93004534D01*
X75852457Y-92955171D01*
X75819357Y-92905352D01*
X75813483Y-92898252D01*
X75654161Y-92708379D01*
X75611412Y-92666516D01*
X75569273Y-92624082D01*
X75562132Y-92618258D01*
X75368965Y-92462947D01*
X75318901Y-92430186D01*
X75269315Y-92396740D01*
X75261186Y-92392418D01*
X75261181Y-92392415D01*
X75261176Y-92392413D01*
X75041524Y-92277582D01*
X74986058Y-92255173D01*
X74930919Y-92231994D01*
X74922097Y-92229330D01*
X74684321Y-92159348D01*
X74625559Y-92148139D01*
X74566962Y-92136110D01*
X74557791Y-92135211D01*
X74310951Y-92112747D01*
X74251135Y-92113165D01*
X74191318Y-92112747D01*
X74182147Y-92113646D01*
X73935644Y-92139554D01*
X73877028Y-92151586D01*
X73818284Y-92162792D01*
X73809462Y-92165456D01*
X73572686Y-92238751D01*
X73517555Y-92261926D01*
X73462080Y-92284339D01*
X73453944Y-92288666D01*
X73235914Y-92406554D01*
X73186346Y-92439988D01*
X73136265Y-92472760D01*
X73129124Y-92478584D01*
X72938144Y-92636577D01*
X72896005Y-92679012D01*
X72853255Y-92720875D01*
X72847381Y-92727976D01*
X72690727Y-92920054D01*
X72657655Y-92969831D01*
X72623826Y-93019237D01*
X72619444Y-93027343D01*
X72503081Y-93246191D01*
X72480298Y-93301468D01*
X72456721Y-93356475D01*
X72453997Y-93365278D01*
X72382357Y-93602559D01*
X72370736Y-93661246D01*
X72358300Y-93719752D01*
X72357337Y-93728917D01*
X72333150Y-93975595D01*
X72333150Y-93975608D01*
X72330001Y-94007581D01*
X72330000Y-97247418D01*
X67402000Y-97247418D01*
X67402000Y-80070000D01*
X67399560Y-80045224D01*
X67392333Y-80021399D01*
X67380597Y-79999443D01*
X67364803Y-79980197D01*
X64189803Y-76805197D01*
X64170557Y-76789403D01*
X64148601Y-76777667D01*
X64124776Y-76770440D01*
X64100000Y-76768000D01*
X54702000Y-76768000D01*
X54702000Y-66735000D01*
X60798000Y-66735000D01*
X60798000Y-68005000D01*
X60800440Y-68029776D01*
X60807667Y-68053601D01*
X60819403Y-68075557D01*
X60835197Y-68094803D01*
X62105197Y-69364803D01*
X62124443Y-69380597D01*
X62146399Y-69392333D01*
X62170224Y-69399560D01*
X62195000Y-69402000D01*
X63465000Y-69402000D01*
X63489776Y-69399560D01*
X63513601Y-69392333D01*
X63535557Y-69380597D01*
X63554803Y-69364803D01*
X64824803Y-68094803D01*
X64840597Y-68075557D01*
X64852333Y-68053601D01*
X64859560Y-68029776D01*
X64862000Y-68005000D01*
X64862000Y-66735000D01*
X64859560Y-66710224D01*
X64852333Y-66686399D01*
X64840597Y-66664443D01*
X64824803Y-66645197D01*
X63554803Y-65375197D01*
X63535557Y-65359403D01*
X63513601Y-65347667D01*
X63489776Y-65340440D01*
X63465000Y-65338000D01*
X62195000Y-65338000D01*
X62170224Y-65340440D01*
X62146399Y-65347667D01*
X62124443Y-65359403D01*
X62105197Y-65375197D01*
X60835197Y-66645197D01*
X60819403Y-66664443D01*
X60807667Y-66686399D01*
X60800440Y-66710224D01*
X60798000Y-66735000D01*
X54702000Y-66735000D01*
X54702000Y-63687000D01*
X76673000Y-63687000D01*
X76673000Y-100898000D01*
X76673000Y-100898000D01*
G37*
X76673000Y-100898000D02*
X67402000Y-100898000D01*
X67402000Y-97247418D01*
X72330000Y-97247418D01*
X72333274Y-97280660D01*
X72333274Y-97297137D01*
X72334237Y-97306302D01*
X72361866Y-97552618D01*
X72374297Y-97611098D01*
X72385921Y-97669808D01*
X72388647Y-97678611D01*
X72463592Y-97914869D01*
X72487146Y-97969824D01*
X72509953Y-98025158D01*
X72514336Y-98033264D01*
X72633744Y-98250466D01*
X72667518Y-98299791D01*
X72700643Y-98349648D01*
X72706517Y-98356749D01*
X72865840Y-98546621D01*
X72908569Y-98588465D01*
X72950727Y-98630918D01*
X72957868Y-98636742D01*
X73151035Y-98792053D01*
X73201099Y-98824814D01*
X73250685Y-98858260D01*
X73258821Y-98862586D01*
X73478476Y-98977418D01*
X73533880Y-98999802D01*
X73589081Y-99023007D01*
X73597903Y-99025670D01*
X73835679Y-99095652D01*
X73894441Y-99106861D01*
X73953038Y-99118890D01*
X73962209Y-99119789D01*
X74209049Y-99142253D01*
X74268866Y-99141835D01*
X74328682Y-99142253D01*
X74337853Y-99141354D01*
X74584357Y-99115446D01*
X74642986Y-99103411D01*
X74701716Y-99092208D01*
X74710532Y-99089546D01*
X74710536Y-99089545D01*
X74710539Y-99089544D01*
X74947314Y-99016249D01*
X75002457Y-98993069D01*
X75057920Y-98970661D01*
X75066054Y-98966335D01*
X75066059Y-98966333D01*
X75066064Y-98966330D01*
X75284086Y-98848447D01*
X75333654Y-98815012D01*
X75383735Y-98782241D01*
X75390876Y-98776416D01*
X75581856Y-98618423D01*
X75623995Y-98575988D01*
X75666745Y-98534125D01*
X75672618Y-98527024D01*
X75829273Y-98334947D01*
X75862374Y-98285125D01*
X75896173Y-98235763D01*
X75900556Y-98227657D01*
X76016919Y-98008809D01*
X76039707Y-97953521D01*
X76063279Y-97898525D01*
X76066003Y-97889722D01*
X76137643Y-97652441D01*
X76149264Y-97593754D01*
X76161700Y-97535248D01*
X76162663Y-97526083D01*
X76186850Y-97279405D01*
X76186850Y-97279402D01*
X76190000Y-97247419D01*
X76190000Y-94007581D01*
X76186726Y-93974339D01*
X76186726Y-93957863D01*
X76185763Y-93948698D01*
X76158134Y-93702382D01*
X76145695Y-93643865D01*
X76134078Y-93585192D01*
X76131353Y-93576389D01*
X76056408Y-93340131D01*
X76032868Y-93285209D01*
X76010048Y-93229842D01*
X76005664Y-93221736D01*
X75886256Y-93004534D01*
X75852457Y-92955171D01*
X75819357Y-92905352D01*
X75813483Y-92898252D01*
X75654161Y-92708379D01*
X75611412Y-92666516D01*
X75569273Y-92624082D01*
X75562132Y-92618258D01*
X75368965Y-92462947D01*
X75318901Y-92430186D01*
X75269315Y-92396740D01*
X75261186Y-92392418D01*
X75261181Y-92392415D01*
X75261176Y-92392413D01*
X75041524Y-92277582D01*
X74986058Y-92255173D01*
X74930919Y-92231994D01*
X74922097Y-92229330D01*
X74684321Y-92159348D01*
X74625559Y-92148139D01*
X74566962Y-92136110D01*
X74557791Y-92135211D01*
X74310951Y-92112747D01*
X74251135Y-92113165D01*
X74191318Y-92112747D01*
X74182147Y-92113646D01*
X73935644Y-92139554D01*
X73877028Y-92151586D01*
X73818284Y-92162792D01*
X73809462Y-92165456D01*
X73572686Y-92238751D01*
X73517555Y-92261926D01*
X73462080Y-92284339D01*
X73453944Y-92288666D01*
X73235914Y-92406554D01*
X73186346Y-92439988D01*
X73136265Y-92472760D01*
X73129124Y-92478584D01*
X72938144Y-92636577D01*
X72896005Y-92679012D01*
X72853255Y-92720875D01*
X72847381Y-92727976D01*
X72690727Y-92920054D01*
X72657655Y-92969831D01*
X72623826Y-93019237D01*
X72619444Y-93027343D01*
X72503081Y-93246191D01*
X72480298Y-93301468D01*
X72456721Y-93356475D01*
X72453997Y-93365278D01*
X72382357Y-93602559D01*
X72370736Y-93661246D01*
X72358300Y-93719752D01*
X72357337Y-93728917D01*
X72333150Y-93975595D01*
X72333150Y-93975608D01*
X72330001Y-94007581D01*
X72330000Y-97247418D01*
X67402000Y-97247418D01*
X67402000Y-80070000D01*
X67399560Y-80045224D01*
X67392333Y-80021399D01*
X67380597Y-79999443D01*
X67364803Y-79980197D01*
X64189803Y-76805197D01*
X64170557Y-76789403D01*
X64148601Y-76777667D01*
X64124776Y-76770440D01*
X64100000Y-76768000D01*
X54702000Y-76768000D01*
X54702000Y-66735000D01*
X60798000Y-66735000D01*
X60798000Y-68005000D01*
X60800440Y-68029776D01*
X60807667Y-68053601D01*
X60819403Y-68075557D01*
X60835197Y-68094803D01*
X62105197Y-69364803D01*
X62124443Y-69380597D01*
X62146399Y-69392333D01*
X62170224Y-69399560D01*
X62195000Y-69402000D01*
X63465000Y-69402000D01*
X63489776Y-69399560D01*
X63513601Y-69392333D01*
X63535557Y-69380597D01*
X63554803Y-69364803D01*
X64824803Y-68094803D01*
X64840597Y-68075557D01*
X64852333Y-68053601D01*
X64859560Y-68029776D01*
X64862000Y-68005000D01*
X64862000Y-66735000D01*
X64859560Y-66710224D01*
X64852333Y-66686399D01*
X64840597Y-66664443D01*
X64824803Y-66645197D01*
X63554803Y-65375197D01*
X63535557Y-65359403D01*
X63513601Y-65347667D01*
X63489776Y-65340440D01*
X63465000Y-65338000D01*
X62195000Y-65338000D01*
X62170224Y-65340440D01*
X62146399Y-65347667D01*
X62124443Y-65359403D01*
X62105197Y-65375197D01*
X60835197Y-66645197D01*
X60819403Y-66664443D01*
X60807667Y-66686399D01*
X60800440Y-66710224D01*
X60798000Y-66735000D01*
X54702000Y-66735000D01*
X54702000Y-63687000D01*
X76673000Y-63687000D01*
X76673000Y-100898000D01*
G36*
X36668000Y-50098000D02*
G01*
X31715000Y-50098000D01*
X31690224Y-50100440D01*
X31666399Y-50107667D01*
X31644443Y-50119403D01*
X31625197Y-50135197D01*
X31609403Y-50154443D01*
X31597667Y-50176399D01*
X31590440Y-50200224D01*
X31588000Y-50225000D01*
X31588000Y-57210000D01*
X31590440Y-57234776D01*
X31597667Y-57258601D01*
X31609403Y-57280557D01*
X31625197Y-57299803D01*
X31644443Y-57315597D01*
X31666399Y-57327333D01*
X31690224Y-57334560D01*
X31715000Y-57337000D01*
X36668000Y-57337000D01*
X36668000Y-87637394D01*
X31625197Y-92680197D01*
X31609403Y-92699443D01*
X31597667Y-92721399D01*
X31590440Y-92745224D01*
X31588000Y-92770000D01*
X31588000Y-107375000D01*
X31590440Y-107399776D01*
X31597667Y-107423601D01*
X31609403Y-107445557D01*
X31625197Y-107464803D01*
X31644443Y-107480597D01*
X31666399Y-107492333D01*
X31690224Y-107499560D01*
X31715000Y-107502000D01*
X46193000Y-107502000D01*
X46193000Y-126425000D01*
X46195440Y-126449776D01*
X46202667Y-126473601D01*
X46214403Y-126495557D01*
X46230197Y-126514803D01*
X46249443Y-126530597D01*
X46271399Y-126542333D01*
X46295224Y-126549560D01*
X46320000Y-126552000D01*
X57115000Y-126552000D01*
X57139776Y-126549560D01*
X57163601Y-126542333D01*
X57185557Y-126530597D01*
X57204803Y-126514803D01*
X57220597Y-126495557D01*
X57232333Y-126473601D01*
X57239560Y-126449776D01*
X57242000Y-126425000D01*
X57242000Y-120837000D01*
X72355000Y-120837000D01*
X72379776Y-120834560D01*
X72403601Y-120827333D01*
X72425557Y-120815597D01*
X72444803Y-120799803D01*
X72460597Y-120780557D01*
X72472333Y-120758601D01*
X72479560Y-120734776D01*
X72482000Y-120710000D01*
X72482000Y-116900000D01*
X72479560Y-116875224D01*
X72472333Y-116851399D01*
X72460597Y-116829443D01*
X72444803Y-116810197D01*
X68634803Y-113000197D01*
X68615557Y-112984403D01*
X68593601Y-112972667D01*
X68569776Y-112965440D01*
X68545000Y-112963000D01*
X57877000Y-112963000D01*
X57877000Y-106867000D01*
X70397394Y-106867000D01*
X76673000Y-113142606D01*
X76673000Y-148015000D01*
X76675440Y-148039776D01*
X76682667Y-148063601D01*
X76694403Y-148085557D01*
X76710197Y-148104803D01*
X79250197Y-150644803D01*
X79269443Y-150660597D01*
X79291399Y-150672333D01*
X79315224Y-150679560D01*
X79340000Y-150682000D01*
X93310000Y-150682000D01*
X93334776Y-150679560D01*
X93358601Y-150672333D01*
X93380557Y-150660597D01*
X93399803Y-150644803D01*
X93997606Y-150047000D01*
X100877394Y-150047000D01*
X101475197Y-150644803D01*
X101494443Y-150660597D01*
X101516399Y-150672333D01*
X101540224Y-150679560D01*
X101565000Y-150682000D01*
X146015000Y-150682000D01*
X146039776Y-150679560D01*
X146063601Y-150672333D01*
X146085557Y-150660597D01*
X146104803Y-150644803D01*
X146702606Y-150047000D01*
X151042394Y-150047000D01*
X151640197Y-150644803D01*
X151659443Y-150660597D01*
X151681399Y-150672333D01*
X151705224Y-150679560D01*
X151730000Y-150682000D01*
X227295000Y-150682000D01*
X227319776Y-150679560D01*
X227351796Y-150668592D01*
X228594980Y-150047000D01*
X229617836Y-150047000D01*
X229695537Y-150098918D01*
X229993088Y-150222168D01*
X230308967Y-150285000D01*
X230631033Y-150285000D01*
X230946912Y-150222168D01*
X231244463Y-150098918D01*
X231322164Y-150047000D01*
X232980020Y-150047000D01*
X234223204Y-150668592D01*
X234246456Y-150677490D01*
X234280000Y-150682000D01*
X256505000Y-150682000D01*
X256529776Y-150679560D01*
X256553601Y-150672333D01*
X256575557Y-150660597D01*
X256594803Y-150644803D01*
X259732606Y-147507000D01*
X264633000Y-147507000D01*
X264633000Y-149867394D01*
X260262394Y-154238000D01*
X233117818Y-154238000D01*
X233129824Y-154232854D01*
X233185158Y-154210047D01*
X233193264Y-154205664D01*
X233410466Y-154086256D01*
X233459791Y-154052482D01*
X233509648Y-154019357D01*
X233516749Y-154013483D01*
X233706621Y-153854160D01*
X233748465Y-153811431D01*
X233790918Y-153769273D01*
X233796742Y-153762132D01*
X233952053Y-153568965D01*
X233984814Y-153518901D01*
X234018260Y-153469315D01*
X234022586Y-153461179D01*
X234137418Y-153241524D01*
X234159802Y-153186120D01*
X234183007Y-153130919D01*
X234185670Y-153122097D01*
X234255652Y-152884321D01*
X234266861Y-152825559D01*
X234278890Y-152766962D01*
X234279789Y-152757791D01*
X234302253Y-152510951D01*
X234301835Y-152451135D01*
X234302253Y-152391318D01*
X234301354Y-152382147D01*
X234275446Y-152135644D01*
X234263412Y-152077017D01*
X234252208Y-152018284D01*
X234249544Y-152009462D01*
X234176249Y-151772686D01*
X234153074Y-151717555D01*
X234130661Y-151662080D01*
X234126334Y-151653944D01*
X234008446Y-151435914D01*
X233975012Y-151386346D01*
X233942240Y-151336265D01*
X233936416Y-151329124D01*
X233778423Y-151138144D01*
X233735988Y-151096005D01*
X233694125Y-151053255D01*
X233687024Y-151047381D01*
X233494946Y-150890727D01*
X233445169Y-150857655D01*
X233395763Y-150823826D01*
X233387657Y-150819444D01*
X233168809Y-150703081D01*
X233113532Y-150680298D01*
X233058525Y-150656721D01*
X233049722Y-150653997D01*
X232812441Y-150582357D01*
X232753754Y-150570736D01*
X232695248Y-150558300D01*
X232686085Y-150557337D01*
X232686083Y-150557337D01*
X232439405Y-150533150D01*
X232439402Y-150533150D01*
X232407419Y-150530000D01*
X229167581Y-150530000D01*
X229134339Y-150533274D01*
X229117863Y-150533274D01*
X229108698Y-150534237D01*
X228862382Y-150561866D01*
X228803865Y-150574305D01*
X228745192Y-150585922D01*
X228736389Y-150588647D01*
X228500131Y-150663592D01*
X228445209Y-150687132D01*
X228389842Y-150709952D01*
X228381736Y-150714336D01*
X228164534Y-150833744D01*
X228115171Y-150867543D01*
X228065352Y-150900643D01*
X228058252Y-150906517D01*
X227868379Y-151065839D01*
X227826516Y-151108588D01*
X227784082Y-151150727D01*
X227778258Y-151157868D01*
X227622947Y-151351035D01*
X227590186Y-151401099D01*
X227556740Y-151450685D01*
X227552418Y-151458814D01*
X227552415Y-151458819D01*
X227552414Y-151458822D01*
X227437582Y-151678476D01*
X227415173Y-151733942D01*
X227391994Y-151789081D01*
X227389330Y-151797903D01*
X227319348Y-152035679D01*
X227308139Y-152094441D01*
X227296110Y-152153038D01*
X227295211Y-152162209D01*
X227272747Y-152409049D01*
X227273165Y-152468866D01*
X227272747Y-152528682D01*
X227273646Y-152537853D01*
X227299554Y-152784357D01*
X227311588Y-152842983D01*
X227322792Y-152901716D01*
X227325456Y-152910538D01*
X227398751Y-153147314D01*
X227421931Y-153202457D01*
X227444339Y-153257920D01*
X227448665Y-153266054D01*
X227448667Y-153266059D01*
X227448670Y-153266064D01*
X227566553Y-153484086D01*
X227599988Y-153533654D01*
X227632759Y-153583735D01*
X227638584Y-153590876D01*
X227796577Y-153781856D01*
X227839012Y-153823995D01*
X227880875Y-153866745D01*
X227887976Y-153872618D01*
X228080053Y-154029273D01*
X228129875Y-154062374D01*
X228179237Y-154096173D01*
X228187343Y-154100556D01*
X228406191Y-154216919D01*
X228457337Y-154238000D01*
X151202818Y-154238000D01*
X151214824Y-154232854D01*
X151270158Y-154210047D01*
X151278264Y-154205664D01*
X151495466Y-154086256D01*
X151544791Y-154052482D01*
X151594648Y-154019357D01*
X151601749Y-154013483D01*
X151791621Y-153854160D01*
X151833465Y-153811431D01*
X151875918Y-153769273D01*
X151881742Y-153762132D01*
X152037053Y-153568965D01*
X152069814Y-153518901D01*
X152103260Y-153469315D01*
X152107586Y-153461179D01*
X152222418Y-153241524D01*
X152244802Y-153186120D01*
X152268007Y-153130919D01*
X152270670Y-153122097D01*
X152340652Y-152884321D01*
X152351861Y-152825559D01*
X152363890Y-152766962D01*
X152364789Y-152757791D01*
X152387253Y-152510951D01*
X152386835Y-152451135D01*
X152387253Y-152391318D01*
X152386354Y-152382147D01*
X152360446Y-152135644D01*
X152348412Y-152077017D01*
X152337208Y-152018284D01*
X152334544Y-152009462D01*
X152261249Y-151772686D01*
X152238074Y-151717555D01*
X152215661Y-151662080D01*
X152211334Y-151653944D01*
X152093446Y-151435914D01*
X152060012Y-151386346D01*
X152027240Y-151336265D01*
X152021416Y-151329124D01*
X151863423Y-151138144D01*
X151820988Y-151096005D01*
X151779125Y-151053255D01*
X151772024Y-151047381D01*
X151579946Y-150890727D01*
X151530169Y-150857655D01*
X151480763Y-150823826D01*
X151472657Y-150819444D01*
X151253809Y-150703081D01*
X151198532Y-150680298D01*
X151143525Y-150656721D01*
X151134722Y-150653997D01*
X150897441Y-150582357D01*
X150838754Y-150570736D01*
X150780248Y-150558300D01*
X150771085Y-150557337D01*
X150771083Y-150557337D01*
X150524405Y-150533150D01*
X150524402Y-150533150D01*
X150492419Y-150530000D01*
X147252581Y-150530000D01*
X147219339Y-150533274D01*
X147202863Y-150533274D01*
X147193698Y-150534237D01*
X146947382Y-150561866D01*
X146888865Y-150574305D01*
X146830192Y-150585922D01*
X146821389Y-150588647D01*
X146585131Y-150663592D01*
X146530209Y-150687132D01*
X146474842Y-150709952D01*
X146466736Y-150714336D01*
X146249534Y-150833744D01*
X146200171Y-150867543D01*
X146150352Y-150900643D01*
X146143252Y-150906517D01*
X145953379Y-151065839D01*
X145911516Y-151108588D01*
X145869082Y-151150727D01*
X145863258Y-151157868D01*
X145707947Y-151351035D01*
X145675186Y-151401099D01*
X145641740Y-151450685D01*
X145637418Y-151458814D01*
X145637415Y-151458819D01*
X145637414Y-151458822D01*
X145522582Y-151678476D01*
X145500173Y-151733942D01*
X145476994Y-151789081D01*
X145474330Y-151797903D01*
X145404348Y-152035679D01*
X145393139Y-152094441D01*
X145381110Y-152153038D01*
X145380211Y-152162209D01*
X145357747Y-152409049D01*
X145358165Y-152468866D01*
X145357747Y-152528682D01*
X145358646Y-152537853D01*
X145384554Y-152784357D01*
X145396588Y-152842983D01*
X145407792Y-152901716D01*
X145410456Y-152910538D01*
X145483751Y-153147314D01*
X145506931Y-153202457D01*
X145529339Y-153257920D01*
X145533665Y-153266054D01*
X145533667Y-153266059D01*
X145533670Y-153266064D01*
X145651553Y-153484086D01*
X145684988Y-153533654D01*
X145717759Y-153583735D01*
X145723584Y-153590876D01*
X145881577Y-153781856D01*
X145924012Y-153823995D01*
X145965875Y-153866745D01*
X145972976Y-153872618D01*
X146165053Y-154029273D01*
X146214875Y-154062374D01*
X146264237Y-154096173D01*
X146272343Y-154100556D01*
X146491191Y-154216919D01*
X146542337Y-154238000D01*
X99767818Y-154238000D01*
X99779824Y-154232854D01*
X99835158Y-154210047D01*
X99843264Y-154205664D01*
X100060466Y-154086256D01*
X100109791Y-154052482D01*
X100159648Y-154019357D01*
X100166749Y-154013483D01*
X100356621Y-153854160D01*
X100398465Y-153811431D01*
X100440918Y-153769273D01*
X100446742Y-153762132D01*
X100602053Y-153568965D01*
X100634814Y-153518901D01*
X100668260Y-153469315D01*
X100672586Y-153461179D01*
X100787418Y-153241524D01*
X100809802Y-153186120D01*
X100833007Y-153130919D01*
X100835670Y-153122097D01*
X100905652Y-152884321D01*
X100916861Y-152825559D01*
X100928890Y-152766962D01*
X100929789Y-152757791D01*
X100952253Y-152510951D01*
X100951835Y-152451135D01*
X100952253Y-152391318D01*
X100951354Y-152382147D01*
X100925446Y-152135644D01*
X100913412Y-152077017D01*
X100902208Y-152018284D01*
X100899544Y-152009462D01*
X100826249Y-151772686D01*
X100803074Y-151717555D01*
X100780661Y-151662080D01*
X100776334Y-151653944D01*
X100658446Y-151435914D01*
X100625012Y-151386346D01*
X100592240Y-151336265D01*
X100586416Y-151329124D01*
X100428423Y-151138144D01*
X100385988Y-151096005D01*
X100344125Y-151053255D01*
X100337024Y-151047381D01*
X100144946Y-150890727D01*
X100095169Y-150857655D01*
X100045763Y-150823826D01*
X100037657Y-150819444D01*
X99818809Y-150703081D01*
X99763532Y-150680298D01*
X99708525Y-150656721D01*
X99699722Y-150653997D01*
X99462441Y-150582357D01*
X99403754Y-150570736D01*
X99345248Y-150558300D01*
X99336085Y-150557337D01*
X99336083Y-150557337D01*
X99089405Y-150533150D01*
X99089402Y-150533150D01*
X99057419Y-150530000D01*
X95817581Y-150530000D01*
X95784339Y-150533274D01*
X95767863Y-150533274D01*
X95758698Y-150534237D01*
X95512382Y-150561866D01*
X95453865Y-150574305D01*
X95395192Y-150585922D01*
X95386389Y-150588647D01*
X95150131Y-150663592D01*
X95095209Y-150687132D01*
X95039842Y-150709952D01*
X95031736Y-150714336D01*
X94814534Y-150833744D01*
X94765171Y-150867543D01*
X94715352Y-150900643D01*
X94708252Y-150906517D01*
X94518379Y-151065839D01*
X94476516Y-151108588D01*
X94434082Y-151150727D01*
X94428258Y-151157868D01*
X94272947Y-151351035D01*
X94240186Y-151401099D01*
X94206740Y-151450685D01*
X94202418Y-151458814D01*
X94202415Y-151458819D01*
X94202414Y-151458822D01*
X94087582Y-151678476D01*
X94065173Y-151733942D01*
X94041994Y-151789081D01*
X94039330Y-151797903D01*
X93969348Y-152035679D01*
X93958139Y-152094441D01*
X93946110Y-152153038D01*
X93945211Y-152162209D01*
X93922747Y-152409049D01*
X93923165Y-152468866D01*
X93922747Y-152528682D01*
X93923646Y-152537853D01*
X93949554Y-152784357D01*
X93961588Y-152842983D01*
X93972792Y-152901716D01*
X93975456Y-152910538D01*
X94048751Y-153147314D01*
X94071931Y-153202457D01*
X94094339Y-153257920D01*
X94098665Y-153266054D01*
X94098667Y-153266059D01*
X94098670Y-153266064D01*
X94216553Y-153484086D01*
X94249988Y-153533654D01*
X94282759Y-153583735D01*
X94288584Y-153590876D01*
X94446577Y-153781856D01*
X94489012Y-153823995D01*
X94530875Y-153866745D01*
X94537976Y-153872618D01*
X94730053Y-154029273D01*
X94779875Y-154062374D01*
X94829237Y-154096173D01*
X94837343Y-154100556D01*
X95056191Y-154216919D01*
X95107337Y-154238000D01*
X38752606Y-154238000D01*
X26762000Y-142247394D01*
X26762000Y-141415324D01*
X32609000Y-141415324D01*
X32609000Y-141914676D01*
X32706418Y-142404432D01*
X32897512Y-142865773D01*
X33174937Y-143280968D01*
X33528032Y-143634063D01*
X33943227Y-143911488D01*
X34404568Y-144102582D01*
X34894324Y-144200000D01*
X35393676Y-144200000D01*
X35883432Y-144102582D01*
X36344773Y-143911488D01*
X36759968Y-143634063D01*
X37113063Y-143280968D01*
X37390488Y-142865773D01*
X37581582Y-142404432D01*
X37679000Y-141914676D01*
X37679000Y-141415324D01*
X37581582Y-140925568D01*
X37423946Y-140545000D01*
X49638461Y-140545000D01*
X49684510Y-141012542D01*
X49820887Y-141462116D01*
X50042351Y-141876446D01*
X50340391Y-142239609D01*
X50703554Y-142537649D01*
X51117884Y-142759113D01*
X51567458Y-142895490D01*
X51917843Y-142930000D01*
X52152157Y-142930000D01*
X52502542Y-142895490D01*
X52952116Y-142759113D01*
X53366446Y-142537649D01*
X53729609Y-142239609D01*
X54027649Y-141876446D01*
X54249113Y-141462116D01*
X54385490Y-141012542D01*
X54431539Y-140545000D01*
X54385490Y-140077458D01*
X54249113Y-139627884D01*
X54027649Y-139213554D01*
X53729609Y-138850391D01*
X53366446Y-138552351D01*
X52952116Y-138330887D01*
X52502542Y-138194510D01*
X52152157Y-138160000D01*
X51917843Y-138160000D01*
X51567458Y-138194510D01*
X51117884Y-138330887D01*
X50703554Y-138552351D01*
X50340391Y-138850391D01*
X50042351Y-139213554D01*
X49820887Y-139627884D01*
X49684510Y-140077458D01*
X49638461Y-140545000D01*
X37423946Y-140545000D01*
X37390488Y-140464227D01*
X37113063Y-140049032D01*
X36759968Y-139695937D01*
X36344773Y-139418512D01*
X35883432Y-139227418D01*
X35393676Y-139130000D01*
X34894324Y-139130000D01*
X34404568Y-139227418D01*
X33943227Y-139418512D01*
X33528032Y-139695937D01*
X33174937Y-140049032D01*
X32897512Y-140464227D01*
X32706418Y-140925568D01*
X32609000Y-141415324D01*
X26762000Y-141415324D01*
X26762000Y-135347418D01*
X72330000Y-135347418D01*
X72333274Y-135380660D01*
X72333274Y-135397137D01*
X72334237Y-135406302D01*
X72361866Y-135652618D01*
X72374297Y-135711098D01*
X72385921Y-135769808D01*
X72388647Y-135778611D01*
X72463592Y-136014869D01*
X72487146Y-136069824D01*
X72509953Y-136125158D01*
X72514336Y-136133264D01*
X72633744Y-136350466D01*
X72667518Y-136399791D01*
X72700643Y-136449648D01*
X72706517Y-136456749D01*
X72865840Y-136646621D01*
X72908569Y-136688465D01*
X72950727Y-136730918D01*
X72957868Y-136736742D01*
X73151035Y-136892053D01*
X73201099Y-136924814D01*
X73250685Y-136958260D01*
X73258821Y-136962586D01*
X73478476Y-137077418D01*
X73533880Y-137099802D01*
X73589081Y-137123007D01*
X73597903Y-137125670D01*
X73835679Y-137195652D01*
X73894441Y-137206861D01*
X73953038Y-137218890D01*
X73962209Y-137219789D01*
X74209049Y-137242253D01*
X74268866Y-137241835D01*
X74328682Y-137242253D01*
X74337853Y-137241354D01*
X74584357Y-137215446D01*
X74642986Y-137203411D01*
X74701716Y-137192208D01*
X74710532Y-137189546D01*
X74710536Y-137189545D01*
X74710539Y-137189544D01*
X74947314Y-137116249D01*
X75002457Y-137093069D01*
X75057920Y-137070661D01*
X75066054Y-137066335D01*
X75066059Y-137066333D01*
X75066064Y-137066330D01*
X75284086Y-136948447D01*
X75333654Y-136915012D01*
X75383735Y-136882241D01*
X75390876Y-136876416D01*
X75581856Y-136718423D01*
X75623995Y-136675988D01*
X75666745Y-136634125D01*
X75672618Y-136627024D01*
X75829273Y-136434947D01*
X75862374Y-136385125D01*
X75896173Y-136335763D01*
X75900556Y-136327657D01*
X76016919Y-136108809D01*
X76039707Y-136053521D01*
X76063279Y-135998525D01*
X76066003Y-135989722D01*
X76137643Y-135752441D01*
X76149264Y-135693754D01*
X76161700Y-135635248D01*
X76162663Y-135626083D01*
X76186850Y-135379405D01*
X76186850Y-135379402D01*
X76190000Y-135347419D01*
X76190000Y-132107581D01*
X76186726Y-132074339D01*
X76186726Y-132057863D01*
X76185763Y-132048698D01*
X76158134Y-131802382D01*
X76145695Y-131743865D01*
X76134078Y-131685192D01*
X76131353Y-131676389D01*
X76056408Y-131440131D01*
X76032868Y-131385209D01*
X76010048Y-131329842D01*
X76005664Y-131321736D01*
X75886256Y-131104534D01*
X75852457Y-131055171D01*
X75819357Y-131005352D01*
X75813483Y-130998252D01*
X75654161Y-130808379D01*
X75611412Y-130766516D01*
X75569273Y-130724082D01*
X75562132Y-130718258D01*
X75368965Y-130562947D01*
X75318901Y-130530186D01*
X75269315Y-130496740D01*
X75261186Y-130492418D01*
X75261181Y-130492415D01*
X75261176Y-130492413D01*
X75041524Y-130377582D01*
X74986058Y-130355173D01*
X74930919Y-130331994D01*
X74922097Y-130329330D01*
X74684321Y-130259348D01*
X74625559Y-130248139D01*
X74566962Y-130236110D01*
X74557791Y-130235211D01*
X74310951Y-130212747D01*
X74251135Y-130213165D01*
X74191318Y-130212747D01*
X74182147Y-130213646D01*
X73935644Y-130239554D01*
X73877028Y-130251586D01*
X73818284Y-130262792D01*
X73809462Y-130265456D01*
X73572686Y-130338751D01*
X73517555Y-130361926D01*
X73462080Y-130384339D01*
X73453944Y-130388666D01*
X73235914Y-130506554D01*
X73186346Y-130539988D01*
X73136265Y-130572760D01*
X73129124Y-130578584D01*
X72938144Y-130736577D01*
X72896015Y-130779002D01*
X72853255Y-130820875D01*
X72847381Y-130827976D01*
X72690727Y-131020054D01*
X72657655Y-131069831D01*
X72623826Y-131119237D01*
X72619444Y-131127343D01*
X72503081Y-131346191D01*
X72480298Y-131401468D01*
X72456721Y-131456475D01*
X72453997Y-131465278D01*
X72382357Y-131702559D01*
X72370736Y-131761246D01*
X72358300Y-131819752D01*
X72357337Y-131828917D01*
X72333150Y-132075595D01*
X72333150Y-132075608D01*
X72330001Y-132107581D01*
X72330000Y-135347418D01*
X26762000Y-135347418D01*
X26762000Y-132902000D01*
X29810000Y-132902000D01*
X29834776Y-132899560D01*
X29858601Y-132892333D01*
X29880557Y-132880597D01*
X29899803Y-132864803D01*
X29915597Y-132845557D01*
X29927333Y-132823601D01*
X29934560Y-132799776D01*
X29937000Y-132775000D01*
X29937000Y-123250000D01*
X29934560Y-123225224D01*
X29927333Y-123201399D01*
X29915597Y-123179443D01*
X29899803Y-123160197D01*
X29880557Y-123144403D01*
X29858601Y-123132667D01*
X29834776Y-123125440D01*
X29810000Y-123123000D01*
X26762000Y-123123000D01*
X26762000Y-119305413D01*
X38379192Y-119305413D01*
X38474956Y-119569814D01*
X38764571Y-119710704D01*
X39076108Y-119792384D01*
X39397595Y-119811718D01*
X39716675Y-119767961D01*
X40021088Y-119662795D01*
X40195044Y-119569814D01*
X40290808Y-119305413D01*
X39335000Y-118349605D01*
X38379192Y-119305413D01*
X26762000Y-119305413D01*
X26762000Y-118232595D01*
X37693282Y-118232595D01*
X37737039Y-118551675D01*
X37842205Y-118856088D01*
X37935186Y-119030044D01*
X38199587Y-119125808D01*
X39155395Y-118170000D01*
X39514605Y-118170000D01*
X40470413Y-119125808D01*
X40734814Y-119030044D01*
X40875704Y-118740429D01*
X40957384Y-118428892D01*
X40976718Y-118107405D01*
X40932961Y-117788325D01*
X40827795Y-117483912D01*
X40734814Y-117309956D01*
X40470413Y-117214192D01*
X39514605Y-118170000D01*
X39155395Y-118170000D01*
X38199587Y-117214192D01*
X37935186Y-117309956D01*
X37794296Y-117599571D01*
X37712616Y-117911108D01*
X37693282Y-118232595D01*
X26762000Y-118232595D01*
X26762000Y-117034587D01*
X38379192Y-117034587D01*
X39335000Y-117990395D01*
X40290808Y-117034587D01*
X40195044Y-116770186D01*
X39905429Y-116629296D01*
X39593892Y-116547616D01*
X39272405Y-116528282D01*
X38953325Y-116572039D01*
X38648912Y-116677205D01*
X38474956Y-116770186D01*
X38379192Y-117034587D01*
X26762000Y-117034587D01*
X26762000Y-45272000D01*
X36668000Y-45272000D01*
X36668000Y-50098000D01*
X36668000Y-50098000D01*
G37*
X36668000Y-50098000D02*
X31715000Y-50098000D01*
X31690224Y-50100440D01*
X31666399Y-50107667D01*
X31644443Y-50119403D01*
X31625197Y-50135197D01*
X31609403Y-50154443D01*
X31597667Y-50176399D01*
X31590440Y-50200224D01*
X31588000Y-50225000D01*
X31588000Y-57210000D01*
X31590440Y-57234776D01*
X31597667Y-57258601D01*
X31609403Y-57280557D01*
X31625197Y-57299803D01*
X31644443Y-57315597D01*
X31666399Y-57327333D01*
X31690224Y-57334560D01*
X31715000Y-57337000D01*
X36668000Y-57337000D01*
X36668000Y-87637394D01*
X31625197Y-92680197D01*
X31609403Y-92699443D01*
X31597667Y-92721399D01*
X31590440Y-92745224D01*
X31588000Y-92770000D01*
X31588000Y-107375000D01*
X31590440Y-107399776D01*
X31597667Y-107423601D01*
X31609403Y-107445557D01*
X31625197Y-107464803D01*
X31644443Y-107480597D01*
X31666399Y-107492333D01*
X31690224Y-107499560D01*
X31715000Y-107502000D01*
X46193000Y-107502000D01*
X46193000Y-126425000D01*
X46195440Y-126449776D01*
X46202667Y-126473601D01*
X46214403Y-126495557D01*
X46230197Y-126514803D01*
X46249443Y-126530597D01*
X46271399Y-126542333D01*
X46295224Y-126549560D01*
X46320000Y-126552000D01*
X57115000Y-126552000D01*
X57139776Y-126549560D01*
X57163601Y-126542333D01*
X57185557Y-126530597D01*
X57204803Y-126514803D01*
X57220597Y-126495557D01*
X57232333Y-126473601D01*
X57239560Y-126449776D01*
X57242000Y-126425000D01*
X57242000Y-120837000D01*
X72355000Y-120837000D01*
X72379776Y-120834560D01*
X72403601Y-120827333D01*
X72425557Y-120815597D01*
X72444803Y-120799803D01*
X72460597Y-120780557D01*
X72472333Y-120758601D01*
X72479560Y-120734776D01*
X72482000Y-120710000D01*
X72482000Y-116900000D01*
X72479560Y-116875224D01*
X72472333Y-116851399D01*
X72460597Y-116829443D01*
X72444803Y-116810197D01*
X68634803Y-113000197D01*
X68615557Y-112984403D01*
X68593601Y-112972667D01*
X68569776Y-112965440D01*
X68545000Y-112963000D01*
X57877000Y-112963000D01*
X57877000Y-106867000D01*
X70397394Y-106867000D01*
X76673000Y-113142606D01*
X76673000Y-148015000D01*
X76675440Y-148039776D01*
X76682667Y-148063601D01*
X76694403Y-148085557D01*
X76710197Y-148104803D01*
X79250197Y-150644803D01*
X79269443Y-150660597D01*
X79291399Y-150672333D01*
X79315224Y-150679560D01*
X79340000Y-150682000D01*
X93310000Y-150682000D01*
X93334776Y-150679560D01*
X93358601Y-150672333D01*
X93380557Y-150660597D01*
X93399803Y-150644803D01*
X93997606Y-150047000D01*
X100877394Y-150047000D01*
X101475197Y-150644803D01*
X101494443Y-150660597D01*
X101516399Y-150672333D01*
X101540224Y-150679560D01*
X101565000Y-150682000D01*
X146015000Y-150682000D01*
X146039776Y-150679560D01*
X146063601Y-150672333D01*
X146085557Y-150660597D01*
X146104803Y-150644803D01*
X146702606Y-150047000D01*
X151042394Y-150047000D01*
X151640197Y-150644803D01*
X151659443Y-150660597D01*
X151681399Y-150672333D01*
X151705224Y-150679560D01*
X151730000Y-150682000D01*
X227295000Y-150682000D01*
X227319776Y-150679560D01*
X227351796Y-150668592D01*
X228594980Y-150047000D01*
X229617836Y-150047000D01*
X229695537Y-150098918D01*
X229993088Y-150222168D01*
X230308967Y-150285000D01*
X230631033Y-150285000D01*
X230946912Y-150222168D01*
X231244463Y-150098918D01*
X231322164Y-150047000D01*
X232980020Y-150047000D01*
X234223204Y-150668592D01*
X234246456Y-150677490D01*
X234280000Y-150682000D01*
X256505000Y-150682000D01*
X256529776Y-150679560D01*
X256553601Y-150672333D01*
X256575557Y-150660597D01*
X256594803Y-150644803D01*
X259732606Y-147507000D01*
X264633000Y-147507000D01*
X264633000Y-149867394D01*
X260262394Y-154238000D01*
X233117818Y-154238000D01*
X233129824Y-154232854D01*
X233185158Y-154210047D01*
X233193264Y-154205664D01*
X233410466Y-154086256D01*
X233459791Y-154052482D01*
X233509648Y-154019357D01*
X233516749Y-154013483D01*
X233706621Y-153854160D01*
X233748465Y-153811431D01*
X233790918Y-153769273D01*
X233796742Y-153762132D01*
X233952053Y-153568965D01*
X233984814Y-153518901D01*
X234018260Y-153469315D01*
X234022586Y-153461179D01*
X234137418Y-153241524D01*
X234159802Y-153186120D01*
X234183007Y-153130919D01*
X234185670Y-153122097D01*
X234255652Y-152884321D01*
X234266861Y-152825559D01*
X234278890Y-152766962D01*
X234279789Y-152757791D01*
X234302253Y-152510951D01*
X234301835Y-152451135D01*
X234302253Y-152391318D01*
X234301354Y-152382147D01*
X234275446Y-152135644D01*
X234263412Y-152077017D01*
X234252208Y-152018284D01*
X234249544Y-152009462D01*
X234176249Y-151772686D01*
X234153074Y-151717555D01*
X234130661Y-151662080D01*
X234126334Y-151653944D01*
X234008446Y-151435914D01*
X233975012Y-151386346D01*
X233942240Y-151336265D01*
X233936416Y-151329124D01*
X233778423Y-151138144D01*
X233735988Y-151096005D01*
X233694125Y-151053255D01*
X233687024Y-151047381D01*
X233494946Y-150890727D01*
X233445169Y-150857655D01*
X233395763Y-150823826D01*
X233387657Y-150819444D01*
X233168809Y-150703081D01*
X233113532Y-150680298D01*
X233058525Y-150656721D01*
X233049722Y-150653997D01*
X232812441Y-150582357D01*
X232753754Y-150570736D01*
X232695248Y-150558300D01*
X232686085Y-150557337D01*
X232686083Y-150557337D01*
X232439405Y-150533150D01*
X232439402Y-150533150D01*
X232407419Y-150530000D01*
X229167581Y-150530000D01*
X229134339Y-150533274D01*
X229117863Y-150533274D01*
X229108698Y-150534237D01*
X228862382Y-150561866D01*
X228803865Y-150574305D01*
X228745192Y-150585922D01*
X228736389Y-150588647D01*
X228500131Y-150663592D01*
X228445209Y-150687132D01*
X228389842Y-150709952D01*
X228381736Y-150714336D01*
X228164534Y-150833744D01*
X228115171Y-150867543D01*
X228065352Y-150900643D01*
X228058252Y-150906517D01*
X227868379Y-151065839D01*
X227826516Y-151108588D01*
X227784082Y-151150727D01*
X227778258Y-151157868D01*
X227622947Y-151351035D01*
X227590186Y-151401099D01*
X227556740Y-151450685D01*
X227552418Y-151458814D01*
X227552415Y-151458819D01*
X227552414Y-151458822D01*
X227437582Y-151678476D01*
X227415173Y-151733942D01*
X227391994Y-151789081D01*
X227389330Y-151797903D01*
X227319348Y-152035679D01*
X227308139Y-152094441D01*
X227296110Y-152153038D01*
X227295211Y-152162209D01*
X227272747Y-152409049D01*
X227273165Y-152468866D01*
X227272747Y-152528682D01*
X227273646Y-152537853D01*
X227299554Y-152784357D01*
X227311588Y-152842983D01*
X227322792Y-152901716D01*
X227325456Y-152910538D01*
X227398751Y-153147314D01*
X227421931Y-153202457D01*
X227444339Y-153257920D01*
X227448665Y-153266054D01*
X227448667Y-153266059D01*
X227448670Y-153266064D01*
X227566553Y-153484086D01*
X227599988Y-153533654D01*
X227632759Y-153583735D01*
X227638584Y-153590876D01*
X227796577Y-153781856D01*
X227839012Y-153823995D01*
X227880875Y-153866745D01*
X227887976Y-153872618D01*
X228080053Y-154029273D01*
X228129875Y-154062374D01*
X228179237Y-154096173D01*
X228187343Y-154100556D01*
X228406191Y-154216919D01*
X228457337Y-154238000D01*
X151202818Y-154238000D01*
X151214824Y-154232854D01*
X151270158Y-154210047D01*
X151278264Y-154205664D01*
X151495466Y-154086256D01*
X151544791Y-154052482D01*
X151594648Y-154019357D01*
X151601749Y-154013483D01*
X151791621Y-153854160D01*
X151833465Y-153811431D01*
X151875918Y-153769273D01*
X151881742Y-153762132D01*
X152037053Y-153568965D01*
X152069814Y-153518901D01*
X152103260Y-153469315D01*
X152107586Y-153461179D01*
X152222418Y-153241524D01*
X152244802Y-153186120D01*
X152268007Y-153130919D01*
X152270670Y-153122097D01*
X152340652Y-152884321D01*
X152351861Y-152825559D01*
X152363890Y-152766962D01*
X152364789Y-152757791D01*
X152387253Y-152510951D01*
X152386835Y-152451135D01*
X152387253Y-152391318D01*
X152386354Y-152382147D01*
X152360446Y-152135644D01*
X152348412Y-152077017D01*
X152337208Y-152018284D01*
X152334544Y-152009462D01*
X152261249Y-151772686D01*
X152238074Y-151717555D01*
X152215661Y-151662080D01*
X152211334Y-151653944D01*
X152093446Y-151435914D01*
X152060012Y-151386346D01*
X152027240Y-151336265D01*
X152021416Y-151329124D01*
X151863423Y-151138144D01*
X151820988Y-151096005D01*
X151779125Y-151053255D01*
X151772024Y-151047381D01*
X151579946Y-150890727D01*
X151530169Y-150857655D01*
X151480763Y-150823826D01*
X151472657Y-150819444D01*
X151253809Y-150703081D01*
X151198532Y-150680298D01*
X151143525Y-150656721D01*
X151134722Y-150653997D01*
X150897441Y-150582357D01*
X150838754Y-150570736D01*
X150780248Y-150558300D01*
X150771085Y-150557337D01*
X150771083Y-150557337D01*
X150524405Y-150533150D01*
X150524402Y-150533150D01*
X150492419Y-150530000D01*
X147252581Y-150530000D01*
X147219339Y-150533274D01*
X147202863Y-150533274D01*
X147193698Y-150534237D01*
X146947382Y-150561866D01*
X146888865Y-150574305D01*
X146830192Y-150585922D01*
X146821389Y-150588647D01*
X146585131Y-150663592D01*
X146530209Y-150687132D01*
X146474842Y-150709952D01*
X146466736Y-150714336D01*
X146249534Y-150833744D01*
X146200171Y-150867543D01*
X146150352Y-150900643D01*
X146143252Y-150906517D01*
X145953379Y-151065839D01*
X145911516Y-151108588D01*
X145869082Y-151150727D01*
X145863258Y-151157868D01*
X145707947Y-151351035D01*
X145675186Y-151401099D01*
X145641740Y-151450685D01*
X145637418Y-151458814D01*
X145637415Y-151458819D01*
X145637414Y-151458822D01*
X145522582Y-151678476D01*
X145500173Y-151733942D01*
X145476994Y-151789081D01*
X145474330Y-151797903D01*
X145404348Y-152035679D01*
X145393139Y-152094441D01*
X145381110Y-152153038D01*
X145380211Y-152162209D01*
X145357747Y-152409049D01*
X145358165Y-152468866D01*
X145357747Y-152528682D01*
X145358646Y-152537853D01*
X145384554Y-152784357D01*
X145396588Y-152842983D01*
X145407792Y-152901716D01*
X145410456Y-152910538D01*
X145483751Y-153147314D01*
X145506931Y-153202457D01*
X145529339Y-153257920D01*
X145533665Y-153266054D01*
X145533667Y-153266059D01*
X145533670Y-153266064D01*
X145651553Y-153484086D01*
X145684988Y-153533654D01*
X145717759Y-153583735D01*
X145723584Y-153590876D01*
X145881577Y-153781856D01*
X145924012Y-153823995D01*
X145965875Y-153866745D01*
X145972976Y-153872618D01*
X146165053Y-154029273D01*
X146214875Y-154062374D01*
X146264237Y-154096173D01*
X146272343Y-154100556D01*
X146491191Y-154216919D01*
X146542337Y-154238000D01*
X99767818Y-154238000D01*
X99779824Y-154232854D01*
X99835158Y-154210047D01*
X99843264Y-154205664D01*
X100060466Y-154086256D01*
X100109791Y-154052482D01*
X100159648Y-154019357D01*
X100166749Y-154013483D01*
X100356621Y-153854160D01*
X100398465Y-153811431D01*
X100440918Y-153769273D01*
X100446742Y-153762132D01*
X100602053Y-153568965D01*
X100634814Y-153518901D01*
X100668260Y-153469315D01*
X100672586Y-153461179D01*
X100787418Y-153241524D01*
X100809802Y-153186120D01*
X100833007Y-153130919D01*
X100835670Y-153122097D01*
X100905652Y-152884321D01*
X100916861Y-152825559D01*
X100928890Y-152766962D01*
X100929789Y-152757791D01*
X100952253Y-152510951D01*
X100951835Y-152451135D01*
X100952253Y-152391318D01*
X100951354Y-152382147D01*
X100925446Y-152135644D01*
X100913412Y-152077017D01*
X100902208Y-152018284D01*
X100899544Y-152009462D01*
X100826249Y-151772686D01*
X100803074Y-151717555D01*
X100780661Y-151662080D01*
X100776334Y-151653944D01*
X100658446Y-151435914D01*
X100625012Y-151386346D01*
X100592240Y-151336265D01*
X100586416Y-151329124D01*
X100428423Y-151138144D01*
X100385988Y-151096005D01*
X100344125Y-151053255D01*
X100337024Y-151047381D01*
X100144946Y-150890727D01*
X100095169Y-150857655D01*
X100045763Y-150823826D01*
X100037657Y-150819444D01*
X99818809Y-150703081D01*
X99763532Y-150680298D01*
X99708525Y-150656721D01*
X99699722Y-150653997D01*
X99462441Y-150582357D01*
X99403754Y-150570736D01*
X99345248Y-150558300D01*
X99336085Y-150557337D01*
X99336083Y-150557337D01*
X99089405Y-150533150D01*
X99089402Y-150533150D01*
X99057419Y-150530000D01*
X95817581Y-150530000D01*
X95784339Y-150533274D01*
X95767863Y-150533274D01*
X95758698Y-150534237D01*
X95512382Y-150561866D01*
X95453865Y-150574305D01*
X95395192Y-150585922D01*
X95386389Y-150588647D01*
X95150131Y-150663592D01*
X95095209Y-150687132D01*
X95039842Y-150709952D01*
X95031736Y-150714336D01*
X94814534Y-150833744D01*
X94765171Y-150867543D01*
X94715352Y-150900643D01*
X94708252Y-150906517D01*
X94518379Y-151065839D01*
X94476516Y-151108588D01*
X94434082Y-151150727D01*
X94428258Y-151157868D01*
X94272947Y-151351035D01*
X94240186Y-151401099D01*
X94206740Y-151450685D01*
X94202418Y-151458814D01*
X94202415Y-151458819D01*
X94202414Y-151458822D01*
X94087582Y-151678476D01*
X94065173Y-151733942D01*
X94041994Y-151789081D01*
X94039330Y-151797903D01*
X93969348Y-152035679D01*
X93958139Y-152094441D01*
X93946110Y-152153038D01*
X93945211Y-152162209D01*
X93922747Y-152409049D01*
X93923165Y-152468866D01*
X93922747Y-152528682D01*
X93923646Y-152537853D01*
X93949554Y-152784357D01*
X93961588Y-152842983D01*
X93972792Y-152901716D01*
X93975456Y-152910538D01*
X94048751Y-153147314D01*
X94071931Y-153202457D01*
X94094339Y-153257920D01*
X94098665Y-153266054D01*
X94098667Y-153266059D01*
X94098670Y-153266064D01*
X94216553Y-153484086D01*
X94249988Y-153533654D01*
X94282759Y-153583735D01*
X94288584Y-153590876D01*
X94446577Y-153781856D01*
X94489012Y-153823995D01*
X94530875Y-153866745D01*
X94537976Y-153872618D01*
X94730053Y-154029273D01*
X94779875Y-154062374D01*
X94829237Y-154096173D01*
X94837343Y-154100556D01*
X95056191Y-154216919D01*
X95107337Y-154238000D01*
X38752606Y-154238000D01*
X26762000Y-142247394D01*
X26762000Y-141415324D01*
X32609000Y-141415324D01*
X32609000Y-141914676D01*
X32706418Y-142404432D01*
X32897512Y-142865773D01*
X33174937Y-143280968D01*
X33528032Y-143634063D01*
X33943227Y-143911488D01*
X34404568Y-144102582D01*
X34894324Y-144200000D01*
X35393676Y-144200000D01*
X35883432Y-144102582D01*
X36344773Y-143911488D01*
X36759968Y-143634063D01*
X37113063Y-143280968D01*
X37390488Y-142865773D01*
X37581582Y-142404432D01*
X37679000Y-141914676D01*
X37679000Y-141415324D01*
X37581582Y-140925568D01*
X37423946Y-140545000D01*
X49638461Y-140545000D01*
X49684510Y-141012542D01*
X49820887Y-141462116D01*
X50042351Y-141876446D01*
X50340391Y-142239609D01*
X50703554Y-142537649D01*
X51117884Y-142759113D01*
X51567458Y-142895490D01*
X51917843Y-142930000D01*
X52152157Y-142930000D01*
X52502542Y-142895490D01*
X52952116Y-142759113D01*
X53366446Y-142537649D01*
X53729609Y-142239609D01*
X54027649Y-141876446D01*
X54249113Y-141462116D01*
X54385490Y-141012542D01*
X54431539Y-140545000D01*
X54385490Y-140077458D01*
X54249113Y-139627884D01*
X54027649Y-139213554D01*
X53729609Y-138850391D01*
X53366446Y-138552351D01*
X52952116Y-138330887D01*
X52502542Y-138194510D01*
X52152157Y-138160000D01*
X51917843Y-138160000D01*
X51567458Y-138194510D01*
X51117884Y-138330887D01*
X50703554Y-138552351D01*
X50340391Y-138850391D01*
X50042351Y-139213554D01*
X49820887Y-139627884D01*
X49684510Y-140077458D01*
X49638461Y-140545000D01*
X37423946Y-140545000D01*
X37390488Y-140464227D01*
X37113063Y-140049032D01*
X36759968Y-139695937D01*
X36344773Y-139418512D01*
X35883432Y-139227418D01*
X35393676Y-139130000D01*
X34894324Y-139130000D01*
X34404568Y-139227418D01*
X33943227Y-139418512D01*
X33528032Y-139695937D01*
X33174937Y-140049032D01*
X32897512Y-140464227D01*
X32706418Y-140925568D01*
X32609000Y-141415324D01*
X26762000Y-141415324D01*
X26762000Y-135347418D01*
X72330000Y-135347418D01*
X72333274Y-135380660D01*
X72333274Y-135397137D01*
X72334237Y-135406302D01*
X72361866Y-135652618D01*
X72374297Y-135711098D01*
X72385921Y-135769808D01*
X72388647Y-135778611D01*
X72463592Y-136014869D01*
X72487146Y-136069824D01*
X72509953Y-136125158D01*
X72514336Y-136133264D01*
X72633744Y-136350466D01*
X72667518Y-136399791D01*
X72700643Y-136449648D01*
X72706517Y-136456749D01*
X72865840Y-136646621D01*
X72908569Y-136688465D01*
X72950727Y-136730918D01*
X72957868Y-136736742D01*
X73151035Y-136892053D01*
X73201099Y-136924814D01*
X73250685Y-136958260D01*
X73258821Y-136962586D01*
X73478476Y-137077418D01*
X73533880Y-137099802D01*
X73589081Y-137123007D01*
X73597903Y-137125670D01*
X73835679Y-137195652D01*
X73894441Y-137206861D01*
X73953038Y-137218890D01*
X73962209Y-137219789D01*
X74209049Y-137242253D01*
X74268866Y-137241835D01*
X74328682Y-137242253D01*
X74337853Y-137241354D01*
X74584357Y-137215446D01*
X74642986Y-137203411D01*
X74701716Y-137192208D01*
X74710532Y-137189546D01*
X74710536Y-137189545D01*
X74710539Y-137189544D01*
X74947314Y-137116249D01*
X75002457Y-137093069D01*
X75057920Y-137070661D01*
X75066054Y-137066335D01*
X75066059Y-137066333D01*
X75066064Y-137066330D01*
X75284086Y-136948447D01*
X75333654Y-136915012D01*
X75383735Y-136882241D01*
X75390876Y-136876416D01*
X75581856Y-136718423D01*
X75623995Y-136675988D01*
X75666745Y-136634125D01*
X75672618Y-136627024D01*
X75829273Y-136434947D01*
X75862374Y-136385125D01*
X75896173Y-136335763D01*
X75900556Y-136327657D01*
X76016919Y-136108809D01*
X76039707Y-136053521D01*
X76063279Y-135998525D01*
X76066003Y-135989722D01*
X76137643Y-135752441D01*
X76149264Y-135693754D01*
X76161700Y-135635248D01*
X76162663Y-135626083D01*
X76186850Y-135379405D01*
X76186850Y-135379402D01*
X76190000Y-135347419D01*
X76190000Y-132107581D01*
X76186726Y-132074339D01*
X76186726Y-132057863D01*
X76185763Y-132048698D01*
X76158134Y-131802382D01*
X76145695Y-131743865D01*
X76134078Y-131685192D01*
X76131353Y-131676389D01*
X76056408Y-131440131D01*
X76032868Y-131385209D01*
X76010048Y-131329842D01*
X76005664Y-131321736D01*
X75886256Y-131104534D01*
X75852457Y-131055171D01*
X75819357Y-131005352D01*
X75813483Y-130998252D01*
X75654161Y-130808379D01*
X75611412Y-130766516D01*
X75569273Y-130724082D01*
X75562132Y-130718258D01*
X75368965Y-130562947D01*
X75318901Y-130530186D01*
X75269315Y-130496740D01*
X75261186Y-130492418D01*
X75261181Y-130492415D01*
X75261176Y-130492413D01*
X75041524Y-130377582D01*
X74986058Y-130355173D01*
X74930919Y-130331994D01*
X74922097Y-130329330D01*
X74684321Y-130259348D01*
X74625559Y-130248139D01*
X74566962Y-130236110D01*
X74557791Y-130235211D01*
X74310951Y-130212747D01*
X74251135Y-130213165D01*
X74191318Y-130212747D01*
X74182147Y-130213646D01*
X73935644Y-130239554D01*
X73877028Y-130251586D01*
X73818284Y-130262792D01*
X73809462Y-130265456D01*
X73572686Y-130338751D01*
X73517555Y-130361926D01*
X73462080Y-130384339D01*
X73453944Y-130388666D01*
X73235914Y-130506554D01*
X73186346Y-130539988D01*
X73136265Y-130572760D01*
X73129124Y-130578584D01*
X72938144Y-130736577D01*
X72896015Y-130779002D01*
X72853255Y-130820875D01*
X72847381Y-130827976D01*
X72690727Y-131020054D01*
X72657655Y-131069831D01*
X72623826Y-131119237D01*
X72619444Y-131127343D01*
X72503081Y-131346191D01*
X72480298Y-131401468D01*
X72456721Y-131456475D01*
X72453997Y-131465278D01*
X72382357Y-131702559D01*
X72370736Y-131761246D01*
X72358300Y-131819752D01*
X72357337Y-131828917D01*
X72333150Y-132075595D01*
X72333150Y-132075608D01*
X72330001Y-132107581D01*
X72330000Y-135347418D01*
X26762000Y-135347418D01*
X26762000Y-132902000D01*
X29810000Y-132902000D01*
X29834776Y-132899560D01*
X29858601Y-132892333D01*
X29880557Y-132880597D01*
X29899803Y-132864803D01*
X29915597Y-132845557D01*
X29927333Y-132823601D01*
X29934560Y-132799776D01*
X29937000Y-132775000D01*
X29937000Y-123250000D01*
X29934560Y-123225224D01*
X29927333Y-123201399D01*
X29915597Y-123179443D01*
X29899803Y-123160197D01*
X29880557Y-123144403D01*
X29858601Y-123132667D01*
X29834776Y-123125440D01*
X29810000Y-123123000D01*
X26762000Y-123123000D01*
X26762000Y-119305413D01*
X38379192Y-119305413D01*
X38474956Y-119569814D01*
X38764571Y-119710704D01*
X39076108Y-119792384D01*
X39397595Y-119811718D01*
X39716675Y-119767961D01*
X40021088Y-119662795D01*
X40195044Y-119569814D01*
X40290808Y-119305413D01*
X39335000Y-118349605D01*
X38379192Y-119305413D01*
X26762000Y-119305413D01*
X26762000Y-118232595D01*
X37693282Y-118232595D01*
X37737039Y-118551675D01*
X37842205Y-118856088D01*
X37935186Y-119030044D01*
X38199587Y-119125808D01*
X39155395Y-118170000D01*
X39514605Y-118170000D01*
X40470413Y-119125808D01*
X40734814Y-119030044D01*
X40875704Y-118740429D01*
X40957384Y-118428892D01*
X40976718Y-118107405D01*
X40932961Y-117788325D01*
X40827795Y-117483912D01*
X40734814Y-117309956D01*
X40470413Y-117214192D01*
X39514605Y-118170000D01*
X39155395Y-118170000D01*
X38199587Y-117214192D01*
X37935186Y-117309956D01*
X37794296Y-117599571D01*
X37712616Y-117911108D01*
X37693282Y-118232595D01*
X26762000Y-118232595D01*
X26762000Y-117034587D01*
X38379192Y-117034587D01*
X39335000Y-117990395D01*
X40290808Y-117034587D01*
X40195044Y-116770186D01*
X39905429Y-116629296D01*
X39593892Y-116547616D01*
X39272405Y-116528282D01*
X38953325Y-116572039D01*
X38648912Y-116677205D01*
X38474956Y-116770186D01*
X38379192Y-117034587D01*
X26762000Y-117034587D01*
X26762000Y-45272000D01*
X36668000Y-45272000D01*
X36668000Y-50098000D01*
G36*
X264633000Y-147253000D02*
G01*
X259807000Y-147253000D01*
X259807000Y-135347418D01*
X260290000Y-135347418D01*
X260293274Y-135380660D01*
X260293274Y-135397137D01*
X260294237Y-135406302D01*
X260321866Y-135652618D01*
X260334297Y-135711098D01*
X260345921Y-135769808D01*
X260348647Y-135778611D01*
X260423592Y-136014869D01*
X260447146Y-136069824D01*
X260469953Y-136125158D01*
X260474336Y-136133264D01*
X260593744Y-136350466D01*
X260627518Y-136399791D01*
X260660643Y-136449648D01*
X260666517Y-136456749D01*
X260825840Y-136646621D01*
X260868569Y-136688465D01*
X260910727Y-136730918D01*
X260917868Y-136736742D01*
X261111035Y-136892053D01*
X261161099Y-136924814D01*
X261210685Y-136958260D01*
X261218821Y-136962586D01*
X261438476Y-137077418D01*
X261493880Y-137099802D01*
X261549081Y-137123007D01*
X261557903Y-137125670D01*
X261795679Y-137195652D01*
X261854441Y-137206861D01*
X261913038Y-137218890D01*
X261922209Y-137219789D01*
X262169049Y-137242253D01*
X262228866Y-137241835D01*
X262288682Y-137242253D01*
X262297853Y-137241354D01*
X262544357Y-137215446D01*
X262602986Y-137203411D01*
X262661716Y-137192208D01*
X262670532Y-137189546D01*
X262670536Y-137189545D01*
X262670539Y-137189544D01*
X262907314Y-137116249D01*
X262962457Y-137093069D01*
X263017920Y-137070661D01*
X263026054Y-137066335D01*
X263026059Y-137066333D01*
X263026064Y-137066330D01*
X263244086Y-136948447D01*
X263293654Y-136915012D01*
X263343735Y-136882241D01*
X263350876Y-136876416D01*
X263541856Y-136718423D01*
X263583995Y-136675988D01*
X263626745Y-136634125D01*
X263632618Y-136627024D01*
X263789273Y-136434947D01*
X263822374Y-136385125D01*
X263856173Y-136335763D01*
X263860556Y-136327657D01*
X263976919Y-136108809D01*
X263999707Y-136053521D01*
X264023279Y-135998525D01*
X264026003Y-135989722D01*
X264097643Y-135752441D01*
X264109264Y-135693754D01*
X264121700Y-135635248D01*
X264122663Y-135626083D01*
X264146850Y-135379405D01*
X264146850Y-135379402D01*
X264150000Y-135347419D01*
X264150000Y-132107581D01*
X264146726Y-132074339D01*
X264146726Y-132057863D01*
X264145763Y-132048698D01*
X264118134Y-131802382D01*
X264105695Y-131743865D01*
X264094078Y-131685192D01*
X264091353Y-131676389D01*
X264016408Y-131440131D01*
X263992868Y-131385209D01*
X263970048Y-131329842D01*
X263965664Y-131321736D01*
X263846256Y-131104534D01*
X263812457Y-131055171D01*
X263779357Y-131005352D01*
X263773483Y-130998252D01*
X263614161Y-130808379D01*
X263571412Y-130766516D01*
X263529273Y-130724082D01*
X263522132Y-130718258D01*
X263328965Y-130562947D01*
X263278901Y-130530186D01*
X263229315Y-130496740D01*
X263221186Y-130492418D01*
X263221181Y-130492415D01*
X263221176Y-130492413D01*
X263001524Y-130377582D01*
X262946058Y-130355173D01*
X262890919Y-130331994D01*
X262882097Y-130329330D01*
X262644321Y-130259348D01*
X262585559Y-130248139D01*
X262526962Y-130236110D01*
X262517791Y-130235211D01*
X262270951Y-130212747D01*
X262211135Y-130213165D01*
X262151318Y-130212747D01*
X262142147Y-130213646D01*
X261895644Y-130239554D01*
X261837028Y-130251586D01*
X261778284Y-130262792D01*
X261769462Y-130265456D01*
X261532686Y-130338751D01*
X261477555Y-130361926D01*
X261422080Y-130384339D01*
X261413944Y-130388666D01*
X261195914Y-130506554D01*
X261146346Y-130539988D01*
X261096265Y-130572760D01*
X261089124Y-130578584D01*
X260898144Y-130736577D01*
X260856005Y-130779012D01*
X260813255Y-130820875D01*
X260807381Y-130827976D01*
X260650727Y-131020054D01*
X260617655Y-131069831D01*
X260583826Y-131119237D01*
X260579444Y-131127343D01*
X260463081Y-131346191D01*
X260440298Y-131401468D01*
X260416721Y-131456475D01*
X260413997Y-131465278D01*
X260342357Y-131702559D01*
X260330736Y-131761246D01*
X260318300Y-131819752D01*
X260317337Y-131828917D01*
X260293150Y-132075595D01*
X260293150Y-132075608D01*
X260290001Y-132107581D01*
X260290000Y-135347418D01*
X259807000Y-135347418D01*
X259807000Y-117535000D01*
X259804560Y-117510224D01*
X259797333Y-117486399D01*
X259785597Y-117464443D01*
X259769803Y-117445197D01*
X259750557Y-117429403D01*
X259728601Y-117417667D01*
X259704776Y-117410440D01*
X259680000Y-117408000D01*
X233772000Y-117408000D01*
X233772000Y-114944049D01*
X238067747Y-114944049D01*
X238068165Y-115003866D01*
X238067747Y-115063682D01*
X238068646Y-115072853D01*
X238094554Y-115319357D01*
X238106588Y-115377983D01*
X238117792Y-115436716D01*
X238120456Y-115445538D01*
X238193751Y-115682314D01*
X238216931Y-115737457D01*
X238239339Y-115792920D01*
X238243665Y-115801054D01*
X238243667Y-115801059D01*
X238243670Y-115801064D01*
X238361553Y-116019086D01*
X238394988Y-116068654D01*
X238427759Y-116118735D01*
X238433584Y-116125876D01*
X238591577Y-116316856D01*
X238634012Y-116358995D01*
X238675875Y-116401745D01*
X238682976Y-116407618D01*
X238875053Y-116564273D01*
X238924875Y-116597374D01*
X238974237Y-116631173D01*
X238982343Y-116635556D01*
X239201191Y-116751919D01*
X239256479Y-116774707D01*
X239311475Y-116798279D01*
X239320278Y-116801003D01*
X239557559Y-116872643D01*
X239616246Y-116884264D01*
X239674752Y-116896700D01*
X239683915Y-116897663D01*
X239683917Y-116897663D01*
X239930595Y-116921850D01*
X239930598Y-116921850D01*
X239962581Y-116925000D01*
X243202419Y-116925000D01*
X243235661Y-116921726D01*
X243252137Y-116921726D01*
X243261302Y-116920763D01*
X243507618Y-116893134D01*
X243566098Y-116880703D01*
X243624808Y-116869079D01*
X243633611Y-116866353D01*
X243869869Y-116791408D01*
X243924824Y-116767854D01*
X243980158Y-116745047D01*
X243988264Y-116740664D01*
X244205466Y-116621256D01*
X244254791Y-116587482D01*
X244304648Y-116554357D01*
X244311749Y-116548483D01*
X244501621Y-116389160D01*
X244543465Y-116346431D01*
X244585918Y-116304273D01*
X244591742Y-116297132D01*
X244747053Y-116103965D01*
X244779814Y-116053901D01*
X244813260Y-116004315D01*
X244817586Y-115996179D01*
X244932418Y-115776524D01*
X244954802Y-115721120D01*
X244978007Y-115665919D01*
X244980670Y-115657097D01*
X245050652Y-115419321D01*
X245061861Y-115360559D01*
X245073890Y-115301962D01*
X245074789Y-115292791D01*
X245097253Y-115045951D01*
X245096835Y-114986134D01*
X245097253Y-114926318D01*
X245096354Y-114917147D01*
X245070446Y-114670644D01*
X245058412Y-114612017D01*
X245047208Y-114553284D01*
X245044544Y-114544462D01*
X244971249Y-114307686D01*
X244948074Y-114252555D01*
X244925661Y-114197080D01*
X244921334Y-114188944D01*
X244803446Y-113970914D01*
X244770012Y-113921346D01*
X244737240Y-113871265D01*
X244731416Y-113864124D01*
X244573423Y-113673144D01*
X244530988Y-113631005D01*
X244489125Y-113588255D01*
X244482024Y-113582381D01*
X244289946Y-113425727D01*
X244240169Y-113392655D01*
X244190763Y-113358826D01*
X244182657Y-113354444D01*
X243963809Y-113238081D01*
X243908532Y-113215298D01*
X243853525Y-113191721D01*
X243844722Y-113188997D01*
X243607441Y-113117357D01*
X243548754Y-113105736D01*
X243490248Y-113093300D01*
X243481085Y-113092337D01*
X243481083Y-113092337D01*
X243234405Y-113068150D01*
X243234402Y-113068150D01*
X243202419Y-113065000D01*
X239962581Y-113065000D01*
X239929339Y-113068274D01*
X239912863Y-113068274D01*
X239903698Y-113069237D01*
X239657382Y-113096866D01*
X239598865Y-113109305D01*
X239540192Y-113120922D01*
X239531389Y-113123647D01*
X239295131Y-113198592D01*
X239240209Y-113222132D01*
X239184842Y-113244952D01*
X239176736Y-113249336D01*
X238959534Y-113368744D01*
X238910171Y-113402543D01*
X238860352Y-113435643D01*
X238853252Y-113441517D01*
X238663379Y-113600839D01*
X238621516Y-113643588D01*
X238579082Y-113685727D01*
X238573258Y-113692868D01*
X238417947Y-113886035D01*
X238385186Y-113936099D01*
X238351740Y-113985685D01*
X238347418Y-113993814D01*
X238347415Y-113993819D01*
X238347414Y-113993822D01*
X238232582Y-114213476D01*
X238210173Y-114268942D01*
X238186994Y-114324081D01*
X238184330Y-114332903D01*
X238114348Y-114570679D01*
X238103139Y-114629441D01*
X238091110Y-114688038D01*
X238090211Y-114697209D01*
X238067747Y-114944049D01*
X233772000Y-114944049D01*
X233772000Y-113777606D01*
X234967606Y-112582000D01*
X250663000Y-112582000D01*
X250663000Y-113090000D01*
X250665440Y-113114776D01*
X250672667Y-113138601D01*
X250684403Y-113160557D01*
X250700197Y-113179803D01*
X250719443Y-113195597D01*
X250741399Y-113207333D01*
X250765224Y-113214560D01*
X250790000Y-113217000D01*
X259680000Y-113217000D01*
X259704776Y-113214560D01*
X259728601Y-113207333D01*
X259750557Y-113195597D01*
X259769803Y-113179803D01*
X259785597Y-113160557D01*
X259797333Y-113138601D01*
X259804560Y-113114776D01*
X259807000Y-113090000D01*
X259807000Y-96612418D01*
X260290000Y-96612418D01*
X260293274Y-96645660D01*
X260293274Y-96662137D01*
X260294237Y-96671302D01*
X260321866Y-96917618D01*
X260334297Y-96976098D01*
X260345921Y-97034808D01*
X260348647Y-97043611D01*
X260423592Y-97279869D01*
X260447146Y-97334824D01*
X260469953Y-97390158D01*
X260474336Y-97398264D01*
X260593744Y-97615466D01*
X260627518Y-97664791D01*
X260660643Y-97714648D01*
X260666517Y-97721749D01*
X260825840Y-97911621D01*
X260868569Y-97953465D01*
X260910727Y-97995918D01*
X260917868Y-98001742D01*
X261111035Y-98157053D01*
X261161099Y-98189814D01*
X261210685Y-98223260D01*
X261218821Y-98227586D01*
X261438476Y-98342418D01*
X261493880Y-98364802D01*
X261549081Y-98388007D01*
X261557903Y-98390670D01*
X261795679Y-98460652D01*
X261854441Y-98471861D01*
X261913038Y-98483890D01*
X261922209Y-98484789D01*
X262169049Y-98507253D01*
X262228866Y-98506835D01*
X262288682Y-98507253D01*
X262297853Y-98506354D01*
X262544357Y-98480446D01*
X262602986Y-98468411D01*
X262661716Y-98457208D01*
X262670532Y-98454546D01*
X262670536Y-98454545D01*
X262670539Y-98454544D01*
X262907314Y-98381249D01*
X262962457Y-98358069D01*
X263017920Y-98335661D01*
X263026054Y-98331335D01*
X263026059Y-98331333D01*
X263026064Y-98331330D01*
X263244086Y-98213447D01*
X263293654Y-98180012D01*
X263343735Y-98147241D01*
X263350876Y-98141416D01*
X263541856Y-97983423D01*
X263583995Y-97940988D01*
X263626745Y-97899125D01*
X263632618Y-97892024D01*
X263789273Y-97699947D01*
X263822374Y-97650125D01*
X263856173Y-97600763D01*
X263860556Y-97592657D01*
X263976919Y-97373809D01*
X263999707Y-97318521D01*
X264023279Y-97263525D01*
X264026003Y-97254722D01*
X264097643Y-97017441D01*
X264109264Y-96958754D01*
X264121700Y-96900248D01*
X264122663Y-96891083D01*
X264146850Y-96644405D01*
X264146850Y-96644402D01*
X264150000Y-96612419D01*
X264150000Y-93372581D01*
X264146726Y-93339339D01*
X264146726Y-93322863D01*
X264145763Y-93313698D01*
X264118134Y-93067382D01*
X264105695Y-93008865D01*
X264094078Y-92950192D01*
X264091353Y-92941389D01*
X264016408Y-92705131D01*
X263992868Y-92650209D01*
X263970048Y-92594842D01*
X263965664Y-92586736D01*
X263846256Y-92369534D01*
X263812457Y-92320171D01*
X263779357Y-92270352D01*
X263773483Y-92263252D01*
X263614161Y-92073379D01*
X263571412Y-92031516D01*
X263529273Y-91989082D01*
X263522132Y-91983258D01*
X263328965Y-91827947D01*
X263278901Y-91795186D01*
X263229315Y-91761740D01*
X263221186Y-91757418D01*
X263221181Y-91757415D01*
X263221176Y-91757413D01*
X263001524Y-91642582D01*
X262946058Y-91620173D01*
X262890919Y-91596994D01*
X262882097Y-91594330D01*
X262644321Y-91524348D01*
X262585559Y-91513139D01*
X262526962Y-91501110D01*
X262517791Y-91500211D01*
X262270951Y-91477747D01*
X262211135Y-91478165D01*
X262151318Y-91477747D01*
X262142147Y-91478646D01*
X261895644Y-91504554D01*
X261837028Y-91516586D01*
X261778284Y-91527792D01*
X261769462Y-91530456D01*
X261532686Y-91603751D01*
X261477555Y-91626926D01*
X261422080Y-91649339D01*
X261413944Y-91653666D01*
X261195914Y-91771554D01*
X261146346Y-91804988D01*
X261096265Y-91837760D01*
X261089124Y-91843584D01*
X260898144Y-92001577D01*
X260856005Y-92044012D01*
X260813255Y-92085875D01*
X260807381Y-92092976D01*
X260650727Y-92285054D01*
X260617655Y-92334831D01*
X260583826Y-92384237D01*
X260579444Y-92392343D01*
X260463081Y-92611191D01*
X260440298Y-92666468D01*
X260416721Y-92721475D01*
X260413997Y-92730278D01*
X260342357Y-92967559D01*
X260330736Y-93026246D01*
X260318300Y-93084752D01*
X260317337Y-93093917D01*
X260293150Y-93340595D01*
X260293150Y-93340608D01*
X260290001Y-93372581D01*
X260290000Y-96612418D01*
X259807000Y-96612418D01*
X259807000Y-78564051D01*
X260079051Y-78292000D01*
X264633000Y-78292000D01*
X264633000Y-147253000D01*
X264633000Y-147253000D01*
G37*
X264633000Y-147253000D02*
X259807000Y-147253000D01*
X259807000Y-135347418D01*
X260290000Y-135347418D01*
X260293274Y-135380660D01*
X260293274Y-135397137D01*
X260294237Y-135406302D01*
X260321866Y-135652618D01*
X260334297Y-135711098D01*
X260345921Y-135769808D01*
X260348647Y-135778611D01*
X260423592Y-136014869D01*
X260447146Y-136069824D01*
X260469953Y-136125158D01*
X260474336Y-136133264D01*
X260593744Y-136350466D01*
X260627518Y-136399791D01*
X260660643Y-136449648D01*
X260666517Y-136456749D01*
X260825840Y-136646621D01*
X260868569Y-136688465D01*
X260910727Y-136730918D01*
X260917868Y-136736742D01*
X261111035Y-136892053D01*
X261161099Y-136924814D01*
X261210685Y-136958260D01*
X261218821Y-136962586D01*
X261438476Y-137077418D01*
X261493880Y-137099802D01*
X261549081Y-137123007D01*
X261557903Y-137125670D01*
X261795679Y-137195652D01*
X261854441Y-137206861D01*
X261913038Y-137218890D01*
X261922209Y-137219789D01*
X262169049Y-137242253D01*
X262228866Y-137241835D01*
X262288682Y-137242253D01*
X262297853Y-137241354D01*
X262544357Y-137215446D01*
X262602986Y-137203411D01*
X262661716Y-137192208D01*
X262670532Y-137189546D01*
X262670536Y-137189545D01*
X262670539Y-137189544D01*
X262907314Y-137116249D01*
X262962457Y-137093069D01*
X263017920Y-137070661D01*
X263026054Y-137066335D01*
X263026059Y-137066333D01*
X263026064Y-137066330D01*
X263244086Y-136948447D01*
X263293654Y-136915012D01*
X263343735Y-136882241D01*
X263350876Y-136876416D01*
X263541856Y-136718423D01*
X263583995Y-136675988D01*
X263626745Y-136634125D01*
X263632618Y-136627024D01*
X263789273Y-136434947D01*
X263822374Y-136385125D01*
X263856173Y-136335763D01*
X263860556Y-136327657D01*
X263976919Y-136108809D01*
X263999707Y-136053521D01*
X264023279Y-135998525D01*
X264026003Y-135989722D01*
X264097643Y-135752441D01*
X264109264Y-135693754D01*
X264121700Y-135635248D01*
X264122663Y-135626083D01*
X264146850Y-135379405D01*
X264146850Y-135379402D01*
X264150000Y-135347419D01*
X264150000Y-132107581D01*
X264146726Y-132074339D01*
X264146726Y-132057863D01*
X264145763Y-132048698D01*
X264118134Y-131802382D01*
X264105695Y-131743865D01*
X264094078Y-131685192D01*
X264091353Y-131676389D01*
X264016408Y-131440131D01*
X263992868Y-131385209D01*
X263970048Y-131329842D01*
X263965664Y-131321736D01*
X263846256Y-131104534D01*
X263812457Y-131055171D01*
X263779357Y-131005352D01*
X263773483Y-130998252D01*
X263614161Y-130808379D01*
X263571412Y-130766516D01*
X263529273Y-130724082D01*
X263522132Y-130718258D01*
X263328965Y-130562947D01*
X263278901Y-130530186D01*
X263229315Y-130496740D01*
X263221186Y-130492418D01*
X263221181Y-130492415D01*
X263221176Y-130492413D01*
X263001524Y-130377582D01*
X262946058Y-130355173D01*
X262890919Y-130331994D01*
X262882097Y-130329330D01*
X262644321Y-130259348D01*
X262585559Y-130248139D01*
X262526962Y-130236110D01*
X262517791Y-130235211D01*
X262270951Y-130212747D01*
X262211135Y-130213165D01*
X262151318Y-130212747D01*
X262142147Y-130213646D01*
X261895644Y-130239554D01*
X261837028Y-130251586D01*
X261778284Y-130262792D01*
X261769462Y-130265456D01*
X261532686Y-130338751D01*
X261477555Y-130361926D01*
X261422080Y-130384339D01*
X261413944Y-130388666D01*
X261195914Y-130506554D01*
X261146346Y-130539988D01*
X261096265Y-130572760D01*
X261089124Y-130578584D01*
X260898144Y-130736577D01*
X260856005Y-130779012D01*
X260813255Y-130820875D01*
X260807381Y-130827976D01*
X260650727Y-131020054D01*
X260617655Y-131069831D01*
X260583826Y-131119237D01*
X260579444Y-131127343D01*
X260463081Y-131346191D01*
X260440298Y-131401468D01*
X260416721Y-131456475D01*
X260413997Y-131465278D01*
X260342357Y-131702559D01*
X260330736Y-131761246D01*
X260318300Y-131819752D01*
X260317337Y-131828917D01*
X260293150Y-132075595D01*
X260293150Y-132075608D01*
X260290001Y-132107581D01*
X260290000Y-135347418D01*
X259807000Y-135347418D01*
X259807000Y-117535000D01*
X259804560Y-117510224D01*
X259797333Y-117486399D01*
X259785597Y-117464443D01*
X259769803Y-117445197D01*
X259750557Y-117429403D01*
X259728601Y-117417667D01*
X259704776Y-117410440D01*
X259680000Y-117408000D01*
X233772000Y-117408000D01*
X233772000Y-114944049D01*
X238067747Y-114944049D01*
X238068165Y-115003866D01*
X238067747Y-115063682D01*
X238068646Y-115072853D01*
X238094554Y-115319357D01*
X238106588Y-115377983D01*
X238117792Y-115436716D01*
X238120456Y-115445538D01*
X238193751Y-115682314D01*
X238216931Y-115737457D01*
X238239339Y-115792920D01*
X238243665Y-115801054D01*
X238243667Y-115801059D01*
X238243670Y-115801064D01*
X238361553Y-116019086D01*
X238394988Y-116068654D01*
X238427759Y-116118735D01*
X238433584Y-116125876D01*
X238591577Y-116316856D01*
X238634012Y-116358995D01*
X238675875Y-116401745D01*
X238682976Y-116407618D01*
X238875053Y-116564273D01*
X238924875Y-116597374D01*
X238974237Y-116631173D01*
X238982343Y-116635556D01*
X239201191Y-116751919D01*
X239256479Y-116774707D01*
X239311475Y-116798279D01*
X239320278Y-116801003D01*
X239557559Y-116872643D01*
X239616246Y-116884264D01*
X239674752Y-116896700D01*
X239683915Y-116897663D01*
X239683917Y-116897663D01*
X239930595Y-116921850D01*
X239930598Y-116921850D01*
X239962581Y-116925000D01*
X243202419Y-116925000D01*
X243235661Y-116921726D01*
X243252137Y-116921726D01*
X243261302Y-116920763D01*
X243507618Y-116893134D01*
X243566098Y-116880703D01*
X243624808Y-116869079D01*
X243633611Y-116866353D01*
X243869869Y-116791408D01*
X243924824Y-116767854D01*
X243980158Y-116745047D01*
X243988264Y-116740664D01*
X244205466Y-116621256D01*
X244254791Y-116587482D01*
X244304648Y-116554357D01*
X244311749Y-116548483D01*
X244501621Y-116389160D01*
X244543465Y-116346431D01*
X244585918Y-116304273D01*
X244591742Y-116297132D01*
X244747053Y-116103965D01*
X244779814Y-116053901D01*
X244813260Y-116004315D01*
X244817586Y-115996179D01*
X244932418Y-115776524D01*
X244954802Y-115721120D01*
X244978007Y-115665919D01*
X244980670Y-115657097D01*
X245050652Y-115419321D01*
X245061861Y-115360559D01*
X245073890Y-115301962D01*
X245074789Y-115292791D01*
X245097253Y-115045951D01*
X245096835Y-114986134D01*
X245097253Y-114926318D01*
X245096354Y-114917147D01*
X245070446Y-114670644D01*
X245058412Y-114612017D01*
X245047208Y-114553284D01*
X245044544Y-114544462D01*
X244971249Y-114307686D01*
X244948074Y-114252555D01*
X244925661Y-114197080D01*
X244921334Y-114188944D01*
X244803446Y-113970914D01*
X244770012Y-113921346D01*
X244737240Y-113871265D01*
X244731416Y-113864124D01*
X244573423Y-113673144D01*
X244530988Y-113631005D01*
X244489125Y-113588255D01*
X244482024Y-113582381D01*
X244289946Y-113425727D01*
X244240169Y-113392655D01*
X244190763Y-113358826D01*
X244182657Y-113354444D01*
X243963809Y-113238081D01*
X243908532Y-113215298D01*
X243853525Y-113191721D01*
X243844722Y-113188997D01*
X243607441Y-113117357D01*
X243548754Y-113105736D01*
X243490248Y-113093300D01*
X243481085Y-113092337D01*
X243481083Y-113092337D01*
X243234405Y-113068150D01*
X243234402Y-113068150D01*
X243202419Y-113065000D01*
X239962581Y-113065000D01*
X239929339Y-113068274D01*
X239912863Y-113068274D01*
X239903698Y-113069237D01*
X239657382Y-113096866D01*
X239598865Y-113109305D01*
X239540192Y-113120922D01*
X239531389Y-113123647D01*
X239295131Y-113198592D01*
X239240209Y-113222132D01*
X239184842Y-113244952D01*
X239176736Y-113249336D01*
X238959534Y-113368744D01*
X238910171Y-113402543D01*
X238860352Y-113435643D01*
X238853252Y-113441517D01*
X238663379Y-113600839D01*
X238621516Y-113643588D01*
X238579082Y-113685727D01*
X238573258Y-113692868D01*
X238417947Y-113886035D01*
X238385186Y-113936099D01*
X238351740Y-113985685D01*
X238347418Y-113993814D01*
X238347415Y-113993819D01*
X238347414Y-113993822D01*
X238232582Y-114213476D01*
X238210173Y-114268942D01*
X238186994Y-114324081D01*
X238184330Y-114332903D01*
X238114348Y-114570679D01*
X238103139Y-114629441D01*
X238091110Y-114688038D01*
X238090211Y-114697209D01*
X238067747Y-114944049D01*
X233772000Y-114944049D01*
X233772000Y-113777606D01*
X234967606Y-112582000D01*
X250663000Y-112582000D01*
X250663000Y-113090000D01*
X250665440Y-113114776D01*
X250672667Y-113138601D01*
X250684403Y-113160557D01*
X250700197Y-113179803D01*
X250719443Y-113195597D01*
X250741399Y-113207333D01*
X250765224Y-113214560D01*
X250790000Y-113217000D01*
X259680000Y-113217000D01*
X259704776Y-113214560D01*
X259728601Y-113207333D01*
X259750557Y-113195597D01*
X259769803Y-113179803D01*
X259785597Y-113160557D01*
X259797333Y-113138601D01*
X259804560Y-113114776D01*
X259807000Y-113090000D01*
X259807000Y-96612418D01*
X260290000Y-96612418D01*
X260293274Y-96645660D01*
X260293274Y-96662137D01*
X260294237Y-96671302D01*
X260321866Y-96917618D01*
X260334297Y-96976098D01*
X260345921Y-97034808D01*
X260348647Y-97043611D01*
X260423592Y-97279869D01*
X260447146Y-97334824D01*
X260469953Y-97390158D01*
X260474336Y-97398264D01*
X260593744Y-97615466D01*
X260627518Y-97664791D01*
X260660643Y-97714648D01*
X260666517Y-97721749D01*
X260825840Y-97911621D01*
X260868569Y-97953465D01*
X260910727Y-97995918D01*
X260917868Y-98001742D01*
X261111035Y-98157053D01*
X261161099Y-98189814D01*
X261210685Y-98223260D01*
X261218821Y-98227586D01*
X261438476Y-98342418D01*
X261493880Y-98364802D01*
X261549081Y-98388007D01*
X261557903Y-98390670D01*
X261795679Y-98460652D01*
X261854441Y-98471861D01*
X261913038Y-98483890D01*
X261922209Y-98484789D01*
X262169049Y-98507253D01*
X262228866Y-98506835D01*
X262288682Y-98507253D01*
X262297853Y-98506354D01*
X262544357Y-98480446D01*
X262602986Y-98468411D01*
X262661716Y-98457208D01*
X262670532Y-98454546D01*
X262670536Y-98454545D01*
X262670539Y-98454544D01*
X262907314Y-98381249D01*
X262962457Y-98358069D01*
X263017920Y-98335661D01*
X263026054Y-98331335D01*
X263026059Y-98331333D01*
X263026064Y-98331330D01*
X263244086Y-98213447D01*
X263293654Y-98180012D01*
X263343735Y-98147241D01*
X263350876Y-98141416D01*
X263541856Y-97983423D01*
X263583995Y-97940988D01*
X263626745Y-97899125D01*
X263632618Y-97892024D01*
X263789273Y-97699947D01*
X263822374Y-97650125D01*
X263856173Y-97600763D01*
X263860556Y-97592657D01*
X263976919Y-97373809D01*
X263999707Y-97318521D01*
X264023279Y-97263525D01*
X264026003Y-97254722D01*
X264097643Y-97017441D01*
X264109264Y-96958754D01*
X264121700Y-96900248D01*
X264122663Y-96891083D01*
X264146850Y-96644405D01*
X264146850Y-96644402D01*
X264150000Y-96612419D01*
X264150000Y-93372581D01*
X264146726Y-93339339D01*
X264146726Y-93322863D01*
X264145763Y-93313698D01*
X264118134Y-93067382D01*
X264105695Y-93008865D01*
X264094078Y-92950192D01*
X264091353Y-92941389D01*
X264016408Y-92705131D01*
X263992868Y-92650209D01*
X263970048Y-92594842D01*
X263965664Y-92586736D01*
X263846256Y-92369534D01*
X263812457Y-92320171D01*
X263779357Y-92270352D01*
X263773483Y-92263252D01*
X263614161Y-92073379D01*
X263571412Y-92031516D01*
X263529273Y-91989082D01*
X263522132Y-91983258D01*
X263328965Y-91827947D01*
X263278901Y-91795186D01*
X263229315Y-91761740D01*
X263221186Y-91757418D01*
X263221181Y-91757415D01*
X263221176Y-91757413D01*
X263001524Y-91642582D01*
X262946058Y-91620173D01*
X262890919Y-91596994D01*
X262882097Y-91594330D01*
X262644321Y-91524348D01*
X262585559Y-91513139D01*
X262526962Y-91501110D01*
X262517791Y-91500211D01*
X262270951Y-91477747D01*
X262211135Y-91478165D01*
X262151318Y-91477747D01*
X262142147Y-91478646D01*
X261895644Y-91504554D01*
X261837028Y-91516586D01*
X261778284Y-91527792D01*
X261769462Y-91530456D01*
X261532686Y-91603751D01*
X261477555Y-91626926D01*
X261422080Y-91649339D01*
X261413944Y-91653666D01*
X261195914Y-91771554D01*
X261146346Y-91804988D01*
X261096265Y-91837760D01*
X261089124Y-91843584D01*
X260898144Y-92001577D01*
X260856005Y-92044012D01*
X260813255Y-92085875D01*
X260807381Y-92092976D01*
X260650727Y-92285054D01*
X260617655Y-92334831D01*
X260583826Y-92384237D01*
X260579444Y-92392343D01*
X260463081Y-92611191D01*
X260440298Y-92666468D01*
X260416721Y-92721475D01*
X260413997Y-92730278D01*
X260342357Y-92967559D01*
X260330736Y-93026246D01*
X260318300Y-93084752D01*
X260317337Y-93093917D01*
X260293150Y-93340595D01*
X260293150Y-93340608D01*
X260290001Y-93372581D01*
X260290000Y-96612418D01*
X259807000Y-96612418D01*
X259807000Y-78564051D01*
X260079051Y-78292000D01*
X264633000Y-78292000D01*
X264633000Y-147253000D01*
G36*
X203045209Y-78297132D02*
G01*
X202989842Y-78319952D01*
X202981736Y-78324336D01*
X202764534Y-78443744D01*
X202715171Y-78477543D01*
X202665352Y-78510643D01*
X202658252Y-78516517D01*
X202468379Y-78675839D01*
X202426516Y-78718588D01*
X202384082Y-78760727D01*
X202378258Y-78767868D01*
X202222947Y-78961035D01*
X202190186Y-79011099D01*
X202156740Y-79060685D01*
X202152418Y-79068814D01*
X202152415Y-79068819D01*
X202152414Y-79068822D01*
X202037582Y-79288476D01*
X202015173Y-79343942D01*
X201991994Y-79399081D01*
X201989330Y-79407903D01*
X201919348Y-79645679D01*
X201908139Y-79704441D01*
X201896110Y-79763038D01*
X201895211Y-79772209D01*
X201872747Y-80019049D01*
X201873165Y-80078866D01*
X201872747Y-80138682D01*
X201873646Y-80147853D01*
X201899554Y-80394357D01*
X201911588Y-80452983D01*
X201922792Y-80511716D01*
X201925456Y-80520538D01*
X201998751Y-80757314D01*
X202021931Y-80812457D01*
X202044339Y-80867920D01*
X202048665Y-80876054D01*
X202048667Y-80876059D01*
X202048670Y-80876064D01*
X202166553Y-81094086D01*
X202199988Y-81143654D01*
X202232759Y-81193735D01*
X202238584Y-81200876D01*
X202396577Y-81391856D01*
X202439012Y-81433995D01*
X202480875Y-81476745D01*
X202487976Y-81482618D01*
X202680053Y-81639273D01*
X202729875Y-81672374D01*
X202779237Y-81706173D01*
X202787343Y-81710556D01*
X203006191Y-81826919D01*
X203057337Y-81848000D01*
X199355000Y-81848000D01*
X199330224Y-81850440D01*
X199306399Y-81857667D01*
X199284443Y-81869403D01*
X199265197Y-81885197D01*
X199249403Y-81904443D01*
X199237667Y-81926399D01*
X199230440Y-81950224D01*
X199228000Y-81975000D01*
X199228000Y-93297183D01*
X199222868Y-93285209D01*
X199200048Y-93229842D01*
X199195664Y-93221736D01*
X199076256Y-93004534D01*
X199042457Y-92955171D01*
X199009357Y-92905352D01*
X199003483Y-92898252D01*
X198844161Y-92708379D01*
X198801412Y-92666516D01*
X198759273Y-92624082D01*
X198752132Y-92618258D01*
X198558965Y-92462947D01*
X198508901Y-92430186D01*
X198459315Y-92396740D01*
X198451186Y-92392418D01*
X198451181Y-92392415D01*
X198451176Y-92392413D01*
X198231524Y-92277582D01*
X198176058Y-92255173D01*
X198120919Y-92231994D01*
X198112097Y-92229330D01*
X197874321Y-92159348D01*
X197815559Y-92148139D01*
X197756962Y-92136110D01*
X197747791Y-92135211D01*
X197500951Y-92112747D01*
X197441135Y-92113165D01*
X197381318Y-92112747D01*
X197372147Y-92113646D01*
X197125644Y-92139554D01*
X197067028Y-92151586D01*
X197008284Y-92162792D01*
X196999462Y-92165456D01*
X196762686Y-92238751D01*
X196707555Y-92261926D01*
X196652080Y-92284339D01*
X196643944Y-92288666D01*
X196425914Y-92406554D01*
X196376346Y-92439988D01*
X196326265Y-92472760D01*
X196319124Y-92478584D01*
X196128144Y-92636577D01*
X196086005Y-92679012D01*
X196043255Y-92720875D01*
X196037381Y-92727976D01*
X195880727Y-92920054D01*
X195847655Y-92969831D01*
X195813826Y-93019237D01*
X195809444Y-93027343D01*
X195693081Y-93246191D01*
X195670298Y-93301468D01*
X195646721Y-93356475D01*
X195643997Y-93365278D01*
X195572357Y-93602559D01*
X195560736Y-93661246D01*
X195548300Y-93719752D01*
X195547337Y-93728917D01*
X195523150Y-93975595D01*
X195523150Y-93975608D01*
X195520001Y-94007581D01*
X195520000Y-97247418D01*
X195523274Y-97280660D01*
X195523274Y-97297137D01*
X195524237Y-97306302D01*
X195551866Y-97552618D01*
X195564297Y-97611098D01*
X195575921Y-97669808D01*
X195578647Y-97678611D01*
X195653592Y-97914869D01*
X195677146Y-97969824D01*
X195699953Y-98025158D01*
X195704336Y-98033264D01*
X195823744Y-98250466D01*
X195857518Y-98299791D01*
X195890643Y-98349648D01*
X195896517Y-98356749D01*
X196055840Y-98546621D01*
X196098569Y-98588465D01*
X196140727Y-98630918D01*
X196147868Y-98636742D01*
X196341035Y-98792053D01*
X196391099Y-98824814D01*
X196440685Y-98858260D01*
X196448821Y-98862586D01*
X196668476Y-98977418D01*
X196723880Y-98999802D01*
X196779081Y-99023007D01*
X196787903Y-99025670D01*
X197025679Y-99095652D01*
X197084441Y-99106861D01*
X197143038Y-99118890D01*
X197152209Y-99119789D01*
X197399049Y-99142253D01*
X197458866Y-99141835D01*
X197518682Y-99142253D01*
X197527853Y-99141354D01*
X197774357Y-99115446D01*
X197832986Y-99103411D01*
X197891716Y-99092208D01*
X197900532Y-99089546D01*
X197900536Y-99089545D01*
X197900539Y-99089544D01*
X198137314Y-99016249D01*
X198192457Y-98993069D01*
X198247920Y-98970661D01*
X198256054Y-98966335D01*
X198256059Y-98966333D01*
X198256064Y-98966330D01*
X198474086Y-98848447D01*
X198523654Y-98815012D01*
X198573735Y-98782241D01*
X198580876Y-98776416D01*
X198771856Y-98618423D01*
X198813995Y-98575988D01*
X198856745Y-98534125D01*
X198862618Y-98527024D01*
X199019273Y-98334947D01*
X199052374Y-98285125D01*
X199086173Y-98235763D01*
X199090556Y-98227657D01*
X199206919Y-98008809D01*
X199228000Y-97957663D01*
X199228000Y-112455000D01*
X199230440Y-112479776D01*
X199237667Y-112503601D01*
X199249403Y-112525557D01*
X199265197Y-112544803D01*
X199284443Y-112560597D01*
X199306399Y-112572333D01*
X199330224Y-112579560D01*
X199355000Y-112582000D01*
X205132066Y-112582000D01*
X205173259Y-112615806D01*
X205338731Y-112704252D01*
X205518277Y-112758717D01*
X205705000Y-112777108D01*
X205751785Y-112772500D01*
X220263215Y-112772500D01*
X220310000Y-112777108D01*
X220356785Y-112772500D01*
X220496723Y-112758717D01*
X220676269Y-112704252D01*
X220841741Y-112615806D01*
X220882934Y-112582000D01*
X230978000Y-112582000D01*
X230978000Y-117408000D01*
X196232606Y-117408000D01*
X195672000Y-116847394D01*
X195672000Y-114944049D01*
X210762747Y-114944049D01*
X210763165Y-115003866D01*
X210762747Y-115063682D01*
X210763646Y-115072853D01*
X210789554Y-115319357D01*
X210801588Y-115377983D01*
X210812792Y-115436716D01*
X210815456Y-115445538D01*
X210888751Y-115682314D01*
X210911931Y-115737457D01*
X210934339Y-115792920D01*
X210938665Y-115801054D01*
X210938667Y-115801059D01*
X210938670Y-115801064D01*
X211056553Y-116019086D01*
X211089988Y-116068654D01*
X211122759Y-116118735D01*
X211128584Y-116125876D01*
X211286577Y-116316856D01*
X211329012Y-116358995D01*
X211370875Y-116401745D01*
X211377976Y-116407618D01*
X211570053Y-116564273D01*
X211619875Y-116597374D01*
X211669237Y-116631173D01*
X211677343Y-116635556D01*
X211896191Y-116751919D01*
X211951479Y-116774707D01*
X212006475Y-116798279D01*
X212015278Y-116801003D01*
X212252559Y-116872643D01*
X212311246Y-116884264D01*
X212369752Y-116896700D01*
X212378915Y-116897663D01*
X212378917Y-116897663D01*
X212625595Y-116921850D01*
X212625598Y-116921850D01*
X212657581Y-116925000D01*
X215897419Y-116925000D01*
X215930661Y-116921726D01*
X215947137Y-116921726D01*
X215956302Y-116920763D01*
X216202618Y-116893134D01*
X216261098Y-116880703D01*
X216319808Y-116869079D01*
X216328611Y-116866353D01*
X216564869Y-116791408D01*
X216619824Y-116767854D01*
X216675158Y-116745047D01*
X216683264Y-116740664D01*
X216900466Y-116621256D01*
X216949791Y-116587482D01*
X216999648Y-116554357D01*
X217006749Y-116548483D01*
X217196621Y-116389160D01*
X217238465Y-116346431D01*
X217280918Y-116304273D01*
X217286742Y-116297132D01*
X217442053Y-116103965D01*
X217474814Y-116053901D01*
X217508260Y-116004315D01*
X217512586Y-115996179D01*
X217627418Y-115776524D01*
X217649802Y-115721120D01*
X217673007Y-115665919D01*
X217675670Y-115657097D01*
X217745652Y-115419321D01*
X217756861Y-115360559D01*
X217768890Y-115301962D01*
X217769789Y-115292791D01*
X217792253Y-115045951D01*
X217791835Y-114986134D01*
X217792253Y-114926318D01*
X217791354Y-114917147D01*
X217765446Y-114670644D01*
X217753412Y-114612017D01*
X217742208Y-114553284D01*
X217739544Y-114544462D01*
X217666249Y-114307686D01*
X217643074Y-114252555D01*
X217620661Y-114197080D01*
X217616334Y-114188944D01*
X217498446Y-113970914D01*
X217465012Y-113921346D01*
X217432240Y-113871265D01*
X217426416Y-113864124D01*
X217268423Y-113673144D01*
X217225988Y-113631005D01*
X217184125Y-113588255D01*
X217177024Y-113582381D01*
X216984946Y-113425727D01*
X216935169Y-113392655D01*
X216885763Y-113358826D01*
X216877657Y-113354444D01*
X216658809Y-113238081D01*
X216603532Y-113215298D01*
X216548525Y-113191721D01*
X216539722Y-113188997D01*
X216302441Y-113117357D01*
X216243754Y-113105736D01*
X216185248Y-113093300D01*
X216176085Y-113092337D01*
X216176083Y-113092337D01*
X215929405Y-113068150D01*
X215929402Y-113068150D01*
X215897419Y-113065000D01*
X212657581Y-113065000D01*
X212624339Y-113068274D01*
X212607863Y-113068274D01*
X212598698Y-113069237D01*
X212352382Y-113096866D01*
X212293865Y-113109305D01*
X212235192Y-113120922D01*
X212226389Y-113123647D01*
X211990131Y-113198592D01*
X211935209Y-113222132D01*
X211879842Y-113244952D01*
X211871736Y-113249336D01*
X211654534Y-113368744D01*
X211605171Y-113402543D01*
X211555352Y-113435643D01*
X211548252Y-113441517D01*
X211358379Y-113600839D01*
X211316516Y-113643588D01*
X211274082Y-113685727D01*
X211268258Y-113692868D01*
X211112947Y-113886035D01*
X211080186Y-113936099D01*
X211046740Y-113985685D01*
X211042418Y-113993814D01*
X211042415Y-113993819D01*
X211042414Y-113993822D01*
X210927582Y-114213476D01*
X210905173Y-114268942D01*
X210881994Y-114324081D01*
X210879330Y-114332903D01*
X210809348Y-114570679D01*
X210798139Y-114629441D01*
X210786110Y-114688038D01*
X210785211Y-114697209D01*
X210762747Y-114944049D01*
X195672000Y-114944049D01*
X195672000Y-114577164D01*
X195723918Y-114499463D01*
X195847168Y-114201912D01*
X195910000Y-113886033D01*
X195910000Y-113563967D01*
X195847168Y-113248088D01*
X195723918Y-112950537D01*
X195672000Y-112872836D01*
X195672000Y-107375000D01*
X195669560Y-107350224D01*
X195662333Y-107326399D01*
X195650597Y-107304443D01*
X195634803Y-107285197D01*
X195037000Y-106687394D01*
X195037000Y-82547934D01*
X195070806Y-82506741D01*
X195159252Y-82341269D01*
X195213717Y-82161723D01*
X195227500Y-82021785D01*
X195227500Y-82021784D01*
X195232108Y-81975001D01*
X195227500Y-81928216D01*
X195227500Y-78292000D01*
X203057183Y-78292000D01*
X203045209Y-78297132D01*
X203045209Y-78297132D01*
G37*
X203045209Y-78297132D02*
X202989842Y-78319952D01*
X202981736Y-78324336D01*
X202764534Y-78443744D01*
X202715171Y-78477543D01*
X202665352Y-78510643D01*
X202658252Y-78516517D01*
X202468379Y-78675839D01*
X202426516Y-78718588D01*
X202384082Y-78760727D01*
X202378258Y-78767868D01*
X202222947Y-78961035D01*
X202190186Y-79011099D01*
X202156740Y-79060685D01*
X202152418Y-79068814D01*
X202152415Y-79068819D01*
X202152414Y-79068822D01*
X202037582Y-79288476D01*
X202015173Y-79343942D01*
X201991994Y-79399081D01*
X201989330Y-79407903D01*
X201919348Y-79645679D01*
X201908139Y-79704441D01*
X201896110Y-79763038D01*
X201895211Y-79772209D01*
X201872747Y-80019049D01*
X201873165Y-80078866D01*
X201872747Y-80138682D01*
X201873646Y-80147853D01*
X201899554Y-80394357D01*
X201911588Y-80452983D01*
X201922792Y-80511716D01*
X201925456Y-80520538D01*
X201998751Y-80757314D01*
X202021931Y-80812457D01*
X202044339Y-80867920D01*
X202048665Y-80876054D01*
X202048667Y-80876059D01*
X202048670Y-80876064D01*
X202166553Y-81094086D01*
X202199988Y-81143654D01*
X202232759Y-81193735D01*
X202238584Y-81200876D01*
X202396577Y-81391856D01*
X202439012Y-81433995D01*
X202480875Y-81476745D01*
X202487976Y-81482618D01*
X202680053Y-81639273D01*
X202729875Y-81672374D01*
X202779237Y-81706173D01*
X202787343Y-81710556D01*
X203006191Y-81826919D01*
X203057337Y-81848000D01*
X199355000Y-81848000D01*
X199330224Y-81850440D01*
X199306399Y-81857667D01*
X199284443Y-81869403D01*
X199265197Y-81885197D01*
X199249403Y-81904443D01*
X199237667Y-81926399D01*
X199230440Y-81950224D01*
X199228000Y-81975000D01*
X199228000Y-93297183D01*
X199222868Y-93285209D01*
X199200048Y-93229842D01*
X199195664Y-93221736D01*
X199076256Y-93004534D01*
X199042457Y-92955171D01*
X199009357Y-92905352D01*
X199003483Y-92898252D01*
X198844161Y-92708379D01*
X198801412Y-92666516D01*
X198759273Y-92624082D01*
X198752132Y-92618258D01*
X198558965Y-92462947D01*
X198508901Y-92430186D01*
X198459315Y-92396740D01*
X198451186Y-92392418D01*
X198451181Y-92392415D01*
X198451176Y-92392413D01*
X198231524Y-92277582D01*
X198176058Y-92255173D01*
X198120919Y-92231994D01*
X198112097Y-92229330D01*
X197874321Y-92159348D01*
X197815559Y-92148139D01*
X197756962Y-92136110D01*
X197747791Y-92135211D01*
X197500951Y-92112747D01*
X197441135Y-92113165D01*
X197381318Y-92112747D01*
X197372147Y-92113646D01*
X197125644Y-92139554D01*
X197067028Y-92151586D01*
X197008284Y-92162792D01*
X196999462Y-92165456D01*
X196762686Y-92238751D01*
X196707555Y-92261926D01*
X196652080Y-92284339D01*
X196643944Y-92288666D01*
X196425914Y-92406554D01*
X196376346Y-92439988D01*
X196326265Y-92472760D01*
X196319124Y-92478584D01*
X196128144Y-92636577D01*
X196086005Y-92679012D01*
X196043255Y-92720875D01*
X196037381Y-92727976D01*
X195880727Y-92920054D01*
X195847655Y-92969831D01*
X195813826Y-93019237D01*
X195809444Y-93027343D01*
X195693081Y-93246191D01*
X195670298Y-93301468D01*
X195646721Y-93356475D01*
X195643997Y-93365278D01*
X195572357Y-93602559D01*
X195560736Y-93661246D01*
X195548300Y-93719752D01*
X195547337Y-93728917D01*
X195523150Y-93975595D01*
X195523150Y-93975608D01*
X195520001Y-94007581D01*
X195520000Y-97247418D01*
X195523274Y-97280660D01*
X195523274Y-97297137D01*
X195524237Y-97306302D01*
X195551866Y-97552618D01*
X195564297Y-97611098D01*
X195575921Y-97669808D01*
X195578647Y-97678611D01*
X195653592Y-97914869D01*
X195677146Y-97969824D01*
X195699953Y-98025158D01*
X195704336Y-98033264D01*
X195823744Y-98250466D01*
X195857518Y-98299791D01*
X195890643Y-98349648D01*
X195896517Y-98356749D01*
X196055840Y-98546621D01*
X196098569Y-98588465D01*
X196140727Y-98630918D01*
X196147868Y-98636742D01*
X196341035Y-98792053D01*
X196391099Y-98824814D01*
X196440685Y-98858260D01*
X196448821Y-98862586D01*
X196668476Y-98977418D01*
X196723880Y-98999802D01*
X196779081Y-99023007D01*
X196787903Y-99025670D01*
X197025679Y-99095652D01*
X197084441Y-99106861D01*
X197143038Y-99118890D01*
X197152209Y-99119789D01*
X197399049Y-99142253D01*
X197458866Y-99141835D01*
X197518682Y-99142253D01*
X197527853Y-99141354D01*
X197774357Y-99115446D01*
X197832986Y-99103411D01*
X197891716Y-99092208D01*
X197900532Y-99089546D01*
X197900536Y-99089545D01*
X197900539Y-99089544D01*
X198137314Y-99016249D01*
X198192457Y-98993069D01*
X198247920Y-98970661D01*
X198256054Y-98966335D01*
X198256059Y-98966333D01*
X198256064Y-98966330D01*
X198474086Y-98848447D01*
X198523654Y-98815012D01*
X198573735Y-98782241D01*
X198580876Y-98776416D01*
X198771856Y-98618423D01*
X198813995Y-98575988D01*
X198856745Y-98534125D01*
X198862618Y-98527024D01*
X199019273Y-98334947D01*
X199052374Y-98285125D01*
X199086173Y-98235763D01*
X199090556Y-98227657D01*
X199206919Y-98008809D01*
X199228000Y-97957663D01*
X199228000Y-112455000D01*
X199230440Y-112479776D01*
X199237667Y-112503601D01*
X199249403Y-112525557D01*
X199265197Y-112544803D01*
X199284443Y-112560597D01*
X199306399Y-112572333D01*
X199330224Y-112579560D01*
X199355000Y-112582000D01*
X205132066Y-112582000D01*
X205173259Y-112615806D01*
X205338731Y-112704252D01*
X205518277Y-112758717D01*
X205705000Y-112777108D01*
X205751785Y-112772500D01*
X220263215Y-112772500D01*
X220310000Y-112777108D01*
X220356785Y-112772500D01*
X220496723Y-112758717D01*
X220676269Y-112704252D01*
X220841741Y-112615806D01*
X220882934Y-112582000D01*
X230978000Y-112582000D01*
X230978000Y-117408000D01*
X196232606Y-117408000D01*
X195672000Y-116847394D01*
X195672000Y-114944049D01*
X210762747Y-114944049D01*
X210763165Y-115003866D01*
X210762747Y-115063682D01*
X210763646Y-115072853D01*
X210789554Y-115319357D01*
X210801588Y-115377983D01*
X210812792Y-115436716D01*
X210815456Y-115445538D01*
X210888751Y-115682314D01*
X210911931Y-115737457D01*
X210934339Y-115792920D01*
X210938665Y-115801054D01*
X210938667Y-115801059D01*
X210938670Y-115801064D01*
X211056553Y-116019086D01*
X211089988Y-116068654D01*
X211122759Y-116118735D01*
X211128584Y-116125876D01*
X211286577Y-116316856D01*
X211329012Y-116358995D01*
X211370875Y-116401745D01*
X211377976Y-116407618D01*
X211570053Y-116564273D01*
X211619875Y-116597374D01*
X211669237Y-116631173D01*
X211677343Y-116635556D01*
X211896191Y-116751919D01*
X211951479Y-116774707D01*
X212006475Y-116798279D01*
X212015278Y-116801003D01*
X212252559Y-116872643D01*
X212311246Y-116884264D01*
X212369752Y-116896700D01*
X212378915Y-116897663D01*
X212378917Y-116897663D01*
X212625595Y-116921850D01*
X212625598Y-116921850D01*
X212657581Y-116925000D01*
X215897419Y-116925000D01*
X215930661Y-116921726D01*
X215947137Y-116921726D01*
X215956302Y-116920763D01*
X216202618Y-116893134D01*
X216261098Y-116880703D01*
X216319808Y-116869079D01*
X216328611Y-116866353D01*
X216564869Y-116791408D01*
X216619824Y-116767854D01*
X216675158Y-116745047D01*
X216683264Y-116740664D01*
X216900466Y-116621256D01*
X216949791Y-116587482D01*
X216999648Y-116554357D01*
X217006749Y-116548483D01*
X217196621Y-116389160D01*
X217238465Y-116346431D01*
X217280918Y-116304273D01*
X217286742Y-116297132D01*
X217442053Y-116103965D01*
X217474814Y-116053901D01*
X217508260Y-116004315D01*
X217512586Y-115996179D01*
X217627418Y-115776524D01*
X217649802Y-115721120D01*
X217673007Y-115665919D01*
X217675670Y-115657097D01*
X217745652Y-115419321D01*
X217756861Y-115360559D01*
X217768890Y-115301962D01*
X217769789Y-115292791D01*
X217792253Y-115045951D01*
X217791835Y-114986134D01*
X217792253Y-114926318D01*
X217791354Y-114917147D01*
X217765446Y-114670644D01*
X217753412Y-114612017D01*
X217742208Y-114553284D01*
X217739544Y-114544462D01*
X217666249Y-114307686D01*
X217643074Y-114252555D01*
X217620661Y-114197080D01*
X217616334Y-114188944D01*
X217498446Y-113970914D01*
X217465012Y-113921346D01*
X217432240Y-113871265D01*
X217426416Y-113864124D01*
X217268423Y-113673144D01*
X217225988Y-113631005D01*
X217184125Y-113588255D01*
X217177024Y-113582381D01*
X216984946Y-113425727D01*
X216935169Y-113392655D01*
X216885763Y-113358826D01*
X216877657Y-113354444D01*
X216658809Y-113238081D01*
X216603532Y-113215298D01*
X216548525Y-113191721D01*
X216539722Y-113188997D01*
X216302441Y-113117357D01*
X216243754Y-113105736D01*
X216185248Y-113093300D01*
X216176085Y-113092337D01*
X216176083Y-113092337D01*
X215929405Y-113068150D01*
X215929402Y-113068150D01*
X215897419Y-113065000D01*
X212657581Y-113065000D01*
X212624339Y-113068274D01*
X212607863Y-113068274D01*
X212598698Y-113069237D01*
X212352382Y-113096866D01*
X212293865Y-113109305D01*
X212235192Y-113120922D01*
X212226389Y-113123647D01*
X211990131Y-113198592D01*
X211935209Y-113222132D01*
X211879842Y-113244952D01*
X211871736Y-113249336D01*
X211654534Y-113368744D01*
X211605171Y-113402543D01*
X211555352Y-113435643D01*
X211548252Y-113441517D01*
X211358379Y-113600839D01*
X211316516Y-113643588D01*
X211274082Y-113685727D01*
X211268258Y-113692868D01*
X211112947Y-113886035D01*
X211080186Y-113936099D01*
X211046740Y-113985685D01*
X211042418Y-113993814D01*
X211042415Y-113993819D01*
X211042414Y-113993822D01*
X210927582Y-114213476D01*
X210905173Y-114268942D01*
X210881994Y-114324081D01*
X210879330Y-114332903D01*
X210809348Y-114570679D01*
X210798139Y-114629441D01*
X210786110Y-114688038D01*
X210785211Y-114697209D01*
X210762747Y-114944049D01*
X195672000Y-114944049D01*
X195672000Y-114577164D01*
X195723918Y-114499463D01*
X195847168Y-114201912D01*
X195910000Y-113886033D01*
X195910000Y-113563967D01*
X195847168Y-113248088D01*
X195723918Y-112950537D01*
X195672000Y-112872836D01*
X195672000Y-107375000D01*
X195669560Y-107350224D01*
X195662333Y-107326399D01*
X195650597Y-107304443D01*
X195634803Y-107285197D01*
X195037000Y-106687394D01*
X195037000Y-82547934D01*
X195070806Y-82506741D01*
X195159252Y-82341269D01*
X195213717Y-82161723D01*
X195227500Y-82021785D01*
X195227500Y-82021784D01*
X195232108Y-81975001D01*
X195227500Y-81928216D01*
X195227500Y-78292000D01*
X203057183Y-78292000D01*
X203045209Y-78297132D01*
G36*
X243678000Y-81848000D02*
G01*
X232482818Y-81848000D01*
X232494824Y-81842854D01*
X232550158Y-81820047D01*
X232558264Y-81815664D01*
X232775466Y-81696256D01*
X232824791Y-81662482D01*
X232874648Y-81629357D01*
X232881749Y-81623483D01*
X233071621Y-81464160D01*
X233113465Y-81421431D01*
X233155918Y-81379273D01*
X233161742Y-81372132D01*
X233317053Y-81178965D01*
X233349814Y-81128901D01*
X233383260Y-81079315D01*
X233387586Y-81071179D01*
X233502418Y-80851524D01*
X233524802Y-80796120D01*
X233548007Y-80740919D01*
X233550670Y-80732097D01*
X233620652Y-80494321D01*
X233631861Y-80435559D01*
X233643890Y-80376962D01*
X233644789Y-80367791D01*
X233667253Y-80120951D01*
X233666835Y-80061134D01*
X233667253Y-80001318D01*
X233666354Y-79992147D01*
X233640446Y-79745644D01*
X233628412Y-79687017D01*
X233617208Y-79628284D01*
X233614544Y-79619462D01*
X233541249Y-79382686D01*
X233518074Y-79327555D01*
X233495661Y-79272080D01*
X233491334Y-79263944D01*
X233373446Y-79045914D01*
X233340012Y-78996346D01*
X233307240Y-78946265D01*
X233301416Y-78939124D01*
X233143423Y-78748144D01*
X233100988Y-78706005D01*
X233059125Y-78663255D01*
X233052024Y-78657381D01*
X232859946Y-78500727D01*
X232810169Y-78467655D01*
X232760763Y-78433826D01*
X232752657Y-78429444D01*
X232533809Y-78313081D01*
X232482661Y-78292000D01*
X243678000Y-78292000D01*
X243678000Y-81848000D01*
X243678000Y-81848000D01*
G37*
X243678000Y-81848000D02*
X232482818Y-81848000D01*
X232494824Y-81842854D01*
X232550158Y-81820047D01*
X232558264Y-81815664D01*
X232775466Y-81696256D01*
X232824791Y-81662482D01*
X232874648Y-81629357D01*
X232881749Y-81623483D01*
X233071621Y-81464160D01*
X233113465Y-81421431D01*
X233155918Y-81379273D01*
X233161742Y-81372132D01*
X233317053Y-81178965D01*
X233349814Y-81128901D01*
X233383260Y-81079315D01*
X233387586Y-81071179D01*
X233502418Y-80851524D01*
X233524802Y-80796120D01*
X233548007Y-80740919D01*
X233550670Y-80732097D01*
X233620652Y-80494321D01*
X233631861Y-80435559D01*
X233643890Y-80376962D01*
X233644789Y-80367791D01*
X233667253Y-80120951D01*
X233666835Y-80061134D01*
X233667253Y-80001318D01*
X233666354Y-79992147D01*
X233640446Y-79745644D01*
X233628412Y-79687017D01*
X233617208Y-79628284D01*
X233614544Y-79619462D01*
X233541249Y-79382686D01*
X233518074Y-79327555D01*
X233495661Y-79272080D01*
X233491334Y-79263944D01*
X233373446Y-79045914D01*
X233340012Y-78996346D01*
X233307240Y-78946265D01*
X233301416Y-78939124D01*
X233143423Y-78748144D01*
X233100988Y-78706005D01*
X233059125Y-78663255D01*
X233052024Y-78657381D01*
X232859946Y-78500727D01*
X232810169Y-78467655D01*
X232760763Y-78433826D01*
X232752657Y-78429444D01*
X232533809Y-78313081D01*
X232482661Y-78292000D01*
X243678000Y-78292000D01*
X243678000Y-81848000D01*
G36*
X227810209Y-78297132D02*
G01*
X227754842Y-78319952D01*
X227746736Y-78324336D01*
X227529534Y-78443744D01*
X227480171Y-78477543D01*
X227430352Y-78510643D01*
X227423252Y-78516517D01*
X227233379Y-78675839D01*
X227191516Y-78718588D01*
X227149082Y-78760727D01*
X227143258Y-78767868D01*
X226987947Y-78961035D01*
X226955186Y-79011099D01*
X226921740Y-79060685D01*
X226917418Y-79068814D01*
X226917415Y-79068819D01*
X226917414Y-79068822D01*
X226802582Y-79288476D01*
X226780173Y-79343942D01*
X226756994Y-79399081D01*
X226754330Y-79407903D01*
X226684348Y-79645679D01*
X226673139Y-79704441D01*
X226661110Y-79763038D01*
X226660211Y-79772209D01*
X226637747Y-80019049D01*
X226638165Y-80078866D01*
X226637747Y-80138682D01*
X226638646Y-80147853D01*
X226664554Y-80394357D01*
X226676588Y-80452983D01*
X226687792Y-80511716D01*
X226690456Y-80520538D01*
X226763751Y-80757314D01*
X226786931Y-80812457D01*
X226809339Y-80867920D01*
X226813665Y-80876054D01*
X226813667Y-80876059D01*
X226813670Y-80876064D01*
X226931553Y-81094086D01*
X226964988Y-81143654D01*
X226997759Y-81193735D01*
X227003584Y-81200876D01*
X227161577Y-81391856D01*
X227204012Y-81433995D01*
X227245875Y-81476745D01*
X227252976Y-81482618D01*
X227445053Y-81639273D01*
X227494875Y-81672374D01*
X227544237Y-81706173D01*
X227552343Y-81710556D01*
X227771191Y-81826919D01*
X227822337Y-81848000D01*
X207717818Y-81848000D01*
X207729824Y-81842854D01*
X207785158Y-81820047D01*
X207793264Y-81815664D01*
X208010466Y-81696256D01*
X208059791Y-81662482D01*
X208109648Y-81629357D01*
X208116749Y-81623483D01*
X208306621Y-81464160D01*
X208348465Y-81421431D01*
X208390918Y-81379273D01*
X208396742Y-81372132D01*
X208552053Y-81178965D01*
X208584814Y-81128901D01*
X208618260Y-81079315D01*
X208622586Y-81071179D01*
X208737418Y-80851524D01*
X208759802Y-80796120D01*
X208783007Y-80740919D01*
X208785670Y-80732097D01*
X208855652Y-80494321D01*
X208866861Y-80435559D01*
X208878890Y-80376962D01*
X208879789Y-80367791D01*
X208902253Y-80120951D01*
X208901835Y-80061134D01*
X208902253Y-80001318D01*
X208901354Y-79992147D01*
X208875446Y-79745644D01*
X208863412Y-79687017D01*
X208852208Y-79628284D01*
X208849544Y-79619462D01*
X208776249Y-79382686D01*
X208753074Y-79327555D01*
X208730661Y-79272080D01*
X208726334Y-79263944D01*
X208608446Y-79045914D01*
X208575012Y-78996346D01*
X208542240Y-78946265D01*
X208536416Y-78939124D01*
X208378423Y-78748144D01*
X208335988Y-78706005D01*
X208294125Y-78663255D01*
X208287024Y-78657381D01*
X208094946Y-78500727D01*
X208045169Y-78467655D01*
X207995763Y-78433826D01*
X207987657Y-78429444D01*
X207768809Y-78313081D01*
X207717661Y-78292000D01*
X227822183Y-78292000D01*
X227810209Y-78297132D01*
X227810209Y-78297132D01*
G37*
X227810209Y-78297132D02*
X227754842Y-78319952D01*
X227746736Y-78324336D01*
X227529534Y-78443744D01*
X227480171Y-78477543D01*
X227430352Y-78510643D01*
X227423252Y-78516517D01*
X227233379Y-78675839D01*
X227191516Y-78718588D01*
X227149082Y-78760727D01*
X227143258Y-78767868D01*
X226987947Y-78961035D01*
X226955186Y-79011099D01*
X226921740Y-79060685D01*
X226917418Y-79068814D01*
X226917415Y-79068819D01*
X226917414Y-79068822D01*
X226802582Y-79288476D01*
X226780173Y-79343942D01*
X226756994Y-79399081D01*
X226754330Y-79407903D01*
X226684348Y-79645679D01*
X226673139Y-79704441D01*
X226661110Y-79763038D01*
X226660211Y-79772209D01*
X226637747Y-80019049D01*
X226638165Y-80078866D01*
X226637747Y-80138682D01*
X226638646Y-80147853D01*
X226664554Y-80394357D01*
X226676588Y-80452983D01*
X226687792Y-80511716D01*
X226690456Y-80520538D01*
X226763751Y-80757314D01*
X226786931Y-80812457D01*
X226809339Y-80867920D01*
X226813665Y-80876054D01*
X226813667Y-80876059D01*
X226813670Y-80876064D01*
X226931553Y-81094086D01*
X226964988Y-81143654D01*
X226997759Y-81193735D01*
X227003584Y-81200876D01*
X227161577Y-81391856D01*
X227204012Y-81433995D01*
X227245875Y-81476745D01*
X227252976Y-81482618D01*
X227445053Y-81639273D01*
X227494875Y-81672374D01*
X227544237Y-81706173D01*
X227552343Y-81710556D01*
X227771191Y-81826919D01*
X227822337Y-81848000D01*
X207717818Y-81848000D01*
X207729824Y-81842854D01*
X207785158Y-81820047D01*
X207793264Y-81815664D01*
X208010466Y-81696256D01*
X208059791Y-81662482D01*
X208109648Y-81629357D01*
X208116749Y-81623483D01*
X208306621Y-81464160D01*
X208348465Y-81421431D01*
X208390918Y-81379273D01*
X208396742Y-81372132D01*
X208552053Y-81178965D01*
X208584814Y-81128901D01*
X208618260Y-81079315D01*
X208622586Y-81071179D01*
X208737418Y-80851524D01*
X208759802Y-80796120D01*
X208783007Y-80740919D01*
X208785670Y-80732097D01*
X208855652Y-80494321D01*
X208866861Y-80435559D01*
X208878890Y-80376962D01*
X208879789Y-80367791D01*
X208902253Y-80120951D01*
X208901835Y-80061134D01*
X208902253Y-80001318D01*
X208901354Y-79992147D01*
X208875446Y-79745644D01*
X208863412Y-79687017D01*
X208852208Y-79628284D01*
X208849544Y-79619462D01*
X208776249Y-79382686D01*
X208753074Y-79327555D01*
X208730661Y-79272080D01*
X208726334Y-79263944D01*
X208608446Y-79045914D01*
X208575012Y-78996346D01*
X208542240Y-78946265D01*
X208536416Y-78939124D01*
X208378423Y-78748144D01*
X208335988Y-78706005D01*
X208294125Y-78663255D01*
X208287024Y-78657381D01*
X208094946Y-78500727D01*
X208045169Y-78467655D01*
X207995763Y-78433826D01*
X207987657Y-78429444D01*
X207768809Y-78313081D01*
X207717661Y-78292000D01*
X227822183Y-78292000D01*
X227810209Y-78297132D01*
G36*
X107160209Y-55437132D02*
G01*
X107104842Y-55459952D01*
X107096736Y-55464336D01*
X106879534Y-55583744D01*
X106830171Y-55617543D01*
X106780352Y-55650643D01*
X106773252Y-55656517D01*
X106583379Y-55815839D01*
X106541516Y-55858588D01*
X106499082Y-55900727D01*
X106493258Y-55907868D01*
X106337947Y-56101035D01*
X106305186Y-56151099D01*
X106271740Y-56200685D01*
X106267418Y-56208814D01*
X106267415Y-56208819D01*
X106267414Y-56208822D01*
X106152582Y-56428476D01*
X106130173Y-56483942D01*
X106106994Y-56539081D01*
X106104330Y-56547903D01*
X106034348Y-56785679D01*
X106023139Y-56844441D01*
X106011110Y-56903038D01*
X106010211Y-56912209D01*
X105987747Y-57159049D01*
X105988165Y-57218866D01*
X105987747Y-57278682D01*
X105988646Y-57287853D01*
X106014554Y-57534357D01*
X106026588Y-57592983D01*
X106037792Y-57651716D01*
X106040456Y-57660538D01*
X106113751Y-57897314D01*
X106136931Y-57952457D01*
X106159339Y-58007920D01*
X106163665Y-58016054D01*
X106163667Y-58016059D01*
X106163670Y-58016064D01*
X106281553Y-58234086D01*
X106314988Y-58283654D01*
X106347759Y-58333735D01*
X106353584Y-58340876D01*
X106511577Y-58531856D01*
X106554012Y-58573995D01*
X106595875Y-58616745D01*
X106602976Y-58622618D01*
X106795053Y-58779273D01*
X106844875Y-58812374D01*
X106894237Y-58846173D01*
X106902343Y-58850556D01*
X107121191Y-58966919D01*
X107172337Y-58988000D01*
X73042606Y-58988000D01*
X72482000Y-58427394D01*
X72482000Y-55992606D01*
X73042606Y-55432000D01*
X107172183Y-55432000D01*
X107160209Y-55437132D01*
X107160209Y-55437132D01*
G37*
X107160209Y-55437132D02*
X107104842Y-55459952D01*
X107096736Y-55464336D01*
X106879534Y-55583744D01*
X106830171Y-55617543D01*
X106780352Y-55650643D01*
X106773252Y-55656517D01*
X106583379Y-55815839D01*
X106541516Y-55858588D01*
X106499082Y-55900727D01*
X106493258Y-55907868D01*
X106337947Y-56101035D01*
X106305186Y-56151099D01*
X106271740Y-56200685D01*
X106267418Y-56208814D01*
X106267415Y-56208819D01*
X106267414Y-56208822D01*
X106152582Y-56428476D01*
X106130173Y-56483942D01*
X106106994Y-56539081D01*
X106104330Y-56547903D01*
X106034348Y-56785679D01*
X106023139Y-56844441D01*
X106011110Y-56903038D01*
X106010211Y-56912209D01*
X105987747Y-57159049D01*
X105988165Y-57218866D01*
X105987747Y-57278682D01*
X105988646Y-57287853D01*
X106014554Y-57534357D01*
X106026588Y-57592983D01*
X106037792Y-57651716D01*
X106040456Y-57660538D01*
X106113751Y-57897314D01*
X106136931Y-57952457D01*
X106159339Y-58007920D01*
X106163665Y-58016054D01*
X106163667Y-58016059D01*
X106163670Y-58016064D01*
X106281553Y-58234086D01*
X106314988Y-58283654D01*
X106347759Y-58333735D01*
X106353584Y-58340876D01*
X106511577Y-58531856D01*
X106554012Y-58573995D01*
X106595875Y-58616745D01*
X106602976Y-58622618D01*
X106795053Y-58779273D01*
X106844875Y-58812374D01*
X106894237Y-58846173D01*
X106902343Y-58850556D01*
X107121191Y-58966919D01*
X107172337Y-58988000D01*
X73042606Y-58988000D01*
X72482000Y-58427394D01*
X72482000Y-55992606D01*
X73042606Y-55432000D01*
X107172183Y-55432000D01*
X107160209Y-55437132D01*
G36*
X147165209Y-55437132D02*
G01*
X147109842Y-55459952D01*
X147101736Y-55464336D01*
X146884534Y-55583744D01*
X146835171Y-55617543D01*
X146785352Y-55650643D01*
X146778252Y-55656517D01*
X146588379Y-55815839D01*
X146546516Y-55858588D01*
X146504082Y-55900727D01*
X146498258Y-55907868D01*
X146342947Y-56101035D01*
X146310186Y-56151099D01*
X146276740Y-56200685D01*
X146272418Y-56208814D01*
X146272415Y-56208819D01*
X146272414Y-56208822D01*
X146157582Y-56428476D01*
X146135173Y-56483942D01*
X146111994Y-56539081D01*
X146109330Y-56547903D01*
X146039348Y-56785679D01*
X146028139Y-56844441D01*
X146016110Y-56903038D01*
X146015211Y-56912209D01*
X145992747Y-57159049D01*
X145993165Y-57218866D01*
X145992747Y-57278682D01*
X145993646Y-57287853D01*
X146019554Y-57534357D01*
X146031588Y-57592983D01*
X146042792Y-57651716D01*
X146045456Y-57660538D01*
X146118751Y-57897314D01*
X146141931Y-57952457D01*
X146164339Y-58007920D01*
X146168665Y-58016054D01*
X146168667Y-58016059D01*
X146168670Y-58016064D01*
X146286553Y-58234086D01*
X146319988Y-58283654D01*
X146352759Y-58333735D01*
X146358584Y-58340876D01*
X146516577Y-58531856D01*
X146559012Y-58573995D01*
X146600875Y-58616745D01*
X146607976Y-58622618D01*
X146800053Y-58779273D01*
X146849875Y-58812374D01*
X146899237Y-58846173D01*
X146907343Y-58850556D01*
X147126191Y-58966919D01*
X147177337Y-58988000D01*
X111832818Y-58988000D01*
X111844824Y-58982854D01*
X111900158Y-58960047D01*
X111908264Y-58955664D01*
X112125466Y-58836256D01*
X112174791Y-58802482D01*
X112224648Y-58769357D01*
X112231749Y-58763483D01*
X112421621Y-58604160D01*
X112463465Y-58561431D01*
X112505918Y-58519273D01*
X112511742Y-58512132D01*
X112667053Y-58318965D01*
X112699814Y-58268901D01*
X112733260Y-58219315D01*
X112737586Y-58211179D01*
X112852418Y-57991524D01*
X112874802Y-57936120D01*
X112898007Y-57880919D01*
X112900670Y-57872097D01*
X112970652Y-57634321D01*
X112981861Y-57575559D01*
X112993890Y-57516962D01*
X112994789Y-57507791D01*
X113017253Y-57260951D01*
X113016835Y-57201135D01*
X113017253Y-57141318D01*
X113016354Y-57132147D01*
X112990446Y-56885644D01*
X112978412Y-56827017D01*
X112967208Y-56768284D01*
X112964544Y-56759462D01*
X112891249Y-56522686D01*
X112868074Y-56467555D01*
X112845661Y-56412080D01*
X112841334Y-56403944D01*
X112723446Y-56185914D01*
X112690012Y-56136346D01*
X112657240Y-56086265D01*
X112651416Y-56079124D01*
X112493423Y-55888144D01*
X112450988Y-55846005D01*
X112409125Y-55803255D01*
X112402024Y-55797381D01*
X112209946Y-55640727D01*
X112160169Y-55607655D01*
X112110763Y-55573826D01*
X112102657Y-55569444D01*
X111883809Y-55453081D01*
X111832661Y-55432000D01*
X147177183Y-55432000D01*
X147165209Y-55437132D01*
X147165209Y-55437132D01*
G37*
X147165209Y-55437132D02*
X147109842Y-55459952D01*
X147101736Y-55464336D01*
X146884534Y-55583744D01*
X146835171Y-55617543D01*
X146785352Y-55650643D01*
X146778252Y-55656517D01*
X146588379Y-55815839D01*
X146546516Y-55858588D01*
X146504082Y-55900727D01*
X146498258Y-55907868D01*
X146342947Y-56101035D01*
X146310186Y-56151099D01*
X146276740Y-56200685D01*
X146272418Y-56208814D01*
X146272415Y-56208819D01*
X146272414Y-56208822D01*
X146157582Y-56428476D01*
X146135173Y-56483942D01*
X146111994Y-56539081D01*
X146109330Y-56547903D01*
X146039348Y-56785679D01*
X146028139Y-56844441D01*
X146016110Y-56903038D01*
X146015211Y-56912209D01*
X145992747Y-57159049D01*
X145993165Y-57218866D01*
X145992747Y-57278682D01*
X145993646Y-57287853D01*
X146019554Y-57534357D01*
X146031588Y-57592983D01*
X146042792Y-57651716D01*
X146045456Y-57660538D01*
X146118751Y-57897314D01*
X146141931Y-57952457D01*
X146164339Y-58007920D01*
X146168665Y-58016054D01*
X146168667Y-58016059D01*
X146168670Y-58016064D01*
X146286553Y-58234086D01*
X146319988Y-58283654D01*
X146352759Y-58333735D01*
X146358584Y-58340876D01*
X146516577Y-58531856D01*
X146559012Y-58573995D01*
X146600875Y-58616745D01*
X146607976Y-58622618D01*
X146800053Y-58779273D01*
X146849875Y-58812374D01*
X146899237Y-58846173D01*
X146907343Y-58850556D01*
X147126191Y-58966919D01*
X147177337Y-58988000D01*
X111832818Y-58988000D01*
X111844824Y-58982854D01*
X111900158Y-58960047D01*
X111908264Y-58955664D01*
X112125466Y-58836256D01*
X112174791Y-58802482D01*
X112224648Y-58769357D01*
X112231749Y-58763483D01*
X112421621Y-58604160D01*
X112463465Y-58561431D01*
X112505918Y-58519273D01*
X112511742Y-58512132D01*
X112667053Y-58318965D01*
X112699814Y-58268901D01*
X112733260Y-58219315D01*
X112737586Y-58211179D01*
X112852418Y-57991524D01*
X112874802Y-57936120D01*
X112898007Y-57880919D01*
X112900670Y-57872097D01*
X112970652Y-57634321D01*
X112981861Y-57575559D01*
X112993890Y-57516962D01*
X112994789Y-57507791D01*
X113017253Y-57260951D01*
X113016835Y-57201135D01*
X113017253Y-57141318D01*
X113016354Y-57132147D01*
X112990446Y-56885644D01*
X112978412Y-56827017D01*
X112967208Y-56768284D01*
X112964544Y-56759462D01*
X112891249Y-56522686D01*
X112868074Y-56467555D01*
X112845661Y-56412080D01*
X112841334Y-56403944D01*
X112723446Y-56185914D01*
X112690012Y-56136346D01*
X112657240Y-56086265D01*
X112651416Y-56079124D01*
X112493423Y-55888144D01*
X112450988Y-55846005D01*
X112409125Y-55803255D01*
X112402024Y-55797381D01*
X112209946Y-55640727D01*
X112160169Y-55607655D01*
X112110763Y-55573826D01*
X112102657Y-55569444D01*
X111883809Y-55453081D01*
X111832661Y-55432000D01*
X147177183Y-55432000D01*
X147165209Y-55437132D01*
G36*
X192250209Y-55437132D02*
G01*
X192194842Y-55459952D01*
X192186736Y-55464336D01*
X191969534Y-55583744D01*
X191920171Y-55617543D01*
X191870352Y-55650643D01*
X191863252Y-55656517D01*
X191673379Y-55815839D01*
X191631516Y-55858588D01*
X191589082Y-55900727D01*
X191583258Y-55907868D01*
X191427947Y-56101035D01*
X191395186Y-56151099D01*
X191361740Y-56200685D01*
X191357418Y-56208814D01*
X191357415Y-56208819D01*
X191357414Y-56208822D01*
X191242582Y-56428476D01*
X191220173Y-56483942D01*
X191196994Y-56539081D01*
X191194330Y-56547903D01*
X191124348Y-56785679D01*
X191113139Y-56844441D01*
X191101110Y-56903038D01*
X191100211Y-56912209D01*
X191077747Y-57159049D01*
X191078165Y-57218866D01*
X191077747Y-57278682D01*
X191078646Y-57287853D01*
X191104554Y-57534357D01*
X191116588Y-57592983D01*
X191127792Y-57651716D01*
X191130456Y-57660538D01*
X191203751Y-57897314D01*
X191226931Y-57952457D01*
X191249339Y-58007920D01*
X191253665Y-58016054D01*
X191253667Y-58016059D01*
X191253670Y-58016064D01*
X191371553Y-58234086D01*
X191404988Y-58283654D01*
X191437759Y-58333735D01*
X191443584Y-58340876D01*
X191601577Y-58531856D01*
X191644012Y-58573995D01*
X191685875Y-58616745D01*
X191692976Y-58622618D01*
X191885053Y-58779273D01*
X191934875Y-58812374D01*
X191984237Y-58846173D01*
X191992343Y-58850556D01*
X192211191Y-58966919D01*
X192262337Y-58988000D01*
X151837818Y-58988000D01*
X151849824Y-58982854D01*
X151905158Y-58960047D01*
X151913264Y-58955664D01*
X152130466Y-58836256D01*
X152179791Y-58802482D01*
X152229648Y-58769357D01*
X152236749Y-58763483D01*
X152426621Y-58604160D01*
X152468465Y-58561431D01*
X152510918Y-58519273D01*
X152516742Y-58512132D01*
X152672053Y-58318965D01*
X152704814Y-58268901D01*
X152738260Y-58219315D01*
X152742586Y-58211179D01*
X152857418Y-57991524D01*
X152879802Y-57936120D01*
X152903007Y-57880919D01*
X152905670Y-57872097D01*
X152975652Y-57634321D01*
X152986861Y-57575559D01*
X152998890Y-57516962D01*
X152999789Y-57507791D01*
X153022253Y-57260951D01*
X153021835Y-57201135D01*
X153022253Y-57141318D01*
X153021354Y-57132147D01*
X152995446Y-56885644D01*
X152983412Y-56827017D01*
X152972208Y-56768284D01*
X152969544Y-56759462D01*
X152896249Y-56522686D01*
X152873074Y-56467555D01*
X152850661Y-56412080D01*
X152846334Y-56403944D01*
X152728446Y-56185914D01*
X152695012Y-56136346D01*
X152662240Y-56086265D01*
X152656416Y-56079124D01*
X152498423Y-55888144D01*
X152455988Y-55846005D01*
X152414125Y-55803255D01*
X152407024Y-55797381D01*
X152214946Y-55640727D01*
X152165169Y-55607655D01*
X152115763Y-55573826D01*
X152107657Y-55569444D01*
X151888809Y-55453081D01*
X151837661Y-55432000D01*
X192262183Y-55432000D01*
X192250209Y-55437132D01*
X192250209Y-55437132D01*
G37*
X192250209Y-55437132D02*
X192194842Y-55459952D01*
X192186736Y-55464336D01*
X191969534Y-55583744D01*
X191920171Y-55617543D01*
X191870352Y-55650643D01*
X191863252Y-55656517D01*
X191673379Y-55815839D01*
X191631516Y-55858588D01*
X191589082Y-55900727D01*
X191583258Y-55907868D01*
X191427947Y-56101035D01*
X191395186Y-56151099D01*
X191361740Y-56200685D01*
X191357418Y-56208814D01*
X191357415Y-56208819D01*
X191357414Y-56208822D01*
X191242582Y-56428476D01*
X191220173Y-56483942D01*
X191196994Y-56539081D01*
X191194330Y-56547903D01*
X191124348Y-56785679D01*
X191113139Y-56844441D01*
X191101110Y-56903038D01*
X191100211Y-56912209D01*
X191077747Y-57159049D01*
X191078165Y-57218866D01*
X191077747Y-57278682D01*
X191078646Y-57287853D01*
X191104554Y-57534357D01*
X191116588Y-57592983D01*
X191127792Y-57651716D01*
X191130456Y-57660538D01*
X191203751Y-57897314D01*
X191226931Y-57952457D01*
X191249339Y-58007920D01*
X191253665Y-58016054D01*
X191253667Y-58016059D01*
X191253670Y-58016064D01*
X191371553Y-58234086D01*
X191404988Y-58283654D01*
X191437759Y-58333735D01*
X191443584Y-58340876D01*
X191601577Y-58531856D01*
X191644012Y-58573995D01*
X191685875Y-58616745D01*
X191692976Y-58622618D01*
X191885053Y-58779273D01*
X191934875Y-58812374D01*
X191984237Y-58846173D01*
X191992343Y-58850556D01*
X192211191Y-58966919D01*
X192262337Y-58988000D01*
X151837818Y-58988000D01*
X151849824Y-58982854D01*
X151905158Y-58960047D01*
X151913264Y-58955664D01*
X152130466Y-58836256D01*
X152179791Y-58802482D01*
X152229648Y-58769357D01*
X152236749Y-58763483D01*
X152426621Y-58604160D01*
X152468465Y-58561431D01*
X152510918Y-58519273D01*
X152516742Y-58512132D01*
X152672053Y-58318965D01*
X152704814Y-58268901D01*
X152738260Y-58219315D01*
X152742586Y-58211179D01*
X152857418Y-57991524D01*
X152879802Y-57936120D01*
X152903007Y-57880919D01*
X152905670Y-57872097D01*
X152975652Y-57634321D01*
X152986861Y-57575559D01*
X152998890Y-57516962D01*
X152999789Y-57507791D01*
X153022253Y-57260951D01*
X153021835Y-57201135D01*
X153022253Y-57141318D01*
X153021354Y-57132147D01*
X152995446Y-56885644D01*
X152983412Y-56827017D01*
X152972208Y-56768284D01*
X152969544Y-56759462D01*
X152896249Y-56522686D01*
X152873074Y-56467555D01*
X152850661Y-56412080D01*
X152846334Y-56403944D01*
X152728446Y-56185914D01*
X152695012Y-56136346D01*
X152662240Y-56086265D01*
X152656416Y-56079124D01*
X152498423Y-55888144D01*
X152455988Y-55846005D01*
X152414125Y-55803255D01*
X152407024Y-55797381D01*
X152214946Y-55640727D01*
X152165169Y-55607655D01*
X152115763Y-55573826D01*
X152107657Y-55569444D01*
X151888809Y-55453081D01*
X151837661Y-55432000D01*
X192262183Y-55432000D01*
X192250209Y-55437132D01*
G36*
X204943000Y-55992606D02*
G01*
X204943000Y-58427394D01*
X204382394Y-58988000D01*
X196922818Y-58988000D01*
X196934824Y-58982854D01*
X196990158Y-58960047D01*
X196998264Y-58955664D01*
X197215466Y-58836256D01*
X197264791Y-58802482D01*
X197314648Y-58769357D01*
X197321749Y-58763483D01*
X197511621Y-58604160D01*
X197553465Y-58561431D01*
X197595918Y-58519273D01*
X197601742Y-58512132D01*
X197757053Y-58318965D01*
X197789814Y-58268901D01*
X197823260Y-58219315D01*
X197827586Y-58211179D01*
X197942418Y-57991524D01*
X197964802Y-57936120D01*
X197988007Y-57880919D01*
X197990670Y-57872097D01*
X198060652Y-57634321D01*
X198071861Y-57575559D01*
X198083890Y-57516962D01*
X198084789Y-57507791D01*
X198107253Y-57260951D01*
X198106835Y-57201135D01*
X198107253Y-57141318D01*
X198106354Y-57132147D01*
X198080446Y-56885644D01*
X198068412Y-56827017D01*
X198057208Y-56768284D01*
X198054544Y-56759462D01*
X197981249Y-56522686D01*
X197958074Y-56467555D01*
X197935661Y-56412080D01*
X197931334Y-56403944D01*
X197813446Y-56185914D01*
X197780012Y-56136346D01*
X197747240Y-56086265D01*
X197741416Y-56079124D01*
X197583423Y-55888144D01*
X197540988Y-55846005D01*
X197499125Y-55803255D01*
X197492024Y-55797381D01*
X197299946Y-55640727D01*
X197250169Y-55607655D01*
X197200763Y-55573826D01*
X197192657Y-55569444D01*
X196973809Y-55453081D01*
X196922661Y-55432000D01*
X204382394Y-55432000D01*
X204943000Y-55992606D01*
X204943000Y-55992606D01*
G37*
X204943000Y-55992606D02*
X204943000Y-58427394D01*
X204382394Y-58988000D01*
X196922818Y-58988000D01*
X196934824Y-58982854D01*
X196990158Y-58960047D01*
X196998264Y-58955664D01*
X197215466Y-58836256D01*
X197264791Y-58802482D01*
X197314648Y-58769357D01*
X197321749Y-58763483D01*
X197511621Y-58604160D01*
X197553465Y-58561431D01*
X197595918Y-58519273D01*
X197601742Y-58512132D01*
X197757053Y-58318965D01*
X197789814Y-58268901D01*
X197823260Y-58219315D01*
X197827586Y-58211179D01*
X197942418Y-57991524D01*
X197964802Y-57936120D01*
X197988007Y-57880919D01*
X197990670Y-57872097D01*
X198060652Y-57634321D01*
X198071861Y-57575559D01*
X198083890Y-57516962D01*
X198084789Y-57507791D01*
X198107253Y-57260951D01*
X198106835Y-57201135D01*
X198107253Y-57141318D01*
X198106354Y-57132147D01*
X198080446Y-56885644D01*
X198068412Y-56827017D01*
X198057208Y-56768284D01*
X198054544Y-56759462D01*
X197981249Y-56522686D01*
X197958074Y-56467555D01*
X197935661Y-56412080D01*
X197931334Y-56403944D01*
X197813446Y-56185914D01*
X197780012Y-56136346D01*
X197747240Y-56086265D01*
X197741416Y-56079124D01*
X197583423Y-55888144D01*
X197540988Y-55846005D01*
X197499125Y-55803255D01*
X197492024Y-55797381D01*
X197299946Y-55640727D01*
X197250169Y-55607655D01*
X197200763Y-55573826D01*
X197192657Y-55569444D01*
X196973809Y-55453081D01*
X196922661Y-55432000D01*
X204382394Y-55432000D01*
X204943000Y-55992606D01*
G36*
X245583000Y-55992606D02*
G01*
X245583000Y-58427394D01*
X245022394Y-58988000D01*
X214647606Y-58988000D01*
X214087000Y-58427394D01*
X214087000Y-55992606D01*
X214647606Y-55432000D01*
X245022394Y-55432000D01*
X245583000Y-55992606D01*
X245583000Y-55992606D01*
G37*
X245583000Y-55992606D02*
X245583000Y-58427394D01*
X245022394Y-58988000D01*
X214647606Y-58988000D01*
X214087000Y-58427394D01*
X214087000Y-55992606D01*
X214647606Y-55432000D01*
X245022394Y-55432000D01*
X245583000Y-55992606D01*
G36*
X260188000Y-144713000D02*
G01*
X256505000Y-144713000D01*
X256480224Y-144715440D01*
X256456399Y-144722667D01*
X256434443Y-144734403D01*
X256415197Y-144750197D01*
X254547394Y-146618000D01*
X244567000Y-146618000D01*
X244567000Y-141665000D01*
X244564560Y-141640224D01*
X244557333Y-141616399D01*
X244545597Y-141594443D01*
X244529803Y-141575197D01*
X242027000Y-139072394D01*
X242027000Y-137982000D01*
X244440000Y-137982000D01*
X244464776Y-137979560D01*
X244488601Y-137972333D01*
X244510557Y-137960597D01*
X244529803Y-137944803D01*
X249572606Y-132902000D01*
X260188000Y-132902000D01*
X260188000Y-144713000D01*
X260188000Y-144713000D01*
G37*
X260188000Y-144713000D02*
X256505000Y-144713000D01*
X256480224Y-144715440D01*
X256456399Y-144722667D01*
X256434443Y-144734403D01*
X256415197Y-144750197D01*
X254547394Y-146618000D01*
X244567000Y-146618000D01*
X244567000Y-141665000D01*
X244564560Y-141640224D01*
X244557333Y-141616399D01*
X244545597Y-141594443D01*
X244529803Y-141575197D01*
X242027000Y-139072394D01*
X242027000Y-137982000D01*
X244440000Y-137982000D01*
X244464776Y-137979560D01*
X244488601Y-137972333D01*
X244510557Y-137960597D01*
X244529803Y-137944803D01*
X249572606Y-132902000D01*
X260188000Y-132902000D01*
X260188000Y-144713000D01*
G36*
X259553000Y-133807699D02*
G01*
X257974344Y-132755262D01*
X259553000Y-131176606D01*
X259553000Y-133807699D01*
X259553000Y-133807699D01*
G37*
X259553000Y-133807699D02*
X257974344Y-132755262D01*
X259553000Y-131176606D01*
X259553000Y-133807699D01*
G36*
X178310197Y-138579803D02*
G01*
X178329443Y-138595597D01*
X178351399Y-138607333D01*
X178375224Y-138614560D01*
X178400000Y-138617000D01*
X181522394Y-138617000D01*
X182755197Y-139849803D01*
X182774443Y-139865597D01*
X182796399Y-139877333D01*
X182820224Y-139884560D01*
X182845000Y-139887000D01*
X190465000Y-139887000D01*
X190489776Y-139884560D01*
X190513601Y-139877333D01*
X190535557Y-139865597D01*
X190554803Y-139849803D01*
X192422606Y-137982000D01*
X234866715Y-137982000D01*
X240503000Y-142992031D01*
X240503000Y-146618000D01*
X186072606Y-146618000D01*
X185474803Y-146020197D01*
X185455557Y-146004403D01*
X185433601Y-145992667D01*
X185409776Y-145985440D01*
X185385000Y-145983000D01*
X178054291Y-145983000D01*
X178067168Y-145951912D01*
X178130000Y-145636033D01*
X178130000Y-145313967D01*
X178067168Y-144998088D01*
X177943918Y-144700537D01*
X177892000Y-144622836D01*
X177892000Y-144205000D01*
X177889560Y-144180224D01*
X177882333Y-144156399D01*
X177870597Y-144134443D01*
X177854803Y-144115197D01*
X177835557Y-144099403D01*
X177813601Y-144087667D01*
X177789776Y-144080440D01*
X177765000Y-144078000D01*
X177347164Y-144078000D01*
X177269463Y-144026082D01*
X176971912Y-143902832D01*
X176656033Y-143840000D01*
X176333967Y-143840000D01*
X176018088Y-143902832D01*
X175720537Y-144026082D01*
X175642836Y-144078000D01*
X172102606Y-144078000D01*
X171542000Y-143517394D01*
X171542000Y-139760000D01*
X171539560Y-139735224D01*
X171532333Y-139711399D01*
X171520597Y-139689443D01*
X171504803Y-139670197D01*
X169637000Y-137802394D01*
X169637000Y-136712000D01*
X176442394Y-136712000D01*
X178310197Y-138579803D01*
X178310197Y-138579803D01*
G37*
X178310197Y-138579803D02*
X178329443Y-138595597D01*
X178351399Y-138607333D01*
X178375224Y-138614560D01*
X178400000Y-138617000D01*
X181522394Y-138617000D01*
X182755197Y-139849803D01*
X182774443Y-139865597D01*
X182796399Y-139877333D01*
X182820224Y-139884560D01*
X182845000Y-139887000D01*
X190465000Y-139887000D01*
X190489776Y-139884560D01*
X190513601Y-139877333D01*
X190535557Y-139865597D01*
X190554803Y-139849803D01*
X192422606Y-137982000D01*
X234866715Y-137982000D01*
X240503000Y-142992031D01*
X240503000Y-146618000D01*
X186072606Y-146618000D01*
X185474803Y-146020197D01*
X185455557Y-146004403D01*
X185433601Y-145992667D01*
X185409776Y-145985440D01*
X185385000Y-145983000D01*
X178054291Y-145983000D01*
X178067168Y-145951912D01*
X178130000Y-145636033D01*
X178130000Y-145313967D01*
X178067168Y-144998088D01*
X177943918Y-144700537D01*
X177892000Y-144622836D01*
X177892000Y-144205000D01*
X177889560Y-144180224D01*
X177882333Y-144156399D01*
X177870597Y-144134443D01*
X177854803Y-144115197D01*
X177835557Y-144099403D01*
X177813601Y-144087667D01*
X177789776Y-144080440D01*
X177765000Y-144078000D01*
X177347164Y-144078000D01*
X177269463Y-144026082D01*
X176971912Y-143902832D01*
X176656033Y-143840000D01*
X176333967Y-143840000D01*
X176018088Y-143902832D01*
X175720537Y-144026082D01*
X175642836Y-144078000D01*
X172102606Y-144078000D01*
X171542000Y-143517394D01*
X171542000Y-139760000D01*
X171539560Y-139735224D01*
X171532333Y-139711399D01*
X171520597Y-139689443D01*
X171504803Y-139670197D01*
X169637000Y-137802394D01*
X169637000Y-136712000D01*
X176442394Y-136712000D01*
X178310197Y-138579803D01*
M02*
