M48
; DRILL file {KiCad (5.1.4)-1} date 10.01.2021 11:13:30
; FORMAT={-:-/ absolute / inch / decimal}
; #@! TF.CreationDate,2021-01-10T11:13:30+01:00
; #@! TF.GenerationSoftware,Kicad,Pcbnew,(5.1.4)-1
; #@! TF.FileFunction,Plated,1,2,PTH
FMAT,2
INCH
T1C0.0315
T2C0.0354
T3C0.0394
T4C0.0433
T5C0.0472
T6C0.0500
T7C0.0591
T8C0.0709
T9C0.0787
T10C0.1102
%
G90
G05
T1
X4.8236Y-3.5774
X4.9986Y-3.5274
X5.0986Y-3.5274
X5.1486Y-3.7774
X5.2486Y-5.0774
X5.5486Y-3.7274
X5.5486Y-4.6274
X5.6986Y-3.7274
X5.7986Y-3.6524
X6.1486Y-3.4274
X6.2486Y-3.4274
X6.2986Y-4.3274
X6.3486Y-3.4274
X6.4486Y-3.4274
X6.5486Y-3.4274
X6.5986Y-4.2274
X5.2986Y-5.2274
X5.2986Y-5.8274
X5.3986Y-5.2274
X5.3986Y-5.8274
X5.4986Y-5.2274
X5.4986Y-5.8274
X5.5986Y-5.2274
X5.5986Y-5.8274
X5.6986Y-5.2274
X5.6986Y-5.8274
X5.7986Y-5.2274
X5.7986Y-5.8274
X5.8986Y-5.2274
X5.8986Y-5.8274
X5.9986Y-5.2274
X5.9986Y-5.8274
X6.0986Y-5.2274
X6.0986Y-5.8274
X6.1986Y-5.2274
X6.1986Y-5.8274
X6.2986Y-5.2274
X6.2986Y-5.8274
X6.3986Y-5.2274
X6.3986Y-5.8274
X6.4986Y-5.2274
X6.4986Y-5.8274
X6.5986Y-5.2274
X6.5986Y-5.8274
X6.6986Y-5.2274
X6.6986Y-5.8274
X6.7986Y-5.2274
X6.7986Y-5.8274
X6.8986Y-5.2274
X6.8986Y-5.8274
X6.9986Y-5.2274
X6.9986Y-5.8274
X7.0986Y-5.2274
X7.0986Y-5.8274
X7.1986Y-5.2274
X7.1986Y-5.8274
X5.1986Y-3.5274
X5.1986Y-4.1274
X5.2986Y-3.5274
X5.2986Y-4.1274
X5.3986Y-3.5274
X5.3986Y-4.1274
X5.4986Y-3.5274
X5.4986Y-4.1274
X5.5986Y-3.5274
X5.5986Y-4.1274
X5.6986Y-3.5274
X5.6986Y-4.1274
X5.7986Y-3.5274
X5.7986Y-4.1274
X5.8986Y-3.5274
X5.8986Y-4.1274
X5.9986Y-3.5274
X5.9986Y-4.1274
X6.0986Y-3.5274
X6.0986Y-4.1274
X6.1986Y-3.5274
X6.1986Y-4.1274
X6.2986Y-3.5274
X6.2986Y-4.1274
X6.3986Y-3.5274
X6.3986Y-4.1274
X6.4986Y-3.5274
X6.4986Y-4.1274
X6.5986Y-3.5274
X6.5986Y-4.1274
X6.6986Y-3.5274
X6.6986Y-4.1274
X6.7986Y-3.5274
X6.7986Y-4.1274
X6.8986Y-3.5274
X6.8986Y-4.1274
X6.9986Y-3.5274
X6.9986Y-4.1274
X7.0986Y-3.5274
X7.0986Y-4.1274
X7.7486Y-4.8524
X7.7486Y-5.1524
X7.8486Y-4.8524
X7.8486Y-5.1524
X7.9486Y-4.8524
X7.9486Y-5.1524
X8.0486Y-4.8524
X8.0486Y-5.1524
X8.1486Y-4.8524
X8.1486Y-5.1524
X8.2486Y-4.8524
X8.2486Y-5.1524
X8.3486Y-4.8524
X8.3486Y-5.1524
X8.4486Y-4.8524
X8.4486Y-5.1524
X4.8986Y-4.3774
X4.8986Y-4.9774
X4.9986Y-4.3774
X4.9986Y-4.9774
X5.0986Y-4.3774
X5.0986Y-4.9774
X5.1986Y-4.3774
X5.1986Y-4.9774
X5.2986Y-4.3774
X5.2986Y-4.9774
X5.3986Y-4.3774
X5.3986Y-4.9774
X5.4986Y-4.3774
X5.4986Y-4.9774
X5.5986Y-4.3774
X5.5986Y-4.9774
X5.6986Y-4.3774
X5.6986Y-4.9774
X5.7986Y-4.3774
X5.7986Y-4.9774
X5.8986Y-4.3774
X5.8986Y-4.9774
X5.9986Y-4.3774
X5.9986Y-4.9774
X6.0986Y-4.3774
X6.0986Y-4.9774
X6.1986Y-4.3774
X6.1986Y-4.9774
X3.8736Y-3.6774
X3.8736Y-3.8703
X8.6486Y-3.6524
X8.6486Y-3.7524
X8.6486Y-3.8524
X8.6486Y-3.9524
X8.6486Y-4.0524
X8.6486Y-4.1524
X8.6486Y-4.2524
X8.9486Y-3.6524
X8.9486Y-3.7524
X8.9486Y-3.8524
X8.9486Y-3.9524
X8.9486Y-4.0524
X8.9486Y-4.1524
X8.9486Y-4.2524
X3.8486Y-4.7524
X4.0415Y-4.7524
T2
X2.0486Y-4.5774
X2.0486Y-4.6774
T3
X1.1736Y-4.3774
X1.2486Y-2.3524
X1.2486Y-2.6524
X1.2486Y-2.9524
X1.2486Y-3.2524
X1.2486Y-3.5524
X1.2736Y-4.5774
X1.4736Y-4.3774
X1.4736Y-4.7774
X1.4736Y-5.0774
X1.6486Y-5.1774
X1.6486Y-5.7774
X1.7236Y-4.7274
X1.9736Y-4.2774
X2.0736Y-5.1774
X2.0736Y-5.7774
X2.2986Y-2.8774
X2.2986Y-4.2774
X2.4486Y-5.1774
X2.4486Y-5.7774
X2.6736Y-4.3774
X2.6736Y-5.0024
X2.6736Y-5.4024
X2.6736Y-5.7774
X2.6986Y-2.6774
X2.6986Y-2.8774
X2.7736Y-3.0774
X2.7736Y-3.4774
X2.7736Y-3.7774
X2.9236Y-2.2524
X2.9236Y-2.7524
X2.9236Y-3.2524
X2.9236Y-3.5774
X2.9236Y-4.4774
X2.9236Y-5.0024
X2.9236Y-5.4774
X2.9236Y-6.0024
X3.1236Y-4.2024
X3.1236Y-4.4774
X3.6236Y-6.0024
X3.8236Y-3.3024
X4.0736Y-6.0024
X4.0986Y-2.2524
X4.0986Y-5.6274
X4.2236Y-3.6524
X4.2986Y-3.4524
X4.3986Y-3.4024
X4.4736Y-3.5524
X4.4986Y-2.2524
X4.5486Y-3.4524
X4.6486Y-5.4524
X4.6736Y-1.5024
X4.7486Y-4.8774
X4.8986Y-6.0024
X4.9486Y-5.0774
X5.0486Y-2.2524
X5.0486Y-5.8274
X5.1986Y-5.5774
X5.5486Y-5.6524
X5.5986Y-6.0024
X5.6486Y-2.2524
X5.6486Y-5.6524
X5.9486Y-4.8524
X6.0486Y-4.8024
X6.1486Y-4.7274
X6.2486Y-2.2524
X6.2486Y-4.7274
X6.2486Y-6.0024
X6.4486Y-5.6774
X6.4736Y-4.8524
X6.5236Y-5.1024
X6.6486Y-2.2524
X6.6486Y-5.5024
X6.7486Y-1.6274
X6.7486Y-4.3274
X6.8986Y-6.0024
X6.9486Y-5.7274
X6.9986Y-2.0774
X7.1736Y-2.4774
X7.1986Y-5.5274
X7.2736Y-3.0524
X7.2736Y-3.4774
X7.2736Y-3.9774
X7.2986Y-2.4774
X7.2986Y-5.2274
X7.2986Y-5.7024
X7.3736Y-2.6524
X7.4486Y-2.2524
X7.6486Y-4.4774
X7.7736Y-3.4024
X7.7736Y-3.5774
X7.7736Y-3.9524
X7.7736Y-4.1274
X7.8486Y-2.2524
X7.8986Y-3.1274
X7.8986Y-6.0024
X7.9486Y-4.5024
X8.1986Y-4.5024
X8.2736Y-3.1274
X8.5736Y-3.1274
X8.6236Y-2.2524
X8.6236Y-4.5024
X8.7986Y-6.0024
X8.8736Y-3.1274
X8.9986Y-4.5024
X9.1236Y-5.7274
X9.2486Y-3.1274
X9.2486Y-4.8274
X9.3236Y-4.5024
X9.3486Y-6.0024
X9.4736Y-2.2524
X9.4986Y-3.1274
X9.6986Y-4.5024
X9.8486Y-3.5024
X10.0486Y-4.5024
X10.3236Y-3.5524
X10.3236Y-3.9524
X10.3236Y-4.5024
X10.3236Y-5.0024
X10.3236Y-5.5024
X9.7336Y-4.7374
X9.7336Y-5.0174
X9.8736Y-5.0174
X10.0136Y-4.7374
X10.0136Y-5.0174
X3.4486Y-5.3524
X3.4486Y-5.8524
X3.3736Y-3.8774
X3.4736Y-3.9774
X3.5736Y-3.8774
X7.3236Y-1.5774
X7.3236Y-2.0774
X9.6486Y-3.7024
X10.1486Y-3.7024
X4.3986Y-4.7024
X4.3986Y-5.2024
X7.1236Y-4.3274
X7.6236Y-4.3274
X9.8486Y-1.7024
X3.9986Y-2.6524
X3.9986Y-3.1524
X2.3236Y-4.1024
X2.3236Y-4.6024
X8.2531Y-1.5774
X8.3083Y-1.4774
X8.3634Y-1.5774
X8.4185Y-1.4774
X8.4736Y-1.5774
X8.5287Y-1.4774
X8.5839Y-1.5774
X8.639Y-1.4774
X8.6941Y-1.5774
X1.5486Y-4.1524
X1.5486Y-4.6524
X6.4986Y-4.3274
X6.9986Y-4.3274
X3.6986Y-4.9024
X3.6986Y-5.6024
X5.1986Y-1.0524
X5.1986Y-1.5524
X9.2236Y-2.4274
X9.2236Y-2.9274
X3.6986Y-3.4774
X3.6986Y-3.9774
X9.0986Y-3.5524
X9.4986Y-3.5524
X7.9986Y-3.6774
X7.9986Y-4.0774
X9.9986Y-5.1524
X9.9986Y-5.8524
X3.0781Y-1.5774
X3.1333Y-1.4774
X3.1884Y-1.5774
X3.2435Y-1.4774
X3.2986Y-1.5774
X3.3537Y-1.4774
X3.4089Y-1.5774
X3.464Y-1.4774
X3.5191Y-1.5774
X4.0986Y-1.5774
X4.0986Y-2.0774
X8.5236Y-3.5024
X8.5236Y-3.7524
X3.3986Y-4.1024
X3.3986Y-4.6024
X7.3986Y-4.5774
X7.3986Y-5.0774
X4.3486Y-1.5774
X4.3486Y-2.0774
X3.5236Y-4.1024
X3.5236Y-4.6024
X5.3486Y-2.8274
X5.3486Y-3.0274
X5.4486Y-2.8274
X5.4486Y-3.0274
X5.5486Y-2.8274
X5.5486Y-3.0274
X5.6486Y-2.8274
X5.6486Y-3.0274
X5.7486Y-2.8274
X5.7486Y-3.0274
X5.8486Y-2.8274
X5.8486Y-3.0274
X5.9486Y-2.8274
X5.9486Y-3.0274
X6.0486Y-2.8274
X6.0486Y-3.0274
X6.1486Y-2.8274
X6.1486Y-3.0274
X6.2486Y-2.8274
X6.2486Y-3.0274
X6.3486Y-2.8274
X6.3486Y-3.0274
X6.4486Y-2.8274
X6.4486Y-3.0274
X7.8236Y-1.6774
X7.8236Y-1.9774
X1.8486Y-1.9024
X1.8486Y-2.4024
X7.6486Y-1.5774
X7.6486Y-2.0774
X3.3236Y-5.3524
X3.3236Y-5.8524
X7.2736Y-4.5774
X7.2736Y-5.0774
X9.3736Y-5.3524
X9.3736Y-5.8524
X10.1236Y-5.7924
X1.9736Y-1.5774
X1.9736Y-2.0774
X9.3736Y-1.5774
X9.3736Y-2.0774
X4.4736Y-1.5774
X4.4736Y-2.0774
X4.7736Y-5.3524
X4.7736Y-5.8524
X7.4486Y-5.3524
X7.4486Y-5.8524
X3.8736Y-4.1024
X3.8736Y-4.6024
X9.0486Y-4.8274
X8.9986Y-1.5774
X8.9986Y-2.0774
X7.5986Y-3.6774
X7.5986Y-4.1774
X6.7736Y-4.4774
X6.7736Y-4.9774
X6.5236Y-4.4774
X6.5236Y-4.9774
X3.8236Y-2.6524
X3.8236Y-3.1524
X4.3986Y-5.3524
X4.3986Y-5.8524
X8.8736Y-1.5774
X8.8736Y-2.0774
X8.4986Y-5.3524
X8.4986Y-5.8524
X2.1236Y-1.5774
X2.1236Y-2.0774
X4.6486Y-4.7024
X4.6486Y-5.2024
X8.7486Y-5.3524
X8.7486Y-5.8524
X3.3736Y-3.6274
X3.4736Y-3.7274
X3.5736Y-3.6274
X2.7486Y-4.1024
X2.7486Y-4.6024
X8.2736Y-3.5024
X8.2736Y-3.7524
X8.9486Y-5.3524
X8.9486Y-5.8524
X7.4986Y-1.6774
X7.4986Y-1.9774
X9.8486Y-1.8524
X9.8486Y-2.4524
X8.8236Y-4.7274
X8.8236Y-5.2274
X8.5986Y-4.8524
X9.6486Y-3.8274
X10.1486Y-3.8274
X8.6236Y-5.3524
X8.6236Y-5.8524
X8.9736Y-3.3274
X9.3736Y-3.3274
X4.7486Y-3.4774
X4.2736Y-5.3524
X4.2736Y-5.8524
X7.1736Y-1.5774
X7.1736Y-2.0774
X3.6736Y-2.6524
X3.6736Y-3.1524
X3.2736Y-3.4774
X3.2736Y-3.9774
X9.2236Y-5.3524
X9.2236Y-5.8524
X8.7486Y-3.5024
X8.8486Y-3.4024
X8.9486Y-3.5024
X2.4736Y-1.5774
X2.4736Y-2.0774
X4.3986Y-4.0774
X4.3986Y-4.5774
X6.5986Y-1.0524
X6.5986Y-1.5524
X1.3986Y-2.1524
X1.3986Y-4.0524
X9.4986Y-1.5774
X9.4986Y-2.0774
X8.2486Y-5.3524
X8.2486Y-5.8524
X9.1236Y-1.5774
X9.1236Y-2.0774
X3.1736Y-4.9774
X3.2736Y-4.8774
X3.2736Y-5.0774
X9.1736Y-4.7274
X9.1736Y-5.2274
X9.2986Y-4.7274
X9.2986Y-5.2274
X4.2236Y-1.5774
X4.2236Y-2.0774
X10.1486Y-1.9183
X10.1486Y-2.0364
X3.6736Y-4.1024
X3.6736Y-4.6024
X3.3986Y-4.7274
X3.3986Y-5.2274
X4.0236Y-5.3524
X4.0236Y-5.8524
X4.6486Y-3.6024
X4.6486Y-4.1024
X4.0486Y-4.1024
X4.0486Y-4.6024
X6.8986Y-4.4774
X6.8986Y-4.9774
X4.0486Y-3.4774
X4.0486Y-3.9774
X6.6486Y-4.4774
X6.6486Y-4.9774
X2.1986Y-4.0024
X2.1986Y-4.5024
X2.5986Y-4.1024
X2.5986Y-4.6024
X7.1486Y-4.4774
X7.1486Y-4.9774
X3.9736Y-1.5774
X3.9736Y-2.0774
X8.3986Y-3.8524
X8.3986Y-4.2524
X7.3986Y-3.4774
X7.3986Y-3.9774
X8.9236Y-2.4274
X8.9236Y-2.9274
X3.5236Y-4.7274
X3.5236Y-5.2274
X5.5486Y-1.0524
X5.5486Y-1.5524
X9.5486Y-5.0524
X9.5486Y-5.2524
X9.6486Y-5.1524
X2.8236Y-1.5774
X2.8236Y-2.0774
X1.7236Y-4.0433
X1.7236Y-4.1614
X8.1736Y-3.3274
X8.2736Y-3.3274
X8.5736Y-3.3274
X8.6736Y-3.3274
X8.6986Y-4.7274
X8.6986Y-5.2274
X3.7236Y-1.5774
X3.7236Y-2.0774
X8.2736Y-3.8524
X8.2736Y-4.2524
X10.0736Y-2.4024
X10.0736Y-2.5024
X10.0736Y-2.6024
X10.0736Y-2.7024
X10.0736Y-2.8024
X10.0736Y-2.9024
X9.0736Y-5.3524
X9.0736Y-5.8524
X7.4736Y-4.1183
X7.4736Y-4.2364
X9.6486Y-4.0024
X10.1486Y-4.0024
X1.8986Y-4.0024
X1.8986Y-4.5024
X8.5236Y-3.8524
X8.5236Y-4.2524
X4.2736Y-4.7024
X4.2736Y-5.2024
X9.7486Y-5.1524
X9.7486Y-5.8524
X2.6486Y-1.6774
X2.6486Y-1.9774
X9.6486Y-4.1274
X10.1486Y-4.1274
X9.6236Y-1.5774
X9.6236Y-2.0774
X9.4236Y-4.7274
X9.4236Y-5.2274
X3.8486Y-1.5774
X3.8486Y-2.0774
X9.0986Y-3.7524
X9.4986Y-3.7524
X4.1486Y-3.5274
X3.8986Y-4.9024
X3.8986Y-5.5024
X4.2736Y-4.0774
X4.2736Y-4.5774
X2.4736Y-2.6524
X2.4736Y-3.1524
X7.9736Y-1.5774
X7.9736Y-2.0774
X8.3736Y-5.3524
X8.3736Y-5.8524
X4.5236Y-4.7024
X4.5236Y-5.2024
X4.1486Y-4.9024
X4.1486Y-5.4024
X2.3236Y-1.6774
X2.3236Y-1.9774
X4.3146Y-3.9524
X4.4327Y-3.9524
X9.5736Y-5.3524
X9.5736Y-5.8524
X2.4486Y-4.1024
X2.4486Y-4.6024
X3.1986Y-5.2024
X3.2736Y-4.1024
X3.2736Y-4.6024
X3.1986Y-5.3524
X3.1986Y-5.8524
X4.9486Y-5.3524
X4.9486Y-5.8524
X8.9486Y-4.7274
X8.9486Y-5.2274
X9.2486Y-1.5774
X9.2486Y-2.0774
X9.0986Y-3.4274
X9.4986Y-3.4274
T4
X1.9486Y-4.8774
X2.0486Y-4.8774
X2.1486Y-4.8774
T5
X2.1336Y-3.5524
X2.1336Y-3.7524
X2.5336Y-3.6524
T6
X9.1986Y-4.1274
X9.2986Y-4.0024
X9.2986Y-4.2524
X9.4986Y-4.0024
X9.4986Y-4.2524
T7
X9.7986Y-1.2274
T9
X3.1986Y-2.8774
X1.9736Y-2.8774
X1.9336Y-3.4724
X1.9336Y-3.8324
X9.6736Y-4.8774
X10.0736Y-4.8774
T10
X9.5986Y-1.2274
X9.9986Y-1.2274
T3
G00X9.7632Y-1.0274
M15
G01X9.8341Y-1.0274
M16
G05
G00X3.1986Y-2.6844
M15
G01X3.1986Y-2.7238
M16
G05
G00X3.1986Y-3.0309
M15
G01X3.1986Y-3.0703
M16
G05
G00X1.9736Y-2.6844
M15
G01X1.9736Y-2.7238
M16
G05
G00X1.9736Y-3.0309
M15
G01X1.9736Y-3.0703
M16
G05
T5
G00X1.7919Y-1.1024
M15
G01X1.8431Y-1.1024
M16
G05
G00X1.7919Y-1.2024
M15
G01X1.8431Y-1.2024
M16
G05
G00X1.973Y-1.2024
M15
G01X2.0242Y-1.2024
M16
G05
G00X2.1541Y-1.1024
M15
G01X2.2053Y-1.1024
M16
G05
G00X2.1541Y-1.2024
M15
G01X2.2053Y-1.2024
M16
G05
G00X5.873Y-0.978
M15
G01X5.9242Y-0.978
M16
G05
G00X5.873Y-1.2024
M15
G01X5.9242Y-1.2024
M16
G05
G00X5.873Y-1.4268
M15
G01X5.9242Y-1.4268
M16
G05
G00X6.9919Y-1.1024
M15
G01X7.0431Y-1.1024
M16
G05
G00X6.9919Y-1.2024
M15
G01X7.0431Y-1.2024
M16
G05
G00X7.173Y-1.2024
M15
G01X7.2242Y-1.2024
M16
G05
G00X7.3541Y-1.1024
M15
G01X7.4053Y-1.1024
M16
G05
G00X7.3541Y-1.2024
M15
G01X7.4053Y-1.2024
M16
G05
G00X4.3919Y-1.1024
M15
G01X4.4431Y-1.1024
M16
G05
G00X4.3919Y-1.2024
M15
G01X4.4431Y-1.2024
M16
G05
G00X4.573Y-1.2024
M15
G01X4.6242Y-1.2024
M16
G05
G00X4.7541Y-1.1024
M15
G01X4.8053Y-1.1024
M16
G05
G00X4.7541Y-1.2024
M15
G01X4.8053Y-1.2024
M16
G05
T8
G00X2.3303Y-3.3724
M15
G01X2.4169Y-3.3724
M16
G05
G00X2.3303Y-3.9324
M15
G01X2.4169Y-3.9324
M16
G05
T0
M30
