G04 #@! TF.GenerationSoftware,KiCad,Pcbnew,(5.1.4)-1*
G04 #@! TF.CreationDate,2021-01-10T11:13:25+01:00*
G04 #@! TF.ProjectId,JrBoard,4a72426f-6172-4642-9e6b-696361645f70,rev?*
G04 #@! TF.SameCoordinates,Original*
G04 #@! TF.FileFunction,Profile,NP*
%FSLAX46Y46*%
G04 Gerber Fmt 4.6, Leading zero omitted, Abs format (unit mm)*
G04 Created by KiCad (PCBNEW (5.1.4)-1) date 2021-01-10 11:13:25*
%MOMM*%
%LPD*%
G04 APERTURE LIST*
%ADD10C,0.050000*%
G04 APERTURE END LIST*
D10*
X243170000Y-114995000D02*
X239995000Y-114995000D01*
X243170000Y-113725000D02*
G75*
G02X243170000Y-114995000I0J-635000D01*
G01*
X243170000Y-113725000D02*
X239995000Y-113725000D01*
X239995000Y-114995000D02*
G75*
G02X239995000Y-113725000I0J635000D01*
G01*
X214595000Y-113725000D02*
X211420000Y-113725000D01*
X211420000Y-114995000D02*
G75*
G02X211420000Y-113725000I0J635000D01*
G01*
X214595000Y-114995000D02*
X211420000Y-114995000D01*
X214595000Y-113725000D02*
G75*
G02X214595000Y-114995000I0J-635000D01*
G01*
X231105000Y-78800000D02*
X227930000Y-78800000D01*
X227930000Y-80070000D02*
G75*
G02X227930000Y-78800000I0J635000D01*
G01*
X231105000Y-80070000D02*
X227930000Y-80070000D01*
X231105000Y-78800000D02*
G75*
G02X231105000Y-80070000I0J-635000D01*
G01*
X206340000Y-78800000D02*
G75*
G02X206340000Y-80070000I0J-635000D01*
G01*
X203165000Y-80070000D02*
G75*
G02X203165000Y-78800000I0J635000D01*
G01*
X206340000Y-80070000D02*
X203165000Y-80070000D01*
X206340000Y-78800000D02*
X203165000Y-78800000D01*
X196180000Y-56575000D02*
G75*
G02X196180000Y-57845000I0J-635000D01*
G01*
X193005000Y-57845000D02*
G75*
G02X193005000Y-56575000I0J635000D01*
G01*
X196180000Y-57845000D02*
X193005000Y-57845000D01*
X196180000Y-56575000D02*
X193005000Y-56575000D01*
X149825000Y-56575000D02*
X146650000Y-56575000D01*
X149825000Y-57845000D02*
X146650000Y-57845000D01*
X149825000Y-56575000D02*
G75*
G02X149825000Y-57845000I0J-635000D01*
G01*
X146650000Y-57845000D02*
G75*
G02X146650000Y-56575000I0J635000D01*
G01*
X110455000Y-57845000D02*
X107280000Y-57845000D01*
X110455000Y-56575000D02*
G75*
G02X110455000Y-57845000I0J-635000D01*
G01*
X107280000Y-57845000D02*
G75*
G02X107280000Y-56575000I0J635000D01*
G01*
X110455000Y-56575000D02*
X107280000Y-56575000D01*
X229200000Y-153095000D02*
G75*
G02X229200000Y-151825000I0J635000D01*
G01*
X232375000Y-153095000D02*
X229200000Y-153095000D01*
X232375000Y-151825000D02*
G75*
G02X232375000Y-153095000I0J-635000D01*
G01*
X232375000Y-151825000D02*
X229200000Y-151825000D01*
X150460000Y-153095000D02*
X147285000Y-153095000D01*
X150460000Y-151825000D02*
G75*
G02X150460000Y-153095000I0J-635000D01*
G01*
X147285000Y-153095000D02*
G75*
G02X147285000Y-151825000I0J635000D01*
G01*
X150460000Y-151825000D02*
X147285000Y-151825000D01*
X99025000Y-151825000D02*
G75*
G02X99025000Y-153095000I0J-635000D01*
G01*
X95850000Y-153095000D02*
G75*
G02X95850000Y-151825000I0J635000D01*
G01*
X99025000Y-151825000D02*
X95850000Y-151825000D01*
X99025000Y-153095000D02*
X95850000Y-153095000D01*
X198085000Y-97215000D02*
G75*
G02X196815000Y-97215000I-635000J0D01*
G01*
X196815000Y-94040000D02*
G75*
G02X198085000Y-94040000I635000J0D01*
G01*
X198085000Y-97215000D02*
X198085000Y-94040000D01*
X196815000Y-97215000D02*
X196815000Y-94040000D01*
X261585000Y-96580000D02*
X261585000Y-93405000D01*
X262855000Y-96580000D02*
G75*
G02X261585000Y-96580000I-635000J0D01*
G01*
X261585000Y-93405000D02*
G75*
G02X262855000Y-93405000I635000J0D01*
G01*
X262855000Y-96580000D02*
X262855000Y-93405000D01*
X262855000Y-134045000D02*
G75*
G02X261585000Y-134045000I-635000J0D01*
G01*
X261585000Y-130870000D02*
G75*
G02X262855000Y-130870000I635000J0D01*
G01*
X262855000Y-134045000D02*
X262855000Y-130870000D01*
X261585000Y-134045000D02*
X261585000Y-130870000D01*
X73625000Y-134680000D02*
X73625000Y-131505000D01*
X74895000Y-134680000D02*
G75*
G02X73625000Y-134680000I-635000J0D01*
G01*
X73625000Y-131505000D02*
G75*
G02X74895000Y-131505000I635000J0D01*
G01*
X74895000Y-134680000D02*
X74895000Y-131505000D01*
X74895000Y-96580000D02*
G75*
G02X73625000Y-96580000I-635000J0D01*
G01*
X73625000Y-93405000D02*
G75*
G02X74895000Y-93405000I635000J0D01*
G01*
X74895000Y-96580000D02*
X74895000Y-93405000D01*
X73625000Y-96580000D02*
X73625000Y-93405000D01*
X173955000Y-77784000D02*
X173955000Y-70291000D01*
X177638000Y-77784000D02*
X173955000Y-77784000D01*
X177638000Y-70291000D02*
X177638000Y-77784000D01*
X173955000Y-70291000D02*
X177638000Y-70291000D01*
X122266000Y-78800000D02*
X122266000Y-68640000D01*
X125695000Y-78800000D02*
X122266000Y-78800000D01*
X125695000Y-68640000D02*
X125695000Y-78800000D01*
X122266000Y-68640000D02*
X125695000Y-68640000D01*
X273000000Y-132000000D02*
X273000000Y-142500000D01*
X270000000Y-124000000D02*
X273000000Y-124000000D01*
X270000000Y-132000000D02*
X270000000Y-124000000D01*
X273000000Y-132000000D02*
X270000000Y-132000000D01*
X200000000Y-23000000D02*
X256000000Y-23000000D01*
X193000000Y-26000000D02*
X193000000Y-23000000D01*
X200000000Y-26000000D02*
X193000000Y-26000000D01*
X200000000Y-23000000D02*
X200000000Y-26000000D01*
X99000000Y-23000000D02*
X43000000Y-23000000D01*
X106000000Y-26000000D02*
X106000000Y-23000000D01*
X99000000Y-26000000D02*
X106000000Y-26000000D01*
X99000000Y-23000000D02*
X99000000Y-26000000D01*
X26000000Y-132000000D02*
X26000000Y-142500000D01*
X29000000Y-124000000D02*
X26000000Y-124000000D01*
X29000000Y-132000000D02*
X29000000Y-124000000D01*
X26000000Y-132000000D02*
X29000000Y-132000000D01*
X27666666Y-155000000D02*
G75*
G03X27666666Y-155000000I-1666666J0D01*
G01*
X23500000Y-155000000D02*
X28500000Y-155000000D01*
X26000000Y-152500000D02*
X26000000Y-157500000D01*
X273000000Y-40000000D02*
X256000000Y-23000000D01*
X273000000Y-142500000D02*
X260500000Y-155000000D01*
X26000000Y-142500000D02*
X38500000Y-155000000D01*
X26000000Y-40000000D02*
X43000000Y-23000000D01*
X260500000Y-155000000D02*
X38500000Y-155000000D01*
X273000000Y-40000000D02*
X273000000Y-124000000D01*
X106000000Y-23000000D02*
X193000000Y-23000000D01*
X26000000Y-40000000D02*
X26000000Y-124000000D01*
M02*
