G04 #@! TF.GenerationSoftware,KiCad,Pcbnew,(5.1.4)-1*
G04 #@! TF.CreationDate,2021-01-10T11:13:25+01:00*
G04 #@! TF.ProjectId,JrBoard,4a72426f-6172-4642-9e6b-696361645f70,rev?*
G04 #@! TF.SameCoordinates,Original*
G04 #@! TF.FileFunction,Copper,L2,Bot*
G04 #@! TF.FilePolarity,Positive*
%FSLAX46Y46*%
G04 Gerber Fmt 4.6, Leading zero omitted, Abs format (unit mm)*
G04 Created by KiCad (PCBNEW (5.1.4)-1) date 2021-01-10 11:13:25*
%MOMM*%
%LPD*%
G04 APERTURE LIST*
%ADD10C,2.000000*%
%ADD11C,3.800000*%
%ADD12C,1.500000*%
%ADD13R,1.905000X2.000000*%
%ADD14O,1.905000X2.000000*%
%ADD15C,2.540000*%
%ADD16C,2.500000*%
%ADD17C,5.000000*%
%ADD18C,4.000000*%
%ADD19C,4.200000*%
%ADD20C,3.000000*%
%ADD21C,1.800000*%
%ADD22R,1.800000X1.800000*%
%ADD23O,1.600000X1.600000*%
%ADD24R,1.600000X1.600000*%
%ADD25C,1.600000*%
%ADD26C,1.270000*%
%ADD27C,0.635000*%
%ADD28C,0.250000*%
%ADD29C,3.048000*%
%ADD30C,0.254000*%
G04 APERTURE END LIST*
D10*
X79585000Y-37525000D03*
X82385000Y-37525000D03*
X85185000Y-37525000D03*
X87985000Y-37525000D03*
X78185000Y-40065000D03*
X80985000Y-40065000D03*
X83785000Y-40065000D03*
X86585000Y-40065000D03*
X89385000Y-40065000D03*
X211030000Y-37525000D03*
X213830000Y-37525000D03*
X216630000Y-37525000D03*
X219430000Y-37525000D03*
X209630000Y-40065000D03*
X212430000Y-40065000D03*
X215230000Y-40065000D03*
X218030000Y-40065000D03*
X220830000Y-40065000D03*
X135855000Y-71815000D03*
X138395000Y-71815000D03*
X140935000Y-71815000D03*
X143475000Y-71815000D03*
X146015000Y-71815000D03*
X148555000Y-71815000D03*
X151095000Y-71815000D03*
X153635000Y-71815000D03*
X156175000Y-71815000D03*
X158715000Y-71815000D03*
X161255000Y-71815000D03*
X163795000Y-71815000D03*
X163795000Y-76895000D03*
X161255000Y-76895000D03*
X158715000Y-76895000D03*
X156175000Y-76895000D03*
X153635000Y-76895000D03*
X151095000Y-76895000D03*
X148555000Y-76895000D03*
X146015000Y-76895000D03*
X143475000Y-76895000D03*
X140935000Y-76895000D03*
X138395000Y-76895000D03*
X135855000Y-76895000D03*
X257140000Y-147126000D03*
X81245000Y-132140000D03*
X229835000Y-122615000D03*
X218405000Y-123250000D03*
X105375000Y-89595000D03*
X120615000Y-88325000D03*
X250155000Y-43240000D03*
D11*
X50130000Y-77485000D03*
X50130000Y-68685000D03*
X50130000Y-73085000D03*
X81245000Y-77485000D03*
X81245000Y-68685000D03*
X81245000Y-73085000D03*
D10*
X215865000Y-135950000D03*
X215865000Y-148650000D03*
X216500000Y-108010000D03*
X216500000Y-97850000D03*
X213325000Y-97850000D03*
X213325000Y-108010000D03*
X231105000Y-95310000D03*
X241265000Y-95310000D03*
X241265000Y-90230000D03*
X231105000Y-90230000D03*
X241265000Y-87055000D03*
X231105000Y-87055000D03*
X238090000Y-84515000D03*
X227930000Y-84515000D03*
X210150000Y-97850000D03*
X210150000Y-108010000D03*
X80610000Y-126425000D03*
X83150000Y-128965000D03*
X83150000Y-123885000D03*
X245075000Y-130870000D03*
X242535000Y-128330000D03*
X242535000Y-133410000D03*
X224755000Y-86420000D03*
X222215000Y-88960000D03*
X227295000Y-88960000D03*
X88230000Y-101025000D03*
X90770000Y-98485000D03*
X85690000Y-98485000D03*
X88230000Y-94675000D03*
X90770000Y-92135000D03*
X85690000Y-92135000D03*
D12*
X102655000Y-120710000D03*
X97755000Y-120710000D03*
X98390000Y-98305000D03*
X98390000Y-93405000D03*
D10*
X193640000Y-109915000D03*
X180940000Y-109915000D03*
X121250000Y-148650000D03*
X121250000Y-135950000D03*
X177765000Y-109915000D03*
X165065000Y-109915000D03*
D13*
X54575000Y-123885000D03*
D14*
X52035000Y-123885000D03*
X49495000Y-123885000D03*
D15*
X241265000Y-101660000D03*
X236185000Y-101660000D03*
X233645000Y-104835000D03*
X236185000Y-108010000D03*
X241265000Y-108010000D03*
D11*
X187445000Y-28000000D03*
X187445000Y-30540000D03*
X178245000Y-28000000D03*
X178245000Y-30540000D03*
X182845000Y-30540000D03*
X121405000Y-28000000D03*
X121405000Y-30540000D03*
X112205000Y-28000000D03*
X112205000Y-30540000D03*
X116805000Y-30540000D03*
X55365000Y-28000000D03*
X55365000Y-30540000D03*
X46165000Y-28000000D03*
X46165000Y-30540000D03*
X50765000Y-30540000D03*
D10*
X48225000Y-114360000D03*
X48225000Y-101660000D03*
X234280000Y-148650000D03*
X234280000Y-135950000D03*
X227295000Y-135950000D03*
X227295000Y-148650000D03*
X220945000Y-132775000D03*
X220945000Y-120075000D03*
X222215000Y-135950000D03*
X222215000Y-148650000D03*
X212690000Y-135950000D03*
X212690000Y-148650000D03*
X219040000Y-135950000D03*
X219040000Y-148650000D03*
X209515000Y-135950000D03*
X209515000Y-148650000D03*
X239360000Y-120075000D03*
X239360000Y-132775000D03*
X84420000Y-135950000D03*
X84420000Y-148650000D03*
X86325000Y-132775000D03*
X86325000Y-120075000D03*
X81245000Y-148650000D03*
X81245000Y-135950000D03*
X87595000Y-148650000D03*
X87595000Y-135950000D03*
X243170000Y-135950000D03*
X243170000Y-148650000D03*
X233010000Y-132775000D03*
X233010000Y-120075000D03*
X227295000Y-132775000D03*
X227295000Y-120075000D03*
X118075000Y-132140000D03*
X118075000Y-119440000D03*
X114900000Y-119440000D03*
X114900000Y-132140000D03*
X111725000Y-119440000D03*
X111725000Y-132140000D03*
X89500000Y-120075000D03*
X89500000Y-132775000D03*
X111725000Y-148650000D03*
X111725000Y-135950000D03*
X187925000Y-128965000D03*
X187925000Y-116265000D03*
X184750000Y-128965000D03*
X184750000Y-116265000D03*
X181575000Y-126425000D03*
X181575000Y-113725000D03*
X189195000Y-148650000D03*
X189195000Y-135950000D03*
X175225000Y-126425000D03*
X175225000Y-113725000D03*
X172050000Y-126425000D03*
X172050000Y-113725000D03*
X168875000Y-126425000D03*
X168875000Y-113725000D03*
X165700000Y-113725000D03*
X165700000Y-126425000D03*
X125695000Y-135950000D03*
X125695000Y-148650000D03*
X102835000Y-116900000D03*
X102835000Y-104200000D03*
X93310000Y-116900000D03*
X93310000Y-104200000D03*
X86325000Y-104200000D03*
X86325000Y-116900000D03*
X83150000Y-104200000D03*
X83150000Y-116900000D03*
X55845000Y-101660000D03*
X55845000Y-114360000D03*
X257775000Y-101660000D03*
X245075000Y-101660000D03*
X193005000Y-106105000D03*
X193005000Y-93405000D03*
X102835000Y-101025000D03*
X102835000Y-88325000D03*
X93945000Y-101025000D03*
X93945000Y-88325000D03*
X83150000Y-101025000D03*
X83150000Y-88325000D03*
D16*
X64354000Y-92770000D03*
X54194000Y-90230000D03*
X54194000Y-95310000D03*
D17*
X60290000Y-85658000D03*
X60290000Y-99882000D03*
D18*
X49114000Y-88198000D03*
X49114000Y-97342000D03*
D10*
X244440000Y-52765000D03*
X244440000Y-40065000D03*
X241265000Y-40065000D03*
X241265000Y-52765000D03*
X202530000Y-52765000D03*
X202530000Y-40065000D03*
X194275000Y-52765000D03*
X194275000Y-40065000D03*
X113630000Y-40065000D03*
X113630000Y-52765000D03*
X110455000Y-52765000D03*
X110455000Y-40065000D03*
X71720000Y-52765000D03*
X71720000Y-40065000D03*
X62830000Y-52765000D03*
X62830000Y-40065000D03*
X187925000Y-88325000D03*
X187925000Y-101025000D03*
X99025000Y-139760000D03*
X99025000Y-124520000D03*
D18*
X245710000Y-123885000D03*
X255870000Y-123885000D03*
D10*
X247234000Y-120329000D03*
X254346000Y-120329000D03*
X254346000Y-127441000D03*
X250790000Y-127441000D03*
X247234000Y-127441000D03*
X66005000Y-104200000D03*
X66005000Y-116900000D03*
X203165000Y-93405000D03*
X203165000Y-103565000D03*
X101565000Y-67370000D03*
X101565000Y-80070000D03*
X97120000Y-67370000D03*
X97120000Y-80070000D03*
X250155000Y-62290000D03*
X250155000Y-47050000D03*
X186020000Y-52765000D03*
X186020000Y-40065000D03*
X53940000Y-52765000D03*
X53940000Y-40065000D03*
X255870000Y-61020000D03*
X255870000Y-63560000D03*
X255870000Y-66100000D03*
X255870000Y-68640000D03*
X255870000Y-71180000D03*
X255870000Y-73720000D03*
D17*
X248885000Y-26095000D03*
D19*
X253965000Y-31175000D03*
X243805000Y-31175000D03*
D20*
X248885000Y-31175000D03*
D11*
X149825000Y-24840000D03*
X149825000Y-36240000D03*
X149825000Y-30540000D03*
D21*
X52035000Y-116265000D03*
D22*
X52035000Y-118805000D03*
D10*
X108550000Y-119440000D03*
X108550000Y-132140000D03*
X62195000Y-116900000D03*
X62195000Y-104200000D03*
X59020000Y-104200000D03*
X59020000Y-116900000D03*
X105375000Y-137220000D03*
X105375000Y-124520000D03*
X253965000Y-130870000D03*
X253965000Y-148650000D03*
X247615000Y-148650000D03*
X247615000Y-130870000D03*
X238090000Y-135950000D03*
X238090000Y-148650000D03*
X230470000Y-148650000D03*
X230470000Y-135950000D03*
X224120000Y-132775000D03*
X224120000Y-120075000D03*
X236185000Y-132775000D03*
X236185000Y-120075000D03*
X93945000Y-142300000D03*
X93945000Y-124520000D03*
X102200000Y-148650000D03*
X102200000Y-135950000D03*
X108550000Y-148650000D03*
X108550000Y-135950000D03*
X111725000Y-103565000D03*
X111725000Y-116265000D03*
X108550000Y-103565000D03*
X108550000Y-116265000D03*
X98390000Y-116900000D03*
X98390000Y-104200000D03*
X89500000Y-116900000D03*
X89500000Y-104200000D03*
X69815000Y-116900000D03*
X69815000Y-104200000D03*
X43780000Y-105700000D03*
X43780000Y-102700000D03*
X39335000Y-118170000D03*
X39335000Y-105470000D03*
X257775000Y-104835000D03*
X245075000Y-104835000D03*
X257775000Y-97215000D03*
X245075000Y-97215000D03*
X257775000Y-94040000D03*
X245075000Y-94040000D03*
X207610000Y-84515000D03*
X220310000Y-84515000D03*
X210150000Y-84515000D03*
X217770000Y-84515000D03*
X216500000Y-95310000D03*
X216500000Y-88960000D03*
X210150000Y-95310000D03*
X210150000Y-88960000D03*
X189830000Y-107605000D03*
X189830000Y-104605000D03*
X118075000Y-104200000D03*
X118075000Y-91500000D03*
X109590000Y-100390000D03*
X112590000Y-100390000D03*
D20*
X35525000Y-54670000D03*
X35525000Y-102930000D03*
D10*
X226660000Y-61655000D03*
X226660000Y-74355000D03*
X234280000Y-61655000D03*
X234280000Y-74355000D03*
X93310000Y-67370000D03*
X93310000Y-80070000D03*
X62830000Y-67370000D03*
X62830000Y-80070000D03*
X46955000Y-48320000D03*
X46955000Y-61020000D03*
X257775000Y-48725000D03*
X257775000Y-51725000D03*
X238090000Y-52765000D03*
X238090000Y-40065000D03*
X234915000Y-52765000D03*
X234915000Y-40065000D03*
X231740000Y-52765000D03*
X231740000Y-40065000D03*
X228565000Y-52765000D03*
X228565000Y-40065000D03*
X225390000Y-52765000D03*
X225390000Y-40065000D03*
X198720000Y-50225000D03*
X198720000Y-42605000D03*
X190465000Y-50225000D03*
X190465000Y-42605000D03*
X182210000Y-40065000D03*
X182210000Y-52765000D03*
X107280000Y-52765000D03*
X107280000Y-40065000D03*
X104105000Y-52765000D03*
X104105000Y-40065000D03*
X100930000Y-52765000D03*
X100930000Y-40065000D03*
X97755000Y-52765000D03*
X97755000Y-40065000D03*
X94580000Y-52765000D03*
X94580000Y-40065000D03*
X67275000Y-42605000D03*
X67275000Y-50225000D03*
X59020000Y-42605000D03*
X59020000Y-50225000D03*
X50130000Y-52765000D03*
X50130000Y-40065000D03*
X167605000Y-26730000D03*
X167605000Y-39430000D03*
X140935000Y-26730000D03*
X140935000Y-39430000D03*
X132045000Y-26730000D03*
X132045000Y-39430000D03*
D23*
X219675000Y-108010000D03*
X227295000Y-92770000D03*
X219675000Y-105470000D03*
X227295000Y-95310000D03*
X219675000Y-102930000D03*
X227295000Y-97850000D03*
X219675000Y-100390000D03*
X227295000Y-100390000D03*
X219675000Y-97850000D03*
X227295000Y-102930000D03*
X219675000Y-95310000D03*
X227295000Y-105470000D03*
X219675000Y-92770000D03*
D24*
X227295000Y-108010000D03*
X214595000Y-123250000D03*
D23*
X196815000Y-130870000D03*
X212055000Y-123250000D03*
X199355000Y-130870000D03*
X209515000Y-123250000D03*
X201895000Y-130870000D03*
X206975000Y-123250000D03*
X204435000Y-130870000D03*
X204435000Y-123250000D03*
X206975000Y-130870000D03*
X201895000Y-123250000D03*
X209515000Y-130870000D03*
X199355000Y-123250000D03*
X212055000Y-130870000D03*
X196815000Y-123250000D03*
X214595000Y-130870000D03*
X182845000Y-148015000D03*
X134585000Y-132775000D03*
X180305000Y-148015000D03*
X137125000Y-132775000D03*
X177765000Y-148015000D03*
X139665000Y-132775000D03*
X175225000Y-148015000D03*
X142205000Y-132775000D03*
X172685000Y-148015000D03*
X144745000Y-132775000D03*
X170145000Y-148015000D03*
X147285000Y-132775000D03*
X167605000Y-148015000D03*
X149825000Y-132775000D03*
X165065000Y-148015000D03*
X152365000Y-132775000D03*
X162525000Y-148015000D03*
X154905000Y-132775000D03*
X159985000Y-148015000D03*
X157445000Y-132775000D03*
X157445000Y-148015000D03*
X159985000Y-132775000D03*
X154905000Y-148015000D03*
X162525000Y-132775000D03*
X152365000Y-148015000D03*
X165065000Y-132775000D03*
X149825000Y-148015000D03*
X167605000Y-132775000D03*
X147285000Y-148015000D03*
X170145000Y-132775000D03*
X144745000Y-148015000D03*
X172685000Y-132775000D03*
X142205000Y-148015000D03*
X175225000Y-132775000D03*
X139665000Y-148015000D03*
X177765000Y-132775000D03*
X137125000Y-148015000D03*
X180305000Y-132775000D03*
X134585000Y-148015000D03*
D24*
X182845000Y-132775000D03*
D23*
X157445000Y-126425000D03*
X124425000Y-111185000D03*
X154905000Y-126425000D03*
X126965000Y-111185000D03*
X152365000Y-126425000D03*
X129505000Y-111185000D03*
X149825000Y-126425000D03*
X132045000Y-111185000D03*
X147285000Y-126425000D03*
X134585000Y-111185000D03*
X144745000Y-126425000D03*
X137125000Y-111185000D03*
X142205000Y-126425000D03*
X139665000Y-111185000D03*
X139665000Y-126425000D03*
X142205000Y-111185000D03*
X137125000Y-126425000D03*
X144745000Y-111185000D03*
X134585000Y-126425000D03*
X147285000Y-111185000D03*
X132045000Y-126425000D03*
X149825000Y-111185000D03*
X129505000Y-126425000D03*
X152365000Y-111185000D03*
X126965000Y-126425000D03*
X154905000Y-111185000D03*
X124425000Y-126425000D03*
D24*
X157445000Y-111185000D03*
D23*
X132045000Y-89595000D03*
X180305000Y-104835000D03*
X134585000Y-89595000D03*
X177765000Y-104835000D03*
X137125000Y-89595000D03*
X175225000Y-104835000D03*
X139665000Y-89595000D03*
X172685000Y-104835000D03*
X142205000Y-89595000D03*
X170145000Y-104835000D03*
X144745000Y-89595000D03*
X167605000Y-104835000D03*
X147285000Y-89595000D03*
X165065000Y-104835000D03*
X149825000Y-89595000D03*
X162525000Y-104835000D03*
X152365000Y-89595000D03*
X159985000Y-104835000D03*
X154905000Y-89595000D03*
X157445000Y-104835000D03*
X157445000Y-89595000D03*
X154905000Y-104835000D03*
X159985000Y-89595000D03*
X152365000Y-104835000D03*
X162525000Y-89595000D03*
X149825000Y-104835000D03*
X165065000Y-89595000D03*
X147285000Y-104835000D03*
X167605000Y-89595000D03*
X144745000Y-104835000D03*
X170145000Y-89595000D03*
X142205000Y-104835000D03*
X172685000Y-89595000D03*
X139665000Y-104835000D03*
X175225000Y-89595000D03*
X137125000Y-104835000D03*
X177765000Y-89595000D03*
X134585000Y-104835000D03*
X180305000Y-89595000D03*
D24*
X132045000Y-104835000D03*
D10*
X140935000Y-143570000D03*
X97120000Y-83880000D03*
D25*
X133315000Y-128965000D03*
D10*
X125695000Y-128965000D03*
D25*
X129505000Y-89595000D03*
D10*
X120615000Y-123885000D03*
D25*
X122520000Y-90865000D03*
D10*
X171415000Y-41335000D03*
D25*
X126965000Y-89595000D03*
X140935000Y-117535000D03*
X140935000Y-94675000D03*
D10*
X163795000Y-144205000D03*
X115535000Y-87690000D03*
X113630000Y-90230000D03*
X109185000Y-87690000D03*
D25*
X147285000Y-92770000D03*
D10*
X107280000Y-92770000D03*
D25*
X144745000Y-94675000D03*
X163795000Y-87055000D03*
D10*
X151095000Y-123250000D03*
D25*
X161255000Y-87055000D03*
D10*
X153635000Y-121980000D03*
D25*
X158715000Y-87055000D03*
D10*
X156175000Y-120075000D03*
D25*
X156175000Y-87055000D03*
D10*
X158715000Y-120075000D03*
D25*
X130775000Y-95945000D03*
D10*
X143475000Y-143570000D03*
X184750000Y-77530000D03*
X240630000Y-57210000D03*
X219040000Y-57210000D03*
X199355000Y-57210000D03*
X158715000Y-57210000D03*
X114265000Y-57210000D03*
X74260000Y-90865000D03*
D25*
X167605000Y-107375000D03*
X159985000Y-109915000D03*
D10*
X132045000Y-141665000D03*
X182845000Y-140395000D03*
X187290000Y-67370000D03*
X184750000Y-101025000D03*
X234915000Y-122615000D03*
X104105000Y-142935000D03*
X111725000Y-86420000D03*
X185385000Y-144840000D03*
X231740000Y-145475000D03*
X237455000Y-152460000D03*
X223485000Y-152460000D03*
X74260000Y-82610000D03*
X74260000Y-69910000D03*
X70450000Y-78165000D03*
X70450000Y-88325000D03*
X70450000Y-95945000D03*
X68545000Y-73085000D03*
X68545000Y-68005000D03*
X58385000Y-73085000D03*
X74260000Y-127060000D03*
X74260000Y-113725000D03*
X74260000Y-139125000D03*
X74260000Y-152460000D03*
X41875000Y-146745000D03*
X52670000Y-146745000D03*
X62195000Y-146745000D03*
X67910000Y-146745000D03*
X67910000Y-137220000D03*
X67910000Y-127060000D03*
X62195000Y-131505000D03*
X52670000Y-131505000D03*
X41875000Y-131505000D03*
X43780000Y-120075000D03*
X37430000Y-128965000D03*
X37430000Y-121345000D03*
X67910000Y-111185000D03*
X37430000Y-111185000D03*
X29810000Y-111185000D03*
X32350000Y-116265000D03*
X58385000Y-108645000D03*
X50130000Y-108645000D03*
X31715000Y-90230000D03*
X31715000Y-82610000D03*
X31715000Y-74990000D03*
X31715000Y-67370000D03*
X31715000Y-59750000D03*
X74260000Y-57210000D03*
X92040000Y-152460000D03*
X103470000Y-152460000D03*
X124425000Y-152460000D03*
X142205000Y-152460000D03*
X158715000Y-152460000D03*
X175225000Y-152460000D03*
X200625000Y-152460000D03*
X262220000Y-139760000D03*
X262220000Y-127060000D03*
X262220000Y-100390000D03*
X262220000Y-90230000D03*
X262220000Y-114360000D03*
X104105000Y-57210000D03*
X128235000Y-57210000D03*
X143475000Y-57210000D03*
X168875000Y-57210000D03*
X189195000Y-57210000D03*
X255235000Y-114360000D03*
X246345000Y-114360000D03*
X236820000Y-114360000D03*
X228565000Y-114360000D03*
X219040000Y-114360000D03*
X208245000Y-114360000D03*
X201895000Y-114360000D03*
X200625000Y-79435000D03*
X210150000Y-79435000D03*
X217770000Y-79435000D03*
X225390000Y-79435000D03*
X234915000Y-79435000D03*
X241265000Y-79435000D03*
X197450000Y-90865000D03*
X197450000Y-100390000D03*
X197450000Y-104835000D03*
X197450000Y-86420000D03*
X164430000Y-123250000D03*
X176495000Y-145475000D03*
X128235000Y-148015000D03*
X185385000Y-62925000D03*
X182210000Y-62925000D03*
X177765000Y-52765000D03*
D25*
X166335000Y-87055000D03*
D10*
X185385000Y-132775000D03*
X118075000Y-138490000D03*
X79340000Y-106740000D03*
X79340000Y-113725000D03*
X165700000Y-129600000D03*
X171415000Y-109915000D03*
X168875000Y-139760000D03*
X184750000Y-88325000D03*
X194275000Y-113725000D03*
X118710000Y-38160000D03*
X250155000Y-88960000D03*
D26*
X62195000Y-104200000D02*
X66005000Y-104200000D01*
X66005000Y-104200000D02*
X69815000Y-104200000D01*
X69815000Y-104200000D02*
X71720000Y-104200000D01*
X71720000Y-104200000D02*
X78070000Y-110550000D01*
X78070000Y-110550000D02*
X83150000Y-110550000D01*
X83150000Y-110550000D02*
X83150000Y-116900000D01*
X139665000Y-144840000D02*
X140935000Y-143570000D01*
X139665000Y-148015000D02*
X139665000Y-144840000D01*
X108550000Y-132140000D02*
X111725000Y-132140000D01*
X111725000Y-132140000D02*
X114900000Y-132140000D01*
X107550001Y-117264999D02*
X108550000Y-116265000D01*
X106714999Y-118100001D02*
X107550001Y-117264999D01*
X106714999Y-120320801D02*
X106714999Y-118100001D01*
X108550000Y-122155802D02*
X106714999Y-120320801D01*
X108550000Y-132140000D02*
X108550000Y-122155802D01*
X120615000Y-132775000D02*
X134585000Y-132775000D01*
X111725000Y-135950000D02*
X117440000Y-135950000D01*
X117440000Y-135950000D02*
X120615000Y-132775000D01*
X108550000Y-116265000D02*
X111725000Y-116265000D01*
X147920000Y-113090000D02*
X149825000Y-111185000D01*
X140935000Y-113090000D02*
X147920000Y-113090000D01*
X111725000Y-116265000D02*
X137760000Y-116265000D01*
X137760000Y-116265000D02*
X140935000Y-113090000D01*
X86325000Y-120075000D02*
X86325000Y-116900000D01*
X86325000Y-116900000D02*
X83150000Y-116900000D01*
X81245000Y-83880000D02*
X97120000Y-83880000D01*
X79340000Y-85785000D02*
X81245000Y-83880000D01*
X79340000Y-104024198D02*
X79340000Y-85785000D01*
X83150000Y-110550000D02*
X83150000Y-107834198D01*
X83150000Y-107834198D02*
X79340000Y-104024198D01*
X119980000Y-93405000D02*
X118075000Y-91500000D01*
X123155000Y-93405000D02*
X119980000Y-93405000D01*
X127600000Y-97850000D02*
X123155000Y-93405000D01*
X175225000Y-97850000D02*
X127600000Y-97850000D01*
X180305000Y-104835000D02*
X180305000Y-102930000D01*
X180305000Y-102930000D02*
X175225000Y-97850000D01*
X97120000Y-83880000D02*
X115535000Y-83880000D01*
X118075000Y-86420000D02*
X118075000Y-91500000D01*
X115535000Y-83880000D02*
X118075000Y-86420000D01*
D27*
X154905000Y-128965000D02*
X133315000Y-128965000D01*
X157445000Y-126425000D02*
X154905000Y-128965000D01*
X133315000Y-128965000D02*
X125695000Y-128965000D01*
X135220000Y-87690000D02*
X137125000Y-89595000D01*
X129505000Y-89595000D02*
X131410000Y-87690000D01*
X131410000Y-87690000D02*
X135220000Y-87690000D01*
D26*
X126965000Y-123885000D02*
X120615000Y-123885000D01*
X129505000Y-126425000D02*
X126965000Y-123885000D01*
D27*
X123319999Y-91664999D02*
X122520000Y-90865000D01*
X137595001Y-91664999D02*
X123319999Y-91664999D01*
X139665000Y-89595000D02*
X137595001Y-91664999D01*
X133950000Y-41335000D02*
X132045000Y-39430000D01*
X171415000Y-41335000D02*
X133950000Y-41335000D01*
X126965000Y-89595000D02*
X130775000Y-85785000D01*
X138395000Y-85785000D02*
X142205000Y-89595000D01*
X130775000Y-85785000D02*
X138395000Y-85785000D01*
D26*
X184270000Y-33715000D02*
X187445000Y-30540000D01*
X167605000Y-39430000D02*
X173320000Y-33715000D01*
X173320000Y-33715000D02*
X184270000Y-33715000D01*
D28*
X160040001Y-119438999D02*
X158136002Y-117535000D01*
X160040001Y-121289999D02*
X160040001Y-119438999D01*
D27*
X152365000Y-126425000D02*
X155540000Y-123250000D01*
X158080000Y-123250000D02*
X158397500Y-122932500D01*
X155540000Y-123250000D02*
X158080000Y-123250000D01*
D28*
X158397500Y-122932500D02*
X160040001Y-121289999D01*
D27*
X158420902Y-117535000D02*
X156810000Y-117535000D01*
X160232501Y-119346599D02*
X158420902Y-117535000D01*
X160232501Y-121097499D02*
X160232501Y-119346599D01*
X158080000Y-123250000D02*
X160232501Y-121097499D01*
D28*
X158136002Y-117535000D02*
X156810000Y-117535000D01*
D27*
X145380000Y-117535000D02*
X140935000Y-117535000D01*
X156810000Y-117535000D02*
X145380000Y-117535000D01*
X148555000Y-144205000D02*
X144745000Y-148015000D01*
X163795000Y-144205000D02*
X148555000Y-144205000D01*
X140935000Y-93405000D02*
X144745000Y-89595000D01*
X140935000Y-94675000D02*
X140935000Y-93405000D01*
X167605000Y-104835000D02*
X167605000Y-103703630D01*
X115535000Y-91500000D02*
X115535000Y-87690000D01*
X163021370Y-99120000D02*
X126965000Y-99120000D01*
X126965000Y-99120000D02*
X122520000Y-94675000D01*
X122520000Y-94675000D02*
X118710000Y-94675000D01*
X167605000Y-103703630D02*
X163021370Y-99120000D01*
X118710000Y-94675000D02*
X115535000Y-91500000D01*
X104105000Y-41970000D02*
X104105000Y-40065000D01*
X99660000Y-46415000D02*
X104105000Y-41970000D01*
X85690000Y-46415000D02*
X99660000Y-46415000D01*
X80985000Y-40065000D02*
X80985000Y-41710000D01*
X80985000Y-41710000D02*
X85690000Y-46415000D01*
X118075000Y-119440000D02*
X118075000Y-121345000D01*
X118075000Y-121345000D02*
X116805000Y-122615000D01*
X112995000Y-122615000D02*
X111725000Y-121345000D01*
X116805000Y-122615000D02*
X112995000Y-122615000D01*
X111725000Y-121345000D02*
X111725000Y-119440000D01*
X147285000Y-89595000D02*
X141570000Y-83880000D01*
X125060000Y-83880000D02*
X120615000Y-88325000D01*
X141570000Y-83880000D02*
X125060000Y-83880000D01*
X165065000Y-103703630D02*
X161751370Y-100390000D01*
X165065000Y-104835000D02*
X165065000Y-103703630D01*
X161751370Y-100390000D02*
X126330000Y-100390000D01*
X126330000Y-100390000D02*
X121885000Y-95945000D01*
X113630000Y-91644213D02*
X113630000Y-90230000D01*
X117930787Y-95945000D02*
X113630000Y-91644213D01*
X121885000Y-95945000D02*
X117930787Y-95945000D01*
X83785000Y-41970000D02*
X83785000Y-40065000D01*
X86325000Y-44510000D02*
X83785000Y-41970000D01*
X98390000Y-44510000D02*
X86325000Y-44510000D01*
X100930000Y-41970000D02*
X98390000Y-44510000D01*
X100930000Y-40065000D02*
X100930000Y-41970000D01*
X109185000Y-89595000D02*
X109185000Y-87690000D01*
X116805000Y-97215000D02*
X109185000Y-89595000D01*
X121250000Y-97215000D02*
X116805000Y-97215000D01*
X125695000Y-101660000D02*
X121250000Y-97215000D01*
X162525000Y-104835000D02*
X159350000Y-101660000D01*
X159350000Y-101660000D02*
X125695000Y-101660000D01*
X97120000Y-42605000D02*
X86960000Y-42605000D01*
X97755000Y-41970000D02*
X97120000Y-42605000D01*
X97755000Y-40065000D02*
X97755000Y-41970000D01*
X86585000Y-42230000D02*
X86960000Y-42605000D01*
X86585000Y-40065000D02*
X86585000Y-42230000D01*
X149190000Y-92770000D02*
X152365000Y-89595000D01*
X147285000Y-92770000D02*
X149190000Y-92770000D01*
X112995000Y-98485000D02*
X107280000Y-92770000D01*
X120615000Y-98485000D02*
X112995000Y-98485000D01*
X125060000Y-102930000D02*
X120615000Y-98485000D01*
X159985000Y-104835000D02*
X158080000Y-102930000D01*
X158080000Y-102930000D02*
X125060000Y-102930000D01*
D26*
X89385000Y-40065000D02*
X94580000Y-40065000D01*
D27*
X149825000Y-94675000D02*
X154905000Y-89595000D01*
X144745000Y-94675000D02*
X149825000Y-94675000D01*
X234915000Y-42605000D02*
X234915000Y-40065000D01*
X227930000Y-49590000D02*
X234915000Y-42605000D01*
X211102500Y-54987500D02*
X216500000Y-49590000D01*
X211102500Y-60702500D02*
X211102500Y-54987500D01*
X205070000Y-66735000D02*
X211102500Y-60702500D01*
X198720000Y-66735000D02*
X205070000Y-66735000D01*
X163795000Y-87055000D02*
X163795000Y-85785000D01*
X163795000Y-85785000D02*
X164430000Y-85150000D01*
X216500000Y-49590000D02*
X227930000Y-49590000D01*
X164430000Y-85150000D02*
X180305000Y-85150000D01*
X180305000Y-85150000D02*
X182845000Y-82610000D01*
X190465000Y-74990000D02*
X198720000Y-66735000D01*
X182845000Y-82610000D02*
X187925000Y-82610000D01*
X190465000Y-80070000D02*
X190465000Y-74990000D01*
X187925000Y-82610000D02*
X190465000Y-80070000D01*
D28*
X142205000Y-124520000D02*
X142205000Y-126425000D01*
X151095000Y-123250000D02*
X143475000Y-123250000D01*
X143475000Y-123250000D02*
X142205000Y-124520000D01*
D27*
X231740000Y-40065000D02*
X231740000Y-43240000D01*
X231740000Y-43240000D02*
X227295000Y-47685000D01*
X227295000Y-47685000D02*
X216500000Y-47685000D01*
X209515000Y-54670000D02*
X216500000Y-47685000D01*
X189195000Y-74355000D02*
X198085000Y-65465000D01*
X198085000Y-65465000D02*
X204435000Y-65465000D01*
X189195000Y-79435000D02*
X189195000Y-74355000D01*
X161255000Y-87055000D02*
X161255000Y-85150000D01*
X161255000Y-85150000D02*
X162525000Y-83880000D01*
X179670000Y-83880000D02*
X182210000Y-81340000D01*
X209515000Y-60385000D02*
X209515000Y-54670000D01*
X182210000Y-81340000D02*
X187290000Y-81340000D01*
X204435000Y-65465000D02*
X209515000Y-60385000D01*
X162525000Y-83880000D02*
X179670000Y-83880000D01*
X187290000Y-81340000D02*
X189195000Y-79435000D01*
D28*
X153000000Y-121345000D02*
X153635000Y-121980000D01*
X139665000Y-124520000D02*
X142840000Y-121345000D01*
X142840000Y-121345000D02*
X153000000Y-121345000D01*
X139665000Y-126425000D02*
X139665000Y-124520000D01*
D27*
X214595000Y-46415000D02*
X226660000Y-46415000D01*
X208245000Y-52765000D02*
X214595000Y-46415000D01*
X208245000Y-59750000D02*
X208245000Y-52765000D01*
X204435000Y-63560000D02*
X208245000Y-59750000D01*
X187925000Y-73085000D02*
X197450000Y-63560000D01*
X197450000Y-63560000D02*
X204435000Y-63560000D01*
X158715000Y-87055000D02*
X158715000Y-84515000D01*
X226660000Y-46415000D02*
X228565000Y-44510000D01*
X158715000Y-84515000D02*
X160620000Y-82610000D01*
X160620000Y-82610000D02*
X179035000Y-82610000D01*
X187925000Y-78800000D02*
X187925000Y-73085000D01*
X179035000Y-82610000D02*
X181575000Y-80070000D01*
X228565000Y-44510000D02*
X228565000Y-40065000D01*
X181575000Y-80070000D02*
X186655000Y-80070000D01*
X186655000Y-80070000D02*
X187925000Y-78800000D01*
D28*
X137125000Y-124520000D02*
X141570000Y-120075000D01*
X156175000Y-120075000D02*
X141570000Y-120075000D01*
X137125000Y-124520000D02*
X137125000Y-126425000D01*
X185386001Y-78855001D02*
X182900001Y-78855001D01*
X186075001Y-78166001D02*
X185386001Y-78855001D01*
D26*
X225390000Y-40065000D02*
X220830000Y-40065000D01*
D27*
X206340000Y-52130000D02*
X213325000Y-45145000D01*
X206340000Y-59750000D02*
X206340000Y-52130000D01*
X203800000Y-62290000D02*
X206340000Y-59750000D01*
X196815000Y-62290000D02*
X203800000Y-62290000D01*
X186655000Y-72450000D02*
X196815000Y-62290000D01*
X220830000Y-42085000D02*
X220830000Y-40065000D01*
X186655000Y-77870902D02*
X186655000Y-72450000D01*
X156175000Y-84515000D02*
X159350000Y-81340000D01*
X156175000Y-87055000D02*
X156175000Y-84515000D01*
X217770000Y-45145000D02*
X220830000Y-42085000D01*
X159350000Y-81340000D02*
X178400000Y-81340000D01*
X178400000Y-81340000D02*
X180692499Y-79047501D01*
X180692499Y-79047501D02*
X185478401Y-79047501D01*
X213325000Y-45145000D02*
X217770000Y-45145000D01*
X185478401Y-79047501D02*
X186655000Y-77870902D01*
D28*
X158715000Y-120075000D02*
X157389999Y-118749999D01*
X134585000Y-124520000D02*
X140355001Y-118749999D01*
X157389999Y-118749999D02*
X140355001Y-118749999D01*
X134585000Y-124520000D02*
X134585000Y-126425000D01*
X167605000Y-146883630D02*
X167605000Y-148015000D01*
X167605000Y-146053998D02*
X167605000Y-146883630D01*
X164121003Y-142570001D02*
X167605000Y-146053998D01*
X144474999Y-142570001D02*
X164121003Y-142570001D01*
D27*
X164700001Y-142570001D02*
X144474999Y-142570001D01*
X167605000Y-148015000D02*
X167605000Y-145475000D01*
X167605000Y-145475000D02*
X164700001Y-142570001D01*
X144474999Y-142570001D02*
X143475000Y-143570000D01*
D28*
X161255000Y-95945000D02*
X167605000Y-89595000D01*
X130775000Y-95945000D02*
X161255000Y-95945000D01*
D27*
X197450000Y-74355000D02*
X226660000Y-74355000D01*
X194275000Y-77530000D02*
X197450000Y-74355000D01*
X189830000Y-86420000D02*
X194275000Y-81975000D01*
X194275000Y-81975000D02*
X194275000Y-77530000D01*
X172685000Y-89595000D02*
X172685000Y-91500000D01*
X172685000Y-91500000D02*
X174590000Y-93405000D01*
X187444100Y-86420000D02*
X189830000Y-86420000D01*
X174590000Y-93405000D02*
X183480000Y-93405000D01*
X183480000Y-93405000D02*
X186267501Y-90617499D01*
X186267501Y-90617499D02*
X186267501Y-87596599D01*
X186267501Y-87596599D02*
X187444100Y-86420000D01*
X197062501Y-72837499D02*
X232762499Y-72837499D01*
X232762499Y-72837499D02*
X234280000Y-74355000D01*
X193005000Y-76895000D02*
X197062501Y-72837499D01*
X189195000Y-85150000D02*
X193005000Y-81340000D01*
X184750000Y-85150000D02*
X189195000Y-85150000D01*
X175225000Y-89595000D02*
X175225000Y-91500000D01*
X175225000Y-91500000D02*
X175860000Y-92135000D01*
X175860000Y-92135000D02*
X181575000Y-92135000D01*
X181575000Y-92135000D02*
X182845000Y-90865000D01*
X193005000Y-81340000D02*
X193005000Y-76895000D01*
X182845000Y-90865000D02*
X182845000Y-87055000D01*
X182845000Y-87055000D02*
X184750000Y-85150000D01*
D26*
X90725000Y-77485000D02*
X93310000Y-80070000D01*
X81245000Y-77485000D02*
X90725000Y-77485000D01*
D27*
X180305000Y-77530000D02*
X184750000Y-77530000D01*
X177765000Y-80070000D02*
X180305000Y-77530000D01*
X129505000Y-80070000D02*
X177765000Y-80070000D01*
X127600000Y-81975000D02*
X129505000Y-80070000D01*
X93310000Y-80070000D02*
X95215000Y-81975000D01*
X95215000Y-81975000D02*
X127600000Y-81975000D01*
X230717501Y-134432499D02*
X230857499Y-134432499D01*
X230717501Y-134432499D02*
X229741599Y-134432499D01*
X235008401Y-134432499D02*
X230717501Y-134432499D01*
X229741599Y-134432499D02*
X228952499Y-135221599D01*
X235797501Y-135221599D02*
X235008401Y-134432499D01*
X228952499Y-135221599D02*
X228952499Y-136832501D01*
D26*
X52035000Y-123885000D02*
X52035000Y-118805000D01*
X52035000Y-118805000D02*
X45685000Y-118805000D01*
X43780000Y-105700000D02*
X43780000Y-108010000D01*
X50130000Y-108645000D02*
X45685000Y-108645000D01*
D27*
X228952499Y-136832501D02*
X228952499Y-138242499D01*
X235797501Y-135221599D02*
X235797501Y-137607499D01*
X235797501Y-137607499D02*
X234915000Y-138490000D01*
D26*
X130775000Y-142935000D02*
X132045000Y-141665000D01*
X104105000Y-142935000D02*
X130775000Y-142935000D01*
X132045000Y-141665000D02*
X136490000Y-137220000D01*
X136490000Y-137220000D02*
X170145000Y-137220000D01*
D28*
X234859999Y-120711001D02*
X234859999Y-119384999D01*
X234915000Y-122615000D02*
X234915000Y-120766002D01*
X234915000Y-120766002D02*
X234859999Y-120711001D01*
X234859999Y-119384999D02*
X234280000Y-118805000D01*
X234280000Y-118805000D02*
X234280000Y-116900000D01*
X234915000Y-122615000D02*
X232375000Y-125155000D01*
X232375000Y-125155000D02*
X228565000Y-125155000D01*
X228565000Y-125155000D02*
X227930000Y-124520000D01*
X227930000Y-124520000D02*
X227930000Y-121980000D01*
X229564999Y-115994999D02*
X228565000Y-114995000D01*
X230470000Y-116900000D02*
X229564999Y-115994999D01*
X230470000Y-119440000D02*
X230470000Y-116900000D01*
X227930000Y-121980000D02*
X230470000Y-119440000D01*
D26*
X154905000Y-112316370D02*
X154905000Y-111185000D01*
X156313630Y-113725000D02*
X154905000Y-112316370D01*
X157445000Y-113725000D02*
X156313630Y-113725000D01*
X196815000Y-123250000D02*
X194275000Y-123250000D01*
X194275000Y-123250000D02*
X190465000Y-119440000D01*
X190465000Y-119440000D02*
X171415000Y-119440000D01*
X171415000Y-119440000D02*
X168875000Y-116900000D01*
X168875000Y-116900000D02*
X160620000Y-116900000D01*
X160620000Y-116900000D02*
X157445000Y-113725000D01*
X183750001Y-102024999D02*
X183750001Y-103929999D01*
X184750000Y-101025000D02*
X183750001Y-102024999D01*
X183750001Y-103929999D02*
X180305000Y-107375000D01*
X180305000Y-107375000D02*
X167605000Y-107375000D01*
X135855000Y-73229213D02*
X135855000Y-71815000D01*
X136980787Y-74355000D02*
X135855000Y-73229213D01*
X165700000Y-74355000D02*
X136980787Y-74355000D01*
X172685000Y-67370000D02*
X165700000Y-74355000D01*
X187290000Y-67370000D02*
X172685000Y-67370000D01*
X117440000Y-67370000D02*
X101565000Y-67370000D01*
X118439999Y-66370001D02*
X117440000Y-67370000D01*
X132950001Y-66370001D02*
X118439999Y-66370001D01*
X135855000Y-71815000D02*
X135855000Y-69275000D01*
X135855000Y-69275000D02*
X132950001Y-66370001D01*
D28*
X230470000Y-112455000D02*
X230470000Y-113090000D01*
X246345000Y-92770000D02*
X242479999Y-88904999D01*
X250790000Y-94675000D02*
X248885000Y-92770000D01*
X250790000Y-108010000D02*
X250790000Y-94675000D01*
X246345000Y-114995000D02*
X246345000Y-112455000D01*
X239360000Y-89595000D02*
X239360000Y-90865000D01*
X230470000Y-113090000D02*
X228565000Y-114995000D01*
X239360000Y-90865000D02*
X244384999Y-95889999D01*
X246345000Y-112455000D02*
X250790000Y-108010000D01*
X242479999Y-88904999D02*
X240050001Y-88904999D01*
X245075000Y-109915000D02*
X233010000Y-109915000D01*
X240050001Y-88904999D02*
X239360000Y-89595000D01*
X248885000Y-92770000D02*
X246345000Y-92770000D01*
X233010000Y-109915000D02*
X230470000Y-112455000D01*
X244384999Y-95889999D02*
X247559999Y-95889999D01*
X248250000Y-96580000D02*
X248250000Y-106740000D01*
X247559999Y-95889999D02*
X248250000Y-96580000D01*
X248250000Y-106740000D02*
X245075000Y-109915000D01*
D26*
X91995000Y-68685000D02*
X93310000Y-67370000D01*
X81245000Y-68685000D02*
X91995000Y-68685000D01*
X118710000Y-104835000D02*
X118075000Y-104200000D01*
X132045000Y-104835000D02*
X118710000Y-104835000D01*
X112360000Y-104200000D02*
X111725000Y-103565000D01*
X118075000Y-104200000D02*
X112360000Y-104200000D01*
X108550000Y-101430000D02*
X109590000Y-100390000D01*
X108550000Y-103565000D02*
X108550000Y-101430000D01*
D28*
X110455000Y-105470000D02*
X110455000Y-103565000D01*
D26*
X110455000Y-103565000D02*
X108550000Y-103565000D01*
X111725000Y-103565000D02*
X110455000Y-103565000D01*
D28*
X167605000Y-107375000D02*
X166335000Y-107375000D01*
X166335000Y-107375000D02*
X165700000Y-106740000D01*
X165700000Y-106740000D02*
X111725000Y-106740000D01*
X111725000Y-106740000D02*
X110455000Y-105470000D01*
X104740000Y-103565000D02*
X104740000Y-104835000D01*
X107685000Y-98485000D02*
X102200000Y-98485000D01*
X102200000Y-98485000D02*
X100930000Y-99755000D01*
X104049999Y-102874999D02*
X104740000Y-103565000D01*
X100930000Y-99755000D02*
X100930000Y-101660000D01*
X100930000Y-101660000D02*
X102144999Y-102874999D01*
X102144999Y-102874999D02*
X104049999Y-102874999D01*
D27*
X102835000Y-112455000D02*
X107597500Y-107692500D01*
X102835000Y-116900000D02*
X102835000Y-112455000D01*
X108550000Y-108645000D02*
X106645000Y-106740000D01*
D28*
X106645000Y-106740000D02*
X107597500Y-107692500D01*
X104740000Y-104835000D02*
X106645000Y-106740000D01*
X107597500Y-107692500D02*
X108550000Y-108645000D01*
D27*
X108550000Y-99350000D02*
X108435000Y-99235000D01*
X108550000Y-101430000D02*
X108550000Y-99350000D01*
D28*
X109590000Y-100390000D02*
X108435000Y-99235000D01*
X108435000Y-99235000D02*
X107685000Y-98485000D01*
X161890000Y-111820000D02*
X159985000Y-109915000D01*
X166335000Y-111820000D02*
X161890000Y-111820000D01*
X167605000Y-107375000D02*
X167605000Y-110550000D01*
X167605000Y-110550000D02*
X166335000Y-111820000D01*
X159350000Y-109280000D02*
X159985000Y-109915000D01*
X108550000Y-108645000D02*
X109185000Y-109280000D01*
X109185000Y-109280000D02*
X159350000Y-109280000D01*
X154905000Y-126425000D02*
X156810000Y-124520000D01*
X163160000Y-124520000D02*
X164430000Y-123250000D01*
X156810000Y-124520000D02*
X163160000Y-124520000D01*
D27*
X165700000Y-141030000D02*
X170145000Y-145475000D01*
X138395000Y-141030000D02*
X165700000Y-141030000D01*
X131410000Y-148015000D02*
X138395000Y-141030000D01*
X128235000Y-148015000D02*
X131410000Y-148015000D01*
X170145000Y-145475000D02*
X176495000Y-145475000D01*
X138642501Y-117922499D02*
X142205000Y-114360000D01*
X116417501Y-117922499D02*
X138642501Y-117922499D01*
X114900000Y-119440000D02*
X116417501Y-117922499D01*
X142205000Y-114360000D02*
X151095000Y-114360000D01*
X151095000Y-114360000D02*
X152365000Y-113090000D01*
X152365000Y-113090000D02*
X152365000Y-111185000D01*
D28*
X170145000Y-115630000D02*
X165700000Y-115630000D01*
X165700000Y-115630000D02*
X161890000Y-115630000D01*
D27*
X194910000Y-121345000D02*
X191735000Y-118170000D01*
X218405000Y-123250000D02*
X216500000Y-121345000D01*
X206975000Y-123250000D02*
X206975000Y-121345000D01*
X216500000Y-121345000D02*
X206975000Y-121345000D01*
X206975000Y-121345000D02*
X194910000Y-121345000D01*
X172685000Y-118170000D02*
X170145000Y-115630000D01*
X191735000Y-118170000D02*
X172685000Y-118170000D01*
X163325000Y-115630000D02*
X161890000Y-115630000D01*
X170145000Y-115630000D02*
X163325000Y-115630000D01*
X161890000Y-115630000D02*
X157445000Y-111185000D01*
X165700000Y-113725000D02*
X165700000Y-115630000D01*
D26*
X69815000Y-52765000D02*
X67275000Y-50225000D01*
X71720000Y-52765000D02*
X69815000Y-52765000D01*
D27*
X69815000Y-54670000D02*
X71720000Y-52765000D01*
X69815000Y-57210000D02*
X69815000Y-54670000D01*
X72990000Y-60385000D02*
X69815000Y-57210000D01*
X184259213Y-60385000D02*
X72990000Y-60385000D01*
X185385000Y-62925000D02*
X185385000Y-61510787D01*
X185385000Y-61510787D02*
X184259213Y-60385000D01*
D26*
X61560000Y-52765000D02*
X59020000Y-50225000D01*
X62830000Y-52765000D02*
X61560000Y-52765000D01*
D27*
X180940000Y-61655000D02*
X182210000Y-62925000D01*
X67275000Y-61655000D02*
X180940000Y-61655000D01*
X62830000Y-57210000D02*
X67275000Y-61655000D01*
X62830000Y-52765000D02*
X62830000Y-57210000D01*
D26*
X202530000Y-46415000D02*
X198720000Y-42605000D01*
X202530000Y-52765000D02*
X202530000Y-46415000D01*
X194275000Y-46415000D02*
X190465000Y-42605000D01*
X194275000Y-52765000D02*
X194275000Y-46415000D01*
X177765000Y-52765000D02*
X113630000Y-52765000D01*
X113630000Y-52765000D02*
X110455000Y-52765000D01*
X244440000Y-52765000D02*
X241265000Y-52765000D01*
D28*
X187290000Y-83880000D02*
X183480000Y-83880000D01*
X188560000Y-83880000D02*
X186020000Y-83880000D01*
D27*
X188560000Y-83880000D02*
X183480000Y-83880000D01*
X183480000Y-83880000D02*
X180305000Y-87055000D01*
X180305000Y-87055000D02*
X166335000Y-87055000D01*
X241265000Y-51350787D02*
X241265000Y-52765000D01*
X217135000Y-50860000D02*
X240774213Y-50860000D01*
X212697510Y-55297490D02*
X217135000Y-50860000D01*
X240774213Y-50860000D02*
X241265000Y-51350787D01*
X188560000Y-83880000D02*
X191735000Y-80705000D01*
X191735000Y-80705000D02*
X191735000Y-76260000D01*
X191735000Y-76260000D02*
X199990000Y-68005000D01*
X199990000Y-68005000D02*
X205705000Y-68005000D01*
X205705000Y-68005000D02*
X212697510Y-61012490D01*
X212697510Y-61012490D02*
X212697510Y-55297490D01*
D28*
X152365000Y-134045000D02*
X152365000Y-132775000D01*
X151730000Y-134680000D02*
X152365000Y-134045000D01*
X130775000Y-134680000D02*
X151730000Y-134680000D01*
D27*
X153164999Y-131975001D02*
X152365000Y-132775000D01*
X153682501Y-131457499D02*
X153164999Y-131975001D01*
X166088403Y-131457499D02*
X153682501Y-131457499D01*
X168580902Y-128965000D02*
X166088403Y-131457499D01*
X184750000Y-128965000D02*
X168580902Y-128965000D01*
X122837500Y-137537500D02*
X127917500Y-137537500D01*
X122837500Y-137537500D02*
X121250000Y-135950000D01*
X127917500Y-137537500D02*
X130775000Y-134680000D01*
X151730000Y-134672490D02*
X151095000Y-134672490D01*
X131778864Y-134672490D02*
X151730000Y-134672490D01*
X130775000Y-134680000D02*
X131771354Y-134680000D01*
X131771354Y-134680000D02*
X131778864Y-134672490D01*
X152365000Y-134037490D02*
X152365000Y-132775000D01*
X151730000Y-134672490D02*
X152365000Y-134037490D01*
X215230000Y-132775000D02*
X213960000Y-132775000D01*
X236185000Y-132775000D02*
X236185000Y-131360787D01*
X236185000Y-131360787D02*
X235694213Y-130870000D01*
X235694213Y-130870000D02*
X224120000Y-130870000D01*
X213960000Y-132775000D02*
X185385000Y-132775000D01*
X224120000Y-130870000D02*
X222850000Y-129600000D01*
X222850000Y-129600000D02*
X218405000Y-129600000D01*
X218405000Y-129600000D02*
X215230000Y-132775000D01*
D26*
X105375000Y-137220000D02*
X106645000Y-135950000D01*
X106645000Y-135950000D02*
X108550000Y-135950000D01*
D28*
X128870000Y-138490000D02*
X132045000Y-135315000D01*
D27*
X111090000Y-138490000D02*
X108550000Y-135950000D01*
X118075000Y-138490000D02*
X111090000Y-138490000D01*
X122520000Y-138490000D02*
X118075000Y-138490000D01*
D28*
X122520000Y-138490000D02*
X128870000Y-138490000D01*
X154905000Y-134045000D02*
X153635000Y-135315000D01*
X132045000Y-135315000D02*
X153635000Y-135315000D01*
X154905000Y-134045000D02*
X154905000Y-132775000D01*
D27*
X163160000Y-108010000D02*
X165065000Y-109915000D01*
X109820000Y-108010000D02*
X163160000Y-108010000D01*
X106010000Y-104200000D02*
X109820000Y-108010000D01*
X106010000Y-101660000D02*
X106010000Y-104200000D01*
X102835000Y-101025000D02*
X105375000Y-101025000D01*
X105375000Y-101025000D02*
X106010000Y-101660000D01*
D26*
X63825533Y-99882000D02*
X66238533Y-102295000D01*
X60290000Y-99882000D02*
X63825533Y-99882000D01*
X74895000Y-102295000D02*
X79340000Y-106740000D01*
X66238533Y-102295000D02*
X74895000Y-102295000D01*
D28*
X79340000Y-116265000D02*
X79340000Y-113725000D01*
X103470000Y-140395000D02*
X79340000Y-116265000D01*
X128870000Y-140395000D02*
X103470000Y-140395000D01*
X133315000Y-135950000D02*
X128870000Y-140395000D01*
X156810000Y-135950000D02*
X133315000Y-135950000D01*
X159985000Y-132775000D02*
X156810000Y-135950000D01*
D26*
X168875000Y-126425000D02*
X165700000Y-129600000D01*
D27*
X219032490Y-130877510D02*
X222222510Y-130877510D01*
X215865000Y-134045000D02*
X219032490Y-130877510D01*
X194275000Y-134045000D02*
X215865000Y-134045000D01*
X222222510Y-130877510D02*
X224120000Y-132775000D01*
X162525000Y-132775000D02*
X162525000Y-134680000D01*
X162525000Y-134680000D02*
X163160000Y-135315000D01*
X186655000Y-137855000D02*
X190465000Y-137855000D01*
X163160000Y-135315000D02*
X176495000Y-135315000D01*
X176495000Y-135315000D02*
X177130000Y-135950000D01*
X190465000Y-137855000D02*
X194275000Y-134045000D01*
X177130000Y-135950000D02*
X184750000Y-135950000D01*
X184750000Y-135950000D02*
X186655000Y-137855000D01*
D26*
X177765000Y-109915000D02*
X171415000Y-109915000D01*
X180940000Y-109915000D02*
X177765000Y-109915000D01*
D27*
X131410000Y-146110000D02*
X137760000Y-139760000D01*
X85545787Y-146110000D02*
X131410000Y-146110000D01*
X84420000Y-147235787D02*
X85545787Y-146110000D01*
X84420000Y-148650000D02*
X84420000Y-147235787D01*
X137760000Y-139760000D02*
X168875000Y-139760000D01*
X206340000Y-126425000D02*
X193005000Y-126425000D01*
X209515000Y-123250000D02*
X206340000Y-126425000D01*
X176177500Y-122297500D02*
X175860000Y-122615000D01*
X188877500Y-122297500D02*
X176177500Y-122297500D01*
X175860000Y-122615000D02*
X172050000Y-126425000D01*
X193005000Y-126425000D02*
X188877500Y-122297500D01*
X206340000Y-127695000D02*
X192370000Y-127695000D01*
X209515000Y-130870000D02*
X206340000Y-127695000D01*
X192370000Y-127695000D02*
X188560000Y-123885000D01*
X177765000Y-123885000D02*
X175225000Y-126425000D01*
X188560000Y-123885000D02*
X177765000Y-123885000D01*
X174590000Y-130870000D02*
X172685000Y-132775000D01*
X196815000Y-130870000D02*
X174590000Y-130870000D01*
X187925000Y-128965000D02*
X187925000Y-130870000D01*
X186020000Y-134680000D02*
X177130000Y-134680000D01*
X187290000Y-135950000D02*
X186020000Y-134680000D01*
X177130000Y-134680000D02*
X175225000Y-132775000D01*
X187290000Y-135950000D02*
X189195000Y-135950000D01*
X201895000Y-130870000D02*
X199990000Y-128965000D01*
X191735000Y-128965000D02*
X189195000Y-126425000D01*
X199990000Y-128965000D02*
X191735000Y-128965000D01*
X189195000Y-126425000D02*
X181575000Y-126425000D01*
X217770000Y-134045000D02*
X215865000Y-135950000D01*
X220945000Y-132775000D02*
X219675000Y-134045000D01*
X219675000Y-134045000D02*
X217770000Y-134045000D01*
D26*
X193640000Y-106740000D02*
X193005000Y-106105000D01*
X193640000Y-109915000D02*
X193640000Y-106740000D01*
D27*
X165700000Y-126425000D02*
X161890000Y-130235000D01*
X119074999Y-131140001D02*
X118075000Y-132140000D01*
X133089901Y-131140001D02*
X119074999Y-131140001D01*
X133994902Y-130235000D02*
X133089901Y-131140001D01*
X161890000Y-130235000D02*
X133994902Y-130235000D01*
X204435000Y-123250000D02*
X202530000Y-125155000D01*
X202530000Y-125155000D02*
X193640000Y-125155000D01*
X171097500Y-121027500D02*
X170780000Y-121345000D01*
X189512500Y-121027500D02*
X171097500Y-121027500D01*
X170780000Y-121345000D02*
X165700000Y-126425000D01*
X193640000Y-125155000D02*
X189512500Y-121027500D01*
D26*
X186655000Y-107780000D02*
X189830000Y-104605000D01*
X186655000Y-113090000D02*
X186655000Y-107780000D01*
X187290000Y-113725000D02*
X186655000Y-113090000D01*
X187925000Y-93405000D02*
X187925000Y-88325000D01*
X189830000Y-104605000D02*
X189830000Y-95310000D01*
X189830000Y-95310000D02*
X187925000Y-93405000D01*
X187290000Y-113725000D02*
X194275000Y-113725000D01*
D27*
X210150000Y-108010000D02*
X212055000Y-109915000D01*
X217770000Y-109915000D02*
X219675000Y-108010000D01*
X212055000Y-109915000D02*
X217770000Y-109915000D01*
D26*
X220474999Y-103729999D02*
X219675000Y-102930000D01*
X221310001Y-104565001D02*
X220474999Y-103729999D01*
X221310001Y-106374999D02*
X221310001Y-104565001D01*
X219675000Y-108010000D02*
X221310001Y-106374999D01*
X227295000Y-92770000D02*
X222215000Y-97850000D01*
X222215000Y-97850000D02*
X219675000Y-97850000D01*
X219675000Y-97850000D02*
X216500000Y-97850000D01*
X219040000Y-105470000D02*
X216500000Y-108010000D01*
X219675000Y-105470000D02*
X219040000Y-105470000D01*
X216500000Y-108010000D02*
X213325000Y-108010000D01*
X228930001Y-95040001D02*
X229200000Y-95310000D01*
X228930001Y-90595001D02*
X228930001Y-95040001D01*
X227295000Y-88960000D02*
X228930001Y-90595001D01*
X231105000Y-95310000D02*
X229200000Y-95310000D01*
X229200000Y-95310000D02*
X227295000Y-95310000D01*
X225659999Y-99485001D02*
X224755000Y-100390000D01*
X225659999Y-96945001D02*
X225659999Y-99485001D01*
X227295000Y-95310000D02*
X225659999Y-96945001D01*
X227295000Y-100390000D02*
X224755000Y-100390000D01*
X224755000Y-100390000D02*
X219675000Y-100390000D01*
X219675000Y-100390000D02*
X211420000Y-100390000D01*
X211420000Y-100390000D02*
X210150000Y-99120000D01*
X210150000Y-99120000D02*
X210150000Y-97850000D01*
D27*
X203165000Y-109280000D02*
X203165000Y-103565000D01*
X203800000Y-109915000D02*
X203165000Y-109280000D01*
X205705000Y-109915000D02*
X203800000Y-109915000D01*
X227295000Y-105470000D02*
X225390000Y-105470000D01*
X224755000Y-106105000D02*
X224755000Y-107375000D01*
X224755000Y-107375000D02*
X220310000Y-111820000D01*
X220310000Y-111820000D02*
X205705000Y-111820000D01*
X225390000Y-105470000D02*
X224755000Y-106105000D01*
X205705000Y-111820000D02*
X205705000Y-109915000D01*
X209515000Y-96580000D02*
X210150000Y-97215000D01*
X208245000Y-96580000D02*
X209515000Y-96580000D01*
X206975000Y-102930000D02*
X206975000Y-97850000D01*
X207610000Y-103565000D02*
X206975000Y-102930000D01*
X212055000Y-103565000D02*
X207610000Y-103565000D01*
X212690000Y-104835000D02*
X212690000Y-104200000D01*
X212055000Y-105470000D02*
X212690000Y-104835000D01*
D26*
X210150000Y-97215000D02*
X210150000Y-95310000D01*
X210150000Y-97850000D02*
X210150000Y-97215000D01*
D27*
X205705000Y-109915000D02*
X206340000Y-109915000D01*
X206975000Y-97850000D02*
X208245000Y-96580000D01*
X212690000Y-104200000D02*
X212055000Y-103565000D01*
X206340000Y-109915000D02*
X206975000Y-109280000D01*
X207610000Y-105470000D02*
X212055000Y-105470000D01*
X206975000Y-109280000D02*
X206975000Y-106105000D01*
X206975000Y-106105000D02*
X207610000Y-105470000D01*
D26*
X232375000Y-97850000D02*
X236185000Y-101660000D01*
X227295000Y-97850000D02*
X232375000Y-97850000D01*
D27*
X237972501Y-102518001D02*
X237972501Y-97097501D01*
X237043001Y-103447501D02*
X237972501Y-102518001D01*
X235326999Y-103447501D02*
X237043001Y-103447501D01*
X227295000Y-102930000D02*
X234809498Y-102930000D01*
X234809498Y-102930000D02*
X235326999Y-103447501D01*
X237972501Y-97097501D02*
X231105000Y-90230000D01*
D26*
X219675000Y-92770000D02*
X219675000Y-95310000D01*
X219675000Y-95310000D02*
X216500000Y-95310000D01*
X216500000Y-95310000D02*
X214595000Y-93405000D01*
X210150000Y-88960000D02*
X210150000Y-93405000D01*
X214595000Y-93405000D02*
X210150000Y-93405000D01*
X210150000Y-93405000D02*
X203165000Y-93405000D01*
X210150000Y-84515000D02*
X210150000Y-88960000D01*
X210150000Y-84515000D02*
X207610000Y-84515000D01*
X236185000Y-108010000D02*
X227295000Y-108010000D01*
D29*
X35525000Y-102930000D02*
X35525000Y-93405000D01*
X35525000Y-93405000D02*
X39335000Y-89595000D01*
X39335000Y-89595000D02*
X39335000Y-68640000D01*
X39380000Y-68685000D02*
X50130000Y-68685000D01*
X39335000Y-68640000D02*
X39380000Y-68685000D01*
X135400990Y-35165990D02*
X136475000Y-36240000D01*
X95395990Y-35165990D02*
X135400990Y-35165990D01*
X39335000Y-68640000D02*
X39335000Y-41970000D01*
X39335000Y-41970000D02*
X46320000Y-34985000D01*
X46320000Y-34985000D02*
X56283522Y-34985000D01*
X56283522Y-34985000D02*
X65808522Y-25460000D01*
X65808522Y-25460000D02*
X85690000Y-25460000D01*
X85690000Y-25460000D02*
X95395990Y-35165990D01*
D26*
X140935000Y-37525000D02*
X139650000Y-36240000D01*
X140935000Y-39430000D02*
X140935000Y-37525000D01*
D29*
X136475000Y-36240000D02*
X139650000Y-36240000D01*
X139650000Y-36240000D02*
X149825000Y-36240000D01*
D26*
X121250000Y-38160000D02*
X118710000Y-38160000D01*
X126965000Y-43875000D02*
X121250000Y-38160000D01*
X172050000Y-43875000D02*
X126965000Y-43875000D01*
X179670000Y-36255000D02*
X172050000Y-43875000D01*
X186655000Y-36255000D02*
X179670000Y-36255000D01*
X189830000Y-33080000D02*
X186655000Y-36255000D01*
X204435000Y-33080000D02*
X189830000Y-33080000D01*
X212055000Y-25460000D02*
X204435000Y-33080000D01*
X231740000Y-25460000D02*
X212055000Y-25460000D01*
X241265000Y-34985000D02*
X231740000Y-25460000D01*
X246345000Y-81975000D02*
X246345000Y-60385000D01*
X241265000Y-87055000D02*
X246345000Y-81975000D01*
X246345000Y-60385000D02*
X247615000Y-59115000D01*
X247615000Y-59115000D02*
X247615000Y-38795000D01*
X247615000Y-38795000D02*
X243805000Y-34985000D01*
X243805000Y-34985000D02*
X241265000Y-34985000D01*
X107280000Y-40065000D02*
X104740000Y-37525000D01*
X110455000Y-40065000D02*
X107280000Y-40065000D01*
X87985000Y-37525000D02*
X104740000Y-37525000D01*
X184750000Y-116265000D02*
X187925000Y-116265000D01*
X187925000Y-116265000D02*
X193005000Y-116265000D01*
X193005000Y-116265000D02*
X195545000Y-118805000D01*
X195545000Y-118805000D02*
X213960000Y-118805000D01*
X213960000Y-118805000D02*
X217429098Y-118805000D01*
X227295000Y-120075000D02*
X222997049Y-124372951D01*
D27*
X222997049Y-124372951D02*
X217429098Y-118805000D01*
D26*
X239360000Y-128965000D02*
X227589098Y-128965000D01*
X245075000Y-128154198D02*
X243345802Y-126425000D01*
X227589098Y-128965000D02*
X222997049Y-124372951D01*
X245075000Y-130870000D02*
X245075000Y-128154198D01*
X243345802Y-126425000D02*
X241724198Y-126425000D01*
X241724198Y-126425000D02*
X239995000Y-128154198D01*
X239995000Y-128154198D02*
X239995000Y-128330000D01*
X239995000Y-128330000D02*
X239360000Y-128965000D01*
X175225000Y-115630000D02*
X175225000Y-113725000D01*
X175860000Y-116265000D02*
X175225000Y-115630000D01*
X175225000Y-113725000D02*
X172050000Y-113725000D01*
X172050000Y-113725000D02*
X168875000Y-113725000D01*
X181575000Y-115630000D02*
X180940000Y-116265000D01*
X181575000Y-113725000D02*
X181575000Y-115630000D01*
X184750000Y-116265000D02*
X180940000Y-116265000D01*
X180940000Y-116265000D02*
X175860000Y-116265000D01*
X184750000Y-116265000D02*
X184750000Y-105470000D01*
X184750000Y-105470000D02*
X187925000Y-102295000D01*
X187925000Y-102295000D02*
X187925000Y-101025000D01*
X186020000Y-52765000D02*
X182210000Y-52765000D01*
D27*
X235550000Y-37525000D02*
X219040000Y-37525000D01*
X238090000Y-40065000D02*
X235550000Y-37525000D01*
X241265000Y-95310000D02*
X241265000Y-97215000D01*
X241265000Y-97215000D02*
X245075000Y-97215000D01*
X239995000Y-97215000D02*
X241265000Y-97215000D01*
X239360000Y-97850000D02*
X239995000Y-97215000D01*
X239360000Y-103565000D02*
X239360000Y-97850000D01*
X238090000Y-104835000D02*
X239360000Y-103565000D01*
X233645000Y-104835000D02*
X238090000Y-104835000D01*
D26*
X250155000Y-88960000D02*
X250155000Y-62290000D01*
X257775000Y-51725000D02*
X250155000Y-59345000D01*
X250155000Y-59345000D02*
X250155000Y-62290000D01*
X53940000Y-54035000D02*
X53940000Y-52765000D01*
X46955000Y-61020000D02*
X53940000Y-54035000D01*
X220310000Y-84515000D02*
X217770000Y-84515000D01*
X220310000Y-88325000D02*
X220945000Y-88960000D01*
X220310000Y-84515000D02*
X220310000Y-88325000D01*
X222215000Y-88960000D02*
X220945000Y-88960000D01*
X220945000Y-88960000D02*
X216500000Y-88960000D01*
X227930000Y-84515000D02*
X220310000Y-84515000D01*
D27*
X245075000Y-94040000D02*
X241265000Y-90230000D01*
X248250000Y-94040000D02*
X245075000Y-94040000D01*
X249520000Y-107375000D02*
X249520000Y-95310000D01*
X233010000Y-118660787D02*
X232375000Y-118025787D01*
X249520000Y-95310000D02*
X248250000Y-94040000D01*
X233010000Y-120075000D02*
X233010000Y-118660787D01*
X232375000Y-118025787D02*
X232375000Y-112455000D01*
X232375000Y-112455000D02*
X233645000Y-111185000D01*
X233645000Y-111185000D02*
X245710000Y-111185000D01*
X245710000Y-111185000D02*
X249520000Y-107375000D01*
X245075000Y-104835000D02*
X245075000Y-101660000D01*
X245075000Y-101660000D02*
X241265000Y-101660000D01*
D26*
X54575000Y-121615000D02*
X55845000Y-120345000D01*
X54575000Y-123885000D02*
X54575000Y-121615000D01*
X55845000Y-120345000D02*
X55845000Y-114360000D01*
X55845000Y-109280000D02*
X48225000Y-101660000D01*
X55845000Y-114360000D02*
X55845000Y-109280000D01*
X93310000Y-104200000D02*
X89500000Y-104200000D01*
X89500000Y-104200000D02*
X86325000Y-104200000D01*
X86325000Y-101660000D02*
X86960000Y-101025000D01*
X86325000Y-104200000D02*
X86325000Y-101660000D01*
X88230000Y-101025000D02*
X86960000Y-101025000D01*
X86960000Y-101025000D02*
X83150000Y-101025000D01*
X102835000Y-104200000D02*
X98390000Y-104200000D01*
X98390000Y-104200000D02*
X98390000Y-98305000D01*
X90950000Y-98305000D02*
X90770000Y-98485000D01*
X98390000Y-98305000D02*
X90950000Y-98305000D01*
X96485000Y-139760000D02*
X99025000Y-139760000D01*
X93945000Y-142300000D02*
X96485000Y-139760000D01*
X97755000Y-123885000D02*
X97120000Y-124520000D01*
X97755000Y-120710000D02*
X97755000Y-123885000D01*
X99025000Y-124520000D02*
X97120000Y-124520000D01*
X97120000Y-124520000D02*
X93945000Y-124520000D01*
X93945000Y-124520000D02*
X89500000Y-120075000D01*
D27*
X238090000Y-135950000D02*
X238090000Y-137855000D01*
X243170000Y-142935000D02*
X243170000Y-148650000D01*
X238090000Y-137855000D02*
X243170000Y-142935000D01*
D26*
X105375000Y-123430000D02*
X102655000Y-120710000D01*
X105375000Y-124520000D02*
X105375000Y-123430000D01*
X62195000Y-116900000D02*
X59020000Y-116900000D01*
X65370000Y-37525000D02*
X62830000Y-40065000D01*
X79585000Y-37525000D02*
X65370000Y-37525000D01*
X187019999Y-39065001D02*
X186020000Y-40065000D01*
X190465000Y-35620000D02*
X187019999Y-39065001D01*
X241265000Y-40065000D02*
X236820000Y-35620000D01*
X216009213Y-35620000D02*
X215865000Y-35620000D01*
X216500000Y-36110787D02*
X216009213Y-35620000D01*
X216500000Y-37525000D02*
X216500000Y-36110787D01*
X236820000Y-35620000D02*
X215865000Y-35620000D01*
X215865000Y-35620000D02*
X190465000Y-35620000D01*
X117899198Y-40065000D02*
X113630000Y-40065000D01*
X123614198Y-45780000D02*
X117899198Y-40065000D01*
X173320000Y-45780000D02*
X123614198Y-45780000D01*
X176495000Y-42605000D02*
X173320000Y-45780000D01*
X186020000Y-40065000D02*
X183480000Y-42605000D01*
X183480000Y-42605000D02*
X176495000Y-42605000D01*
X250155000Y-43240000D02*
X250155000Y-47050000D01*
X216139213Y-35620000D02*
X216009213Y-35620000D01*
X216630000Y-36110787D02*
X216139213Y-35620000D01*
X216630000Y-37525000D02*
X216630000Y-36110787D01*
X78185000Y-40065000D02*
X71720000Y-40065000D01*
X202530000Y-40065000D02*
X209630000Y-40065000D01*
X248885000Y-33715000D02*
X248885000Y-31175000D01*
X266030000Y-50860000D02*
X248885000Y-33715000D01*
X266030000Y-73085000D02*
X266030000Y-50860000D01*
X255870000Y-101660000D02*
X255235000Y-101025000D01*
X255235000Y-101025000D02*
X255235000Y-81340000D01*
X255235000Y-81340000D02*
X261585000Y-74990000D01*
X261585000Y-74990000D02*
X264125000Y-74990000D01*
X257775000Y-101660000D02*
X255870000Y-101660000D01*
X264125000Y-74990000D02*
X266030000Y-73085000D01*
X97120000Y-64830000D02*
X97120000Y-67370000D01*
X97755000Y-64195000D02*
X97120000Y-64830000D01*
X133315000Y-64195000D02*
X97755000Y-64195000D01*
X138395000Y-71815000D02*
X138395000Y-69275000D01*
X138395000Y-69275000D02*
X133315000Y-64195000D01*
X163795000Y-76895000D02*
X163795000Y-77530000D01*
X107915000Y-80070000D02*
X101565000Y-80070000D01*
X126104990Y-80295010D02*
X108140010Y-80295010D01*
X108140010Y-80295010D02*
X107915000Y-80070000D01*
X127600000Y-78800000D02*
X126104990Y-80295010D01*
X162525000Y-78800000D02*
X127600000Y-78800000D01*
X163795000Y-77530000D02*
X162525000Y-78800000D01*
X85690000Y-98485000D02*
X85690000Y-92135000D01*
D27*
X84275787Y-98485000D02*
X85690000Y-98485000D01*
X83444098Y-98485000D02*
X84275787Y-98485000D01*
X81632499Y-100296599D02*
X83444098Y-98485000D01*
X81632499Y-102682499D02*
X81632499Y-100296599D01*
X83150000Y-104200000D02*
X81632499Y-102682499D01*
D26*
X90770000Y-91500000D02*
X93945000Y-88325000D01*
X90770000Y-92135000D02*
X90770000Y-91500000D01*
X93945000Y-88325000D02*
X102835000Y-88325000D01*
X104105000Y-88325000D02*
X105375000Y-89595000D01*
X102835000Y-88325000D02*
X104105000Y-88325000D01*
X88230000Y-94675000D02*
X88230000Y-90865000D01*
X85690000Y-88325000D02*
X83150000Y-88325000D01*
X88230000Y-90865000D02*
X85690000Y-88325000D01*
X97120000Y-94675000D02*
X98390000Y-93405000D01*
X88230000Y-94675000D02*
X97120000Y-94675000D01*
X225390000Y-87055000D02*
X224755000Y-86420000D01*
X231105000Y-87055000D02*
X225390000Y-87055000D01*
X81245000Y-135950000D02*
X84420000Y-135950000D01*
X81245000Y-130870000D02*
X83150000Y-128965000D01*
X81245000Y-135950000D02*
X81245000Y-130870000D01*
X86325000Y-134045000D02*
X86325000Y-132775000D01*
X84420000Y-135950000D02*
X86325000Y-134045000D01*
X89500000Y-134045000D02*
X89500000Y-132775000D01*
X87595000Y-135950000D02*
X89500000Y-134045000D01*
D27*
X81245000Y-145475000D02*
X87595000Y-139125000D01*
X81245000Y-148650000D02*
X81245000Y-145475000D01*
X87595000Y-139125000D02*
X87595000Y-135950000D01*
X82024213Y-126425000D02*
X80610000Y-126425000D01*
X84564213Y-126425000D02*
X82024213Y-126425000D01*
X89500000Y-131360787D02*
X84564213Y-126425000D01*
X89500000Y-132775000D02*
X89500000Y-131360787D01*
D30*
G36*
X76673000Y-100898000D02*
G01*
X67402000Y-100898000D01*
X67402000Y-96612418D01*
X72965000Y-96612418D01*
X72968211Y-96645021D01*
X72968211Y-96653269D01*
X72969175Y-96662433D01*
X72982989Y-96785591D01*
X72995418Y-96844065D01*
X73007045Y-96902786D01*
X73009771Y-96911589D01*
X73047244Y-97029718D01*
X73070793Y-97084662D01*
X73093604Y-97140005D01*
X73097987Y-97148111D01*
X73157691Y-97256711D01*
X73191468Y-97306041D01*
X73224590Y-97355894D01*
X73230464Y-97362995D01*
X73310125Y-97457930D01*
X73352838Y-97499757D01*
X73395013Y-97542228D01*
X73402155Y-97548052D01*
X73498738Y-97625708D01*
X73548806Y-97658471D01*
X73598384Y-97691913D01*
X73606520Y-97696239D01*
X73716348Y-97753656D01*
X73771836Y-97776074D01*
X73826961Y-97799247D01*
X73835777Y-97801908D01*
X73835779Y-97801909D01*
X73835781Y-97801909D01*
X73835783Y-97801910D01*
X73954671Y-97836900D01*
X74013422Y-97848107D01*
X74072019Y-97860136D01*
X74081191Y-97861035D01*
X74081196Y-97861035D01*
X74081199Y-97861036D01*
X74081202Y-97861036D01*
X74204611Y-97872268D01*
X74264394Y-97871851D01*
X74324255Y-97872269D01*
X74333416Y-97871370D01*
X74333418Y-97871370D01*
X74333426Y-97871369D01*
X74456677Y-97858414D01*
X74515274Y-97846385D01*
X74574028Y-97835178D01*
X74582850Y-97832514D01*
X74701238Y-97795867D01*
X74756368Y-97772692D01*
X74811847Y-97750278D01*
X74819983Y-97745951D01*
X74928998Y-97687008D01*
X74978582Y-97653563D01*
X75028645Y-97620803D01*
X75035786Y-97614978D01*
X75131276Y-97535982D01*
X75173430Y-97493533D01*
X75216165Y-97451685D01*
X75222039Y-97444584D01*
X75300367Y-97348545D01*
X75333472Y-97298719D01*
X75367267Y-97249362D01*
X75371650Y-97241256D01*
X75429832Y-97131833D01*
X75452621Y-97076541D01*
X75476193Y-97021545D01*
X75478918Y-97012742D01*
X75514737Y-96894101D01*
X75526357Y-96835417D01*
X75538794Y-96776906D01*
X75539756Y-96767750D01*
X75539757Y-96767745D01*
X75539757Y-96767741D01*
X75551850Y-96644403D01*
X75551850Y-96644402D01*
X75555000Y-96612419D01*
X75555000Y-93372581D01*
X75551789Y-93339977D01*
X75551789Y-93331731D01*
X75550825Y-93322566D01*
X75537011Y-93199409D01*
X75524584Y-93140942D01*
X75512955Y-93082213D01*
X75510229Y-93073410D01*
X75472756Y-92955282D01*
X75449195Y-92900310D01*
X75426396Y-92844995D01*
X75422013Y-92836889D01*
X75362309Y-92728288D01*
X75328532Y-92678958D01*
X75295410Y-92629105D01*
X75289536Y-92622005D01*
X75209875Y-92527069D01*
X75167126Y-92485206D01*
X75124987Y-92442772D01*
X75117846Y-92436948D01*
X75021262Y-92359293D01*
X74971221Y-92326547D01*
X74921616Y-92293087D01*
X74913480Y-92288761D01*
X74803652Y-92231344D01*
X74748164Y-92208926D01*
X74693039Y-92185753D01*
X74684223Y-92183092D01*
X74684221Y-92183091D01*
X74684219Y-92183091D01*
X74684217Y-92183090D01*
X74565329Y-92148100D01*
X74506571Y-92136892D01*
X74447980Y-92124864D01*
X74438809Y-92123965D01*
X74438804Y-92123965D01*
X74438801Y-92123964D01*
X74438798Y-92123964D01*
X74315389Y-92112732D01*
X74255606Y-92113149D01*
X74195745Y-92112731D01*
X74186584Y-92113630D01*
X74186582Y-92113630D01*
X74186574Y-92113631D01*
X74063323Y-92126586D01*
X74004733Y-92138613D01*
X73945971Y-92149822D01*
X73937149Y-92152486D01*
X73818762Y-92189133D01*
X73763632Y-92212308D01*
X73708153Y-92234722D01*
X73700017Y-92239049D01*
X73591002Y-92297993D01*
X73541422Y-92331435D01*
X73491355Y-92364197D01*
X73484214Y-92370022D01*
X73388724Y-92449018D01*
X73346603Y-92491434D01*
X73303834Y-92533316D01*
X73297961Y-92540416D01*
X73219633Y-92636455D01*
X73186518Y-92686297D01*
X73152733Y-92735638D01*
X73148350Y-92743744D01*
X73090168Y-92853168D01*
X73067384Y-92908446D01*
X73043807Y-92963455D01*
X73041082Y-92972259D01*
X73005262Y-93090899D01*
X72993633Y-93149628D01*
X72981206Y-93208095D01*
X72980244Y-93217253D01*
X72980244Y-93217254D01*
X72980243Y-93217259D01*
X72968150Y-93340598D01*
X72968150Y-93340608D01*
X72965001Y-93372581D01*
X72965000Y-96612418D01*
X67402000Y-96612418D01*
X67402000Y-80070000D01*
X67399560Y-80045224D01*
X67392333Y-80021399D01*
X67380597Y-79999443D01*
X67364803Y-79980197D01*
X64189803Y-76805197D01*
X64170557Y-76789403D01*
X64148601Y-76777667D01*
X64124776Y-76770440D01*
X64100000Y-76768000D01*
X54702000Y-76768000D01*
X54702000Y-66735000D01*
X60798000Y-66735000D01*
X60798000Y-68005000D01*
X60800440Y-68029776D01*
X60807667Y-68053601D01*
X60819403Y-68075557D01*
X60835197Y-68094803D01*
X62105197Y-69364803D01*
X62124443Y-69380597D01*
X62146399Y-69392333D01*
X62170224Y-69399560D01*
X62195000Y-69402000D01*
X63465000Y-69402000D01*
X63489776Y-69399560D01*
X63513601Y-69392333D01*
X63535557Y-69380597D01*
X63554803Y-69364803D01*
X64824803Y-68094803D01*
X64840597Y-68075557D01*
X64852333Y-68053601D01*
X64859560Y-68029776D01*
X64862000Y-68005000D01*
X64862000Y-66735000D01*
X64859560Y-66710224D01*
X64852333Y-66686399D01*
X64840597Y-66664443D01*
X64824803Y-66645197D01*
X63554803Y-65375197D01*
X63535557Y-65359403D01*
X63513601Y-65347667D01*
X63489776Y-65340440D01*
X63465000Y-65338000D01*
X62195000Y-65338000D01*
X62170224Y-65340440D01*
X62146399Y-65347667D01*
X62124443Y-65359403D01*
X62105197Y-65375197D01*
X60835197Y-66645197D01*
X60819403Y-66664443D01*
X60807667Y-66686399D01*
X60800440Y-66710224D01*
X60798000Y-66735000D01*
X54702000Y-66735000D01*
X54702000Y-63687000D01*
X76673000Y-63687000D01*
X76673000Y-100898000D01*
X76673000Y-100898000D01*
G37*
X76673000Y-100898000D02*
X67402000Y-100898000D01*
X67402000Y-96612418D01*
X72965000Y-96612418D01*
X72968211Y-96645021D01*
X72968211Y-96653269D01*
X72969175Y-96662433D01*
X72982989Y-96785591D01*
X72995418Y-96844065D01*
X73007045Y-96902786D01*
X73009771Y-96911589D01*
X73047244Y-97029718D01*
X73070793Y-97084662D01*
X73093604Y-97140005D01*
X73097987Y-97148111D01*
X73157691Y-97256711D01*
X73191468Y-97306041D01*
X73224590Y-97355894D01*
X73230464Y-97362995D01*
X73310125Y-97457930D01*
X73352838Y-97499757D01*
X73395013Y-97542228D01*
X73402155Y-97548052D01*
X73498738Y-97625708D01*
X73548806Y-97658471D01*
X73598384Y-97691913D01*
X73606520Y-97696239D01*
X73716348Y-97753656D01*
X73771836Y-97776074D01*
X73826961Y-97799247D01*
X73835777Y-97801908D01*
X73835779Y-97801909D01*
X73835781Y-97801909D01*
X73835783Y-97801910D01*
X73954671Y-97836900D01*
X74013422Y-97848107D01*
X74072019Y-97860136D01*
X74081191Y-97861035D01*
X74081196Y-97861035D01*
X74081199Y-97861036D01*
X74081202Y-97861036D01*
X74204611Y-97872268D01*
X74264394Y-97871851D01*
X74324255Y-97872269D01*
X74333416Y-97871370D01*
X74333418Y-97871370D01*
X74333426Y-97871369D01*
X74456677Y-97858414D01*
X74515274Y-97846385D01*
X74574028Y-97835178D01*
X74582850Y-97832514D01*
X74701238Y-97795867D01*
X74756368Y-97772692D01*
X74811847Y-97750278D01*
X74819983Y-97745951D01*
X74928998Y-97687008D01*
X74978582Y-97653563D01*
X75028645Y-97620803D01*
X75035786Y-97614978D01*
X75131276Y-97535982D01*
X75173430Y-97493533D01*
X75216165Y-97451685D01*
X75222039Y-97444584D01*
X75300367Y-97348545D01*
X75333472Y-97298719D01*
X75367267Y-97249362D01*
X75371650Y-97241256D01*
X75429832Y-97131833D01*
X75452621Y-97076541D01*
X75476193Y-97021545D01*
X75478918Y-97012742D01*
X75514737Y-96894101D01*
X75526357Y-96835417D01*
X75538794Y-96776906D01*
X75539756Y-96767750D01*
X75539757Y-96767745D01*
X75539757Y-96767741D01*
X75551850Y-96644403D01*
X75551850Y-96644402D01*
X75555000Y-96612419D01*
X75555000Y-93372581D01*
X75551789Y-93339977D01*
X75551789Y-93331731D01*
X75550825Y-93322566D01*
X75537011Y-93199409D01*
X75524584Y-93140942D01*
X75512955Y-93082213D01*
X75510229Y-93073410D01*
X75472756Y-92955282D01*
X75449195Y-92900310D01*
X75426396Y-92844995D01*
X75422013Y-92836889D01*
X75362309Y-92728288D01*
X75328532Y-92678958D01*
X75295410Y-92629105D01*
X75289536Y-92622005D01*
X75209875Y-92527069D01*
X75167126Y-92485206D01*
X75124987Y-92442772D01*
X75117846Y-92436948D01*
X75021262Y-92359293D01*
X74971221Y-92326547D01*
X74921616Y-92293087D01*
X74913480Y-92288761D01*
X74803652Y-92231344D01*
X74748164Y-92208926D01*
X74693039Y-92185753D01*
X74684223Y-92183092D01*
X74684221Y-92183091D01*
X74684219Y-92183091D01*
X74684217Y-92183090D01*
X74565329Y-92148100D01*
X74506571Y-92136892D01*
X74447980Y-92124864D01*
X74438809Y-92123965D01*
X74438804Y-92123965D01*
X74438801Y-92123964D01*
X74438798Y-92123964D01*
X74315389Y-92112732D01*
X74255606Y-92113149D01*
X74195745Y-92112731D01*
X74186584Y-92113630D01*
X74186582Y-92113630D01*
X74186574Y-92113631D01*
X74063323Y-92126586D01*
X74004733Y-92138613D01*
X73945971Y-92149822D01*
X73937149Y-92152486D01*
X73818762Y-92189133D01*
X73763632Y-92212308D01*
X73708153Y-92234722D01*
X73700017Y-92239049D01*
X73591002Y-92297993D01*
X73541422Y-92331435D01*
X73491355Y-92364197D01*
X73484214Y-92370022D01*
X73388724Y-92449018D01*
X73346603Y-92491434D01*
X73303834Y-92533316D01*
X73297961Y-92540416D01*
X73219633Y-92636455D01*
X73186518Y-92686297D01*
X73152733Y-92735638D01*
X73148350Y-92743744D01*
X73090168Y-92853168D01*
X73067384Y-92908446D01*
X73043807Y-92963455D01*
X73041082Y-92972259D01*
X73005262Y-93090899D01*
X72993633Y-93149628D01*
X72981206Y-93208095D01*
X72980244Y-93217253D01*
X72980244Y-93217254D01*
X72980243Y-93217259D01*
X72968150Y-93340598D01*
X72968150Y-93340608D01*
X72965001Y-93372581D01*
X72965000Y-96612418D01*
X67402000Y-96612418D01*
X67402000Y-80070000D01*
X67399560Y-80045224D01*
X67392333Y-80021399D01*
X67380597Y-79999443D01*
X67364803Y-79980197D01*
X64189803Y-76805197D01*
X64170557Y-76789403D01*
X64148601Y-76777667D01*
X64124776Y-76770440D01*
X64100000Y-76768000D01*
X54702000Y-76768000D01*
X54702000Y-66735000D01*
X60798000Y-66735000D01*
X60798000Y-68005000D01*
X60800440Y-68029776D01*
X60807667Y-68053601D01*
X60819403Y-68075557D01*
X60835197Y-68094803D01*
X62105197Y-69364803D01*
X62124443Y-69380597D01*
X62146399Y-69392333D01*
X62170224Y-69399560D01*
X62195000Y-69402000D01*
X63465000Y-69402000D01*
X63489776Y-69399560D01*
X63513601Y-69392333D01*
X63535557Y-69380597D01*
X63554803Y-69364803D01*
X64824803Y-68094803D01*
X64840597Y-68075557D01*
X64852333Y-68053601D01*
X64859560Y-68029776D01*
X64862000Y-68005000D01*
X64862000Y-66735000D01*
X64859560Y-66710224D01*
X64852333Y-66686399D01*
X64840597Y-66664443D01*
X64824803Y-66645197D01*
X63554803Y-65375197D01*
X63535557Y-65359403D01*
X63513601Y-65347667D01*
X63489776Y-65340440D01*
X63465000Y-65338000D01*
X62195000Y-65338000D01*
X62170224Y-65340440D01*
X62146399Y-65347667D01*
X62124443Y-65359403D01*
X62105197Y-65375197D01*
X60835197Y-66645197D01*
X60819403Y-66664443D01*
X60807667Y-66686399D01*
X60800440Y-66710224D01*
X60798000Y-66735000D01*
X54702000Y-66735000D01*
X54702000Y-63687000D01*
X76673000Y-63687000D01*
X76673000Y-100898000D01*
G36*
X36668000Y-50098000D02*
G01*
X31715000Y-50098000D01*
X31690224Y-50100440D01*
X31666399Y-50107667D01*
X31644443Y-50119403D01*
X31625197Y-50135197D01*
X31609403Y-50154443D01*
X31597667Y-50176399D01*
X31590440Y-50200224D01*
X31588000Y-50225000D01*
X31588000Y-57210000D01*
X31590440Y-57234776D01*
X31597667Y-57258601D01*
X31609403Y-57280557D01*
X31625197Y-57299803D01*
X31644443Y-57315597D01*
X31666399Y-57327333D01*
X31690224Y-57334560D01*
X31715000Y-57337000D01*
X36668000Y-57337000D01*
X36668000Y-87637394D01*
X31625197Y-92680197D01*
X31609403Y-92699443D01*
X31597667Y-92721399D01*
X31590440Y-92745224D01*
X31588000Y-92770000D01*
X31588000Y-107375000D01*
X31590440Y-107399776D01*
X31597667Y-107423601D01*
X31609403Y-107445557D01*
X31625197Y-107464803D01*
X31644443Y-107480597D01*
X31666399Y-107492333D01*
X31690224Y-107499560D01*
X31715000Y-107502000D01*
X46193000Y-107502000D01*
X46193000Y-126425000D01*
X46195440Y-126449776D01*
X46202667Y-126473601D01*
X46214403Y-126495557D01*
X46230197Y-126514803D01*
X46249443Y-126530597D01*
X46271399Y-126542333D01*
X46295224Y-126549560D01*
X46320000Y-126552000D01*
X57115000Y-126552000D01*
X57139776Y-126549560D01*
X57163601Y-126542333D01*
X57185557Y-126530597D01*
X57204803Y-126514803D01*
X57220597Y-126495557D01*
X57232333Y-126473601D01*
X57239560Y-126449776D01*
X57242000Y-126425000D01*
X57242000Y-120837000D01*
X72355000Y-120837000D01*
X72379776Y-120834560D01*
X72403601Y-120827333D01*
X72425557Y-120815597D01*
X72444803Y-120799803D01*
X72460597Y-120780557D01*
X72472333Y-120758601D01*
X72479560Y-120734776D01*
X72482000Y-120710000D01*
X72482000Y-116900000D01*
X72479560Y-116875224D01*
X72472333Y-116851399D01*
X72460597Y-116829443D01*
X72444803Y-116810197D01*
X68634803Y-113000197D01*
X68615557Y-112984403D01*
X68593601Y-112972667D01*
X68569776Y-112965440D01*
X68545000Y-112963000D01*
X57877000Y-112963000D01*
X57877000Y-106867000D01*
X70397394Y-106867000D01*
X76673000Y-113142606D01*
X76673000Y-148015000D01*
X76675440Y-148039776D01*
X76682667Y-148063601D01*
X76694403Y-148085557D01*
X76710197Y-148104803D01*
X79250197Y-150644803D01*
X79269443Y-150660597D01*
X79291399Y-150672333D01*
X79315224Y-150679560D01*
X79340000Y-150682000D01*
X93310000Y-150682000D01*
X93334776Y-150679560D01*
X93358601Y-150672333D01*
X93380557Y-150660597D01*
X93399803Y-150644803D01*
X93997606Y-150047000D01*
X100877394Y-150047000D01*
X101475197Y-150644803D01*
X101494443Y-150660597D01*
X101516399Y-150672333D01*
X101540224Y-150679560D01*
X101565000Y-150682000D01*
X146015000Y-150682000D01*
X146039776Y-150679560D01*
X146063601Y-150672333D01*
X146085557Y-150660597D01*
X146104803Y-150644803D01*
X146702606Y-150047000D01*
X151042394Y-150047000D01*
X151640197Y-150644803D01*
X151659443Y-150660597D01*
X151681399Y-150672333D01*
X151705224Y-150679560D01*
X151730000Y-150682000D01*
X227295000Y-150682000D01*
X227319776Y-150679560D01*
X227351796Y-150668592D01*
X228594980Y-150047000D01*
X229617836Y-150047000D01*
X229695537Y-150098918D01*
X229993088Y-150222168D01*
X230308967Y-150285000D01*
X230631033Y-150285000D01*
X230946912Y-150222168D01*
X231244463Y-150098918D01*
X231322164Y-150047000D01*
X232980020Y-150047000D01*
X234223204Y-150668592D01*
X234246456Y-150677490D01*
X234280000Y-150682000D01*
X256505000Y-150682000D01*
X256529776Y-150679560D01*
X256553601Y-150672333D01*
X256575557Y-150660597D01*
X256594803Y-150644803D01*
X259732606Y-147507000D01*
X264633000Y-147507000D01*
X264633000Y-149867394D01*
X260262394Y-154238000D01*
X38752606Y-154238000D01*
X37038861Y-152524255D01*
X94557731Y-152524255D01*
X94558631Y-152533426D01*
X94571586Y-152656677D01*
X94583615Y-152715274D01*
X94594822Y-152774028D01*
X94597486Y-152782850D01*
X94634133Y-152901238D01*
X94657308Y-152956368D01*
X94679722Y-153011847D01*
X94684049Y-153019983D01*
X94742992Y-153128998D01*
X94776437Y-153178582D01*
X94809197Y-153228645D01*
X94815022Y-153235786D01*
X94894018Y-153331276D01*
X94936467Y-153373430D01*
X94978315Y-153416165D01*
X94985416Y-153422039D01*
X95081455Y-153500367D01*
X95131281Y-153533472D01*
X95180638Y-153567267D01*
X95188744Y-153571650D01*
X95298167Y-153629832D01*
X95353459Y-153652621D01*
X95408455Y-153676193D01*
X95417258Y-153678918D01*
X95535899Y-153714737D01*
X95594583Y-153726357D01*
X95653094Y-153738794D01*
X95662250Y-153739756D01*
X95662255Y-153739757D01*
X95662259Y-153739757D01*
X95785597Y-153751850D01*
X95785598Y-153751850D01*
X95817581Y-153755000D01*
X99057419Y-153755000D01*
X99090022Y-153751789D01*
X99098269Y-153751789D01*
X99107433Y-153750825D01*
X99230591Y-153737011D01*
X99289065Y-153724582D01*
X99347786Y-153712955D01*
X99356589Y-153710229D01*
X99474718Y-153672756D01*
X99529662Y-153649207D01*
X99585005Y-153626396D01*
X99593111Y-153622013D01*
X99701711Y-153562309D01*
X99751041Y-153528532D01*
X99800894Y-153495410D01*
X99807995Y-153489536D01*
X99902930Y-153409875D01*
X99944757Y-153367162D01*
X99987228Y-153324987D01*
X99993052Y-153317845D01*
X100070708Y-153221262D01*
X100103471Y-153171194D01*
X100136913Y-153121616D01*
X100141239Y-153113480D01*
X100198656Y-153003652D01*
X100221074Y-152948164D01*
X100244247Y-152893039D01*
X100246910Y-152884217D01*
X100281900Y-152765329D01*
X100293107Y-152706578D01*
X100305136Y-152647981D01*
X100306035Y-152638809D01*
X100316461Y-152524255D01*
X145992731Y-152524255D01*
X145993631Y-152533426D01*
X146006586Y-152656677D01*
X146018615Y-152715274D01*
X146029822Y-152774028D01*
X146032486Y-152782850D01*
X146069133Y-152901238D01*
X146092308Y-152956368D01*
X146114722Y-153011847D01*
X146119049Y-153019983D01*
X146177992Y-153128998D01*
X146211437Y-153178582D01*
X146244197Y-153228645D01*
X146250022Y-153235786D01*
X146329018Y-153331276D01*
X146371467Y-153373430D01*
X146413315Y-153416165D01*
X146420416Y-153422039D01*
X146516455Y-153500367D01*
X146566281Y-153533472D01*
X146615638Y-153567267D01*
X146623744Y-153571650D01*
X146733167Y-153629832D01*
X146788459Y-153652621D01*
X146843455Y-153676193D01*
X146852258Y-153678918D01*
X146970899Y-153714737D01*
X147029583Y-153726357D01*
X147088094Y-153738794D01*
X147097250Y-153739756D01*
X147097255Y-153739757D01*
X147097259Y-153739757D01*
X147220597Y-153751850D01*
X147220598Y-153751850D01*
X147252581Y-153755000D01*
X150492419Y-153755000D01*
X150525022Y-153751789D01*
X150533269Y-153751789D01*
X150542433Y-153750825D01*
X150665591Y-153737011D01*
X150724065Y-153724582D01*
X150782786Y-153712955D01*
X150791589Y-153710229D01*
X150909718Y-153672756D01*
X150964662Y-153649207D01*
X151020005Y-153626396D01*
X151028111Y-153622013D01*
X151136711Y-153562309D01*
X151186041Y-153528532D01*
X151235894Y-153495410D01*
X151242995Y-153489536D01*
X151337930Y-153409875D01*
X151379757Y-153367162D01*
X151422228Y-153324987D01*
X151428052Y-153317845D01*
X151505708Y-153221262D01*
X151538471Y-153171194D01*
X151571913Y-153121616D01*
X151576239Y-153113480D01*
X151633656Y-153003652D01*
X151656074Y-152948164D01*
X151679247Y-152893039D01*
X151681910Y-152884217D01*
X151716900Y-152765329D01*
X151728107Y-152706578D01*
X151740136Y-152647981D01*
X151741035Y-152638809D01*
X151751461Y-152524255D01*
X227907731Y-152524255D01*
X227908631Y-152533426D01*
X227921586Y-152656677D01*
X227933615Y-152715274D01*
X227944822Y-152774028D01*
X227947486Y-152782850D01*
X227984133Y-152901238D01*
X228007308Y-152956368D01*
X228029722Y-153011847D01*
X228034049Y-153019983D01*
X228092992Y-153128998D01*
X228126437Y-153178582D01*
X228159197Y-153228645D01*
X228165022Y-153235786D01*
X228244018Y-153331276D01*
X228286467Y-153373430D01*
X228328315Y-153416165D01*
X228335416Y-153422039D01*
X228431455Y-153500367D01*
X228481281Y-153533472D01*
X228530638Y-153567267D01*
X228538744Y-153571650D01*
X228648167Y-153629832D01*
X228703459Y-153652621D01*
X228758455Y-153676193D01*
X228767258Y-153678918D01*
X228885899Y-153714737D01*
X228944583Y-153726357D01*
X229003094Y-153738794D01*
X229012250Y-153739756D01*
X229012255Y-153739757D01*
X229012259Y-153739757D01*
X229135597Y-153751850D01*
X229135598Y-153751850D01*
X229167581Y-153755000D01*
X232407419Y-153755000D01*
X232440022Y-153751789D01*
X232448269Y-153751789D01*
X232457433Y-153750825D01*
X232580591Y-153737011D01*
X232639065Y-153724582D01*
X232697786Y-153712955D01*
X232706589Y-153710229D01*
X232824718Y-153672756D01*
X232879662Y-153649207D01*
X232935005Y-153626396D01*
X232943111Y-153622013D01*
X233051711Y-153562309D01*
X233101041Y-153528532D01*
X233150894Y-153495410D01*
X233157995Y-153489536D01*
X233252930Y-153409875D01*
X233294757Y-153367162D01*
X233337228Y-153324987D01*
X233343052Y-153317845D01*
X233420708Y-153221262D01*
X233453471Y-153171194D01*
X233486913Y-153121616D01*
X233491239Y-153113480D01*
X233548656Y-153003652D01*
X233571074Y-152948164D01*
X233594247Y-152893039D01*
X233596910Y-152884217D01*
X233631900Y-152765329D01*
X233643107Y-152706578D01*
X233655136Y-152647981D01*
X233656035Y-152638809D01*
X233667268Y-152515389D01*
X233666851Y-152455606D01*
X233667269Y-152395745D01*
X233666369Y-152386574D01*
X233653414Y-152263323D01*
X233641387Y-152204733D01*
X233630178Y-152145971D01*
X233627514Y-152137149D01*
X233590867Y-152018762D01*
X233567692Y-151963632D01*
X233545278Y-151908153D01*
X233540951Y-151900017D01*
X233482007Y-151791002D01*
X233448565Y-151741422D01*
X233415803Y-151691355D01*
X233409978Y-151684214D01*
X233330982Y-151588724D01*
X233288566Y-151546603D01*
X233246684Y-151503834D01*
X233239584Y-151497961D01*
X233143545Y-151419633D01*
X233093703Y-151386518D01*
X233044362Y-151352733D01*
X233036256Y-151348350D01*
X232926832Y-151290168D01*
X232871554Y-151267384D01*
X232816545Y-151243807D01*
X232807741Y-151241082D01*
X232689101Y-151205262D01*
X232630372Y-151193633D01*
X232571905Y-151181206D01*
X232562747Y-151180244D01*
X232562744Y-151180243D01*
X232562741Y-151180243D01*
X232439402Y-151168150D01*
X232407419Y-151165000D01*
X229167581Y-151165000D01*
X229134977Y-151168211D01*
X229126731Y-151168211D01*
X229117566Y-151169175D01*
X228994409Y-151182989D01*
X228935942Y-151195416D01*
X228877213Y-151207045D01*
X228868410Y-151209771D01*
X228750282Y-151247244D01*
X228695310Y-151270805D01*
X228639995Y-151293604D01*
X228631889Y-151297987D01*
X228523288Y-151357691D01*
X228473958Y-151391468D01*
X228424105Y-151424590D01*
X228417005Y-151430464D01*
X228322069Y-151510125D01*
X228280206Y-151552874D01*
X228237772Y-151595013D01*
X228231948Y-151602154D01*
X228154293Y-151698738D01*
X228121547Y-151748779D01*
X228088087Y-151798384D01*
X228083761Y-151806520D01*
X228026344Y-151916348D01*
X228003926Y-151971836D01*
X227980753Y-152026961D01*
X227978090Y-152035783D01*
X227943100Y-152154671D01*
X227931892Y-152213429D01*
X227919864Y-152272020D01*
X227918965Y-152281191D01*
X227907732Y-152404611D01*
X227908149Y-152464394D01*
X227907731Y-152524255D01*
X151751461Y-152524255D01*
X151752268Y-152515389D01*
X151751851Y-152455606D01*
X151752269Y-152395745D01*
X151751369Y-152386574D01*
X151738414Y-152263323D01*
X151726387Y-152204733D01*
X151715178Y-152145971D01*
X151712514Y-152137149D01*
X151675867Y-152018762D01*
X151652692Y-151963632D01*
X151630278Y-151908153D01*
X151625951Y-151900017D01*
X151567007Y-151791002D01*
X151533565Y-151741422D01*
X151500803Y-151691355D01*
X151494978Y-151684214D01*
X151415982Y-151588724D01*
X151373566Y-151546603D01*
X151331684Y-151503834D01*
X151324584Y-151497961D01*
X151228545Y-151419633D01*
X151178703Y-151386518D01*
X151129362Y-151352733D01*
X151121256Y-151348350D01*
X151011832Y-151290168D01*
X150956554Y-151267384D01*
X150901545Y-151243807D01*
X150892741Y-151241082D01*
X150774101Y-151205262D01*
X150715372Y-151193633D01*
X150656905Y-151181206D01*
X150647747Y-151180244D01*
X150647744Y-151180243D01*
X150647741Y-151180243D01*
X150524402Y-151168150D01*
X150492419Y-151165000D01*
X147252581Y-151165000D01*
X147219977Y-151168211D01*
X147211731Y-151168211D01*
X147202566Y-151169175D01*
X147079409Y-151182989D01*
X147020942Y-151195416D01*
X146962213Y-151207045D01*
X146953410Y-151209771D01*
X146835282Y-151247244D01*
X146780310Y-151270805D01*
X146724995Y-151293604D01*
X146716889Y-151297987D01*
X146608288Y-151357691D01*
X146558958Y-151391468D01*
X146509105Y-151424590D01*
X146502005Y-151430464D01*
X146407069Y-151510125D01*
X146365206Y-151552874D01*
X146322772Y-151595013D01*
X146316948Y-151602154D01*
X146239293Y-151698738D01*
X146206547Y-151748779D01*
X146173087Y-151798384D01*
X146168761Y-151806520D01*
X146111344Y-151916348D01*
X146088926Y-151971836D01*
X146065753Y-152026961D01*
X146063090Y-152035783D01*
X146028100Y-152154671D01*
X146016892Y-152213429D01*
X146004864Y-152272020D01*
X146003965Y-152281191D01*
X145992732Y-152404611D01*
X145993149Y-152464394D01*
X145992731Y-152524255D01*
X100316461Y-152524255D01*
X100317268Y-152515389D01*
X100316851Y-152455606D01*
X100317269Y-152395745D01*
X100316369Y-152386574D01*
X100303414Y-152263323D01*
X100291387Y-152204733D01*
X100280178Y-152145971D01*
X100277514Y-152137149D01*
X100240867Y-152018762D01*
X100217692Y-151963632D01*
X100195278Y-151908153D01*
X100190951Y-151900017D01*
X100132007Y-151791002D01*
X100098565Y-151741422D01*
X100065803Y-151691355D01*
X100059978Y-151684214D01*
X99980982Y-151588724D01*
X99938566Y-151546603D01*
X99896684Y-151503834D01*
X99889584Y-151497961D01*
X99793545Y-151419633D01*
X99743703Y-151386518D01*
X99694362Y-151352733D01*
X99686256Y-151348350D01*
X99576832Y-151290168D01*
X99521554Y-151267384D01*
X99466545Y-151243807D01*
X99457741Y-151241082D01*
X99339101Y-151205262D01*
X99280372Y-151193633D01*
X99221905Y-151181206D01*
X99212747Y-151180244D01*
X99212744Y-151180243D01*
X99212741Y-151180243D01*
X99089402Y-151168150D01*
X99057419Y-151165000D01*
X95817581Y-151165000D01*
X95784977Y-151168211D01*
X95776731Y-151168211D01*
X95767566Y-151169175D01*
X95644409Y-151182989D01*
X95585942Y-151195416D01*
X95527213Y-151207045D01*
X95518410Y-151209771D01*
X95400282Y-151247244D01*
X95345310Y-151270805D01*
X95289995Y-151293604D01*
X95281889Y-151297987D01*
X95173288Y-151357691D01*
X95123958Y-151391468D01*
X95074105Y-151424590D01*
X95067005Y-151430464D01*
X94972069Y-151510125D01*
X94930206Y-151552874D01*
X94887772Y-151595013D01*
X94881948Y-151602154D01*
X94804293Y-151698738D01*
X94771547Y-151748779D01*
X94738087Y-151798384D01*
X94733761Y-151806520D01*
X94676344Y-151916348D01*
X94653926Y-151971836D01*
X94630753Y-152026961D01*
X94628090Y-152035783D01*
X94593100Y-152154671D01*
X94581892Y-152213429D01*
X94569864Y-152272020D01*
X94568965Y-152281191D01*
X94557732Y-152404611D01*
X94558149Y-152464394D01*
X94557731Y-152524255D01*
X37038861Y-152524255D01*
X26762000Y-142247394D01*
X26762000Y-141415324D01*
X32609000Y-141415324D01*
X32609000Y-141914676D01*
X32706418Y-142404432D01*
X32897512Y-142865773D01*
X33174937Y-143280968D01*
X33528032Y-143634063D01*
X33943227Y-143911488D01*
X34404568Y-144102582D01*
X34894324Y-144200000D01*
X35393676Y-144200000D01*
X35883432Y-144102582D01*
X36344773Y-143911488D01*
X36759968Y-143634063D01*
X37113063Y-143280968D01*
X37390488Y-142865773D01*
X37581582Y-142404432D01*
X37679000Y-141914676D01*
X37679000Y-141415324D01*
X37581582Y-140925568D01*
X37423946Y-140545000D01*
X49638461Y-140545000D01*
X49684510Y-141012542D01*
X49820887Y-141462116D01*
X50042351Y-141876446D01*
X50340391Y-142239609D01*
X50703554Y-142537649D01*
X51117884Y-142759113D01*
X51567458Y-142895490D01*
X51917843Y-142930000D01*
X52152157Y-142930000D01*
X52502542Y-142895490D01*
X52952116Y-142759113D01*
X53366446Y-142537649D01*
X53729609Y-142239609D01*
X54027649Y-141876446D01*
X54249113Y-141462116D01*
X54385490Y-141012542D01*
X54431539Y-140545000D01*
X54385490Y-140077458D01*
X54249113Y-139627884D01*
X54027649Y-139213554D01*
X53729609Y-138850391D01*
X53366446Y-138552351D01*
X52952116Y-138330887D01*
X52502542Y-138194510D01*
X52152157Y-138160000D01*
X51917843Y-138160000D01*
X51567458Y-138194510D01*
X51117884Y-138330887D01*
X50703554Y-138552351D01*
X50340391Y-138850391D01*
X50042351Y-139213554D01*
X49820887Y-139627884D01*
X49684510Y-140077458D01*
X49638461Y-140545000D01*
X37423946Y-140545000D01*
X37390488Y-140464227D01*
X37113063Y-140049032D01*
X36759968Y-139695937D01*
X36344773Y-139418512D01*
X35883432Y-139227418D01*
X35393676Y-139130000D01*
X34894324Y-139130000D01*
X34404568Y-139227418D01*
X33943227Y-139418512D01*
X33528032Y-139695937D01*
X33174937Y-140049032D01*
X32897512Y-140464227D01*
X32706418Y-140925568D01*
X32609000Y-141415324D01*
X26762000Y-141415324D01*
X26762000Y-134712418D01*
X72965000Y-134712418D01*
X72968211Y-134745021D01*
X72968211Y-134753269D01*
X72969175Y-134762433D01*
X72982989Y-134885591D01*
X72995418Y-134944065D01*
X73007045Y-135002786D01*
X73009771Y-135011589D01*
X73047244Y-135129718D01*
X73070793Y-135184662D01*
X73093604Y-135240005D01*
X73097987Y-135248111D01*
X73157691Y-135356711D01*
X73191468Y-135406041D01*
X73224590Y-135455894D01*
X73230464Y-135462995D01*
X73310125Y-135557930D01*
X73352838Y-135599757D01*
X73395013Y-135642228D01*
X73402155Y-135648052D01*
X73498738Y-135725708D01*
X73548806Y-135758471D01*
X73598384Y-135791913D01*
X73606520Y-135796239D01*
X73716348Y-135853656D01*
X73771836Y-135876074D01*
X73826961Y-135899247D01*
X73835777Y-135901908D01*
X73835779Y-135901909D01*
X73835781Y-135901909D01*
X73835783Y-135901910D01*
X73954671Y-135936900D01*
X74013422Y-135948107D01*
X74072019Y-135960136D01*
X74081191Y-135961035D01*
X74081196Y-135961035D01*
X74081199Y-135961036D01*
X74081202Y-135961036D01*
X74204611Y-135972268D01*
X74264394Y-135971851D01*
X74324255Y-135972269D01*
X74333416Y-135971370D01*
X74333418Y-135971370D01*
X74333426Y-135971369D01*
X74456677Y-135958414D01*
X74515274Y-135946385D01*
X74574028Y-135935178D01*
X74582850Y-135932514D01*
X74701238Y-135895867D01*
X74756368Y-135872692D01*
X74811847Y-135850278D01*
X74819983Y-135845951D01*
X74928998Y-135787008D01*
X74978582Y-135753563D01*
X75028645Y-135720803D01*
X75035786Y-135714978D01*
X75131276Y-135635982D01*
X75173430Y-135593533D01*
X75216165Y-135551685D01*
X75222039Y-135544584D01*
X75300367Y-135448545D01*
X75333472Y-135398719D01*
X75367267Y-135349362D01*
X75371650Y-135341256D01*
X75429832Y-135231833D01*
X75452621Y-135176541D01*
X75476193Y-135121545D01*
X75478918Y-135112742D01*
X75514737Y-134994101D01*
X75526357Y-134935417D01*
X75538794Y-134876906D01*
X75539756Y-134867750D01*
X75539757Y-134867745D01*
X75539757Y-134867741D01*
X75551850Y-134744403D01*
X75551850Y-134744402D01*
X75555000Y-134712419D01*
X75555000Y-131472581D01*
X75551789Y-131439977D01*
X75551789Y-131431731D01*
X75550825Y-131422566D01*
X75537011Y-131299409D01*
X75524584Y-131240942D01*
X75512955Y-131182213D01*
X75510229Y-131173410D01*
X75472756Y-131055282D01*
X75449195Y-131000310D01*
X75426396Y-130944995D01*
X75422013Y-130936889D01*
X75362309Y-130828288D01*
X75328532Y-130778958D01*
X75295410Y-130729105D01*
X75289536Y-130722005D01*
X75209875Y-130627069D01*
X75167126Y-130585206D01*
X75124987Y-130542772D01*
X75117846Y-130536948D01*
X75021262Y-130459293D01*
X74971221Y-130426547D01*
X74921616Y-130393087D01*
X74913480Y-130388761D01*
X74803652Y-130331344D01*
X74748164Y-130308926D01*
X74693039Y-130285753D01*
X74684223Y-130283092D01*
X74684221Y-130283091D01*
X74684219Y-130283091D01*
X74684217Y-130283090D01*
X74565329Y-130248100D01*
X74506571Y-130236892D01*
X74447980Y-130224864D01*
X74438809Y-130223965D01*
X74438804Y-130223965D01*
X74438801Y-130223964D01*
X74438798Y-130223964D01*
X74315389Y-130212732D01*
X74255606Y-130213149D01*
X74195745Y-130212731D01*
X74186584Y-130213630D01*
X74186582Y-130213630D01*
X74186574Y-130213631D01*
X74063323Y-130226586D01*
X74004733Y-130238613D01*
X73945971Y-130249822D01*
X73937149Y-130252486D01*
X73818762Y-130289133D01*
X73763632Y-130312308D01*
X73708153Y-130334722D01*
X73700017Y-130339049D01*
X73591002Y-130397993D01*
X73541422Y-130431435D01*
X73491355Y-130464197D01*
X73484214Y-130470022D01*
X73388724Y-130549018D01*
X73346603Y-130591434D01*
X73303834Y-130633316D01*
X73297961Y-130640416D01*
X73219633Y-130736455D01*
X73186518Y-130786297D01*
X73152733Y-130835638D01*
X73148350Y-130843744D01*
X73090168Y-130953168D01*
X73067384Y-131008446D01*
X73043807Y-131063455D01*
X73041082Y-131072259D01*
X73005262Y-131190899D01*
X72993633Y-131249628D01*
X72981206Y-131308095D01*
X72980244Y-131317253D01*
X72980244Y-131317254D01*
X72980243Y-131317259D01*
X72968150Y-131440598D01*
X72968150Y-131440608D01*
X72965001Y-131472581D01*
X72965000Y-134712418D01*
X26762000Y-134712418D01*
X26762000Y-132902000D01*
X29810000Y-132902000D01*
X29834776Y-132899560D01*
X29858601Y-132892333D01*
X29880557Y-132880597D01*
X29899803Y-132864803D01*
X29915597Y-132845557D01*
X29927333Y-132823601D01*
X29934560Y-132799776D01*
X29937000Y-132775000D01*
X29937000Y-123250000D01*
X29934560Y-123225224D01*
X29927333Y-123201399D01*
X29915597Y-123179443D01*
X29899803Y-123160197D01*
X29880557Y-123144403D01*
X29858601Y-123132667D01*
X29834776Y-123125440D01*
X29810000Y-123123000D01*
X26762000Y-123123000D01*
X26762000Y-119305413D01*
X38379192Y-119305413D01*
X38474956Y-119569814D01*
X38764571Y-119710704D01*
X39076108Y-119792384D01*
X39397595Y-119811718D01*
X39716675Y-119767961D01*
X40021088Y-119662795D01*
X40195044Y-119569814D01*
X40290808Y-119305413D01*
X39335000Y-118349605D01*
X38379192Y-119305413D01*
X26762000Y-119305413D01*
X26762000Y-118232595D01*
X37693282Y-118232595D01*
X37737039Y-118551675D01*
X37842205Y-118856088D01*
X37935186Y-119030044D01*
X38199587Y-119125808D01*
X39155395Y-118170000D01*
X39514605Y-118170000D01*
X40470413Y-119125808D01*
X40734814Y-119030044D01*
X40875704Y-118740429D01*
X40957384Y-118428892D01*
X40976718Y-118107405D01*
X40932961Y-117788325D01*
X40827795Y-117483912D01*
X40734814Y-117309956D01*
X40470413Y-117214192D01*
X39514605Y-118170000D01*
X39155395Y-118170000D01*
X38199587Y-117214192D01*
X37935186Y-117309956D01*
X37794296Y-117599571D01*
X37712616Y-117911108D01*
X37693282Y-118232595D01*
X26762000Y-118232595D01*
X26762000Y-117034587D01*
X38379192Y-117034587D01*
X39335000Y-117990395D01*
X40290808Y-117034587D01*
X40195044Y-116770186D01*
X39905429Y-116629296D01*
X39593892Y-116547616D01*
X39272405Y-116528282D01*
X38953325Y-116572039D01*
X38648912Y-116677205D01*
X38474956Y-116770186D01*
X38379192Y-117034587D01*
X26762000Y-117034587D01*
X26762000Y-45272000D01*
X36668000Y-45272000D01*
X36668000Y-50098000D01*
X36668000Y-50098000D01*
G37*
X36668000Y-50098000D02*
X31715000Y-50098000D01*
X31690224Y-50100440D01*
X31666399Y-50107667D01*
X31644443Y-50119403D01*
X31625197Y-50135197D01*
X31609403Y-50154443D01*
X31597667Y-50176399D01*
X31590440Y-50200224D01*
X31588000Y-50225000D01*
X31588000Y-57210000D01*
X31590440Y-57234776D01*
X31597667Y-57258601D01*
X31609403Y-57280557D01*
X31625197Y-57299803D01*
X31644443Y-57315597D01*
X31666399Y-57327333D01*
X31690224Y-57334560D01*
X31715000Y-57337000D01*
X36668000Y-57337000D01*
X36668000Y-87637394D01*
X31625197Y-92680197D01*
X31609403Y-92699443D01*
X31597667Y-92721399D01*
X31590440Y-92745224D01*
X31588000Y-92770000D01*
X31588000Y-107375000D01*
X31590440Y-107399776D01*
X31597667Y-107423601D01*
X31609403Y-107445557D01*
X31625197Y-107464803D01*
X31644443Y-107480597D01*
X31666399Y-107492333D01*
X31690224Y-107499560D01*
X31715000Y-107502000D01*
X46193000Y-107502000D01*
X46193000Y-126425000D01*
X46195440Y-126449776D01*
X46202667Y-126473601D01*
X46214403Y-126495557D01*
X46230197Y-126514803D01*
X46249443Y-126530597D01*
X46271399Y-126542333D01*
X46295224Y-126549560D01*
X46320000Y-126552000D01*
X57115000Y-126552000D01*
X57139776Y-126549560D01*
X57163601Y-126542333D01*
X57185557Y-126530597D01*
X57204803Y-126514803D01*
X57220597Y-126495557D01*
X57232333Y-126473601D01*
X57239560Y-126449776D01*
X57242000Y-126425000D01*
X57242000Y-120837000D01*
X72355000Y-120837000D01*
X72379776Y-120834560D01*
X72403601Y-120827333D01*
X72425557Y-120815597D01*
X72444803Y-120799803D01*
X72460597Y-120780557D01*
X72472333Y-120758601D01*
X72479560Y-120734776D01*
X72482000Y-120710000D01*
X72482000Y-116900000D01*
X72479560Y-116875224D01*
X72472333Y-116851399D01*
X72460597Y-116829443D01*
X72444803Y-116810197D01*
X68634803Y-113000197D01*
X68615557Y-112984403D01*
X68593601Y-112972667D01*
X68569776Y-112965440D01*
X68545000Y-112963000D01*
X57877000Y-112963000D01*
X57877000Y-106867000D01*
X70397394Y-106867000D01*
X76673000Y-113142606D01*
X76673000Y-148015000D01*
X76675440Y-148039776D01*
X76682667Y-148063601D01*
X76694403Y-148085557D01*
X76710197Y-148104803D01*
X79250197Y-150644803D01*
X79269443Y-150660597D01*
X79291399Y-150672333D01*
X79315224Y-150679560D01*
X79340000Y-150682000D01*
X93310000Y-150682000D01*
X93334776Y-150679560D01*
X93358601Y-150672333D01*
X93380557Y-150660597D01*
X93399803Y-150644803D01*
X93997606Y-150047000D01*
X100877394Y-150047000D01*
X101475197Y-150644803D01*
X101494443Y-150660597D01*
X101516399Y-150672333D01*
X101540224Y-150679560D01*
X101565000Y-150682000D01*
X146015000Y-150682000D01*
X146039776Y-150679560D01*
X146063601Y-150672333D01*
X146085557Y-150660597D01*
X146104803Y-150644803D01*
X146702606Y-150047000D01*
X151042394Y-150047000D01*
X151640197Y-150644803D01*
X151659443Y-150660597D01*
X151681399Y-150672333D01*
X151705224Y-150679560D01*
X151730000Y-150682000D01*
X227295000Y-150682000D01*
X227319776Y-150679560D01*
X227351796Y-150668592D01*
X228594980Y-150047000D01*
X229617836Y-150047000D01*
X229695537Y-150098918D01*
X229993088Y-150222168D01*
X230308967Y-150285000D01*
X230631033Y-150285000D01*
X230946912Y-150222168D01*
X231244463Y-150098918D01*
X231322164Y-150047000D01*
X232980020Y-150047000D01*
X234223204Y-150668592D01*
X234246456Y-150677490D01*
X234280000Y-150682000D01*
X256505000Y-150682000D01*
X256529776Y-150679560D01*
X256553601Y-150672333D01*
X256575557Y-150660597D01*
X256594803Y-150644803D01*
X259732606Y-147507000D01*
X264633000Y-147507000D01*
X264633000Y-149867394D01*
X260262394Y-154238000D01*
X38752606Y-154238000D01*
X37038861Y-152524255D01*
X94557731Y-152524255D01*
X94558631Y-152533426D01*
X94571586Y-152656677D01*
X94583615Y-152715274D01*
X94594822Y-152774028D01*
X94597486Y-152782850D01*
X94634133Y-152901238D01*
X94657308Y-152956368D01*
X94679722Y-153011847D01*
X94684049Y-153019983D01*
X94742992Y-153128998D01*
X94776437Y-153178582D01*
X94809197Y-153228645D01*
X94815022Y-153235786D01*
X94894018Y-153331276D01*
X94936467Y-153373430D01*
X94978315Y-153416165D01*
X94985416Y-153422039D01*
X95081455Y-153500367D01*
X95131281Y-153533472D01*
X95180638Y-153567267D01*
X95188744Y-153571650D01*
X95298167Y-153629832D01*
X95353459Y-153652621D01*
X95408455Y-153676193D01*
X95417258Y-153678918D01*
X95535899Y-153714737D01*
X95594583Y-153726357D01*
X95653094Y-153738794D01*
X95662250Y-153739756D01*
X95662255Y-153739757D01*
X95662259Y-153739757D01*
X95785597Y-153751850D01*
X95785598Y-153751850D01*
X95817581Y-153755000D01*
X99057419Y-153755000D01*
X99090022Y-153751789D01*
X99098269Y-153751789D01*
X99107433Y-153750825D01*
X99230591Y-153737011D01*
X99289065Y-153724582D01*
X99347786Y-153712955D01*
X99356589Y-153710229D01*
X99474718Y-153672756D01*
X99529662Y-153649207D01*
X99585005Y-153626396D01*
X99593111Y-153622013D01*
X99701711Y-153562309D01*
X99751041Y-153528532D01*
X99800894Y-153495410D01*
X99807995Y-153489536D01*
X99902930Y-153409875D01*
X99944757Y-153367162D01*
X99987228Y-153324987D01*
X99993052Y-153317845D01*
X100070708Y-153221262D01*
X100103471Y-153171194D01*
X100136913Y-153121616D01*
X100141239Y-153113480D01*
X100198656Y-153003652D01*
X100221074Y-152948164D01*
X100244247Y-152893039D01*
X100246910Y-152884217D01*
X100281900Y-152765329D01*
X100293107Y-152706578D01*
X100305136Y-152647981D01*
X100306035Y-152638809D01*
X100316461Y-152524255D01*
X145992731Y-152524255D01*
X145993631Y-152533426D01*
X146006586Y-152656677D01*
X146018615Y-152715274D01*
X146029822Y-152774028D01*
X146032486Y-152782850D01*
X146069133Y-152901238D01*
X146092308Y-152956368D01*
X146114722Y-153011847D01*
X146119049Y-153019983D01*
X146177992Y-153128998D01*
X146211437Y-153178582D01*
X146244197Y-153228645D01*
X146250022Y-153235786D01*
X146329018Y-153331276D01*
X146371467Y-153373430D01*
X146413315Y-153416165D01*
X146420416Y-153422039D01*
X146516455Y-153500367D01*
X146566281Y-153533472D01*
X146615638Y-153567267D01*
X146623744Y-153571650D01*
X146733167Y-153629832D01*
X146788459Y-153652621D01*
X146843455Y-153676193D01*
X146852258Y-153678918D01*
X146970899Y-153714737D01*
X147029583Y-153726357D01*
X147088094Y-153738794D01*
X147097250Y-153739756D01*
X147097255Y-153739757D01*
X147097259Y-153739757D01*
X147220597Y-153751850D01*
X147220598Y-153751850D01*
X147252581Y-153755000D01*
X150492419Y-153755000D01*
X150525022Y-153751789D01*
X150533269Y-153751789D01*
X150542433Y-153750825D01*
X150665591Y-153737011D01*
X150724065Y-153724582D01*
X150782786Y-153712955D01*
X150791589Y-153710229D01*
X150909718Y-153672756D01*
X150964662Y-153649207D01*
X151020005Y-153626396D01*
X151028111Y-153622013D01*
X151136711Y-153562309D01*
X151186041Y-153528532D01*
X151235894Y-153495410D01*
X151242995Y-153489536D01*
X151337930Y-153409875D01*
X151379757Y-153367162D01*
X151422228Y-153324987D01*
X151428052Y-153317845D01*
X151505708Y-153221262D01*
X151538471Y-153171194D01*
X151571913Y-153121616D01*
X151576239Y-153113480D01*
X151633656Y-153003652D01*
X151656074Y-152948164D01*
X151679247Y-152893039D01*
X151681910Y-152884217D01*
X151716900Y-152765329D01*
X151728107Y-152706578D01*
X151740136Y-152647981D01*
X151741035Y-152638809D01*
X151751461Y-152524255D01*
X227907731Y-152524255D01*
X227908631Y-152533426D01*
X227921586Y-152656677D01*
X227933615Y-152715274D01*
X227944822Y-152774028D01*
X227947486Y-152782850D01*
X227984133Y-152901238D01*
X228007308Y-152956368D01*
X228029722Y-153011847D01*
X228034049Y-153019983D01*
X228092992Y-153128998D01*
X228126437Y-153178582D01*
X228159197Y-153228645D01*
X228165022Y-153235786D01*
X228244018Y-153331276D01*
X228286467Y-153373430D01*
X228328315Y-153416165D01*
X228335416Y-153422039D01*
X228431455Y-153500367D01*
X228481281Y-153533472D01*
X228530638Y-153567267D01*
X228538744Y-153571650D01*
X228648167Y-153629832D01*
X228703459Y-153652621D01*
X228758455Y-153676193D01*
X228767258Y-153678918D01*
X228885899Y-153714737D01*
X228944583Y-153726357D01*
X229003094Y-153738794D01*
X229012250Y-153739756D01*
X229012255Y-153739757D01*
X229012259Y-153739757D01*
X229135597Y-153751850D01*
X229135598Y-153751850D01*
X229167581Y-153755000D01*
X232407419Y-153755000D01*
X232440022Y-153751789D01*
X232448269Y-153751789D01*
X232457433Y-153750825D01*
X232580591Y-153737011D01*
X232639065Y-153724582D01*
X232697786Y-153712955D01*
X232706589Y-153710229D01*
X232824718Y-153672756D01*
X232879662Y-153649207D01*
X232935005Y-153626396D01*
X232943111Y-153622013D01*
X233051711Y-153562309D01*
X233101041Y-153528532D01*
X233150894Y-153495410D01*
X233157995Y-153489536D01*
X233252930Y-153409875D01*
X233294757Y-153367162D01*
X233337228Y-153324987D01*
X233343052Y-153317845D01*
X233420708Y-153221262D01*
X233453471Y-153171194D01*
X233486913Y-153121616D01*
X233491239Y-153113480D01*
X233548656Y-153003652D01*
X233571074Y-152948164D01*
X233594247Y-152893039D01*
X233596910Y-152884217D01*
X233631900Y-152765329D01*
X233643107Y-152706578D01*
X233655136Y-152647981D01*
X233656035Y-152638809D01*
X233667268Y-152515389D01*
X233666851Y-152455606D01*
X233667269Y-152395745D01*
X233666369Y-152386574D01*
X233653414Y-152263323D01*
X233641387Y-152204733D01*
X233630178Y-152145971D01*
X233627514Y-152137149D01*
X233590867Y-152018762D01*
X233567692Y-151963632D01*
X233545278Y-151908153D01*
X233540951Y-151900017D01*
X233482007Y-151791002D01*
X233448565Y-151741422D01*
X233415803Y-151691355D01*
X233409978Y-151684214D01*
X233330982Y-151588724D01*
X233288566Y-151546603D01*
X233246684Y-151503834D01*
X233239584Y-151497961D01*
X233143545Y-151419633D01*
X233093703Y-151386518D01*
X233044362Y-151352733D01*
X233036256Y-151348350D01*
X232926832Y-151290168D01*
X232871554Y-151267384D01*
X232816545Y-151243807D01*
X232807741Y-151241082D01*
X232689101Y-151205262D01*
X232630372Y-151193633D01*
X232571905Y-151181206D01*
X232562747Y-151180244D01*
X232562744Y-151180243D01*
X232562741Y-151180243D01*
X232439402Y-151168150D01*
X232407419Y-151165000D01*
X229167581Y-151165000D01*
X229134977Y-151168211D01*
X229126731Y-151168211D01*
X229117566Y-151169175D01*
X228994409Y-151182989D01*
X228935942Y-151195416D01*
X228877213Y-151207045D01*
X228868410Y-151209771D01*
X228750282Y-151247244D01*
X228695310Y-151270805D01*
X228639995Y-151293604D01*
X228631889Y-151297987D01*
X228523288Y-151357691D01*
X228473958Y-151391468D01*
X228424105Y-151424590D01*
X228417005Y-151430464D01*
X228322069Y-151510125D01*
X228280206Y-151552874D01*
X228237772Y-151595013D01*
X228231948Y-151602154D01*
X228154293Y-151698738D01*
X228121547Y-151748779D01*
X228088087Y-151798384D01*
X228083761Y-151806520D01*
X228026344Y-151916348D01*
X228003926Y-151971836D01*
X227980753Y-152026961D01*
X227978090Y-152035783D01*
X227943100Y-152154671D01*
X227931892Y-152213429D01*
X227919864Y-152272020D01*
X227918965Y-152281191D01*
X227907732Y-152404611D01*
X227908149Y-152464394D01*
X227907731Y-152524255D01*
X151751461Y-152524255D01*
X151752268Y-152515389D01*
X151751851Y-152455606D01*
X151752269Y-152395745D01*
X151751369Y-152386574D01*
X151738414Y-152263323D01*
X151726387Y-152204733D01*
X151715178Y-152145971D01*
X151712514Y-152137149D01*
X151675867Y-152018762D01*
X151652692Y-151963632D01*
X151630278Y-151908153D01*
X151625951Y-151900017D01*
X151567007Y-151791002D01*
X151533565Y-151741422D01*
X151500803Y-151691355D01*
X151494978Y-151684214D01*
X151415982Y-151588724D01*
X151373566Y-151546603D01*
X151331684Y-151503834D01*
X151324584Y-151497961D01*
X151228545Y-151419633D01*
X151178703Y-151386518D01*
X151129362Y-151352733D01*
X151121256Y-151348350D01*
X151011832Y-151290168D01*
X150956554Y-151267384D01*
X150901545Y-151243807D01*
X150892741Y-151241082D01*
X150774101Y-151205262D01*
X150715372Y-151193633D01*
X150656905Y-151181206D01*
X150647747Y-151180244D01*
X150647744Y-151180243D01*
X150647741Y-151180243D01*
X150524402Y-151168150D01*
X150492419Y-151165000D01*
X147252581Y-151165000D01*
X147219977Y-151168211D01*
X147211731Y-151168211D01*
X147202566Y-151169175D01*
X147079409Y-151182989D01*
X147020942Y-151195416D01*
X146962213Y-151207045D01*
X146953410Y-151209771D01*
X146835282Y-151247244D01*
X146780310Y-151270805D01*
X146724995Y-151293604D01*
X146716889Y-151297987D01*
X146608288Y-151357691D01*
X146558958Y-151391468D01*
X146509105Y-151424590D01*
X146502005Y-151430464D01*
X146407069Y-151510125D01*
X146365206Y-151552874D01*
X146322772Y-151595013D01*
X146316948Y-151602154D01*
X146239293Y-151698738D01*
X146206547Y-151748779D01*
X146173087Y-151798384D01*
X146168761Y-151806520D01*
X146111344Y-151916348D01*
X146088926Y-151971836D01*
X146065753Y-152026961D01*
X146063090Y-152035783D01*
X146028100Y-152154671D01*
X146016892Y-152213429D01*
X146004864Y-152272020D01*
X146003965Y-152281191D01*
X145992732Y-152404611D01*
X145993149Y-152464394D01*
X145992731Y-152524255D01*
X100316461Y-152524255D01*
X100317268Y-152515389D01*
X100316851Y-152455606D01*
X100317269Y-152395745D01*
X100316369Y-152386574D01*
X100303414Y-152263323D01*
X100291387Y-152204733D01*
X100280178Y-152145971D01*
X100277514Y-152137149D01*
X100240867Y-152018762D01*
X100217692Y-151963632D01*
X100195278Y-151908153D01*
X100190951Y-151900017D01*
X100132007Y-151791002D01*
X100098565Y-151741422D01*
X100065803Y-151691355D01*
X100059978Y-151684214D01*
X99980982Y-151588724D01*
X99938566Y-151546603D01*
X99896684Y-151503834D01*
X99889584Y-151497961D01*
X99793545Y-151419633D01*
X99743703Y-151386518D01*
X99694362Y-151352733D01*
X99686256Y-151348350D01*
X99576832Y-151290168D01*
X99521554Y-151267384D01*
X99466545Y-151243807D01*
X99457741Y-151241082D01*
X99339101Y-151205262D01*
X99280372Y-151193633D01*
X99221905Y-151181206D01*
X99212747Y-151180244D01*
X99212744Y-151180243D01*
X99212741Y-151180243D01*
X99089402Y-151168150D01*
X99057419Y-151165000D01*
X95817581Y-151165000D01*
X95784977Y-151168211D01*
X95776731Y-151168211D01*
X95767566Y-151169175D01*
X95644409Y-151182989D01*
X95585942Y-151195416D01*
X95527213Y-151207045D01*
X95518410Y-151209771D01*
X95400282Y-151247244D01*
X95345310Y-151270805D01*
X95289995Y-151293604D01*
X95281889Y-151297987D01*
X95173288Y-151357691D01*
X95123958Y-151391468D01*
X95074105Y-151424590D01*
X95067005Y-151430464D01*
X94972069Y-151510125D01*
X94930206Y-151552874D01*
X94887772Y-151595013D01*
X94881948Y-151602154D01*
X94804293Y-151698738D01*
X94771547Y-151748779D01*
X94738087Y-151798384D01*
X94733761Y-151806520D01*
X94676344Y-151916348D01*
X94653926Y-151971836D01*
X94630753Y-152026961D01*
X94628090Y-152035783D01*
X94593100Y-152154671D01*
X94581892Y-152213429D01*
X94569864Y-152272020D01*
X94568965Y-152281191D01*
X94557732Y-152404611D01*
X94558149Y-152464394D01*
X94557731Y-152524255D01*
X37038861Y-152524255D01*
X26762000Y-142247394D01*
X26762000Y-141415324D01*
X32609000Y-141415324D01*
X32609000Y-141914676D01*
X32706418Y-142404432D01*
X32897512Y-142865773D01*
X33174937Y-143280968D01*
X33528032Y-143634063D01*
X33943227Y-143911488D01*
X34404568Y-144102582D01*
X34894324Y-144200000D01*
X35393676Y-144200000D01*
X35883432Y-144102582D01*
X36344773Y-143911488D01*
X36759968Y-143634063D01*
X37113063Y-143280968D01*
X37390488Y-142865773D01*
X37581582Y-142404432D01*
X37679000Y-141914676D01*
X37679000Y-141415324D01*
X37581582Y-140925568D01*
X37423946Y-140545000D01*
X49638461Y-140545000D01*
X49684510Y-141012542D01*
X49820887Y-141462116D01*
X50042351Y-141876446D01*
X50340391Y-142239609D01*
X50703554Y-142537649D01*
X51117884Y-142759113D01*
X51567458Y-142895490D01*
X51917843Y-142930000D01*
X52152157Y-142930000D01*
X52502542Y-142895490D01*
X52952116Y-142759113D01*
X53366446Y-142537649D01*
X53729609Y-142239609D01*
X54027649Y-141876446D01*
X54249113Y-141462116D01*
X54385490Y-141012542D01*
X54431539Y-140545000D01*
X54385490Y-140077458D01*
X54249113Y-139627884D01*
X54027649Y-139213554D01*
X53729609Y-138850391D01*
X53366446Y-138552351D01*
X52952116Y-138330887D01*
X52502542Y-138194510D01*
X52152157Y-138160000D01*
X51917843Y-138160000D01*
X51567458Y-138194510D01*
X51117884Y-138330887D01*
X50703554Y-138552351D01*
X50340391Y-138850391D01*
X50042351Y-139213554D01*
X49820887Y-139627884D01*
X49684510Y-140077458D01*
X49638461Y-140545000D01*
X37423946Y-140545000D01*
X37390488Y-140464227D01*
X37113063Y-140049032D01*
X36759968Y-139695937D01*
X36344773Y-139418512D01*
X35883432Y-139227418D01*
X35393676Y-139130000D01*
X34894324Y-139130000D01*
X34404568Y-139227418D01*
X33943227Y-139418512D01*
X33528032Y-139695937D01*
X33174937Y-140049032D01*
X32897512Y-140464227D01*
X32706418Y-140925568D01*
X32609000Y-141415324D01*
X26762000Y-141415324D01*
X26762000Y-134712418D01*
X72965000Y-134712418D01*
X72968211Y-134745021D01*
X72968211Y-134753269D01*
X72969175Y-134762433D01*
X72982989Y-134885591D01*
X72995418Y-134944065D01*
X73007045Y-135002786D01*
X73009771Y-135011589D01*
X73047244Y-135129718D01*
X73070793Y-135184662D01*
X73093604Y-135240005D01*
X73097987Y-135248111D01*
X73157691Y-135356711D01*
X73191468Y-135406041D01*
X73224590Y-135455894D01*
X73230464Y-135462995D01*
X73310125Y-135557930D01*
X73352838Y-135599757D01*
X73395013Y-135642228D01*
X73402155Y-135648052D01*
X73498738Y-135725708D01*
X73548806Y-135758471D01*
X73598384Y-135791913D01*
X73606520Y-135796239D01*
X73716348Y-135853656D01*
X73771836Y-135876074D01*
X73826961Y-135899247D01*
X73835777Y-135901908D01*
X73835779Y-135901909D01*
X73835781Y-135901909D01*
X73835783Y-135901910D01*
X73954671Y-135936900D01*
X74013422Y-135948107D01*
X74072019Y-135960136D01*
X74081191Y-135961035D01*
X74081196Y-135961035D01*
X74081199Y-135961036D01*
X74081202Y-135961036D01*
X74204611Y-135972268D01*
X74264394Y-135971851D01*
X74324255Y-135972269D01*
X74333416Y-135971370D01*
X74333418Y-135971370D01*
X74333426Y-135971369D01*
X74456677Y-135958414D01*
X74515274Y-135946385D01*
X74574028Y-135935178D01*
X74582850Y-135932514D01*
X74701238Y-135895867D01*
X74756368Y-135872692D01*
X74811847Y-135850278D01*
X74819983Y-135845951D01*
X74928998Y-135787008D01*
X74978582Y-135753563D01*
X75028645Y-135720803D01*
X75035786Y-135714978D01*
X75131276Y-135635982D01*
X75173430Y-135593533D01*
X75216165Y-135551685D01*
X75222039Y-135544584D01*
X75300367Y-135448545D01*
X75333472Y-135398719D01*
X75367267Y-135349362D01*
X75371650Y-135341256D01*
X75429832Y-135231833D01*
X75452621Y-135176541D01*
X75476193Y-135121545D01*
X75478918Y-135112742D01*
X75514737Y-134994101D01*
X75526357Y-134935417D01*
X75538794Y-134876906D01*
X75539756Y-134867750D01*
X75539757Y-134867745D01*
X75539757Y-134867741D01*
X75551850Y-134744403D01*
X75551850Y-134744402D01*
X75555000Y-134712419D01*
X75555000Y-131472581D01*
X75551789Y-131439977D01*
X75551789Y-131431731D01*
X75550825Y-131422566D01*
X75537011Y-131299409D01*
X75524584Y-131240942D01*
X75512955Y-131182213D01*
X75510229Y-131173410D01*
X75472756Y-131055282D01*
X75449195Y-131000310D01*
X75426396Y-130944995D01*
X75422013Y-130936889D01*
X75362309Y-130828288D01*
X75328532Y-130778958D01*
X75295410Y-130729105D01*
X75289536Y-130722005D01*
X75209875Y-130627069D01*
X75167126Y-130585206D01*
X75124987Y-130542772D01*
X75117846Y-130536948D01*
X75021262Y-130459293D01*
X74971221Y-130426547D01*
X74921616Y-130393087D01*
X74913480Y-130388761D01*
X74803652Y-130331344D01*
X74748164Y-130308926D01*
X74693039Y-130285753D01*
X74684223Y-130283092D01*
X74684221Y-130283091D01*
X74684219Y-130283091D01*
X74684217Y-130283090D01*
X74565329Y-130248100D01*
X74506571Y-130236892D01*
X74447980Y-130224864D01*
X74438809Y-130223965D01*
X74438804Y-130223965D01*
X74438801Y-130223964D01*
X74438798Y-130223964D01*
X74315389Y-130212732D01*
X74255606Y-130213149D01*
X74195745Y-130212731D01*
X74186584Y-130213630D01*
X74186582Y-130213630D01*
X74186574Y-130213631D01*
X74063323Y-130226586D01*
X74004733Y-130238613D01*
X73945971Y-130249822D01*
X73937149Y-130252486D01*
X73818762Y-130289133D01*
X73763632Y-130312308D01*
X73708153Y-130334722D01*
X73700017Y-130339049D01*
X73591002Y-130397993D01*
X73541422Y-130431435D01*
X73491355Y-130464197D01*
X73484214Y-130470022D01*
X73388724Y-130549018D01*
X73346603Y-130591434D01*
X73303834Y-130633316D01*
X73297961Y-130640416D01*
X73219633Y-130736455D01*
X73186518Y-130786297D01*
X73152733Y-130835638D01*
X73148350Y-130843744D01*
X73090168Y-130953168D01*
X73067384Y-131008446D01*
X73043807Y-131063455D01*
X73041082Y-131072259D01*
X73005262Y-131190899D01*
X72993633Y-131249628D01*
X72981206Y-131308095D01*
X72980244Y-131317253D01*
X72980244Y-131317254D01*
X72980243Y-131317259D01*
X72968150Y-131440598D01*
X72968150Y-131440608D01*
X72965001Y-131472581D01*
X72965000Y-134712418D01*
X26762000Y-134712418D01*
X26762000Y-132902000D01*
X29810000Y-132902000D01*
X29834776Y-132899560D01*
X29858601Y-132892333D01*
X29880557Y-132880597D01*
X29899803Y-132864803D01*
X29915597Y-132845557D01*
X29927333Y-132823601D01*
X29934560Y-132799776D01*
X29937000Y-132775000D01*
X29937000Y-123250000D01*
X29934560Y-123225224D01*
X29927333Y-123201399D01*
X29915597Y-123179443D01*
X29899803Y-123160197D01*
X29880557Y-123144403D01*
X29858601Y-123132667D01*
X29834776Y-123125440D01*
X29810000Y-123123000D01*
X26762000Y-123123000D01*
X26762000Y-119305413D01*
X38379192Y-119305413D01*
X38474956Y-119569814D01*
X38764571Y-119710704D01*
X39076108Y-119792384D01*
X39397595Y-119811718D01*
X39716675Y-119767961D01*
X40021088Y-119662795D01*
X40195044Y-119569814D01*
X40290808Y-119305413D01*
X39335000Y-118349605D01*
X38379192Y-119305413D01*
X26762000Y-119305413D01*
X26762000Y-118232595D01*
X37693282Y-118232595D01*
X37737039Y-118551675D01*
X37842205Y-118856088D01*
X37935186Y-119030044D01*
X38199587Y-119125808D01*
X39155395Y-118170000D01*
X39514605Y-118170000D01*
X40470413Y-119125808D01*
X40734814Y-119030044D01*
X40875704Y-118740429D01*
X40957384Y-118428892D01*
X40976718Y-118107405D01*
X40932961Y-117788325D01*
X40827795Y-117483912D01*
X40734814Y-117309956D01*
X40470413Y-117214192D01*
X39514605Y-118170000D01*
X39155395Y-118170000D01*
X38199587Y-117214192D01*
X37935186Y-117309956D01*
X37794296Y-117599571D01*
X37712616Y-117911108D01*
X37693282Y-118232595D01*
X26762000Y-118232595D01*
X26762000Y-117034587D01*
X38379192Y-117034587D01*
X39335000Y-117990395D01*
X40290808Y-117034587D01*
X40195044Y-116770186D01*
X39905429Y-116629296D01*
X39593892Y-116547616D01*
X39272405Y-116528282D01*
X38953325Y-116572039D01*
X38648912Y-116677205D01*
X38474956Y-116770186D01*
X38379192Y-117034587D01*
X26762000Y-117034587D01*
X26762000Y-45272000D01*
X36668000Y-45272000D01*
X36668000Y-50098000D01*
G36*
X264633000Y-147253000D02*
G01*
X259807000Y-147253000D01*
X259807000Y-134077418D01*
X260925000Y-134077418D01*
X260928211Y-134110021D01*
X260928211Y-134118269D01*
X260929175Y-134127433D01*
X260942989Y-134250591D01*
X260955418Y-134309065D01*
X260967045Y-134367786D01*
X260969771Y-134376589D01*
X261007244Y-134494718D01*
X261030793Y-134549662D01*
X261053604Y-134605005D01*
X261057987Y-134613111D01*
X261117691Y-134721711D01*
X261151468Y-134771041D01*
X261184590Y-134820894D01*
X261190464Y-134827995D01*
X261270125Y-134922930D01*
X261312838Y-134964757D01*
X261355013Y-135007228D01*
X261362155Y-135013052D01*
X261458738Y-135090708D01*
X261508806Y-135123471D01*
X261558384Y-135156913D01*
X261566520Y-135161239D01*
X261676348Y-135218656D01*
X261731836Y-135241074D01*
X261786961Y-135264247D01*
X261795777Y-135266908D01*
X261795779Y-135266909D01*
X261795781Y-135266909D01*
X261795783Y-135266910D01*
X261914671Y-135301900D01*
X261973422Y-135313107D01*
X262032019Y-135325136D01*
X262041191Y-135326035D01*
X262041196Y-135326035D01*
X262041199Y-135326036D01*
X262041202Y-135326036D01*
X262164611Y-135337268D01*
X262224394Y-135336851D01*
X262284255Y-135337269D01*
X262293416Y-135336370D01*
X262293418Y-135336370D01*
X262293426Y-135336369D01*
X262416677Y-135323414D01*
X262475274Y-135311385D01*
X262534028Y-135300178D01*
X262542850Y-135297514D01*
X262661238Y-135260867D01*
X262716368Y-135237692D01*
X262771847Y-135215278D01*
X262779983Y-135210951D01*
X262888998Y-135152008D01*
X262938582Y-135118563D01*
X262988645Y-135085803D01*
X262995786Y-135079978D01*
X263091276Y-135000982D01*
X263133430Y-134958533D01*
X263176165Y-134916685D01*
X263182039Y-134909584D01*
X263260367Y-134813545D01*
X263293472Y-134763719D01*
X263327267Y-134714362D01*
X263331650Y-134706256D01*
X263389832Y-134596833D01*
X263412621Y-134541541D01*
X263436193Y-134486545D01*
X263438918Y-134477742D01*
X263474737Y-134359101D01*
X263486357Y-134300417D01*
X263498794Y-134241906D01*
X263499756Y-134232750D01*
X263499757Y-134232745D01*
X263499757Y-134232741D01*
X263511850Y-134109403D01*
X263511850Y-134109402D01*
X263515000Y-134077419D01*
X263515000Y-130837581D01*
X263511789Y-130804977D01*
X263511789Y-130796731D01*
X263510825Y-130787566D01*
X263497011Y-130664409D01*
X263484584Y-130605942D01*
X263472955Y-130547213D01*
X263470229Y-130538410D01*
X263432756Y-130420282D01*
X263409195Y-130365310D01*
X263386396Y-130309995D01*
X263382013Y-130301889D01*
X263322309Y-130193288D01*
X263288532Y-130143958D01*
X263255410Y-130094105D01*
X263249536Y-130087005D01*
X263169875Y-129992069D01*
X263127126Y-129950206D01*
X263084987Y-129907772D01*
X263077846Y-129901948D01*
X262981262Y-129824293D01*
X262931221Y-129791547D01*
X262881616Y-129758087D01*
X262873480Y-129753761D01*
X262763652Y-129696344D01*
X262708164Y-129673926D01*
X262653039Y-129650753D01*
X262644223Y-129648092D01*
X262644221Y-129648091D01*
X262644219Y-129648091D01*
X262644217Y-129648090D01*
X262525329Y-129613100D01*
X262466571Y-129601892D01*
X262407980Y-129589864D01*
X262398809Y-129588965D01*
X262398804Y-129588965D01*
X262398801Y-129588964D01*
X262398798Y-129588964D01*
X262275389Y-129577732D01*
X262215606Y-129578149D01*
X262155745Y-129577731D01*
X262146584Y-129578630D01*
X262146582Y-129578630D01*
X262146574Y-129578631D01*
X262023323Y-129591586D01*
X261964733Y-129603613D01*
X261905971Y-129614822D01*
X261897149Y-129617486D01*
X261778762Y-129654133D01*
X261723632Y-129677308D01*
X261668153Y-129699722D01*
X261660017Y-129704049D01*
X261551002Y-129762993D01*
X261501422Y-129796435D01*
X261451355Y-129829197D01*
X261444214Y-129835022D01*
X261348724Y-129914018D01*
X261306603Y-129956434D01*
X261263834Y-129998316D01*
X261257961Y-130005416D01*
X261179633Y-130101455D01*
X261146518Y-130151297D01*
X261112733Y-130200638D01*
X261108350Y-130208744D01*
X261050168Y-130318168D01*
X261027384Y-130373446D01*
X261003807Y-130428455D01*
X261001082Y-130437259D01*
X260965262Y-130555899D01*
X260953633Y-130614628D01*
X260941206Y-130673095D01*
X260940244Y-130682253D01*
X260940244Y-130682254D01*
X260940243Y-130682259D01*
X260928150Y-130805598D01*
X260928150Y-130805608D01*
X260925001Y-130837581D01*
X260925000Y-134077418D01*
X259807000Y-134077418D01*
X259807000Y-117535000D01*
X259804560Y-117510224D01*
X259797333Y-117486399D01*
X259785597Y-117464443D01*
X259769803Y-117445197D01*
X259750557Y-117429403D01*
X259728601Y-117417667D01*
X259704776Y-117410440D01*
X259680000Y-117408000D01*
X233772000Y-117408000D01*
X233772000Y-114424255D01*
X238702731Y-114424255D01*
X238703631Y-114433426D01*
X238716586Y-114556677D01*
X238728615Y-114615274D01*
X238739822Y-114674028D01*
X238742486Y-114682850D01*
X238779133Y-114801238D01*
X238802308Y-114856368D01*
X238824722Y-114911847D01*
X238829049Y-114919983D01*
X238887992Y-115028998D01*
X238921437Y-115078582D01*
X238954197Y-115128645D01*
X238960022Y-115135786D01*
X239039018Y-115231276D01*
X239081467Y-115273430D01*
X239123315Y-115316165D01*
X239130416Y-115322039D01*
X239226455Y-115400367D01*
X239276281Y-115433472D01*
X239325638Y-115467267D01*
X239333744Y-115471650D01*
X239443167Y-115529832D01*
X239498459Y-115552621D01*
X239553455Y-115576193D01*
X239562258Y-115578918D01*
X239680899Y-115614737D01*
X239739583Y-115626357D01*
X239798094Y-115638794D01*
X239807250Y-115639756D01*
X239807255Y-115639757D01*
X239807259Y-115639757D01*
X239930597Y-115651850D01*
X239930598Y-115651850D01*
X239962581Y-115655000D01*
X243202419Y-115655000D01*
X243235022Y-115651789D01*
X243243269Y-115651789D01*
X243252433Y-115650825D01*
X243375591Y-115637011D01*
X243434065Y-115624582D01*
X243492786Y-115612955D01*
X243501589Y-115610229D01*
X243619718Y-115572756D01*
X243674662Y-115549207D01*
X243730005Y-115526396D01*
X243738111Y-115522013D01*
X243846711Y-115462309D01*
X243896041Y-115428532D01*
X243945894Y-115395410D01*
X243952995Y-115389536D01*
X244047930Y-115309875D01*
X244089757Y-115267162D01*
X244132228Y-115224987D01*
X244138052Y-115217845D01*
X244215708Y-115121262D01*
X244248471Y-115071194D01*
X244281913Y-115021616D01*
X244286239Y-115013480D01*
X244343656Y-114903652D01*
X244366074Y-114848164D01*
X244389247Y-114793039D01*
X244391910Y-114784217D01*
X244426900Y-114665329D01*
X244438107Y-114606578D01*
X244450136Y-114547981D01*
X244451035Y-114538809D01*
X244462268Y-114415389D01*
X244461851Y-114355606D01*
X244462269Y-114295745D01*
X244461369Y-114286574D01*
X244448414Y-114163323D01*
X244436387Y-114104733D01*
X244425178Y-114045971D01*
X244422514Y-114037149D01*
X244385867Y-113918762D01*
X244362692Y-113863632D01*
X244340278Y-113808153D01*
X244335951Y-113800017D01*
X244277007Y-113691002D01*
X244243565Y-113641422D01*
X244210803Y-113591355D01*
X244204978Y-113584214D01*
X244125982Y-113488724D01*
X244083566Y-113446603D01*
X244041684Y-113403834D01*
X244034584Y-113397961D01*
X243938545Y-113319633D01*
X243888703Y-113286518D01*
X243839362Y-113252733D01*
X243831256Y-113248350D01*
X243721832Y-113190168D01*
X243666554Y-113167384D01*
X243611545Y-113143807D01*
X243602741Y-113141082D01*
X243484101Y-113105262D01*
X243425372Y-113093633D01*
X243366905Y-113081206D01*
X243357747Y-113080244D01*
X243357744Y-113080243D01*
X243357741Y-113080243D01*
X243234402Y-113068150D01*
X243202419Y-113065000D01*
X239962581Y-113065000D01*
X239929977Y-113068211D01*
X239921731Y-113068211D01*
X239912566Y-113069175D01*
X239789409Y-113082989D01*
X239730942Y-113095416D01*
X239672213Y-113107045D01*
X239663410Y-113109771D01*
X239545282Y-113147244D01*
X239490310Y-113170805D01*
X239434995Y-113193604D01*
X239426889Y-113197987D01*
X239318288Y-113257691D01*
X239268958Y-113291468D01*
X239219105Y-113324590D01*
X239212005Y-113330464D01*
X239117069Y-113410125D01*
X239075206Y-113452874D01*
X239032772Y-113495013D01*
X239026948Y-113502154D01*
X238949293Y-113598738D01*
X238916547Y-113648779D01*
X238883087Y-113698384D01*
X238878761Y-113706520D01*
X238821344Y-113816348D01*
X238798926Y-113871836D01*
X238775753Y-113926961D01*
X238773090Y-113935783D01*
X238738100Y-114054671D01*
X238726892Y-114113429D01*
X238714864Y-114172020D01*
X238713965Y-114181191D01*
X238702732Y-114304611D01*
X238703149Y-114364394D01*
X238702731Y-114424255D01*
X233772000Y-114424255D01*
X233772000Y-113777606D01*
X234967606Y-112582000D01*
X250663000Y-112582000D01*
X250663000Y-113090000D01*
X250665440Y-113114776D01*
X250672667Y-113138601D01*
X250684403Y-113160557D01*
X250700197Y-113179803D01*
X250719443Y-113195597D01*
X250741399Y-113207333D01*
X250765224Y-113214560D01*
X250790000Y-113217000D01*
X259680000Y-113217000D01*
X259704776Y-113214560D01*
X259728601Y-113207333D01*
X259750557Y-113195597D01*
X259769803Y-113179803D01*
X259785597Y-113160557D01*
X259797333Y-113138601D01*
X259804560Y-113114776D01*
X259807000Y-113090000D01*
X259807000Y-96612418D01*
X260925000Y-96612418D01*
X260928211Y-96645021D01*
X260928211Y-96653269D01*
X260929175Y-96662433D01*
X260942989Y-96785591D01*
X260955418Y-96844065D01*
X260967045Y-96902786D01*
X260969771Y-96911589D01*
X261007244Y-97029718D01*
X261030793Y-97084662D01*
X261053604Y-97140005D01*
X261057987Y-97148111D01*
X261117691Y-97256711D01*
X261151468Y-97306041D01*
X261184590Y-97355894D01*
X261190464Y-97362995D01*
X261270125Y-97457930D01*
X261312838Y-97499757D01*
X261355013Y-97542228D01*
X261362155Y-97548052D01*
X261458738Y-97625708D01*
X261508806Y-97658471D01*
X261558384Y-97691913D01*
X261566520Y-97696239D01*
X261676348Y-97753656D01*
X261731836Y-97776074D01*
X261786961Y-97799247D01*
X261795777Y-97801908D01*
X261795779Y-97801909D01*
X261795781Y-97801909D01*
X261795783Y-97801910D01*
X261914671Y-97836900D01*
X261973422Y-97848107D01*
X262032019Y-97860136D01*
X262041191Y-97861035D01*
X262041196Y-97861035D01*
X262041199Y-97861036D01*
X262041202Y-97861036D01*
X262164611Y-97872268D01*
X262224394Y-97871851D01*
X262284255Y-97872269D01*
X262293416Y-97871370D01*
X262293418Y-97871370D01*
X262293426Y-97871369D01*
X262416677Y-97858414D01*
X262475274Y-97846385D01*
X262534028Y-97835178D01*
X262542850Y-97832514D01*
X262661238Y-97795867D01*
X262716368Y-97772692D01*
X262771847Y-97750278D01*
X262779983Y-97745951D01*
X262888998Y-97687008D01*
X262938582Y-97653563D01*
X262988645Y-97620803D01*
X262995786Y-97614978D01*
X263091276Y-97535982D01*
X263133430Y-97493533D01*
X263176165Y-97451685D01*
X263182039Y-97444584D01*
X263260367Y-97348545D01*
X263293472Y-97298719D01*
X263327267Y-97249362D01*
X263331650Y-97241256D01*
X263389832Y-97131833D01*
X263412621Y-97076541D01*
X263436193Y-97021545D01*
X263438918Y-97012742D01*
X263474737Y-96894101D01*
X263486357Y-96835417D01*
X263498794Y-96776906D01*
X263499756Y-96767750D01*
X263499757Y-96767745D01*
X263499757Y-96767741D01*
X263511850Y-96644403D01*
X263511850Y-96644402D01*
X263515000Y-96612419D01*
X263515000Y-93372581D01*
X263511789Y-93339977D01*
X263511789Y-93331731D01*
X263510825Y-93322566D01*
X263497011Y-93199409D01*
X263484584Y-93140942D01*
X263472955Y-93082213D01*
X263470229Y-93073410D01*
X263432756Y-92955282D01*
X263409195Y-92900310D01*
X263386396Y-92844995D01*
X263382013Y-92836889D01*
X263322309Y-92728288D01*
X263288532Y-92678958D01*
X263255410Y-92629105D01*
X263249536Y-92622005D01*
X263169875Y-92527069D01*
X263127126Y-92485206D01*
X263084987Y-92442772D01*
X263077846Y-92436948D01*
X262981262Y-92359293D01*
X262931221Y-92326547D01*
X262881616Y-92293087D01*
X262873480Y-92288761D01*
X262763652Y-92231344D01*
X262708164Y-92208926D01*
X262653039Y-92185753D01*
X262644223Y-92183092D01*
X262644221Y-92183091D01*
X262644219Y-92183091D01*
X262644217Y-92183090D01*
X262525329Y-92148100D01*
X262466571Y-92136892D01*
X262407980Y-92124864D01*
X262398809Y-92123965D01*
X262398804Y-92123965D01*
X262398801Y-92123964D01*
X262398798Y-92123964D01*
X262275389Y-92112732D01*
X262215606Y-92113149D01*
X262155745Y-92112731D01*
X262146584Y-92113630D01*
X262146582Y-92113630D01*
X262146574Y-92113631D01*
X262023323Y-92126586D01*
X261964733Y-92138613D01*
X261905971Y-92149822D01*
X261897149Y-92152486D01*
X261778762Y-92189133D01*
X261723632Y-92212308D01*
X261668153Y-92234722D01*
X261660017Y-92239049D01*
X261551002Y-92297993D01*
X261501422Y-92331435D01*
X261451355Y-92364197D01*
X261444214Y-92370022D01*
X261348724Y-92449018D01*
X261306603Y-92491434D01*
X261263834Y-92533316D01*
X261257961Y-92540416D01*
X261179633Y-92636455D01*
X261146518Y-92686297D01*
X261112733Y-92735638D01*
X261108350Y-92743744D01*
X261050168Y-92853168D01*
X261027384Y-92908446D01*
X261003807Y-92963455D01*
X261001082Y-92972259D01*
X260965262Y-93090899D01*
X260953633Y-93149628D01*
X260941206Y-93208095D01*
X260940244Y-93217253D01*
X260940244Y-93217254D01*
X260940243Y-93217259D01*
X260928150Y-93340598D01*
X260928150Y-93340608D01*
X260925001Y-93372581D01*
X260925000Y-96612418D01*
X259807000Y-96612418D01*
X259807000Y-78564051D01*
X260079051Y-78292000D01*
X264633000Y-78292000D01*
X264633000Y-147253000D01*
X264633000Y-147253000D01*
G37*
X264633000Y-147253000D02*
X259807000Y-147253000D01*
X259807000Y-134077418D01*
X260925000Y-134077418D01*
X260928211Y-134110021D01*
X260928211Y-134118269D01*
X260929175Y-134127433D01*
X260942989Y-134250591D01*
X260955418Y-134309065D01*
X260967045Y-134367786D01*
X260969771Y-134376589D01*
X261007244Y-134494718D01*
X261030793Y-134549662D01*
X261053604Y-134605005D01*
X261057987Y-134613111D01*
X261117691Y-134721711D01*
X261151468Y-134771041D01*
X261184590Y-134820894D01*
X261190464Y-134827995D01*
X261270125Y-134922930D01*
X261312838Y-134964757D01*
X261355013Y-135007228D01*
X261362155Y-135013052D01*
X261458738Y-135090708D01*
X261508806Y-135123471D01*
X261558384Y-135156913D01*
X261566520Y-135161239D01*
X261676348Y-135218656D01*
X261731836Y-135241074D01*
X261786961Y-135264247D01*
X261795777Y-135266908D01*
X261795779Y-135266909D01*
X261795781Y-135266909D01*
X261795783Y-135266910D01*
X261914671Y-135301900D01*
X261973422Y-135313107D01*
X262032019Y-135325136D01*
X262041191Y-135326035D01*
X262041196Y-135326035D01*
X262041199Y-135326036D01*
X262041202Y-135326036D01*
X262164611Y-135337268D01*
X262224394Y-135336851D01*
X262284255Y-135337269D01*
X262293416Y-135336370D01*
X262293418Y-135336370D01*
X262293426Y-135336369D01*
X262416677Y-135323414D01*
X262475274Y-135311385D01*
X262534028Y-135300178D01*
X262542850Y-135297514D01*
X262661238Y-135260867D01*
X262716368Y-135237692D01*
X262771847Y-135215278D01*
X262779983Y-135210951D01*
X262888998Y-135152008D01*
X262938582Y-135118563D01*
X262988645Y-135085803D01*
X262995786Y-135079978D01*
X263091276Y-135000982D01*
X263133430Y-134958533D01*
X263176165Y-134916685D01*
X263182039Y-134909584D01*
X263260367Y-134813545D01*
X263293472Y-134763719D01*
X263327267Y-134714362D01*
X263331650Y-134706256D01*
X263389832Y-134596833D01*
X263412621Y-134541541D01*
X263436193Y-134486545D01*
X263438918Y-134477742D01*
X263474737Y-134359101D01*
X263486357Y-134300417D01*
X263498794Y-134241906D01*
X263499756Y-134232750D01*
X263499757Y-134232745D01*
X263499757Y-134232741D01*
X263511850Y-134109403D01*
X263511850Y-134109402D01*
X263515000Y-134077419D01*
X263515000Y-130837581D01*
X263511789Y-130804977D01*
X263511789Y-130796731D01*
X263510825Y-130787566D01*
X263497011Y-130664409D01*
X263484584Y-130605942D01*
X263472955Y-130547213D01*
X263470229Y-130538410D01*
X263432756Y-130420282D01*
X263409195Y-130365310D01*
X263386396Y-130309995D01*
X263382013Y-130301889D01*
X263322309Y-130193288D01*
X263288532Y-130143958D01*
X263255410Y-130094105D01*
X263249536Y-130087005D01*
X263169875Y-129992069D01*
X263127126Y-129950206D01*
X263084987Y-129907772D01*
X263077846Y-129901948D01*
X262981262Y-129824293D01*
X262931221Y-129791547D01*
X262881616Y-129758087D01*
X262873480Y-129753761D01*
X262763652Y-129696344D01*
X262708164Y-129673926D01*
X262653039Y-129650753D01*
X262644223Y-129648092D01*
X262644221Y-129648091D01*
X262644219Y-129648091D01*
X262644217Y-129648090D01*
X262525329Y-129613100D01*
X262466571Y-129601892D01*
X262407980Y-129589864D01*
X262398809Y-129588965D01*
X262398804Y-129588965D01*
X262398801Y-129588964D01*
X262398798Y-129588964D01*
X262275389Y-129577732D01*
X262215606Y-129578149D01*
X262155745Y-129577731D01*
X262146584Y-129578630D01*
X262146582Y-129578630D01*
X262146574Y-129578631D01*
X262023323Y-129591586D01*
X261964733Y-129603613D01*
X261905971Y-129614822D01*
X261897149Y-129617486D01*
X261778762Y-129654133D01*
X261723632Y-129677308D01*
X261668153Y-129699722D01*
X261660017Y-129704049D01*
X261551002Y-129762993D01*
X261501422Y-129796435D01*
X261451355Y-129829197D01*
X261444214Y-129835022D01*
X261348724Y-129914018D01*
X261306603Y-129956434D01*
X261263834Y-129998316D01*
X261257961Y-130005416D01*
X261179633Y-130101455D01*
X261146518Y-130151297D01*
X261112733Y-130200638D01*
X261108350Y-130208744D01*
X261050168Y-130318168D01*
X261027384Y-130373446D01*
X261003807Y-130428455D01*
X261001082Y-130437259D01*
X260965262Y-130555899D01*
X260953633Y-130614628D01*
X260941206Y-130673095D01*
X260940244Y-130682253D01*
X260940244Y-130682254D01*
X260940243Y-130682259D01*
X260928150Y-130805598D01*
X260928150Y-130805608D01*
X260925001Y-130837581D01*
X260925000Y-134077418D01*
X259807000Y-134077418D01*
X259807000Y-117535000D01*
X259804560Y-117510224D01*
X259797333Y-117486399D01*
X259785597Y-117464443D01*
X259769803Y-117445197D01*
X259750557Y-117429403D01*
X259728601Y-117417667D01*
X259704776Y-117410440D01*
X259680000Y-117408000D01*
X233772000Y-117408000D01*
X233772000Y-114424255D01*
X238702731Y-114424255D01*
X238703631Y-114433426D01*
X238716586Y-114556677D01*
X238728615Y-114615274D01*
X238739822Y-114674028D01*
X238742486Y-114682850D01*
X238779133Y-114801238D01*
X238802308Y-114856368D01*
X238824722Y-114911847D01*
X238829049Y-114919983D01*
X238887992Y-115028998D01*
X238921437Y-115078582D01*
X238954197Y-115128645D01*
X238960022Y-115135786D01*
X239039018Y-115231276D01*
X239081467Y-115273430D01*
X239123315Y-115316165D01*
X239130416Y-115322039D01*
X239226455Y-115400367D01*
X239276281Y-115433472D01*
X239325638Y-115467267D01*
X239333744Y-115471650D01*
X239443167Y-115529832D01*
X239498459Y-115552621D01*
X239553455Y-115576193D01*
X239562258Y-115578918D01*
X239680899Y-115614737D01*
X239739583Y-115626357D01*
X239798094Y-115638794D01*
X239807250Y-115639756D01*
X239807255Y-115639757D01*
X239807259Y-115639757D01*
X239930597Y-115651850D01*
X239930598Y-115651850D01*
X239962581Y-115655000D01*
X243202419Y-115655000D01*
X243235022Y-115651789D01*
X243243269Y-115651789D01*
X243252433Y-115650825D01*
X243375591Y-115637011D01*
X243434065Y-115624582D01*
X243492786Y-115612955D01*
X243501589Y-115610229D01*
X243619718Y-115572756D01*
X243674662Y-115549207D01*
X243730005Y-115526396D01*
X243738111Y-115522013D01*
X243846711Y-115462309D01*
X243896041Y-115428532D01*
X243945894Y-115395410D01*
X243952995Y-115389536D01*
X244047930Y-115309875D01*
X244089757Y-115267162D01*
X244132228Y-115224987D01*
X244138052Y-115217845D01*
X244215708Y-115121262D01*
X244248471Y-115071194D01*
X244281913Y-115021616D01*
X244286239Y-115013480D01*
X244343656Y-114903652D01*
X244366074Y-114848164D01*
X244389247Y-114793039D01*
X244391910Y-114784217D01*
X244426900Y-114665329D01*
X244438107Y-114606578D01*
X244450136Y-114547981D01*
X244451035Y-114538809D01*
X244462268Y-114415389D01*
X244461851Y-114355606D01*
X244462269Y-114295745D01*
X244461369Y-114286574D01*
X244448414Y-114163323D01*
X244436387Y-114104733D01*
X244425178Y-114045971D01*
X244422514Y-114037149D01*
X244385867Y-113918762D01*
X244362692Y-113863632D01*
X244340278Y-113808153D01*
X244335951Y-113800017D01*
X244277007Y-113691002D01*
X244243565Y-113641422D01*
X244210803Y-113591355D01*
X244204978Y-113584214D01*
X244125982Y-113488724D01*
X244083566Y-113446603D01*
X244041684Y-113403834D01*
X244034584Y-113397961D01*
X243938545Y-113319633D01*
X243888703Y-113286518D01*
X243839362Y-113252733D01*
X243831256Y-113248350D01*
X243721832Y-113190168D01*
X243666554Y-113167384D01*
X243611545Y-113143807D01*
X243602741Y-113141082D01*
X243484101Y-113105262D01*
X243425372Y-113093633D01*
X243366905Y-113081206D01*
X243357747Y-113080244D01*
X243357744Y-113080243D01*
X243357741Y-113080243D01*
X243234402Y-113068150D01*
X243202419Y-113065000D01*
X239962581Y-113065000D01*
X239929977Y-113068211D01*
X239921731Y-113068211D01*
X239912566Y-113069175D01*
X239789409Y-113082989D01*
X239730942Y-113095416D01*
X239672213Y-113107045D01*
X239663410Y-113109771D01*
X239545282Y-113147244D01*
X239490310Y-113170805D01*
X239434995Y-113193604D01*
X239426889Y-113197987D01*
X239318288Y-113257691D01*
X239268958Y-113291468D01*
X239219105Y-113324590D01*
X239212005Y-113330464D01*
X239117069Y-113410125D01*
X239075206Y-113452874D01*
X239032772Y-113495013D01*
X239026948Y-113502154D01*
X238949293Y-113598738D01*
X238916547Y-113648779D01*
X238883087Y-113698384D01*
X238878761Y-113706520D01*
X238821344Y-113816348D01*
X238798926Y-113871836D01*
X238775753Y-113926961D01*
X238773090Y-113935783D01*
X238738100Y-114054671D01*
X238726892Y-114113429D01*
X238714864Y-114172020D01*
X238713965Y-114181191D01*
X238702732Y-114304611D01*
X238703149Y-114364394D01*
X238702731Y-114424255D01*
X233772000Y-114424255D01*
X233772000Y-113777606D01*
X234967606Y-112582000D01*
X250663000Y-112582000D01*
X250663000Y-113090000D01*
X250665440Y-113114776D01*
X250672667Y-113138601D01*
X250684403Y-113160557D01*
X250700197Y-113179803D01*
X250719443Y-113195597D01*
X250741399Y-113207333D01*
X250765224Y-113214560D01*
X250790000Y-113217000D01*
X259680000Y-113217000D01*
X259704776Y-113214560D01*
X259728601Y-113207333D01*
X259750557Y-113195597D01*
X259769803Y-113179803D01*
X259785597Y-113160557D01*
X259797333Y-113138601D01*
X259804560Y-113114776D01*
X259807000Y-113090000D01*
X259807000Y-96612418D01*
X260925000Y-96612418D01*
X260928211Y-96645021D01*
X260928211Y-96653269D01*
X260929175Y-96662433D01*
X260942989Y-96785591D01*
X260955418Y-96844065D01*
X260967045Y-96902786D01*
X260969771Y-96911589D01*
X261007244Y-97029718D01*
X261030793Y-97084662D01*
X261053604Y-97140005D01*
X261057987Y-97148111D01*
X261117691Y-97256711D01*
X261151468Y-97306041D01*
X261184590Y-97355894D01*
X261190464Y-97362995D01*
X261270125Y-97457930D01*
X261312838Y-97499757D01*
X261355013Y-97542228D01*
X261362155Y-97548052D01*
X261458738Y-97625708D01*
X261508806Y-97658471D01*
X261558384Y-97691913D01*
X261566520Y-97696239D01*
X261676348Y-97753656D01*
X261731836Y-97776074D01*
X261786961Y-97799247D01*
X261795777Y-97801908D01*
X261795779Y-97801909D01*
X261795781Y-97801909D01*
X261795783Y-97801910D01*
X261914671Y-97836900D01*
X261973422Y-97848107D01*
X262032019Y-97860136D01*
X262041191Y-97861035D01*
X262041196Y-97861035D01*
X262041199Y-97861036D01*
X262041202Y-97861036D01*
X262164611Y-97872268D01*
X262224394Y-97871851D01*
X262284255Y-97872269D01*
X262293416Y-97871370D01*
X262293418Y-97871370D01*
X262293426Y-97871369D01*
X262416677Y-97858414D01*
X262475274Y-97846385D01*
X262534028Y-97835178D01*
X262542850Y-97832514D01*
X262661238Y-97795867D01*
X262716368Y-97772692D01*
X262771847Y-97750278D01*
X262779983Y-97745951D01*
X262888998Y-97687008D01*
X262938582Y-97653563D01*
X262988645Y-97620803D01*
X262995786Y-97614978D01*
X263091276Y-97535982D01*
X263133430Y-97493533D01*
X263176165Y-97451685D01*
X263182039Y-97444584D01*
X263260367Y-97348545D01*
X263293472Y-97298719D01*
X263327267Y-97249362D01*
X263331650Y-97241256D01*
X263389832Y-97131833D01*
X263412621Y-97076541D01*
X263436193Y-97021545D01*
X263438918Y-97012742D01*
X263474737Y-96894101D01*
X263486357Y-96835417D01*
X263498794Y-96776906D01*
X263499756Y-96767750D01*
X263499757Y-96767745D01*
X263499757Y-96767741D01*
X263511850Y-96644403D01*
X263511850Y-96644402D01*
X263515000Y-96612419D01*
X263515000Y-93372581D01*
X263511789Y-93339977D01*
X263511789Y-93331731D01*
X263510825Y-93322566D01*
X263497011Y-93199409D01*
X263484584Y-93140942D01*
X263472955Y-93082213D01*
X263470229Y-93073410D01*
X263432756Y-92955282D01*
X263409195Y-92900310D01*
X263386396Y-92844995D01*
X263382013Y-92836889D01*
X263322309Y-92728288D01*
X263288532Y-92678958D01*
X263255410Y-92629105D01*
X263249536Y-92622005D01*
X263169875Y-92527069D01*
X263127126Y-92485206D01*
X263084987Y-92442772D01*
X263077846Y-92436948D01*
X262981262Y-92359293D01*
X262931221Y-92326547D01*
X262881616Y-92293087D01*
X262873480Y-92288761D01*
X262763652Y-92231344D01*
X262708164Y-92208926D01*
X262653039Y-92185753D01*
X262644223Y-92183092D01*
X262644221Y-92183091D01*
X262644219Y-92183091D01*
X262644217Y-92183090D01*
X262525329Y-92148100D01*
X262466571Y-92136892D01*
X262407980Y-92124864D01*
X262398809Y-92123965D01*
X262398804Y-92123965D01*
X262398801Y-92123964D01*
X262398798Y-92123964D01*
X262275389Y-92112732D01*
X262215606Y-92113149D01*
X262155745Y-92112731D01*
X262146584Y-92113630D01*
X262146582Y-92113630D01*
X262146574Y-92113631D01*
X262023323Y-92126586D01*
X261964733Y-92138613D01*
X261905971Y-92149822D01*
X261897149Y-92152486D01*
X261778762Y-92189133D01*
X261723632Y-92212308D01*
X261668153Y-92234722D01*
X261660017Y-92239049D01*
X261551002Y-92297993D01*
X261501422Y-92331435D01*
X261451355Y-92364197D01*
X261444214Y-92370022D01*
X261348724Y-92449018D01*
X261306603Y-92491434D01*
X261263834Y-92533316D01*
X261257961Y-92540416D01*
X261179633Y-92636455D01*
X261146518Y-92686297D01*
X261112733Y-92735638D01*
X261108350Y-92743744D01*
X261050168Y-92853168D01*
X261027384Y-92908446D01*
X261003807Y-92963455D01*
X261001082Y-92972259D01*
X260965262Y-93090899D01*
X260953633Y-93149628D01*
X260941206Y-93208095D01*
X260940244Y-93217253D01*
X260940244Y-93217254D01*
X260940243Y-93217259D01*
X260928150Y-93340598D01*
X260928150Y-93340608D01*
X260925001Y-93372581D01*
X260925000Y-96612418D01*
X259807000Y-96612418D01*
X259807000Y-78564051D01*
X260079051Y-78292000D01*
X264633000Y-78292000D01*
X264633000Y-147253000D01*
G36*
X243678000Y-81848000D02*
G01*
X199355000Y-81848000D01*
X199330224Y-81850440D01*
X199306399Y-81857667D01*
X199284443Y-81869403D01*
X199265197Y-81885197D01*
X199249403Y-81904443D01*
X199237667Y-81926399D01*
X199230440Y-81950224D01*
X199228000Y-81975000D01*
X199228000Y-112455000D01*
X199230440Y-112479776D01*
X199237667Y-112503601D01*
X199249403Y-112525557D01*
X199265197Y-112544803D01*
X199284443Y-112560597D01*
X199306399Y-112572333D01*
X199330224Y-112579560D01*
X199355000Y-112582000D01*
X205132066Y-112582000D01*
X205173259Y-112615806D01*
X205338731Y-112704252D01*
X205518277Y-112758717D01*
X205705000Y-112777108D01*
X205751785Y-112772500D01*
X220263215Y-112772500D01*
X220310000Y-112777108D01*
X220356785Y-112772500D01*
X220496723Y-112758717D01*
X220676269Y-112704252D01*
X220841741Y-112615806D01*
X220882934Y-112582000D01*
X230978000Y-112582000D01*
X230978000Y-117408000D01*
X196232606Y-117408000D01*
X195672000Y-116847394D01*
X195672000Y-114577164D01*
X195723918Y-114499463D01*
X195755070Y-114424255D01*
X210127731Y-114424255D01*
X210128631Y-114433426D01*
X210141586Y-114556677D01*
X210153615Y-114615274D01*
X210164822Y-114674028D01*
X210167486Y-114682850D01*
X210204133Y-114801238D01*
X210227308Y-114856368D01*
X210249722Y-114911847D01*
X210254049Y-114919983D01*
X210312992Y-115028998D01*
X210346437Y-115078582D01*
X210379197Y-115128645D01*
X210385022Y-115135786D01*
X210464018Y-115231276D01*
X210506467Y-115273430D01*
X210548315Y-115316165D01*
X210555416Y-115322039D01*
X210651455Y-115400367D01*
X210701281Y-115433472D01*
X210750638Y-115467267D01*
X210758744Y-115471650D01*
X210868167Y-115529832D01*
X210923459Y-115552621D01*
X210978455Y-115576193D01*
X210987258Y-115578918D01*
X211105899Y-115614737D01*
X211164583Y-115626357D01*
X211223094Y-115638794D01*
X211232250Y-115639756D01*
X211232255Y-115639757D01*
X211232259Y-115639757D01*
X211355597Y-115651850D01*
X211355598Y-115651850D01*
X211387581Y-115655000D01*
X214627419Y-115655000D01*
X214660022Y-115651789D01*
X214668269Y-115651789D01*
X214677433Y-115650825D01*
X214800591Y-115637011D01*
X214859065Y-115624582D01*
X214917786Y-115612955D01*
X214926589Y-115610229D01*
X215044718Y-115572756D01*
X215099662Y-115549207D01*
X215155005Y-115526396D01*
X215163111Y-115522013D01*
X215271711Y-115462309D01*
X215321041Y-115428532D01*
X215370894Y-115395410D01*
X215377995Y-115389536D01*
X215472930Y-115309875D01*
X215514757Y-115267162D01*
X215557228Y-115224987D01*
X215563052Y-115217845D01*
X215640708Y-115121262D01*
X215673471Y-115071194D01*
X215706913Y-115021616D01*
X215711239Y-115013480D01*
X215768656Y-114903652D01*
X215791074Y-114848164D01*
X215814247Y-114793039D01*
X215816910Y-114784217D01*
X215851900Y-114665329D01*
X215863107Y-114606578D01*
X215875136Y-114547981D01*
X215876035Y-114538809D01*
X215887268Y-114415389D01*
X215886851Y-114355606D01*
X215887269Y-114295745D01*
X215886369Y-114286574D01*
X215873414Y-114163323D01*
X215861387Y-114104733D01*
X215850178Y-114045971D01*
X215847514Y-114037149D01*
X215810867Y-113918762D01*
X215787692Y-113863632D01*
X215765278Y-113808153D01*
X215760951Y-113800017D01*
X215702007Y-113691002D01*
X215668565Y-113641422D01*
X215635803Y-113591355D01*
X215629978Y-113584214D01*
X215550982Y-113488724D01*
X215508566Y-113446603D01*
X215466684Y-113403834D01*
X215459584Y-113397961D01*
X215363545Y-113319633D01*
X215313703Y-113286518D01*
X215264362Y-113252733D01*
X215256256Y-113248350D01*
X215146832Y-113190168D01*
X215091554Y-113167384D01*
X215036545Y-113143807D01*
X215027741Y-113141082D01*
X214909101Y-113105262D01*
X214850372Y-113093633D01*
X214791905Y-113081206D01*
X214782747Y-113080244D01*
X214782744Y-113080243D01*
X214782741Y-113080243D01*
X214659402Y-113068150D01*
X214627419Y-113065000D01*
X211387581Y-113065000D01*
X211354977Y-113068211D01*
X211346731Y-113068211D01*
X211337566Y-113069175D01*
X211214409Y-113082989D01*
X211155942Y-113095416D01*
X211097213Y-113107045D01*
X211088410Y-113109771D01*
X210970282Y-113147244D01*
X210915310Y-113170805D01*
X210859995Y-113193604D01*
X210851889Y-113197987D01*
X210743288Y-113257691D01*
X210693958Y-113291468D01*
X210644105Y-113324590D01*
X210637005Y-113330464D01*
X210542069Y-113410125D01*
X210500206Y-113452874D01*
X210457772Y-113495013D01*
X210451948Y-113502154D01*
X210374293Y-113598738D01*
X210341547Y-113648779D01*
X210308087Y-113698384D01*
X210303761Y-113706520D01*
X210246344Y-113816348D01*
X210223926Y-113871836D01*
X210200753Y-113926961D01*
X210198090Y-113935783D01*
X210163100Y-114054671D01*
X210151892Y-114113429D01*
X210139864Y-114172020D01*
X210138965Y-114181191D01*
X210127732Y-114304611D01*
X210128149Y-114364394D01*
X210127731Y-114424255D01*
X195755070Y-114424255D01*
X195847168Y-114201912D01*
X195910000Y-113886033D01*
X195910000Y-113563967D01*
X195847168Y-113248088D01*
X195723918Y-112950537D01*
X195672000Y-112872836D01*
X195672000Y-107375000D01*
X195669560Y-107350224D01*
X195662333Y-107326399D01*
X195650597Y-107304443D01*
X195634803Y-107285197D01*
X195037000Y-106687394D01*
X195037000Y-97247418D01*
X196155000Y-97247418D01*
X196158211Y-97280021D01*
X196158211Y-97288269D01*
X196159175Y-97297433D01*
X196172989Y-97420591D01*
X196185418Y-97479065D01*
X196197045Y-97537786D01*
X196199771Y-97546589D01*
X196237244Y-97664718D01*
X196260793Y-97719662D01*
X196283604Y-97775005D01*
X196287987Y-97783111D01*
X196347691Y-97891711D01*
X196381468Y-97941041D01*
X196414590Y-97990894D01*
X196420464Y-97997995D01*
X196500125Y-98092930D01*
X196542838Y-98134757D01*
X196585013Y-98177228D01*
X196592155Y-98183052D01*
X196688738Y-98260708D01*
X196738806Y-98293471D01*
X196788384Y-98326913D01*
X196796520Y-98331239D01*
X196906348Y-98388656D01*
X196961836Y-98411074D01*
X197016961Y-98434247D01*
X197025777Y-98436908D01*
X197025779Y-98436909D01*
X197025781Y-98436909D01*
X197025783Y-98436910D01*
X197144671Y-98471900D01*
X197203422Y-98483107D01*
X197262019Y-98495136D01*
X197271191Y-98496035D01*
X197271196Y-98496035D01*
X197271199Y-98496036D01*
X197271202Y-98496036D01*
X197394611Y-98507268D01*
X197454394Y-98506851D01*
X197514255Y-98507269D01*
X197523416Y-98506370D01*
X197523418Y-98506370D01*
X197523426Y-98506369D01*
X197646677Y-98493414D01*
X197705274Y-98481385D01*
X197764028Y-98470178D01*
X197772850Y-98467514D01*
X197891238Y-98430867D01*
X197946368Y-98407692D01*
X198001847Y-98385278D01*
X198009983Y-98380951D01*
X198118998Y-98322008D01*
X198168582Y-98288563D01*
X198218645Y-98255803D01*
X198225786Y-98249978D01*
X198321276Y-98170982D01*
X198363430Y-98128533D01*
X198406165Y-98086685D01*
X198412039Y-98079584D01*
X198490367Y-97983545D01*
X198523472Y-97933719D01*
X198557267Y-97884362D01*
X198561650Y-97876256D01*
X198619832Y-97766833D01*
X198642621Y-97711541D01*
X198666193Y-97656545D01*
X198668918Y-97647742D01*
X198704737Y-97529101D01*
X198716357Y-97470417D01*
X198728794Y-97411906D01*
X198729756Y-97402750D01*
X198729757Y-97402745D01*
X198729757Y-97402741D01*
X198741850Y-97279403D01*
X198741850Y-97279402D01*
X198745000Y-97247419D01*
X198745000Y-94007581D01*
X198741789Y-93974977D01*
X198741789Y-93966731D01*
X198740825Y-93957566D01*
X198727011Y-93834409D01*
X198714584Y-93775942D01*
X198702955Y-93717213D01*
X198700229Y-93708410D01*
X198662756Y-93590282D01*
X198639195Y-93535310D01*
X198616396Y-93479995D01*
X198612013Y-93471889D01*
X198552309Y-93363288D01*
X198518532Y-93313958D01*
X198485410Y-93264105D01*
X198479536Y-93257005D01*
X198399875Y-93162069D01*
X198357126Y-93120206D01*
X198314987Y-93077772D01*
X198307846Y-93071948D01*
X198211262Y-92994293D01*
X198161221Y-92961547D01*
X198111616Y-92928087D01*
X198103480Y-92923761D01*
X197993652Y-92866344D01*
X197938164Y-92843926D01*
X197883039Y-92820753D01*
X197874223Y-92818092D01*
X197874221Y-92818091D01*
X197874219Y-92818091D01*
X197874217Y-92818090D01*
X197755329Y-92783100D01*
X197696571Y-92771892D01*
X197637980Y-92759864D01*
X197628809Y-92758965D01*
X197628804Y-92758965D01*
X197628801Y-92758964D01*
X197628798Y-92758964D01*
X197505389Y-92747732D01*
X197445606Y-92748149D01*
X197385745Y-92747731D01*
X197376584Y-92748630D01*
X197376582Y-92748630D01*
X197376574Y-92748631D01*
X197253323Y-92761586D01*
X197194733Y-92773613D01*
X197135971Y-92784822D01*
X197127149Y-92787486D01*
X197008762Y-92824133D01*
X196953632Y-92847308D01*
X196898153Y-92869722D01*
X196890017Y-92874049D01*
X196781002Y-92932993D01*
X196731422Y-92966435D01*
X196681355Y-92999197D01*
X196674214Y-93005022D01*
X196578724Y-93084018D01*
X196536603Y-93126434D01*
X196493834Y-93168316D01*
X196487961Y-93175416D01*
X196409633Y-93271455D01*
X196376518Y-93321297D01*
X196342733Y-93370638D01*
X196338350Y-93378744D01*
X196280168Y-93488168D01*
X196257384Y-93543446D01*
X196233807Y-93598455D01*
X196231082Y-93607259D01*
X196195262Y-93725899D01*
X196183633Y-93784628D01*
X196171206Y-93843095D01*
X196170244Y-93852253D01*
X196170244Y-93852254D01*
X196170243Y-93852259D01*
X196158150Y-93975598D01*
X196158150Y-93975608D01*
X196155001Y-94007581D01*
X196155000Y-97247418D01*
X195037000Y-97247418D01*
X195037000Y-82547934D01*
X195070806Y-82506741D01*
X195159252Y-82341269D01*
X195213717Y-82161723D01*
X195227500Y-82021785D01*
X195227500Y-82021784D01*
X195232108Y-81975001D01*
X195227500Y-81928216D01*
X195227500Y-79499255D01*
X201872731Y-79499255D01*
X201873631Y-79508426D01*
X201886586Y-79631677D01*
X201898615Y-79690274D01*
X201909822Y-79749028D01*
X201912486Y-79757850D01*
X201949133Y-79876238D01*
X201972308Y-79931368D01*
X201994722Y-79986847D01*
X201999049Y-79994983D01*
X202057992Y-80103998D01*
X202091437Y-80153582D01*
X202124197Y-80203645D01*
X202130022Y-80210786D01*
X202209018Y-80306276D01*
X202251467Y-80348430D01*
X202293315Y-80391165D01*
X202300416Y-80397039D01*
X202396455Y-80475367D01*
X202446281Y-80508472D01*
X202495638Y-80542267D01*
X202503744Y-80546650D01*
X202613167Y-80604832D01*
X202668459Y-80627621D01*
X202723455Y-80651193D01*
X202732258Y-80653918D01*
X202850899Y-80689737D01*
X202909583Y-80701357D01*
X202968094Y-80713794D01*
X202977250Y-80714756D01*
X202977255Y-80714757D01*
X202977259Y-80714757D01*
X203100597Y-80726850D01*
X203100598Y-80726850D01*
X203132581Y-80730000D01*
X206372419Y-80730000D01*
X206405022Y-80726789D01*
X206413269Y-80726789D01*
X206422433Y-80725825D01*
X206545591Y-80712011D01*
X206604065Y-80699582D01*
X206662786Y-80687955D01*
X206671589Y-80685229D01*
X206789718Y-80647756D01*
X206844662Y-80624207D01*
X206900005Y-80601396D01*
X206908111Y-80597013D01*
X207016711Y-80537309D01*
X207066041Y-80503532D01*
X207115894Y-80470410D01*
X207122995Y-80464536D01*
X207217930Y-80384875D01*
X207259757Y-80342162D01*
X207302228Y-80299987D01*
X207308052Y-80292845D01*
X207385708Y-80196262D01*
X207418471Y-80146194D01*
X207451913Y-80096616D01*
X207456239Y-80088480D01*
X207513656Y-79978652D01*
X207536074Y-79923164D01*
X207559247Y-79868039D01*
X207561910Y-79859217D01*
X207596900Y-79740329D01*
X207608107Y-79681578D01*
X207620136Y-79622981D01*
X207621035Y-79613809D01*
X207631461Y-79499255D01*
X226637731Y-79499255D01*
X226638631Y-79508426D01*
X226651586Y-79631677D01*
X226663615Y-79690274D01*
X226674822Y-79749028D01*
X226677486Y-79757850D01*
X226714133Y-79876238D01*
X226737308Y-79931368D01*
X226759722Y-79986847D01*
X226764049Y-79994983D01*
X226822992Y-80103998D01*
X226856437Y-80153582D01*
X226889197Y-80203645D01*
X226895022Y-80210786D01*
X226974018Y-80306276D01*
X227016467Y-80348430D01*
X227058315Y-80391165D01*
X227065416Y-80397039D01*
X227161455Y-80475367D01*
X227211281Y-80508472D01*
X227260638Y-80542267D01*
X227268744Y-80546650D01*
X227378167Y-80604832D01*
X227433459Y-80627621D01*
X227488455Y-80651193D01*
X227497258Y-80653918D01*
X227615899Y-80689737D01*
X227674583Y-80701357D01*
X227733094Y-80713794D01*
X227742250Y-80714756D01*
X227742255Y-80714757D01*
X227742259Y-80714757D01*
X227865597Y-80726850D01*
X227865598Y-80726850D01*
X227897581Y-80730000D01*
X231137419Y-80730000D01*
X231170022Y-80726789D01*
X231178269Y-80726789D01*
X231187433Y-80725825D01*
X231310591Y-80712011D01*
X231369065Y-80699582D01*
X231427786Y-80687955D01*
X231436589Y-80685229D01*
X231554718Y-80647756D01*
X231609662Y-80624207D01*
X231665005Y-80601396D01*
X231673111Y-80597013D01*
X231781711Y-80537309D01*
X231831041Y-80503532D01*
X231880894Y-80470410D01*
X231887995Y-80464536D01*
X231982930Y-80384875D01*
X232024757Y-80342162D01*
X232067228Y-80299987D01*
X232073052Y-80292845D01*
X232150708Y-80196262D01*
X232183471Y-80146194D01*
X232216913Y-80096616D01*
X232221239Y-80088480D01*
X232278656Y-79978652D01*
X232301074Y-79923164D01*
X232324247Y-79868039D01*
X232326910Y-79859217D01*
X232361900Y-79740329D01*
X232373107Y-79681578D01*
X232385136Y-79622981D01*
X232386035Y-79613809D01*
X232397268Y-79490389D01*
X232396851Y-79430606D01*
X232397269Y-79370745D01*
X232396369Y-79361574D01*
X232383414Y-79238323D01*
X232371387Y-79179733D01*
X232360178Y-79120971D01*
X232357514Y-79112149D01*
X232320867Y-78993762D01*
X232297692Y-78938632D01*
X232275278Y-78883153D01*
X232270951Y-78875017D01*
X232212007Y-78766002D01*
X232178565Y-78716422D01*
X232145803Y-78666355D01*
X232139978Y-78659214D01*
X232060982Y-78563724D01*
X232018566Y-78521603D01*
X231976684Y-78478834D01*
X231969584Y-78472961D01*
X231873545Y-78394633D01*
X231823703Y-78361518D01*
X231774362Y-78327733D01*
X231766256Y-78323350D01*
X231656832Y-78265168D01*
X231601554Y-78242384D01*
X231546545Y-78218807D01*
X231537741Y-78216082D01*
X231419101Y-78180262D01*
X231360372Y-78168633D01*
X231301905Y-78156206D01*
X231292747Y-78155244D01*
X231292744Y-78155243D01*
X231292741Y-78155243D01*
X231169402Y-78143150D01*
X231137419Y-78140000D01*
X227897581Y-78140000D01*
X227864977Y-78143211D01*
X227856731Y-78143211D01*
X227847566Y-78144175D01*
X227724409Y-78157989D01*
X227665942Y-78170416D01*
X227607213Y-78182045D01*
X227598410Y-78184771D01*
X227480282Y-78222244D01*
X227425310Y-78245805D01*
X227369995Y-78268604D01*
X227361889Y-78272987D01*
X227253288Y-78332691D01*
X227203958Y-78366468D01*
X227154105Y-78399590D01*
X227147005Y-78405464D01*
X227052069Y-78485125D01*
X227010206Y-78527874D01*
X226967772Y-78570013D01*
X226961948Y-78577154D01*
X226884293Y-78673738D01*
X226851547Y-78723779D01*
X226818087Y-78773384D01*
X226813761Y-78781520D01*
X226756344Y-78891348D01*
X226733926Y-78946836D01*
X226710753Y-79001961D01*
X226708090Y-79010783D01*
X226673100Y-79129671D01*
X226661892Y-79188429D01*
X226649864Y-79247020D01*
X226648965Y-79256191D01*
X226637732Y-79379611D01*
X226638149Y-79439394D01*
X226637731Y-79499255D01*
X207631461Y-79499255D01*
X207632268Y-79490389D01*
X207631851Y-79430606D01*
X207632269Y-79370745D01*
X207631369Y-79361574D01*
X207618414Y-79238323D01*
X207606387Y-79179733D01*
X207595178Y-79120971D01*
X207592514Y-79112149D01*
X207555867Y-78993762D01*
X207532692Y-78938632D01*
X207510278Y-78883153D01*
X207505951Y-78875017D01*
X207447007Y-78766002D01*
X207413565Y-78716422D01*
X207380803Y-78666355D01*
X207374978Y-78659214D01*
X207295982Y-78563724D01*
X207253566Y-78521603D01*
X207211684Y-78478834D01*
X207204584Y-78472961D01*
X207108545Y-78394633D01*
X207058703Y-78361518D01*
X207009362Y-78327733D01*
X207001256Y-78323350D01*
X206891832Y-78265168D01*
X206836554Y-78242384D01*
X206781545Y-78218807D01*
X206772741Y-78216082D01*
X206654101Y-78180262D01*
X206595372Y-78168633D01*
X206536905Y-78156206D01*
X206527747Y-78155244D01*
X206527744Y-78155243D01*
X206527741Y-78155243D01*
X206404402Y-78143150D01*
X206372419Y-78140000D01*
X203132581Y-78140000D01*
X203099977Y-78143211D01*
X203091731Y-78143211D01*
X203082566Y-78144175D01*
X202959409Y-78157989D01*
X202900942Y-78170416D01*
X202842213Y-78182045D01*
X202833410Y-78184771D01*
X202715282Y-78222244D01*
X202660310Y-78245805D01*
X202604995Y-78268604D01*
X202596889Y-78272987D01*
X202488288Y-78332691D01*
X202438958Y-78366468D01*
X202389105Y-78399590D01*
X202382005Y-78405464D01*
X202287069Y-78485125D01*
X202245206Y-78527874D01*
X202202772Y-78570013D01*
X202196948Y-78577154D01*
X202119293Y-78673738D01*
X202086547Y-78723779D01*
X202053087Y-78773384D01*
X202048761Y-78781520D01*
X201991344Y-78891348D01*
X201968926Y-78946836D01*
X201945753Y-79001961D01*
X201943090Y-79010783D01*
X201908100Y-79129671D01*
X201896892Y-79188429D01*
X201884864Y-79247020D01*
X201883965Y-79256191D01*
X201872732Y-79379611D01*
X201873149Y-79439394D01*
X201872731Y-79499255D01*
X195227500Y-79499255D01*
X195227500Y-77924538D01*
X195495038Y-77657000D01*
X243678000Y-77657000D01*
X243678000Y-81848000D01*
X243678000Y-81848000D01*
G37*
X243678000Y-81848000D02*
X199355000Y-81848000D01*
X199330224Y-81850440D01*
X199306399Y-81857667D01*
X199284443Y-81869403D01*
X199265197Y-81885197D01*
X199249403Y-81904443D01*
X199237667Y-81926399D01*
X199230440Y-81950224D01*
X199228000Y-81975000D01*
X199228000Y-112455000D01*
X199230440Y-112479776D01*
X199237667Y-112503601D01*
X199249403Y-112525557D01*
X199265197Y-112544803D01*
X199284443Y-112560597D01*
X199306399Y-112572333D01*
X199330224Y-112579560D01*
X199355000Y-112582000D01*
X205132066Y-112582000D01*
X205173259Y-112615806D01*
X205338731Y-112704252D01*
X205518277Y-112758717D01*
X205705000Y-112777108D01*
X205751785Y-112772500D01*
X220263215Y-112772500D01*
X220310000Y-112777108D01*
X220356785Y-112772500D01*
X220496723Y-112758717D01*
X220676269Y-112704252D01*
X220841741Y-112615806D01*
X220882934Y-112582000D01*
X230978000Y-112582000D01*
X230978000Y-117408000D01*
X196232606Y-117408000D01*
X195672000Y-116847394D01*
X195672000Y-114577164D01*
X195723918Y-114499463D01*
X195755070Y-114424255D01*
X210127731Y-114424255D01*
X210128631Y-114433426D01*
X210141586Y-114556677D01*
X210153615Y-114615274D01*
X210164822Y-114674028D01*
X210167486Y-114682850D01*
X210204133Y-114801238D01*
X210227308Y-114856368D01*
X210249722Y-114911847D01*
X210254049Y-114919983D01*
X210312992Y-115028998D01*
X210346437Y-115078582D01*
X210379197Y-115128645D01*
X210385022Y-115135786D01*
X210464018Y-115231276D01*
X210506467Y-115273430D01*
X210548315Y-115316165D01*
X210555416Y-115322039D01*
X210651455Y-115400367D01*
X210701281Y-115433472D01*
X210750638Y-115467267D01*
X210758744Y-115471650D01*
X210868167Y-115529832D01*
X210923459Y-115552621D01*
X210978455Y-115576193D01*
X210987258Y-115578918D01*
X211105899Y-115614737D01*
X211164583Y-115626357D01*
X211223094Y-115638794D01*
X211232250Y-115639756D01*
X211232255Y-115639757D01*
X211232259Y-115639757D01*
X211355597Y-115651850D01*
X211355598Y-115651850D01*
X211387581Y-115655000D01*
X214627419Y-115655000D01*
X214660022Y-115651789D01*
X214668269Y-115651789D01*
X214677433Y-115650825D01*
X214800591Y-115637011D01*
X214859065Y-115624582D01*
X214917786Y-115612955D01*
X214926589Y-115610229D01*
X215044718Y-115572756D01*
X215099662Y-115549207D01*
X215155005Y-115526396D01*
X215163111Y-115522013D01*
X215271711Y-115462309D01*
X215321041Y-115428532D01*
X215370894Y-115395410D01*
X215377995Y-115389536D01*
X215472930Y-115309875D01*
X215514757Y-115267162D01*
X215557228Y-115224987D01*
X215563052Y-115217845D01*
X215640708Y-115121262D01*
X215673471Y-115071194D01*
X215706913Y-115021616D01*
X215711239Y-115013480D01*
X215768656Y-114903652D01*
X215791074Y-114848164D01*
X215814247Y-114793039D01*
X215816910Y-114784217D01*
X215851900Y-114665329D01*
X215863107Y-114606578D01*
X215875136Y-114547981D01*
X215876035Y-114538809D01*
X215887268Y-114415389D01*
X215886851Y-114355606D01*
X215887269Y-114295745D01*
X215886369Y-114286574D01*
X215873414Y-114163323D01*
X215861387Y-114104733D01*
X215850178Y-114045971D01*
X215847514Y-114037149D01*
X215810867Y-113918762D01*
X215787692Y-113863632D01*
X215765278Y-113808153D01*
X215760951Y-113800017D01*
X215702007Y-113691002D01*
X215668565Y-113641422D01*
X215635803Y-113591355D01*
X215629978Y-113584214D01*
X215550982Y-113488724D01*
X215508566Y-113446603D01*
X215466684Y-113403834D01*
X215459584Y-113397961D01*
X215363545Y-113319633D01*
X215313703Y-113286518D01*
X215264362Y-113252733D01*
X215256256Y-113248350D01*
X215146832Y-113190168D01*
X215091554Y-113167384D01*
X215036545Y-113143807D01*
X215027741Y-113141082D01*
X214909101Y-113105262D01*
X214850372Y-113093633D01*
X214791905Y-113081206D01*
X214782747Y-113080244D01*
X214782744Y-113080243D01*
X214782741Y-113080243D01*
X214659402Y-113068150D01*
X214627419Y-113065000D01*
X211387581Y-113065000D01*
X211354977Y-113068211D01*
X211346731Y-113068211D01*
X211337566Y-113069175D01*
X211214409Y-113082989D01*
X211155942Y-113095416D01*
X211097213Y-113107045D01*
X211088410Y-113109771D01*
X210970282Y-113147244D01*
X210915310Y-113170805D01*
X210859995Y-113193604D01*
X210851889Y-113197987D01*
X210743288Y-113257691D01*
X210693958Y-113291468D01*
X210644105Y-113324590D01*
X210637005Y-113330464D01*
X210542069Y-113410125D01*
X210500206Y-113452874D01*
X210457772Y-113495013D01*
X210451948Y-113502154D01*
X210374293Y-113598738D01*
X210341547Y-113648779D01*
X210308087Y-113698384D01*
X210303761Y-113706520D01*
X210246344Y-113816348D01*
X210223926Y-113871836D01*
X210200753Y-113926961D01*
X210198090Y-113935783D01*
X210163100Y-114054671D01*
X210151892Y-114113429D01*
X210139864Y-114172020D01*
X210138965Y-114181191D01*
X210127732Y-114304611D01*
X210128149Y-114364394D01*
X210127731Y-114424255D01*
X195755070Y-114424255D01*
X195847168Y-114201912D01*
X195910000Y-113886033D01*
X195910000Y-113563967D01*
X195847168Y-113248088D01*
X195723918Y-112950537D01*
X195672000Y-112872836D01*
X195672000Y-107375000D01*
X195669560Y-107350224D01*
X195662333Y-107326399D01*
X195650597Y-107304443D01*
X195634803Y-107285197D01*
X195037000Y-106687394D01*
X195037000Y-97247418D01*
X196155000Y-97247418D01*
X196158211Y-97280021D01*
X196158211Y-97288269D01*
X196159175Y-97297433D01*
X196172989Y-97420591D01*
X196185418Y-97479065D01*
X196197045Y-97537786D01*
X196199771Y-97546589D01*
X196237244Y-97664718D01*
X196260793Y-97719662D01*
X196283604Y-97775005D01*
X196287987Y-97783111D01*
X196347691Y-97891711D01*
X196381468Y-97941041D01*
X196414590Y-97990894D01*
X196420464Y-97997995D01*
X196500125Y-98092930D01*
X196542838Y-98134757D01*
X196585013Y-98177228D01*
X196592155Y-98183052D01*
X196688738Y-98260708D01*
X196738806Y-98293471D01*
X196788384Y-98326913D01*
X196796520Y-98331239D01*
X196906348Y-98388656D01*
X196961836Y-98411074D01*
X197016961Y-98434247D01*
X197025777Y-98436908D01*
X197025779Y-98436909D01*
X197025781Y-98436909D01*
X197025783Y-98436910D01*
X197144671Y-98471900D01*
X197203422Y-98483107D01*
X197262019Y-98495136D01*
X197271191Y-98496035D01*
X197271196Y-98496035D01*
X197271199Y-98496036D01*
X197271202Y-98496036D01*
X197394611Y-98507268D01*
X197454394Y-98506851D01*
X197514255Y-98507269D01*
X197523416Y-98506370D01*
X197523418Y-98506370D01*
X197523426Y-98506369D01*
X197646677Y-98493414D01*
X197705274Y-98481385D01*
X197764028Y-98470178D01*
X197772850Y-98467514D01*
X197891238Y-98430867D01*
X197946368Y-98407692D01*
X198001847Y-98385278D01*
X198009983Y-98380951D01*
X198118998Y-98322008D01*
X198168582Y-98288563D01*
X198218645Y-98255803D01*
X198225786Y-98249978D01*
X198321276Y-98170982D01*
X198363430Y-98128533D01*
X198406165Y-98086685D01*
X198412039Y-98079584D01*
X198490367Y-97983545D01*
X198523472Y-97933719D01*
X198557267Y-97884362D01*
X198561650Y-97876256D01*
X198619832Y-97766833D01*
X198642621Y-97711541D01*
X198666193Y-97656545D01*
X198668918Y-97647742D01*
X198704737Y-97529101D01*
X198716357Y-97470417D01*
X198728794Y-97411906D01*
X198729756Y-97402750D01*
X198729757Y-97402745D01*
X198729757Y-97402741D01*
X198741850Y-97279403D01*
X198741850Y-97279402D01*
X198745000Y-97247419D01*
X198745000Y-94007581D01*
X198741789Y-93974977D01*
X198741789Y-93966731D01*
X198740825Y-93957566D01*
X198727011Y-93834409D01*
X198714584Y-93775942D01*
X198702955Y-93717213D01*
X198700229Y-93708410D01*
X198662756Y-93590282D01*
X198639195Y-93535310D01*
X198616396Y-93479995D01*
X198612013Y-93471889D01*
X198552309Y-93363288D01*
X198518532Y-93313958D01*
X198485410Y-93264105D01*
X198479536Y-93257005D01*
X198399875Y-93162069D01*
X198357126Y-93120206D01*
X198314987Y-93077772D01*
X198307846Y-93071948D01*
X198211262Y-92994293D01*
X198161221Y-92961547D01*
X198111616Y-92928087D01*
X198103480Y-92923761D01*
X197993652Y-92866344D01*
X197938164Y-92843926D01*
X197883039Y-92820753D01*
X197874223Y-92818092D01*
X197874221Y-92818091D01*
X197874219Y-92818091D01*
X197874217Y-92818090D01*
X197755329Y-92783100D01*
X197696571Y-92771892D01*
X197637980Y-92759864D01*
X197628809Y-92758965D01*
X197628804Y-92758965D01*
X197628801Y-92758964D01*
X197628798Y-92758964D01*
X197505389Y-92747732D01*
X197445606Y-92748149D01*
X197385745Y-92747731D01*
X197376584Y-92748630D01*
X197376582Y-92748630D01*
X197376574Y-92748631D01*
X197253323Y-92761586D01*
X197194733Y-92773613D01*
X197135971Y-92784822D01*
X197127149Y-92787486D01*
X197008762Y-92824133D01*
X196953632Y-92847308D01*
X196898153Y-92869722D01*
X196890017Y-92874049D01*
X196781002Y-92932993D01*
X196731422Y-92966435D01*
X196681355Y-92999197D01*
X196674214Y-93005022D01*
X196578724Y-93084018D01*
X196536603Y-93126434D01*
X196493834Y-93168316D01*
X196487961Y-93175416D01*
X196409633Y-93271455D01*
X196376518Y-93321297D01*
X196342733Y-93370638D01*
X196338350Y-93378744D01*
X196280168Y-93488168D01*
X196257384Y-93543446D01*
X196233807Y-93598455D01*
X196231082Y-93607259D01*
X196195262Y-93725899D01*
X196183633Y-93784628D01*
X196171206Y-93843095D01*
X196170244Y-93852253D01*
X196170244Y-93852254D01*
X196170243Y-93852259D01*
X196158150Y-93975598D01*
X196158150Y-93975608D01*
X196155001Y-94007581D01*
X196155000Y-97247418D01*
X195037000Y-97247418D01*
X195037000Y-82547934D01*
X195070806Y-82506741D01*
X195159252Y-82341269D01*
X195213717Y-82161723D01*
X195227500Y-82021785D01*
X195227500Y-82021784D01*
X195232108Y-81975001D01*
X195227500Y-81928216D01*
X195227500Y-79499255D01*
X201872731Y-79499255D01*
X201873631Y-79508426D01*
X201886586Y-79631677D01*
X201898615Y-79690274D01*
X201909822Y-79749028D01*
X201912486Y-79757850D01*
X201949133Y-79876238D01*
X201972308Y-79931368D01*
X201994722Y-79986847D01*
X201999049Y-79994983D01*
X202057992Y-80103998D01*
X202091437Y-80153582D01*
X202124197Y-80203645D01*
X202130022Y-80210786D01*
X202209018Y-80306276D01*
X202251467Y-80348430D01*
X202293315Y-80391165D01*
X202300416Y-80397039D01*
X202396455Y-80475367D01*
X202446281Y-80508472D01*
X202495638Y-80542267D01*
X202503744Y-80546650D01*
X202613167Y-80604832D01*
X202668459Y-80627621D01*
X202723455Y-80651193D01*
X202732258Y-80653918D01*
X202850899Y-80689737D01*
X202909583Y-80701357D01*
X202968094Y-80713794D01*
X202977250Y-80714756D01*
X202977255Y-80714757D01*
X202977259Y-80714757D01*
X203100597Y-80726850D01*
X203100598Y-80726850D01*
X203132581Y-80730000D01*
X206372419Y-80730000D01*
X206405022Y-80726789D01*
X206413269Y-80726789D01*
X206422433Y-80725825D01*
X206545591Y-80712011D01*
X206604065Y-80699582D01*
X206662786Y-80687955D01*
X206671589Y-80685229D01*
X206789718Y-80647756D01*
X206844662Y-80624207D01*
X206900005Y-80601396D01*
X206908111Y-80597013D01*
X207016711Y-80537309D01*
X207066041Y-80503532D01*
X207115894Y-80470410D01*
X207122995Y-80464536D01*
X207217930Y-80384875D01*
X207259757Y-80342162D01*
X207302228Y-80299987D01*
X207308052Y-80292845D01*
X207385708Y-80196262D01*
X207418471Y-80146194D01*
X207451913Y-80096616D01*
X207456239Y-80088480D01*
X207513656Y-79978652D01*
X207536074Y-79923164D01*
X207559247Y-79868039D01*
X207561910Y-79859217D01*
X207596900Y-79740329D01*
X207608107Y-79681578D01*
X207620136Y-79622981D01*
X207621035Y-79613809D01*
X207631461Y-79499255D01*
X226637731Y-79499255D01*
X226638631Y-79508426D01*
X226651586Y-79631677D01*
X226663615Y-79690274D01*
X226674822Y-79749028D01*
X226677486Y-79757850D01*
X226714133Y-79876238D01*
X226737308Y-79931368D01*
X226759722Y-79986847D01*
X226764049Y-79994983D01*
X226822992Y-80103998D01*
X226856437Y-80153582D01*
X226889197Y-80203645D01*
X226895022Y-80210786D01*
X226974018Y-80306276D01*
X227016467Y-80348430D01*
X227058315Y-80391165D01*
X227065416Y-80397039D01*
X227161455Y-80475367D01*
X227211281Y-80508472D01*
X227260638Y-80542267D01*
X227268744Y-80546650D01*
X227378167Y-80604832D01*
X227433459Y-80627621D01*
X227488455Y-80651193D01*
X227497258Y-80653918D01*
X227615899Y-80689737D01*
X227674583Y-80701357D01*
X227733094Y-80713794D01*
X227742250Y-80714756D01*
X227742255Y-80714757D01*
X227742259Y-80714757D01*
X227865597Y-80726850D01*
X227865598Y-80726850D01*
X227897581Y-80730000D01*
X231137419Y-80730000D01*
X231170022Y-80726789D01*
X231178269Y-80726789D01*
X231187433Y-80725825D01*
X231310591Y-80712011D01*
X231369065Y-80699582D01*
X231427786Y-80687955D01*
X231436589Y-80685229D01*
X231554718Y-80647756D01*
X231609662Y-80624207D01*
X231665005Y-80601396D01*
X231673111Y-80597013D01*
X231781711Y-80537309D01*
X231831041Y-80503532D01*
X231880894Y-80470410D01*
X231887995Y-80464536D01*
X231982930Y-80384875D01*
X232024757Y-80342162D01*
X232067228Y-80299987D01*
X232073052Y-80292845D01*
X232150708Y-80196262D01*
X232183471Y-80146194D01*
X232216913Y-80096616D01*
X232221239Y-80088480D01*
X232278656Y-79978652D01*
X232301074Y-79923164D01*
X232324247Y-79868039D01*
X232326910Y-79859217D01*
X232361900Y-79740329D01*
X232373107Y-79681578D01*
X232385136Y-79622981D01*
X232386035Y-79613809D01*
X232397268Y-79490389D01*
X232396851Y-79430606D01*
X232397269Y-79370745D01*
X232396369Y-79361574D01*
X232383414Y-79238323D01*
X232371387Y-79179733D01*
X232360178Y-79120971D01*
X232357514Y-79112149D01*
X232320867Y-78993762D01*
X232297692Y-78938632D01*
X232275278Y-78883153D01*
X232270951Y-78875017D01*
X232212007Y-78766002D01*
X232178565Y-78716422D01*
X232145803Y-78666355D01*
X232139978Y-78659214D01*
X232060982Y-78563724D01*
X232018566Y-78521603D01*
X231976684Y-78478834D01*
X231969584Y-78472961D01*
X231873545Y-78394633D01*
X231823703Y-78361518D01*
X231774362Y-78327733D01*
X231766256Y-78323350D01*
X231656832Y-78265168D01*
X231601554Y-78242384D01*
X231546545Y-78218807D01*
X231537741Y-78216082D01*
X231419101Y-78180262D01*
X231360372Y-78168633D01*
X231301905Y-78156206D01*
X231292747Y-78155244D01*
X231292744Y-78155243D01*
X231292741Y-78155243D01*
X231169402Y-78143150D01*
X231137419Y-78140000D01*
X227897581Y-78140000D01*
X227864977Y-78143211D01*
X227856731Y-78143211D01*
X227847566Y-78144175D01*
X227724409Y-78157989D01*
X227665942Y-78170416D01*
X227607213Y-78182045D01*
X227598410Y-78184771D01*
X227480282Y-78222244D01*
X227425310Y-78245805D01*
X227369995Y-78268604D01*
X227361889Y-78272987D01*
X227253288Y-78332691D01*
X227203958Y-78366468D01*
X227154105Y-78399590D01*
X227147005Y-78405464D01*
X227052069Y-78485125D01*
X227010206Y-78527874D01*
X226967772Y-78570013D01*
X226961948Y-78577154D01*
X226884293Y-78673738D01*
X226851547Y-78723779D01*
X226818087Y-78773384D01*
X226813761Y-78781520D01*
X226756344Y-78891348D01*
X226733926Y-78946836D01*
X226710753Y-79001961D01*
X226708090Y-79010783D01*
X226673100Y-79129671D01*
X226661892Y-79188429D01*
X226649864Y-79247020D01*
X226648965Y-79256191D01*
X226637732Y-79379611D01*
X226638149Y-79439394D01*
X226637731Y-79499255D01*
X207631461Y-79499255D01*
X207632268Y-79490389D01*
X207631851Y-79430606D01*
X207632269Y-79370745D01*
X207631369Y-79361574D01*
X207618414Y-79238323D01*
X207606387Y-79179733D01*
X207595178Y-79120971D01*
X207592514Y-79112149D01*
X207555867Y-78993762D01*
X207532692Y-78938632D01*
X207510278Y-78883153D01*
X207505951Y-78875017D01*
X207447007Y-78766002D01*
X207413565Y-78716422D01*
X207380803Y-78666355D01*
X207374978Y-78659214D01*
X207295982Y-78563724D01*
X207253566Y-78521603D01*
X207211684Y-78478834D01*
X207204584Y-78472961D01*
X207108545Y-78394633D01*
X207058703Y-78361518D01*
X207009362Y-78327733D01*
X207001256Y-78323350D01*
X206891832Y-78265168D01*
X206836554Y-78242384D01*
X206781545Y-78218807D01*
X206772741Y-78216082D01*
X206654101Y-78180262D01*
X206595372Y-78168633D01*
X206536905Y-78156206D01*
X206527747Y-78155244D01*
X206527744Y-78155243D01*
X206527741Y-78155243D01*
X206404402Y-78143150D01*
X206372419Y-78140000D01*
X203132581Y-78140000D01*
X203099977Y-78143211D01*
X203091731Y-78143211D01*
X203082566Y-78144175D01*
X202959409Y-78157989D01*
X202900942Y-78170416D01*
X202842213Y-78182045D01*
X202833410Y-78184771D01*
X202715282Y-78222244D01*
X202660310Y-78245805D01*
X202604995Y-78268604D01*
X202596889Y-78272987D01*
X202488288Y-78332691D01*
X202438958Y-78366468D01*
X202389105Y-78399590D01*
X202382005Y-78405464D01*
X202287069Y-78485125D01*
X202245206Y-78527874D01*
X202202772Y-78570013D01*
X202196948Y-78577154D01*
X202119293Y-78673738D01*
X202086547Y-78723779D01*
X202053087Y-78773384D01*
X202048761Y-78781520D01*
X201991344Y-78891348D01*
X201968926Y-78946836D01*
X201945753Y-79001961D01*
X201943090Y-79010783D01*
X201908100Y-79129671D01*
X201896892Y-79188429D01*
X201884864Y-79247020D01*
X201883965Y-79256191D01*
X201872732Y-79379611D01*
X201873149Y-79439394D01*
X201872731Y-79499255D01*
X195227500Y-79499255D01*
X195227500Y-77924538D01*
X195495038Y-77657000D01*
X243678000Y-77657000D01*
X243678000Y-81848000D01*
G36*
X204943000Y-55992606D02*
G01*
X204943000Y-58427394D01*
X204382394Y-58988000D01*
X73042606Y-58988000D01*
X72482000Y-58427394D01*
X72482000Y-57274255D01*
X105987731Y-57274255D01*
X105988631Y-57283426D01*
X106001586Y-57406677D01*
X106013615Y-57465274D01*
X106024822Y-57524028D01*
X106027486Y-57532850D01*
X106064133Y-57651238D01*
X106087308Y-57706368D01*
X106109722Y-57761847D01*
X106114049Y-57769983D01*
X106172992Y-57878998D01*
X106206437Y-57928582D01*
X106239197Y-57978645D01*
X106245022Y-57985786D01*
X106324018Y-58081276D01*
X106366467Y-58123430D01*
X106408315Y-58166165D01*
X106415416Y-58172039D01*
X106511455Y-58250367D01*
X106561281Y-58283472D01*
X106610638Y-58317267D01*
X106618744Y-58321650D01*
X106728167Y-58379832D01*
X106783459Y-58402621D01*
X106838455Y-58426193D01*
X106847258Y-58428918D01*
X106965899Y-58464737D01*
X107024583Y-58476357D01*
X107083094Y-58488794D01*
X107092250Y-58489756D01*
X107092255Y-58489757D01*
X107092259Y-58489757D01*
X107215597Y-58501850D01*
X107215598Y-58501850D01*
X107247581Y-58505000D01*
X110487419Y-58505000D01*
X110520022Y-58501789D01*
X110528269Y-58501789D01*
X110537433Y-58500825D01*
X110660591Y-58487011D01*
X110719065Y-58474582D01*
X110777786Y-58462955D01*
X110786589Y-58460229D01*
X110904718Y-58422756D01*
X110959662Y-58399207D01*
X111015005Y-58376396D01*
X111023111Y-58372013D01*
X111131711Y-58312309D01*
X111181041Y-58278532D01*
X111230894Y-58245410D01*
X111237995Y-58239536D01*
X111332930Y-58159875D01*
X111374757Y-58117162D01*
X111417228Y-58074987D01*
X111423052Y-58067845D01*
X111500708Y-57971262D01*
X111533471Y-57921194D01*
X111566913Y-57871616D01*
X111571239Y-57863480D01*
X111628656Y-57753652D01*
X111651074Y-57698164D01*
X111674247Y-57643039D01*
X111676910Y-57634217D01*
X111711900Y-57515329D01*
X111723107Y-57456578D01*
X111735136Y-57397981D01*
X111736035Y-57388809D01*
X111746461Y-57274255D01*
X145357731Y-57274255D01*
X145358631Y-57283426D01*
X145371586Y-57406677D01*
X145383615Y-57465274D01*
X145394822Y-57524028D01*
X145397486Y-57532850D01*
X145434133Y-57651238D01*
X145457308Y-57706368D01*
X145479722Y-57761847D01*
X145484049Y-57769983D01*
X145542992Y-57878998D01*
X145576437Y-57928582D01*
X145609197Y-57978645D01*
X145615022Y-57985786D01*
X145694018Y-58081276D01*
X145736467Y-58123430D01*
X145778315Y-58166165D01*
X145785416Y-58172039D01*
X145881455Y-58250367D01*
X145931281Y-58283472D01*
X145980638Y-58317267D01*
X145988744Y-58321650D01*
X146098167Y-58379832D01*
X146153459Y-58402621D01*
X146208455Y-58426193D01*
X146217258Y-58428918D01*
X146335899Y-58464737D01*
X146394583Y-58476357D01*
X146453094Y-58488794D01*
X146462250Y-58489756D01*
X146462255Y-58489757D01*
X146462259Y-58489757D01*
X146585597Y-58501850D01*
X146585598Y-58501850D01*
X146617581Y-58505000D01*
X149857419Y-58505000D01*
X149890022Y-58501789D01*
X149898269Y-58501789D01*
X149907433Y-58500825D01*
X150030591Y-58487011D01*
X150089065Y-58474582D01*
X150147786Y-58462955D01*
X150156589Y-58460229D01*
X150274718Y-58422756D01*
X150329662Y-58399207D01*
X150385005Y-58376396D01*
X150393111Y-58372013D01*
X150501711Y-58312309D01*
X150551041Y-58278532D01*
X150600894Y-58245410D01*
X150607995Y-58239536D01*
X150702930Y-58159875D01*
X150744757Y-58117162D01*
X150787228Y-58074987D01*
X150793052Y-58067845D01*
X150870708Y-57971262D01*
X150903471Y-57921194D01*
X150936913Y-57871616D01*
X150941239Y-57863480D01*
X150998656Y-57753652D01*
X151021074Y-57698164D01*
X151044247Y-57643039D01*
X151046910Y-57634217D01*
X151081900Y-57515329D01*
X151093107Y-57456578D01*
X151105136Y-57397981D01*
X151106035Y-57388809D01*
X151116461Y-57274255D01*
X191712731Y-57274255D01*
X191713631Y-57283426D01*
X191726586Y-57406677D01*
X191738615Y-57465274D01*
X191749822Y-57524028D01*
X191752486Y-57532850D01*
X191789133Y-57651238D01*
X191812308Y-57706368D01*
X191834722Y-57761847D01*
X191839049Y-57769983D01*
X191897992Y-57878998D01*
X191931437Y-57928582D01*
X191964197Y-57978645D01*
X191970022Y-57985786D01*
X192049018Y-58081276D01*
X192091467Y-58123430D01*
X192133315Y-58166165D01*
X192140416Y-58172039D01*
X192236455Y-58250367D01*
X192286281Y-58283472D01*
X192335638Y-58317267D01*
X192343744Y-58321650D01*
X192453167Y-58379832D01*
X192508459Y-58402621D01*
X192563455Y-58426193D01*
X192572258Y-58428918D01*
X192690899Y-58464737D01*
X192749583Y-58476357D01*
X192808094Y-58488794D01*
X192817250Y-58489756D01*
X192817255Y-58489757D01*
X192817259Y-58489757D01*
X192940597Y-58501850D01*
X192940598Y-58501850D01*
X192972581Y-58505000D01*
X196212419Y-58505000D01*
X196245022Y-58501789D01*
X196253269Y-58501789D01*
X196262433Y-58500825D01*
X196385591Y-58487011D01*
X196444065Y-58474582D01*
X196502786Y-58462955D01*
X196511589Y-58460229D01*
X196629718Y-58422756D01*
X196684662Y-58399207D01*
X196740005Y-58376396D01*
X196748111Y-58372013D01*
X196856711Y-58312309D01*
X196906041Y-58278532D01*
X196955894Y-58245410D01*
X196962995Y-58239536D01*
X197057930Y-58159875D01*
X197099757Y-58117162D01*
X197142228Y-58074987D01*
X197148052Y-58067845D01*
X197225708Y-57971262D01*
X197258471Y-57921194D01*
X197291913Y-57871616D01*
X197296239Y-57863480D01*
X197353656Y-57753652D01*
X197376074Y-57698164D01*
X197399247Y-57643039D01*
X197401910Y-57634217D01*
X197436900Y-57515329D01*
X197448107Y-57456578D01*
X197460136Y-57397981D01*
X197461035Y-57388809D01*
X197472268Y-57265389D01*
X197471851Y-57205606D01*
X197472269Y-57145745D01*
X197471369Y-57136574D01*
X197458414Y-57013323D01*
X197446387Y-56954733D01*
X197435178Y-56895971D01*
X197432514Y-56887149D01*
X197395867Y-56768762D01*
X197372692Y-56713632D01*
X197350278Y-56658153D01*
X197345951Y-56650017D01*
X197287007Y-56541002D01*
X197253565Y-56491422D01*
X197220803Y-56441355D01*
X197214978Y-56434214D01*
X197135982Y-56338724D01*
X197093566Y-56296603D01*
X197051684Y-56253834D01*
X197044584Y-56247961D01*
X196948545Y-56169633D01*
X196898703Y-56136518D01*
X196849362Y-56102733D01*
X196841256Y-56098350D01*
X196731832Y-56040168D01*
X196676554Y-56017384D01*
X196621545Y-55993807D01*
X196612741Y-55991082D01*
X196494101Y-55955262D01*
X196435372Y-55943633D01*
X196376905Y-55931206D01*
X196367747Y-55930244D01*
X196367744Y-55930243D01*
X196367741Y-55930243D01*
X196244402Y-55918150D01*
X196212419Y-55915000D01*
X192972581Y-55915000D01*
X192939977Y-55918211D01*
X192931731Y-55918211D01*
X192922566Y-55919175D01*
X192799409Y-55932989D01*
X192740942Y-55945416D01*
X192682213Y-55957045D01*
X192673410Y-55959771D01*
X192555282Y-55997244D01*
X192500310Y-56020805D01*
X192444995Y-56043604D01*
X192436889Y-56047987D01*
X192328288Y-56107691D01*
X192278958Y-56141468D01*
X192229105Y-56174590D01*
X192222005Y-56180464D01*
X192127069Y-56260125D01*
X192085206Y-56302874D01*
X192042772Y-56345013D01*
X192036948Y-56352154D01*
X191959293Y-56448738D01*
X191926547Y-56498779D01*
X191893087Y-56548384D01*
X191888761Y-56556520D01*
X191831344Y-56666348D01*
X191808926Y-56721836D01*
X191785753Y-56776961D01*
X191783090Y-56785783D01*
X191748100Y-56904671D01*
X191736892Y-56963429D01*
X191724864Y-57022020D01*
X191723965Y-57031191D01*
X191712732Y-57154611D01*
X191713149Y-57214394D01*
X191712731Y-57274255D01*
X151116461Y-57274255D01*
X151117268Y-57265389D01*
X151116851Y-57205606D01*
X151117269Y-57145745D01*
X151116369Y-57136574D01*
X151103414Y-57013323D01*
X151091387Y-56954733D01*
X151080178Y-56895971D01*
X151077514Y-56887149D01*
X151040867Y-56768762D01*
X151017692Y-56713632D01*
X150995278Y-56658153D01*
X150990951Y-56650017D01*
X150932007Y-56541002D01*
X150898565Y-56491422D01*
X150865803Y-56441355D01*
X150859978Y-56434214D01*
X150780982Y-56338724D01*
X150738566Y-56296603D01*
X150696684Y-56253834D01*
X150689584Y-56247961D01*
X150593545Y-56169633D01*
X150543703Y-56136518D01*
X150494362Y-56102733D01*
X150486256Y-56098350D01*
X150376832Y-56040168D01*
X150321554Y-56017384D01*
X150266545Y-55993807D01*
X150257741Y-55991082D01*
X150139101Y-55955262D01*
X150080372Y-55943633D01*
X150021905Y-55931206D01*
X150012747Y-55930244D01*
X150012744Y-55930243D01*
X150012741Y-55930243D01*
X149889402Y-55918150D01*
X149857419Y-55915000D01*
X146617581Y-55915000D01*
X146584977Y-55918211D01*
X146576731Y-55918211D01*
X146567566Y-55919175D01*
X146444409Y-55932989D01*
X146385942Y-55945416D01*
X146327213Y-55957045D01*
X146318410Y-55959771D01*
X146200282Y-55997244D01*
X146145310Y-56020805D01*
X146089995Y-56043604D01*
X146081889Y-56047987D01*
X145973288Y-56107691D01*
X145923958Y-56141468D01*
X145874105Y-56174590D01*
X145867005Y-56180464D01*
X145772069Y-56260125D01*
X145730206Y-56302874D01*
X145687772Y-56345013D01*
X145681948Y-56352154D01*
X145604293Y-56448738D01*
X145571547Y-56498779D01*
X145538087Y-56548384D01*
X145533761Y-56556520D01*
X145476344Y-56666348D01*
X145453926Y-56721836D01*
X145430753Y-56776961D01*
X145428090Y-56785783D01*
X145393100Y-56904671D01*
X145381892Y-56963429D01*
X145369864Y-57022020D01*
X145368965Y-57031191D01*
X145357732Y-57154611D01*
X145358149Y-57214394D01*
X145357731Y-57274255D01*
X111746461Y-57274255D01*
X111747268Y-57265389D01*
X111746851Y-57205606D01*
X111747269Y-57145745D01*
X111746369Y-57136574D01*
X111733414Y-57013323D01*
X111721387Y-56954733D01*
X111710178Y-56895971D01*
X111707514Y-56887149D01*
X111670867Y-56768762D01*
X111647692Y-56713632D01*
X111625278Y-56658153D01*
X111620951Y-56650017D01*
X111562007Y-56541002D01*
X111528565Y-56491422D01*
X111495803Y-56441355D01*
X111489978Y-56434214D01*
X111410982Y-56338724D01*
X111368566Y-56296603D01*
X111326684Y-56253834D01*
X111319584Y-56247961D01*
X111223545Y-56169633D01*
X111173703Y-56136518D01*
X111124362Y-56102733D01*
X111116256Y-56098350D01*
X111006832Y-56040168D01*
X110951554Y-56017384D01*
X110896545Y-55993807D01*
X110887741Y-55991082D01*
X110769101Y-55955262D01*
X110710372Y-55943633D01*
X110651905Y-55931206D01*
X110642747Y-55930244D01*
X110642744Y-55930243D01*
X110642741Y-55930243D01*
X110519402Y-55918150D01*
X110487419Y-55915000D01*
X107247581Y-55915000D01*
X107214977Y-55918211D01*
X107206731Y-55918211D01*
X107197566Y-55919175D01*
X107074409Y-55932989D01*
X107015942Y-55945416D01*
X106957213Y-55957045D01*
X106948410Y-55959771D01*
X106830282Y-55997244D01*
X106775310Y-56020805D01*
X106719995Y-56043604D01*
X106711889Y-56047987D01*
X106603288Y-56107691D01*
X106553958Y-56141468D01*
X106504105Y-56174590D01*
X106497005Y-56180464D01*
X106402069Y-56260125D01*
X106360206Y-56302874D01*
X106317772Y-56345013D01*
X106311948Y-56352154D01*
X106234293Y-56448738D01*
X106201547Y-56498779D01*
X106168087Y-56548384D01*
X106163761Y-56556520D01*
X106106344Y-56666348D01*
X106083926Y-56721836D01*
X106060753Y-56776961D01*
X106058090Y-56785783D01*
X106023100Y-56904671D01*
X106011892Y-56963429D01*
X105999864Y-57022020D01*
X105998965Y-57031191D01*
X105987732Y-57154611D01*
X105988149Y-57214394D01*
X105987731Y-57274255D01*
X72482000Y-57274255D01*
X72482000Y-55992606D01*
X73042606Y-55432000D01*
X204382394Y-55432000D01*
X204943000Y-55992606D01*
X204943000Y-55992606D01*
G37*
X204943000Y-55992606D02*
X204943000Y-58427394D01*
X204382394Y-58988000D01*
X73042606Y-58988000D01*
X72482000Y-58427394D01*
X72482000Y-57274255D01*
X105987731Y-57274255D01*
X105988631Y-57283426D01*
X106001586Y-57406677D01*
X106013615Y-57465274D01*
X106024822Y-57524028D01*
X106027486Y-57532850D01*
X106064133Y-57651238D01*
X106087308Y-57706368D01*
X106109722Y-57761847D01*
X106114049Y-57769983D01*
X106172992Y-57878998D01*
X106206437Y-57928582D01*
X106239197Y-57978645D01*
X106245022Y-57985786D01*
X106324018Y-58081276D01*
X106366467Y-58123430D01*
X106408315Y-58166165D01*
X106415416Y-58172039D01*
X106511455Y-58250367D01*
X106561281Y-58283472D01*
X106610638Y-58317267D01*
X106618744Y-58321650D01*
X106728167Y-58379832D01*
X106783459Y-58402621D01*
X106838455Y-58426193D01*
X106847258Y-58428918D01*
X106965899Y-58464737D01*
X107024583Y-58476357D01*
X107083094Y-58488794D01*
X107092250Y-58489756D01*
X107092255Y-58489757D01*
X107092259Y-58489757D01*
X107215597Y-58501850D01*
X107215598Y-58501850D01*
X107247581Y-58505000D01*
X110487419Y-58505000D01*
X110520022Y-58501789D01*
X110528269Y-58501789D01*
X110537433Y-58500825D01*
X110660591Y-58487011D01*
X110719065Y-58474582D01*
X110777786Y-58462955D01*
X110786589Y-58460229D01*
X110904718Y-58422756D01*
X110959662Y-58399207D01*
X111015005Y-58376396D01*
X111023111Y-58372013D01*
X111131711Y-58312309D01*
X111181041Y-58278532D01*
X111230894Y-58245410D01*
X111237995Y-58239536D01*
X111332930Y-58159875D01*
X111374757Y-58117162D01*
X111417228Y-58074987D01*
X111423052Y-58067845D01*
X111500708Y-57971262D01*
X111533471Y-57921194D01*
X111566913Y-57871616D01*
X111571239Y-57863480D01*
X111628656Y-57753652D01*
X111651074Y-57698164D01*
X111674247Y-57643039D01*
X111676910Y-57634217D01*
X111711900Y-57515329D01*
X111723107Y-57456578D01*
X111735136Y-57397981D01*
X111736035Y-57388809D01*
X111746461Y-57274255D01*
X145357731Y-57274255D01*
X145358631Y-57283426D01*
X145371586Y-57406677D01*
X145383615Y-57465274D01*
X145394822Y-57524028D01*
X145397486Y-57532850D01*
X145434133Y-57651238D01*
X145457308Y-57706368D01*
X145479722Y-57761847D01*
X145484049Y-57769983D01*
X145542992Y-57878998D01*
X145576437Y-57928582D01*
X145609197Y-57978645D01*
X145615022Y-57985786D01*
X145694018Y-58081276D01*
X145736467Y-58123430D01*
X145778315Y-58166165D01*
X145785416Y-58172039D01*
X145881455Y-58250367D01*
X145931281Y-58283472D01*
X145980638Y-58317267D01*
X145988744Y-58321650D01*
X146098167Y-58379832D01*
X146153459Y-58402621D01*
X146208455Y-58426193D01*
X146217258Y-58428918D01*
X146335899Y-58464737D01*
X146394583Y-58476357D01*
X146453094Y-58488794D01*
X146462250Y-58489756D01*
X146462255Y-58489757D01*
X146462259Y-58489757D01*
X146585597Y-58501850D01*
X146585598Y-58501850D01*
X146617581Y-58505000D01*
X149857419Y-58505000D01*
X149890022Y-58501789D01*
X149898269Y-58501789D01*
X149907433Y-58500825D01*
X150030591Y-58487011D01*
X150089065Y-58474582D01*
X150147786Y-58462955D01*
X150156589Y-58460229D01*
X150274718Y-58422756D01*
X150329662Y-58399207D01*
X150385005Y-58376396D01*
X150393111Y-58372013D01*
X150501711Y-58312309D01*
X150551041Y-58278532D01*
X150600894Y-58245410D01*
X150607995Y-58239536D01*
X150702930Y-58159875D01*
X150744757Y-58117162D01*
X150787228Y-58074987D01*
X150793052Y-58067845D01*
X150870708Y-57971262D01*
X150903471Y-57921194D01*
X150936913Y-57871616D01*
X150941239Y-57863480D01*
X150998656Y-57753652D01*
X151021074Y-57698164D01*
X151044247Y-57643039D01*
X151046910Y-57634217D01*
X151081900Y-57515329D01*
X151093107Y-57456578D01*
X151105136Y-57397981D01*
X151106035Y-57388809D01*
X151116461Y-57274255D01*
X191712731Y-57274255D01*
X191713631Y-57283426D01*
X191726586Y-57406677D01*
X191738615Y-57465274D01*
X191749822Y-57524028D01*
X191752486Y-57532850D01*
X191789133Y-57651238D01*
X191812308Y-57706368D01*
X191834722Y-57761847D01*
X191839049Y-57769983D01*
X191897992Y-57878998D01*
X191931437Y-57928582D01*
X191964197Y-57978645D01*
X191970022Y-57985786D01*
X192049018Y-58081276D01*
X192091467Y-58123430D01*
X192133315Y-58166165D01*
X192140416Y-58172039D01*
X192236455Y-58250367D01*
X192286281Y-58283472D01*
X192335638Y-58317267D01*
X192343744Y-58321650D01*
X192453167Y-58379832D01*
X192508459Y-58402621D01*
X192563455Y-58426193D01*
X192572258Y-58428918D01*
X192690899Y-58464737D01*
X192749583Y-58476357D01*
X192808094Y-58488794D01*
X192817250Y-58489756D01*
X192817255Y-58489757D01*
X192817259Y-58489757D01*
X192940597Y-58501850D01*
X192940598Y-58501850D01*
X192972581Y-58505000D01*
X196212419Y-58505000D01*
X196245022Y-58501789D01*
X196253269Y-58501789D01*
X196262433Y-58500825D01*
X196385591Y-58487011D01*
X196444065Y-58474582D01*
X196502786Y-58462955D01*
X196511589Y-58460229D01*
X196629718Y-58422756D01*
X196684662Y-58399207D01*
X196740005Y-58376396D01*
X196748111Y-58372013D01*
X196856711Y-58312309D01*
X196906041Y-58278532D01*
X196955894Y-58245410D01*
X196962995Y-58239536D01*
X197057930Y-58159875D01*
X197099757Y-58117162D01*
X197142228Y-58074987D01*
X197148052Y-58067845D01*
X197225708Y-57971262D01*
X197258471Y-57921194D01*
X197291913Y-57871616D01*
X197296239Y-57863480D01*
X197353656Y-57753652D01*
X197376074Y-57698164D01*
X197399247Y-57643039D01*
X197401910Y-57634217D01*
X197436900Y-57515329D01*
X197448107Y-57456578D01*
X197460136Y-57397981D01*
X197461035Y-57388809D01*
X197472268Y-57265389D01*
X197471851Y-57205606D01*
X197472269Y-57145745D01*
X197471369Y-57136574D01*
X197458414Y-57013323D01*
X197446387Y-56954733D01*
X197435178Y-56895971D01*
X197432514Y-56887149D01*
X197395867Y-56768762D01*
X197372692Y-56713632D01*
X197350278Y-56658153D01*
X197345951Y-56650017D01*
X197287007Y-56541002D01*
X197253565Y-56491422D01*
X197220803Y-56441355D01*
X197214978Y-56434214D01*
X197135982Y-56338724D01*
X197093566Y-56296603D01*
X197051684Y-56253834D01*
X197044584Y-56247961D01*
X196948545Y-56169633D01*
X196898703Y-56136518D01*
X196849362Y-56102733D01*
X196841256Y-56098350D01*
X196731832Y-56040168D01*
X196676554Y-56017384D01*
X196621545Y-55993807D01*
X196612741Y-55991082D01*
X196494101Y-55955262D01*
X196435372Y-55943633D01*
X196376905Y-55931206D01*
X196367747Y-55930244D01*
X196367744Y-55930243D01*
X196367741Y-55930243D01*
X196244402Y-55918150D01*
X196212419Y-55915000D01*
X192972581Y-55915000D01*
X192939977Y-55918211D01*
X192931731Y-55918211D01*
X192922566Y-55919175D01*
X192799409Y-55932989D01*
X192740942Y-55945416D01*
X192682213Y-55957045D01*
X192673410Y-55959771D01*
X192555282Y-55997244D01*
X192500310Y-56020805D01*
X192444995Y-56043604D01*
X192436889Y-56047987D01*
X192328288Y-56107691D01*
X192278958Y-56141468D01*
X192229105Y-56174590D01*
X192222005Y-56180464D01*
X192127069Y-56260125D01*
X192085206Y-56302874D01*
X192042772Y-56345013D01*
X192036948Y-56352154D01*
X191959293Y-56448738D01*
X191926547Y-56498779D01*
X191893087Y-56548384D01*
X191888761Y-56556520D01*
X191831344Y-56666348D01*
X191808926Y-56721836D01*
X191785753Y-56776961D01*
X191783090Y-56785783D01*
X191748100Y-56904671D01*
X191736892Y-56963429D01*
X191724864Y-57022020D01*
X191723965Y-57031191D01*
X191712732Y-57154611D01*
X191713149Y-57214394D01*
X191712731Y-57274255D01*
X151116461Y-57274255D01*
X151117268Y-57265389D01*
X151116851Y-57205606D01*
X151117269Y-57145745D01*
X151116369Y-57136574D01*
X151103414Y-57013323D01*
X151091387Y-56954733D01*
X151080178Y-56895971D01*
X151077514Y-56887149D01*
X151040867Y-56768762D01*
X151017692Y-56713632D01*
X150995278Y-56658153D01*
X150990951Y-56650017D01*
X150932007Y-56541002D01*
X150898565Y-56491422D01*
X150865803Y-56441355D01*
X150859978Y-56434214D01*
X150780982Y-56338724D01*
X150738566Y-56296603D01*
X150696684Y-56253834D01*
X150689584Y-56247961D01*
X150593545Y-56169633D01*
X150543703Y-56136518D01*
X150494362Y-56102733D01*
X150486256Y-56098350D01*
X150376832Y-56040168D01*
X150321554Y-56017384D01*
X150266545Y-55993807D01*
X150257741Y-55991082D01*
X150139101Y-55955262D01*
X150080372Y-55943633D01*
X150021905Y-55931206D01*
X150012747Y-55930244D01*
X150012744Y-55930243D01*
X150012741Y-55930243D01*
X149889402Y-55918150D01*
X149857419Y-55915000D01*
X146617581Y-55915000D01*
X146584977Y-55918211D01*
X146576731Y-55918211D01*
X146567566Y-55919175D01*
X146444409Y-55932989D01*
X146385942Y-55945416D01*
X146327213Y-55957045D01*
X146318410Y-55959771D01*
X146200282Y-55997244D01*
X146145310Y-56020805D01*
X146089995Y-56043604D01*
X146081889Y-56047987D01*
X145973288Y-56107691D01*
X145923958Y-56141468D01*
X145874105Y-56174590D01*
X145867005Y-56180464D01*
X145772069Y-56260125D01*
X145730206Y-56302874D01*
X145687772Y-56345013D01*
X145681948Y-56352154D01*
X145604293Y-56448738D01*
X145571547Y-56498779D01*
X145538087Y-56548384D01*
X145533761Y-56556520D01*
X145476344Y-56666348D01*
X145453926Y-56721836D01*
X145430753Y-56776961D01*
X145428090Y-56785783D01*
X145393100Y-56904671D01*
X145381892Y-56963429D01*
X145369864Y-57022020D01*
X145368965Y-57031191D01*
X145357732Y-57154611D01*
X145358149Y-57214394D01*
X145357731Y-57274255D01*
X111746461Y-57274255D01*
X111747268Y-57265389D01*
X111746851Y-57205606D01*
X111747269Y-57145745D01*
X111746369Y-57136574D01*
X111733414Y-57013323D01*
X111721387Y-56954733D01*
X111710178Y-56895971D01*
X111707514Y-56887149D01*
X111670867Y-56768762D01*
X111647692Y-56713632D01*
X111625278Y-56658153D01*
X111620951Y-56650017D01*
X111562007Y-56541002D01*
X111528565Y-56491422D01*
X111495803Y-56441355D01*
X111489978Y-56434214D01*
X111410982Y-56338724D01*
X111368566Y-56296603D01*
X111326684Y-56253834D01*
X111319584Y-56247961D01*
X111223545Y-56169633D01*
X111173703Y-56136518D01*
X111124362Y-56102733D01*
X111116256Y-56098350D01*
X111006832Y-56040168D01*
X110951554Y-56017384D01*
X110896545Y-55993807D01*
X110887741Y-55991082D01*
X110769101Y-55955262D01*
X110710372Y-55943633D01*
X110651905Y-55931206D01*
X110642747Y-55930244D01*
X110642744Y-55930243D01*
X110642741Y-55930243D01*
X110519402Y-55918150D01*
X110487419Y-55915000D01*
X107247581Y-55915000D01*
X107214977Y-55918211D01*
X107206731Y-55918211D01*
X107197566Y-55919175D01*
X107074409Y-55932989D01*
X107015942Y-55945416D01*
X106957213Y-55957045D01*
X106948410Y-55959771D01*
X106830282Y-55997244D01*
X106775310Y-56020805D01*
X106719995Y-56043604D01*
X106711889Y-56047987D01*
X106603288Y-56107691D01*
X106553958Y-56141468D01*
X106504105Y-56174590D01*
X106497005Y-56180464D01*
X106402069Y-56260125D01*
X106360206Y-56302874D01*
X106317772Y-56345013D01*
X106311948Y-56352154D01*
X106234293Y-56448738D01*
X106201547Y-56498779D01*
X106168087Y-56548384D01*
X106163761Y-56556520D01*
X106106344Y-56666348D01*
X106083926Y-56721836D01*
X106060753Y-56776961D01*
X106058090Y-56785783D01*
X106023100Y-56904671D01*
X106011892Y-56963429D01*
X105999864Y-57022020D01*
X105998965Y-57031191D01*
X105987732Y-57154611D01*
X105988149Y-57214394D01*
X105987731Y-57274255D01*
X72482000Y-57274255D01*
X72482000Y-55992606D01*
X73042606Y-55432000D01*
X204382394Y-55432000D01*
X204943000Y-55992606D01*
G36*
X245583000Y-55992606D02*
G01*
X245583000Y-58427394D01*
X245022394Y-58988000D01*
X214647606Y-58988000D01*
X214087000Y-58427394D01*
X214087000Y-55992606D01*
X214647606Y-55432000D01*
X245022394Y-55432000D01*
X245583000Y-55992606D01*
X245583000Y-55992606D01*
G37*
X245583000Y-55992606D02*
X245583000Y-58427394D01*
X245022394Y-58988000D01*
X214647606Y-58988000D01*
X214087000Y-58427394D01*
X214087000Y-55992606D01*
X214647606Y-55432000D01*
X245022394Y-55432000D01*
X245583000Y-55992606D01*
G36*
X260188000Y-144713000D02*
G01*
X256505000Y-144713000D01*
X256480224Y-144715440D01*
X256456399Y-144722667D01*
X256434443Y-144734403D01*
X256415197Y-144750197D01*
X254547394Y-146618000D01*
X244567000Y-146618000D01*
X244567000Y-141665000D01*
X244564560Y-141640224D01*
X244557333Y-141616399D01*
X244545597Y-141594443D01*
X244529803Y-141575197D01*
X242027000Y-139072394D01*
X242027000Y-137982000D01*
X244440000Y-137982000D01*
X244464776Y-137979560D01*
X244488601Y-137972333D01*
X244510557Y-137960597D01*
X244529803Y-137944803D01*
X249572606Y-132902000D01*
X260188000Y-132902000D01*
X260188000Y-144713000D01*
X260188000Y-144713000D01*
G37*
X260188000Y-144713000D02*
X256505000Y-144713000D01*
X256480224Y-144715440D01*
X256456399Y-144722667D01*
X256434443Y-144734403D01*
X256415197Y-144750197D01*
X254547394Y-146618000D01*
X244567000Y-146618000D01*
X244567000Y-141665000D01*
X244564560Y-141640224D01*
X244557333Y-141616399D01*
X244545597Y-141594443D01*
X244529803Y-141575197D01*
X242027000Y-139072394D01*
X242027000Y-137982000D01*
X244440000Y-137982000D01*
X244464776Y-137979560D01*
X244488601Y-137972333D01*
X244510557Y-137960597D01*
X244529803Y-137944803D01*
X249572606Y-132902000D01*
X260188000Y-132902000D01*
X260188000Y-144713000D01*
G36*
X259553000Y-133807699D02*
G01*
X257974344Y-132755262D01*
X259553000Y-131176606D01*
X259553000Y-133807699D01*
X259553000Y-133807699D01*
G37*
X259553000Y-133807699D02*
X257974344Y-132755262D01*
X259553000Y-131176606D01*
X259553000Y-133807699D01*
G36*
X178310197Y-138579803D02*
G01*
X178329443Y-138595597D01*
X178351399Y-138607333D01*
X178375224Y-138614560D01*
X178400000Y-138617000D01*
X181522394Y-138617000D01*
X182755197Y-139849803D01*
X182774443Y-139865597D01*
X182796399Y-139877333D01*
X182820224Y-139884560D01*
X182845000Y-139887000D01*
X190465000Y-139887000D01*
X190489776Y-139884560D01*
X190513601Y-139877333D01*
X190535557Y-139865597D01*
X190554803Y-139849803D01*
X192422606Y-137982000D01*
X234866715Y-137982000D01*
X240503000Y-142992031D01*
X240503000Y-146618000D01*
X186072606Y-146618000D01*
X185474803Y-146020197D01*
X185455557Y-146004403D01*
X185433601Y-145992667D01*
X185409776Y-145985440D01*
X185385000Y-145983000D01*
X178054291Y-145983000D01*
X178067168Y-145951912D01*
X178130000Y-145636033D01*
X178130000Y-145313967D01*
X178067168Y-144998088D01*
X177943918Y-144700537D01*
X177892000Y-144622836D01*
X177892000Y-144205000D01*
X177889560Y-144180224D01*
X177882333Y-144156399D01*
X177870597Y-144134443D01*
X177854803Y-144115197D01*
X177835557Y-144099403D01*
X177813601Y-144087667D01*
X177789776Y-144080440D01*
X177765000Y-144078000D01*
X177347164Y-144078000D01*
X177269463Y-144026082D01*
X176971912Y-143902832D01*
X176656033Y-143840000D01*
X176333967Y-143840000D01*
X176018088Y-143902832D01*
X175720537Y-144026082D01*
X175642836Y-144078000D01*
X172102606Y-144078000D01*
X171542000Y-143517394D01*
X171542000Y-139760000D01*
X171539560Y-139735224D01*
X171532333Y-139711399D01*
X171520597Y-139689443D01*
X171504803Y-139670197D01*
X169637000Y-137802394D01*
X169637000Y-136712000D01*
X176442394Y-136712000D01*
X178310197Y-138579803D01*
X178310197Y-138579803D01*
G37*
X178310197Y-138579803D02*
X178329443Y-138595597D01*
X178351399Y-138607333D01*
X178375224Y-138614560D01*
X178400000Y-138617000D01*
X181522394Y-138617000D01*
X182755197Y-139849803D01*
X182774443Y-139865597D01*
X182796399Y-139877333D01*
X182820224Y-139884560D01*
X182845000Y-139887000D01*
X190465000Y-139887000D01*
X190489776Y-139884560D01*
X190513601Y-139877333D01*
X190535557Y-139865597D01*
X190554803Y-139849803D01*
X192422606Y-137982000D01*
X234866715Y-137982000D01*
X240503000Y-142992031D01*
X240503000Y-146618000D01*
X186072606Y-146618000D01*
X185474803Y-146020197D01*
X185455557Y-146004403D01*
X185433601Y-145992667D01*
X185409776Y-145985440D01*
X185385000Y-145983000D01*
X178054291Y-145983000D01*
X178067168Y-145951912D01*
X178130000Y-145636033D01*
X178130000Y-145313967D01*
X178067168Y-144998088D01*
X177943918Y-144700537D01*
X177892000Y-144622836D01*
X177892000Y-144205000D01*
X177889560Y-144180224D01*
X177882333Y-144156399D01*
X177870597Y-144134443D01*
X177854803Y-144115197D01*
X177835557Y-144099403D01*
X177813601Y-144087667D01*
X177789776Y-144080440D01*
X177765000Y-144078000D01*
X177347164Y-144078000D01*
X177269463Y-144026082D01*
X176971912Y-143902832D01*
X176656033Y-143840000D01*
X176333967Y-143840000D01*
X176018088Y-143902832D01*
X175720537Y-144026082D01*
X175642836Y-144078000D01*
X172102606Y-144078000D01*
X171542000Y-143517394D01*
X171542000Y-139760000D01*
X171539560Y-139735224D01*
X171532333Y-139711399D01*
X171520597Y-139689443D01*
X171504803Y-139670197D01*
X169637000Y-137802394D01*
X169637000Y-136712000D01*
X176442394Y-136712000D01*
X178310197Y-138579803D01*
M02*
